<?xml version="1.0" encoding="UTF-8" standalone="no"?>
<!-- Created with Inkscape (http://www.inkscape.org/) -->

<svg
   width="21.880322mm"
   height="19.714916mm"
   viewBox="0 0 21.880322 19.714916"
   version="1.1"
   id="svg22248"
   inkscape:version="1.1.1 (3bf5ae0d25, 2021-09-20)"
   sodipodi:docname="new_icon.svg"
   xmlns:inkscape="http://www.inkscape.org/namespaces/inkscape"
   xmlns:sodipodi="http://sodipodi.sourceforge.net/DTD/sodipodi-0.dtd"
   xmlns="http://www.w3.org/2000/svg"
   xmlns:svg="http://www.w3.org/2000/svg">
  <sodipodi:namedview
     id="namedview22250"
     pagecolor="#ffffff"
     bordercolor="#666666"
     borderopacity="1.0"
     inkscape:pageshadow="2"
     inkscape:pageopacity="0.0"
     inkscape:pagecheckerboard="0"
     inkscape:document-units="mm"
     showgrid="false"
     fit-margin-top="0"
     fit-margin-left="0"
     fit-margin-right="0"
     fit-margin-bottom="0"
     inkscape:zoom="2.1997092"
     inkscape:cx="-128.42607"
     inkscape:cy="44.778646"
     inkscape:window-width="2560"
     inkscape:window-height="1369"
     inkscape:window-x="-8"
     inkscape:window-y="-8"
     inkscape:window-maximized="1"
     inkscape:current-layer="g30638" />
  <defs
     id="defs22245">
    <clipPath
       clipPathUnits="userSpaceOnUse"
       id="clipPath3531">
      <path
         d="m 45.601,91.668 h 288.66 v 70.33 H 45.601 Z"
         id="path3529" />
    </clipPath>
    <clipPath
       clipPathUnits="userSpaceOnUse"
       id="clipPath3551">
      <path
         d="m 216.998,147.974 -1.089,-0.665 -22.476,-13.099 c -0.442,-0.254 -1.076,-0.514 -1.443,-0.969 v 0 c -0.55,-0.685 -0.405,-1.276 -0.405,-2.109 v 0 l -0.046,-27.212 c 0.002,-0.289 1.643,-2.955 1.964,-2.77 v 0 l 27.238,12.291 2.936,4.024 c 0.544,0.685 -3.883,28.897 -3.883,28.897 v 0 l -2.044,1.223 c 0,0.101 -0.014,0.199 -0.052,0.289 v 0 c -0.066,0.171 -0.175,0.234 -0.301,0.234 v 0 c -0.123,0 -0.263,-0.059 -0.399,-0.134"
         id="path3549" />
    </clipPath>
    <clipPath
       clipPathUnits="userSpaceOnUse"
       id="clipPath3567">
      <path
         d="m 45.601,91.668 h 288.66 v 70.33 H 45.601 Z"
         id="path3565" />
    </clipPath>
    <clipPath
       clipPathUnits="userSpaceOnUse"
       id="clipPath4027">
      <path
         d="m 81.321,155.197 -31.818,-7.619 18.747,-47.29 31.817,7.617 -10.848,27.369 z"
         id="path4025" />
    </clipPath>
    <clipPath
       clipPathUnits="userSpaceOnUse"
       id="clipPath4039">
      <path
         d="m 45.601,91.668 h 288.66 v 70.33 H 45.601 Z"
         id="path4037" />
    </clipPath>
    <clipPath
       clipPathUnits="userSpaceOnUse"
       id="clipPath4173">
      <path
         d="M 47.574,203.905 H 361.696 V 441.341 H 47.574 Z"
         id="path4171" />
    </clipPath>
    <clipPath
       clipPathUnits="userSpaceOnUse"
       id="clipPath4757">
      <path
         d="M 47.574,203.905 H 361.696 V 441.341 H 47.574 Z"
         id="path4755" />
    </clipPath>
    <clipPath
       clipPathUnits="userSpaceOnUse"
       id="clipPath4817">
      <path
         d="m 75.474,266.392 c -2.235,-0.306 -4.043,-3.039 -4.043,-6.102 v 0 c 0,-3.069 1.808,-5.312 4.043,-5.005 v 0 c 2.233,0.304 4.04,3.04 4.04,6.108 v 0 c 0,2.878 -1.593,5.026 -3.636,5.027 v 0 c -0.133,0 -0.268,-0.01 -0.404,-0.028 m -2.579,-5.903 c 0,1.953 1.154,3.698 2.579,3.89 v 0 c 1.422,0.197 2.577,-1.232 2.577,-3.186 v 0 c 0,-1.955 -1.155,-3.7 -2.577,-3.895 v 0 c -0.086,-0.011 -0.172,-0.017 -0.256,-0.017 v 0 c -1.305,0 -2.323,1.37 -2.323,3.208"
         id="path4815" />
    </clipPath>
    <clipPath
       clipPathUnits="userSpaceOnUse"
       id="clipPath4941">
      <path
         d="M 47.574,203.905 H 361.696 V 441.341 H 47.574 Z"
         id="path4939" />
    </clipPath>
    <clipPath
       clipPathUnits="userSpaceOnUse"
       id="clipPath5015">
      <path
         d="M 47.574,203.905 H 361.696 V 441.341 H 47.574 Z"
         id="path5013" />
    </clipPath>
    <clipPath
       clipPathUnits="userSpaceOnUse"
       id="clipPath5087">
      <path
         d="m 253.677,266.571 c -2.235,-0.305 -4.043,-3.038 -4.043,-6.101 v 0 c 0,-3.07 1.808,-5.311 4.043,-5.006 v 0 c 2.233,0.306 4.041,3.042 4.041,6.109 v 0 c 0,2.876 -1.593,5.026 -3.635,5.026 v 0 c -0.134,0 -0.269,-0.009 -0.406,-0.028 m -2.58,-5.903 c 0,1.953 1.155,3.699 2.58,3.891 v 0 c 1.422,0.197 2.576,-1.233 2.576,-3.186 v 0 c 0,-1.955 -1.154,-3.699 -2.576,-3.895 v 0 c -0.087,-0.012 -0.173,-0.017 -0.258,-0.017 v 0 c -1.304,0 -2.322,1.37 -2.322,3.207"
         id="path5085" />
    </clipPath>
    <clipPath
       clipPathUnits="userSpaceOnUse"
       id="clipPath5211">
      <path
         d="M 47.574,203.905 H 361.696 V 441.341 H 47.574 Z"
         id="path5209" />
    </clipPath>
    <clipPath
       clipPathUnits="userSpaceOnUse"
       id="clipPath5485">
      <path
         d="m 38.372,174.507 h 14.08 v 16.525 h -14.08 z"
         id="path5483" />
    </clipPath>
    <clipPath
       clipPathUnits="userSpaceOnUse"
       id="clipPath5497">
      <path
         d="m 35.365,172.849 h 22.252 v 19.842 H 35.365 Z"
         id="path5495" />
    </clipPath>
  </defs>
  <g
     inkscape:label="Lager 1"
     id="layer1"
     transform="translate(-90.402582,-110.12359)">
    <g
       id="g30638"
       inkscape:label="Module"
       style="fill:none;stroke:#000000;stroke-width:0.153;stroke-miterlimit:4;stroke-dasharray:none;stroke-opacity:1">
      <path
         d="m 92.960493,114.09696 0.176036,0.0236 0.189795,0.11006 m -0.189795,-0.11006 0.988131,-1.54164 m -0.202495,1.78223 0.83185,-1.29681 c -0.0056,-0.009 -0.142875,-0.17921 -0.142875,-0.17921 l -0.48648,-0.30621 -0.169334,-0.0332 -0.994833,1.55116 0.05433,0.0663 m 1.596319,-1.27811 -0.914753,1.42663 m 3.219803,13.00233 c 0.414161,-0.95109 1.375481,-0.67486 1.375481,0.34537 m 0,0 c 0,0.40887 -0.197909,0.9712 -0.635,1.137 -0.233186,0.0879 -0.460728,0.0187 -0.622653,-0.16439 -0.168628,-0.1905 -0.220839,-0.38947 -0.236714,-0.63324 m 1.668286,-0.33972 c 0,0.46708 -0.236714,1.13347 -0.758472,1.28693 -0.2794,0.0825 -0.530931,-0.0374 -0.695678,-0.2607 -0.172155,-0.2353 -0.218722,-0.4699 -0.218722,-0.75071 m 0,0 c 0,-0.46743 0.236361,-1.13277 0.759178,-1.28694 0.278694,-0.0825 0.530577,0.0367 0.695325,0.26035 0.172155,0.23531 0.218369,0.47026 0.218369,0.75107 m 0.295275,-0.64558 c 0.413808,-0.95109 1.375483,-0.67522 1.375483,0.34501 m 0,0 c 0,0.40887 -0.198616,0.97155 -0.635355,1.137 -0.233539,0.0879 -0.460375,0.0183 -0.622653,-0.16404 -0.168275,-0.1905 -0.220486,-0.38982 -0.236361,-0.63323 m 1.668289,-0.33973 c 0,0.46708 -0.23672,1.13312 -0.758828,1.28694 -0.2794,0.0818 -0.531283,-0.037 -0.694972,-0.26071 -0.172508,-0.23495 -0.219428,-0.4699 -0.219428,-0.75141 m 0,0 c 0,-0.46708 0.236714,-1.13277 0.759531,-1.28623 0.278694,-0.0826 0.530225,0.0367 0.695327,0.2607 0.1718,0.23425 0.21837,0.4692 0.21837,0.75071 m 0.29456,-0.64593 c 0.41452,-0.95109 1.37584,-0.67487 1.37584,0.34537 m 0,0 c 0,0.40886 -0.19862,0.97155 -0.63535,1.137 -0.23319,0.0878 -0.46038,0.0187 -0.6223,-0.16404 -0.16899,-0.1905 -0.22084,-0.38982 -0.23672,-0.63359 m 1.66864,-0.34008 c 0,0.46778 -0.23707,1.13347 -0.75918,1.28729 -0.2794,0.0822 -0.53093,-0.0371 -0.69532,-0.26071 -0.17286,-0.2353 -0.21908,-0.4699 -0.21908,-0.75071 m 0,0 c 0,-0.46708 0.23707,-1.13312 0.75918,-1.28658 0.2794,-0.0825 0.53128,0.0367 0.69568,0.26035 0.1718,0.23495 0.21872,0.4699 0.21872,0.75036 m 0.29492,-0.64558 c 0.41346,-0.95109 1.37548,-0.67451 1.37548,0.34537 m 0,0 c 0,0.40887 -0.19826,0.97155 -0.63535,1.137 -0.23354,0.0878 -0.46073,0.0191 -0.6223,-0.16369 -0.16933,-0.1905 -0.22119,-0.38982 -0.23707,-0.63324 m 1.66829,-0.34007 c 0,0.46743 -0.23601,1.13277 -0.75847,1.28658 -0.27905,0.0822 -0.53129,-0.0363 -0.69533,-0.26071 -0.17251,-0.23424 -0.21907,-0.46954 -0.21907,-0.75071 m 0,0 c 0,-0.46778 0.23706,-1.13312 0.75917,-1.28693 0.27905,-0.0822 0.53094,0.0367 0.69498,0.26105 0.17251,0.2346 0.21872,0.46955 0.21872,0.75072 m 0.29492,-0.64559 c 0.41416,-0.95144 1.37513,-0.67521 1.37513,0.34431 m 0,0 c 0,0.40993 -0.19756,0.97191 -0.63465,1.13771 -0.23318,0.0882 -0.46073,0.0183 -0.62265,-0.16404 -0.16828,-0.1905 -0.22049,-0.38982 -0.23636,-0.63359 m 1.66828,-0.34008 c 0,0.46743 -0.23671,1.13348 -0.75882,1.28729 -0.27905,0.0822 -0.53093,-0.037 -0.69533,-0.2607 -0.1725,-0.23495 -0.21872,-0.4699 -0.21872,-0.75107 m 0,0 c 0,-0.46743 0.23601,-1.13312 0.75883,-1.28658 0.27869,-0.0822 0.53057,0.037 0.69497,0.26071 0.17286,0.23495 0.21907,0.4699 0.21907,0.75035 m 0.29528,-0.64523 c 0.41381,-0.95109 1.37477,-0.67486 1.37477,0.34537 m 0,0 c 0,0.40852 -0.1979,0.97155 -0.63464,1.1363 -0.23354,0.0882 -0.46073,0.0191 -0.62301,-0.16334 -0.16827,-0.19085 -0.22013,-0.39017 -0.23636,-0.63323 m 1.66829,-0.34008 c 0,0.46743 -0.23672,1.13312 -0.75883,1.28658 -0.27869,0.0818 -0.53128,-0.0367 -0.69497,-0.26106 -0.17251,-0.23424 -0.21943,-0.46919 -0.21943,-0.75035 m 0,0 c 0,-0.46708 0.23707,-1.13313 0.75953,-1.28694 0.27905,-0.0818 0.53058,0.037 0.69497,0.26035 0.17251,0.23531 0.21873,0.47026 0.21873,0.75142 m -8.981018,2.96404 0.92957,0.11183 c 0.04515,0.005 0.07338,-0.007 0.100541,-0.0448 l 0.07691,-0.0945 c 0.01729,-0.0215 0.03387,-0.0455 0.04798,-0.0695 0.0099,-0.0183 0.01834,-0.0363 0.02364,-0.0571 0.0035,-0.0138 0.0049,-0.0289 -3.53e-4,-0.042 -0.0049,-0.0106 -0.01411,-0.019 -0.02575,-0.0226 -0.006,-0.002 -0.01199,-0.002 -0.01834,-0.002 -0.0081,-3.5e-4 -0.01517,-3.5e-4 -0.02293,0.001 l -0.978253,0.16157 c -0.02787,0.005 -0.05433,0.0152 -0.07937,0.0279 -0.03281,0.0159 -0.06385,0.0346 -0.09313,0.0561 -0.03175,0.024 -0.06209,0.049 -0.09031,0.0762 -0.01446,0.0134 -0.02858,0.0279 -0.04198,0.0427 -0.0127,0.0138 -0.02469,0.0289 -0.03598,0.0434 l -0.07303,0.0945 c -0.02646,0.037 -0.03704,0.0367 -0.06985,0.0437 l -0.522464,0.0878 m 2.716037,-0.7179 0.92992,0.11218 c 0.0455,0.005 0.0734,-0.008 0.10019,-0.0444 l 0.0766,-0.0953 c 0.018,-0.0215 0.0342,-0.0451 0.048,-0.0691 0.0106,-0.0184 0.0194,-0.0367 0.0243,-0.0572 0.003,-0.0141 0.005,-0.0293 -3.5e-4,-0.042 -0.005,-0.0102 -0.0141,-0.0191 -0.0258,-0.0226 -0.006,-0.002 -0.0123,-0.002 -0.0183,-0.002 -0.008,0 -0.0155,-7.1e-4 -0.0233,0.001 l -0.97825,0.16051 c -0.0275,0.005 -0.054,0.0155 -0.079,0.0279 -0.0328,0.0162 -0.0635,0.036 -0.0931,0.0575 -0.0317,0.0229 -0.0617,0.048 -0.091,0.0755 -0.0138,0.0141 -0.0279,0.0282 -0.0413,0.043 -0.0127,0.0134 -0.0247,0.0279 -0.037,0.043 l -0.072,0.0945 c -0.0261,0.037 -0.0282,0.0349 -0.0699,0.0434 l -0.525638,0.0885 m 2.719218,-0.71826 0.92992,0.11219 c 0.0451,0.005 0.0737,-0.008 0.0998,-0.0448 l 0.0773,-0.0945 c 0.0173,-0.0219 0.0342,-0.0455 0.0476,-0.0695 0.01,-0.0183 0.0191,-0.0363 0.0236,-0.0575 0.004,-0.0138 0.005,-0.0286 -3.5e-4,-0.0413 -0.004,-0.0109 -0.0138,-0.0197 -0.025,-0.0226 -0.006,-0.002 -0.0123,-0.002 -0.0191,-0.002 -0.007,-3.6e-4 -0.0148,-3.6e-4 -0.0229,0.001 l -0.9779,0.16122 c -0.0279,0.005 -0.054,0.0152 -0.0794,0.0279 -0.0325,0.0159 -0.0635,0.0353 -0.0931,0.0568 -0.0318,0.0233 -0.0624,0.0483 -0.0903,0.0755 -0.0145,0.0141 -0.0282,0.0286 -0.0416,0.0434 -0.0131,0.0141 -0.0251,0.0282 -0.0367,0.0427 l -0.073,0.0949 c -0.0261,0.0367 -0.0282,0.0353 -0.0695,0.0437 l -0.52599,0.0878 m 2.71957,-0.7179 0.92957,0.11183 c 0.0459,0.005 0.0734,-0.007 0.10054,-0.0445 l 0.0765,-0.0949 c 0.018,-0.0215 0.0342,-0.0455 0.048,-0.0695 0.0106,-0.018 0.0191,-0.0367 0.024,-0.0568 0.004,-0.0141 0.005,-0.0289 -7.1e-4,-0.042 -0.005,-0.0106 -0.0138,-0.019 -0.0247,-0.0222 -0.006,-0.002 -0.0131,-0.002 -0.0187,-0.002 -0.008,0 -0.0148,0 -0.0233,0.002 l -0.9779,0.16051 c -0.0279,0.005 -0.0543,0.0155 -0.0794,0.0286 -0.0328,0.0159 -0.0635,0.0349 -0.0928,0.0564 -0.0321,0.0233 -0.0624,0.048 -0.0914,0.0759 -0.0138,0.0138 -0.0279,0.0279 -0.0413,0.0427 -0.0123,0.0141 -0.0243,0.0286 -0.0363,0.0434 l -0.073,0.0942 c -0.0258,0.037 -0.0194,0.0384 -0.0691,0.0444 l -0.52564,0.0875 m -10.939286,0.641 c -0.06491,-0.009 -0.107597,-0.0335 -0.146756,-0.0864 l -0.551039,-0.67839 c -0.06103,-0.0843 -0.08678,-0.16581 -0.08431,-0.27023 v -13.92908 c 7.06e-4,-0.11042 0.02681,-0.2032 0.08431,-0.29739 l 1.271411,-1.98261 c 0.05151,-0.0801 0.102659,-0.13476 0.203553,-0.15099 l 9.265357,-1.52364 c 0.025,-0.004 0.0466,-0.003 0.0741,0.001 m 3.54189,17.5581 0.92922,0.11218 c 0.0459,0.006 0.0737,-0.007 0.10089,-0.0444 l 0.0766,-0.0949 c 0.0173,-0.0208 0.0332,-0.0434 0.0462,-0.0677 0.0109,-0.0183 0.0205,-0.0377 0.0254,-0.0593 0.004,-0.013 0.005,-0.0286 -7.1e-4,-0.0409 -0.004,-0.0106 -0.0138,-0.0198 -0.0254,-0.0229 -0.006,-0.002 -0.012,-0.002 -0.0183,-0.002 -0.007,0 -0.0152,-3.6e-4 -0.0226,0.002 l -0.9786,0.16052 c -0.0279,0.005 -0.054,0.0148 -0.0794,0.0275 -0.0324,0.0162 -0.0638,0.036 -0.0924,0.0571 -0.0324,0.0229 -0.0628,0.048 -0.0914,0.0758 -0.0145,0.0141 -0.0282,0.0279 -0.0413,0.0427 -0.0127,0.0141 -0.0254,0.0286 -0.0367,0.043 l -0.0727,0.0949 c -0.0261,0.0367 -0.0229,0.0356 -0.0691,0.0438 l -0.52422,0.0871"
         style="fill:none;stroke:#000000;stroke-width:0.153;stroke-linecap:round;stroke-linejoin:round;stroke-miterlimit:4;stroke-dasharray:none;stroke-opacity:1"
         id="path5027" />
      <path
         d="M 95.647848,114.93594 91.65899,114.1556 90.536451,113.96122"
         style="fill:none;stroke:#000000;stroke-width:0.153;stroke-linecap:round;stroke-linejoin:round;stroke-miterlimit:4;stroke-dasharray:none;stroke-opacity:1"
         id="path5031" />
      <path
         d="m 99.971386,115.31045 0.163334,0.0314 m 0,-0.95638 c -0.154515,0.0261 -0.258584,0.1785 -0.304445,0.30903 l -0.0381,0.23777 c 0.0032,0.19368 0.103717,0.44979 0.342545,0.40958 m 0,-0.95638 c 0.25965,-0.042 0.35243,0.24659 0.3422,0.45508 -0.01,0.18979 -0.11854,0.46461 -0.3422,0.5013"
         style="fill:#ff00ff;fill-opacity:1;fill-rule:nonzero;stroke:#000000;stroke-width:0.153;stroke-linecap:butt;stroke-linejoin:miter;stroke-miterlimit:4;stroke-dasharray:none;stroke-opacity:1"
         id="path5023"
         inkscape:label="LED" />
      <path
         d="m 97.085805,112.67827 c 0.02223,-0.0145 0.0448,-0.0229 0.07091,-0.0275 m 9.261475,-1.50495 c -0.0275,-0.006 -0.0536,-0.009 -0.0811,-0.004 l -9.180335,1.50918 m 10.733615,0.78881 c 7.1e-4,-0.0709 -0.0275,-0.11006 -0.1016,-0.13758 l -1.13771,-1.41076 m 0.40711,16.12406 0.0261,-0.004 0.0321,-0.007 c 0.004,-10e-4 0.007,-0.002 0.0116,-0.004 l 0.0113,-0.004 c 0.0631,-0.0205 0.11006,-0.0526 0.15204,-0.10336 l 0.0381,-0.0557 c 0,0 0.49918,-0.77964 0.50377,-0.78634 0.0402,-0.066 0.0586,-0.13017 0.0589,-0.20743 v -0.0314 -13.80349 l -0.002,-0.0744 c -0.0102,-0.0748 -0.0427,-0.109 -0.11535,-0.12664 l -0.003,-3.6e-4 c -0.1584,-0.0392 -0.31715,-0.0769 -0.4766,-0.115 m -11.621205,2.18793 c -0.01023,0.0353 -0.01587,0.0702 -0.01587,0.10689 v 13.81054 c 0,0.0166 0.0011,0.0325 0.0039,0.049 0.0078,0.0674 0.02681,0.12806 0.05891,0.18803 l 0.02152,0.0328 0.491419,0.60466 c 0.0085,0.01 0.01764,0.0198 0.02752,0.0282 0.03528,0.0325 0.07232,0.0508 0.119944,0.0579 m 8.598962,-15.99177 c 0.0381,0.0448 0.0526,0.0871 0.0494,0.14499 v 0.17921 3.5e-4 c 0.001,0.0833 -0.0444,0.21061 -0.14323,0.22472 l -0.68015,0.11219 m -0.042,-0.0938 c 0.006,0.0395 0.0261,0.0801 0.055,0.10865 0.0116,0.0116 0.0261,0.0215 0.0423,0.0268 0.008,0.002 0.0159,0.005 0.024,0.005 0.008,7.1e-4 0.0162,3.6e-4 0.024,-0.001 l 0.75212,-0.12347 c 0.0441,-0.008 0.0794,-0.0388 0.10266,-0.0751 0.0141,-0.0226 0.0243,-0.0469 0.0318,-0.072 0.003,-0.0131 0.006,-0.0258 0.007,-0.0385 0.001,-0.013 0.002,-0.0261 0.002,-0.0392 v -0.19191 c 3.5e-4,-0.0476 -0.0113,-0.0984 -0.0413,-0.13547 -0.0123,-0.0159 -0.0289,-0.0293 -0.0476,-0.0363 -0.009,-0.003 -0.0183,-0.006 -0.0272,-0.007 -0.01,-0.001 -0.0183,-0.001 -0.0279,0.001 l -0.75212,0.12347 c -0.0635,0.0173 -0.10019,0.0473 -0.12206,0.10901 m 0.1838,0.58385 c -0.0131,0.002 -0.0261,0.003 -0.0392,0.001 -0.0131,-0.001 -0.0261,-0.005 -0.0388,-0.009 -0.0272,-0.0113 -0.0494,-0.03 -0.0681,-0.0526 -0.0434,-0.0529 -0.0603,-0.12382 -0.0614,-0.19085 v -0.1965 c 3.6e-4,-0.0183 10e-4,-0.037 0.004,-0.0554 0.002,-0.0187 0.006,-0.0378 0.0113,-0.0557 0.0106,-0.0363 0.0251,-0.0706 0.0459,-0.10301 0.0335,-0.0526 0.0832,-0.0977 0.14605,-0.10901 l 0.75247,-0.12383 c 0.013,-0.002 0.0261,-0.002 0.0392,-0.001 0.013,0.001 0.0265,0.005 0.0392,0.01 0.0268,0.0106 0.0497,0.0296 0.0684,0.0519 0.0441,0.0536 0.06,0.12629 0.06,0.19473 v 0.19227 c 0,0.0187 -7.1e-4,0.0374 -0.004,0.0561 -0.002,0.0183 -0.006,0.037 -0.0109,0.0554 -0.01,0.0371 -0.0247,0.0713 -0.0451,0.10266 -0.0346,0.0529 -0.0833,0.0988 -0.14711,0.10936 z"
         style="display:inline;fill:none;stroke:#000000;stroke-width:0.153;stroke-linecap:round;stroke-linejoin:round;stroke-miterlimit:4;stroke-dasharray:none;stroke-opacity:1"
         id="path5035" />
      <path
         d="m 105.01498,114.21881 0.14958,0.0293"
         style="display:inline;fill:none;stroke:#000000;stroke-width:0.153;stroke-linecap:round;stroke-linejoin:round;stroke-miterlimit:4;stroke-dasharray:none;stroke-opacity:1"
         id="path5039" />
      <path
         d="m 102.67395,114.14547 c 0.0377,0.0437 0.0526,0.0868 0.0501,0.14499 v 0.17957 c 7.1e-4,0.0833 -0.0448,0.21025 -0.14463,0.22401 l -0.67981,0.11218 m -0.0413,-0.0935 c 0.006,0.0402 0.0258,0.0801 0.0554,0.10865 0.0117,0.0113 0.0258,0.0212 0.0416,0.0268 0.007,0.002 0.0155,0.004 0.0233,0.005 0.008,3.5e-4 0.0166,0 0.0247,-0.002 l 0.75247,-0.12277 c 0.0437,-0.008 0.0794,-0.0392 0.10266,-0.0762 0.0141,-0.0219 0.024,-0.0459 0.0307,-0.0709 0.004,-0.0127 0.007,-0.0265 0.008,-0.0392 0.001,-0.013 0.002,-0.0258 0.002,-0.0388 v -0.19226 c 3.6e-4,-0.0473 -0.0106,-0.0977 -0.0413,-0.13512 -0.0127,-0.0152 -0.0286,-0.0289 -0.0476,-0.0363 -0.008,-0.003 -0.0176,-0.005 -0.0272,-0.006 -0.009,-10e-4 -0.0187,-10e-4 -0.0275,0.001 l -0.75247,0.12348 c -0.0632,0.0169 -0.10019,0.0473 -0.12206,0.109 m 0.1845,0.5835 c -0.0134,0.002 -0.0268,0.003 -0.0402,0.001 -0.0127,-0.001 -0.0258,-0.005 -0.0385,-0.009 -0.0265,-0.0109 -0.0497,-0.0303 -0.0681,-0.0519 -0.043,-0.0536 -0.06,-0.12418 -0.061,-0.19156 v -0.19615 c 0,-0.0187 0.001,-0.0374 0.004,-0.0557 0.003,-0.0183 0.007,-0.0374 0.0116,-0.0557 0.0102,-0.0367 0.025,-0.0706 0.0455,-0.10266 0.0342,-0.0533 0.0833,-0.0984 0.14711,-0.10901 l 0.75177,-0.12383 c 0.013,-0.002 0.0261,-0.002 0.0395,-10e-4 0.0131,10e-4 0.0265,0.005 0.0388,0.01 0.0272,0.0106 0.0504,0.03 0.0684,0.0526 0.0437,0.0536 0.0607,0.12594 0.0607,0.19438 v 0.19227 c 0,0.019 -0.001,0.0374 -0.004,0.0561 -0.002,0.0187 -0.007,0.0378 -0.0117,0.0561 -0.0106,0.0356 -0.025,0.0706 -0.0451,0.10231 -0.0339,0.0529 -0.084,0.0984 -0.14711,0.10936 z"
         style="display:inline;fill:none;stroke:#000000;stroke-width:0.153;stroke-linecap:round;stroke-linejoin:round;stroke-miterlimit:4;stroke-dasharray:none;stroke-opacity:1"
         id="path5043" />
      <path
         d="m 102.70947,114.59703 0.14922,0.0286"
         style="display:inline;fill:none;stroke:#000000;stroke-width:0.153;stroke-linecap:round;stroke-linejoin:round;stroke-miterlimit:4;stroke-dasharray:none;stroke-opacity:1"
         id="path5047" />
      <path
         d="m 100.49808,114.80816 c 0,0.20038 -0.1016,0.48648 -0.32597,0.55245 -0.271283,0.0794 -0.391933,-0.20779 -0.391933,-0.43427 m -0.250119,0.0677 c 0,-0.38558 0.195791,-0.93521 0.626882,-1.06221 0.23072,-0.0681 0.43851,0.03 0.57433,0.21519 0.14217,0.19368 0.18097,0.38771 0.18097,0.62019 m 0,0 c 0,0.38594 -0.19544,0.93556 -0.62724,1.06256 -0.23071,0.0674 -0.438148,-0.03 -0.573967,-0.21554 -0.141817,-0.19368 -0.180975,-0.38771 -0.180975,-0.62019"
         style="display:inline;fill:none;stroke:#000000;stroke-width:0.153;stroke-linecap:round;stroke-linejoin:round;stroke-miterlimit:4;stroke-dasharray:none;stroke-opacity:1"
         id="path5051" />
      <path
         d="m 99.780216,114.92631 c 0,-0.20073 0.101247,-0.48648 0.325964,-0.5528 0.27094,-0.0794 0.39194,0.20884 0.39194,0.43462"
         style="display:inline;fill:none;fill-opacity:1;fill-rule:nonzero;stroke:#000000;stroke-width:0.153;stroke-linecap:butt;stroke-linejoin:miter;stroke-miterlimit:4;stroke-dasharray:none;stroke-opacity:1"
         id="path5055" />
      <path
         d="m 102.16535,115.24487 c -0.16439,0.0272 -0.2981,-0.0649 -0.37888,-0.1972 -0.0861,-0.14076 -0.10689,-0.27729 -0.0984,-0.4378 0.0123,-0.26423 0.1644,-0.64911 0.47731,-0.70026 l 3.02331,-0.49742 c 0.16439,-0.0272 0.29845,0.0646 0.37923,0.1972 0.0857,0.14076 0.10654,0.27729 0.0988,0.43745 -0.013,0.26493 -0.16475,0.64911 -0.47801,0.70061 z"
         style="fill:none;stroke:#000000;stroke-width:0.153;stroke-linecap:round;stroke-linejoin:round;stroke-miterlimit:4;stroke-dasharray:none;stroke-opacity:1"
         id="path5059" />
      <path
         d="m 90.592437,128.17576 1.077736,0.22648 3.947936,0.54928"
         style="fill:none;stroke:#000000;stroke-width:0.153;stroke-linecap:round;stroke-linejoin:round;stroke-miterlimit:4;stroke-dasharray:none;stroke-opacity:1"
         id="path5063" />
      <path
         d="m 97.84777,113.40019 8.77817,-1.44286 c 0.0272,-0.0155 0.0339,-0.0328 0.0261,-0.0628 h 3.6e-4 c -0.012,-0.0293 -0.0268,-0.0568 -0.0462,-0.0825 l -0.003,-0.004 c -0.0413,-0.0543 -0.0797,-0.1009 -0.0773,-0.17745 l 3.6e-4,-0.003 0.0116,-0.33056 -10e-4,-0.0264 c -0.008,-0.0632 -0.0335,-0.0963 -0.0928,-0.11924 l -0.0667,-0.0166 -3.83963,-0.7867 -0.13371,-0.0173 -1.03081,-0.12912 c -0.0187,-0.002 -0.0526,-0.002 -0.0804,0.002 l -9.240656,1.51942 -0.0046,7e-4 c -0.0078,10e-4 -0.01587,0.003 -0.02364,0.005 l -0.01094,0.003 c -0.07444,0.0194 -0.128059,0.055 -0.175684,0.11536 l -0.0063,0.009 c -0.0039,0.005 -0.0071,0.0102 -0.0099,0.0152 l -0.0035,0.007 c -0.0381,0.0709 -0.05997,0.14358 -0.06703,0.22402 l -7.06e-4,0.006 -0.0018,0.019 h -3.53e-4 c -0.02081,0.049 -0.0568,0.0804 -0.09384,0.11395 l -0.119239,0.11288 c -0.02011,0.0205 -0.03739,0.0413 -0.05292,0.0656 l -0.0046,0.007 -0.905933,1.41006 c -0.0127,0.009 -0.02434,0.0212 -0.03457,0.037 l -0.0063,0.01 c -0.03634,0.0653 -0.05186,0.12841 -0.05115,0.20249 v 0.0205 13.89486 0.0205 c -3.53e-4,0.0166 7.05e-4,0.0332 0.0032,0.0494 v 3.5e-4 c 0.0081,0.0632 0.02858,0.11642 0.06668,0.16792 l 0.02681,0.0349 0.524933,0.64594 0.02611,0.0289 c 0.03316,0.0346 0.0702,0.0572 0.115711,0.0727 l 0.03739,0.01 1.001889,0.20567 0.139348,0.0279 3.945113,0.49212 0.01446,0.002 c 0.0127,0.002 0.02505,0.002 0.03775,0.002 l 0.0187,-3.5e-4 c 0.0088,-0.001 0.01799,-0.002 0.02681,-0.003 l 0.0021,-3.6e-4 0.04762,-0.008 c 0.03069,-0.006 0.0508,-0.0191 0.0695,-0.0434 l 0.07232,-0.0949 c 0.01199,-0.0148 0.02399,-0.0293 0.03634,-0.043 0.01411,-0.0148 0.02787,-0.0293 0.04233,-0.043 0.02893,-0.0279 0.05962,-0.0536 0.09172,-0.0769 0.02858,-0.0212 0.05927,-0.0395 0.09102,-0.0554 0.02575,-0.0123 0.05186,-0.0229 0.07973,-0.0282 l 0.978606,-0.16122 c 0.0071,-0.002 0.01446,-0.001 0.02223,-0.001 0.0067,3.5e-4 0.01305,3.5e-4 0.01905,0.002 0.01058,0.004 0.02081,0.0127 0.02505,0.0226 0.006,0.0134 0.0042,0.0286 3.53e-4,0.0427 -0.01164,0.048 -0.04233,0.0871 -0.07126,0.12594 l -0.07655,0.0956 c -0.02716,0.0363 -0.05468,0.0494 -0.100542,0.0445 l -0.929569,-0.11253"
         style="fill:none;stroke:#000000;stroke-width:0.153;stroke-linecap:round;stroke-linejoin:round;stroke-miterlimit:4;stroke-dasharray:none;stroke-opacity:1"
         id="path5067" />
      <path
         d="m 97.658117,113.35648 -3.032478,-0.44909"
         style="fill:none;stroke:#000000;stroke-width:0.153;stroke-linecap:round;stroke-linejoin:round;stroke-miterlimit:4;stroke-dasharray:none;stroke-opacity:1"
         id="path5071" />
      <path
         d="m 97.816655,113.46503 c 0.01305,-0.0205 0.02364,-0.0416 0.03104,-0.0649 0.0085,-0.0543 3.53e-4,-0.0998 -0.02611,-0.14887 -0.05115,-0.10125 -0.117122,-0.17745 -0.209903,-0.24236 l -0.387703,-0.26776 c -0.04163,-0.0349 -0.08396,-0.0547 -0.138289,-0.0628 -0.948266,-0.14747 -1.897591,-0.28505 -2.849033,-0.4117 l -0.230364,-0.0356 c -0.09384,-0.0138 -0.198261,0.061 -0.244475,0.13265 l -1.041047,1.62278 c -0.02117,0.0342 -0.03563,0.0649 -0.03104,0.10759 0.0053,0.0476 0.02681,0.0677 0.07267,0.0773 l 0.221897,0.048 c 0.898878,0.21202 1.794581,0.4325 2.689225,0.66216 0.04692,0.0191 0.09207,0.0409 0.136525,0.0646 l 0.381353,0.27905 c 0.102305,0.0684 0.196497,0.0896 0.318911,0.0705 0.04904,-0.001 0.0949,-0.0106 0.141111,-0.0289 0.01658,-0.0152 0.03069,-0.0318 0.04233,-0.0504 z m -1.165225,1.80164 v 13.34734 c -0.0018,0.037 0.0074,0.0653 0.02963,0.0942 l 0.305859,0.37677 c 0.0194,0.0265 0.0388,0.0349 0.07091,0.0293 l 10.358611,-1.70286 c 0.0335,-0.008 0.054,-0.0229 0.0706,-0.0529 l 0.37465,-0.58456 c 0.0208,-0.0328 0.03,-0.0649 0.0293,-0.10407"
         style="fill:none;stroke:#000000;stroke-width:0.153;stroke-linecap:round;stroke-linejoin:round;stroke-miterlimit:4;stroke-dasharray:none;stroke-opacity:1"
         id="path5075" />
      <path
         d="m 97.116568,112.64789 -4.022019,-0.73801 -1.204031,-0.0868 m 4.70535,16.86524 -0.812094,0.23531"
         style="fill:none;stroke:#000000;stroke-width:0.153;stroke-linecap:round;stroke-linejoin:round;stroke-miterlimit:4;stroke-dasharray:none;stroke-opacity:1"
         id="path5079" />
    </g>
    <g
       id="g30621"
       inkscape:label="Screwdriver">
      <path
         d="m 112.07399,113.94287 h -4.95441 v 0.28328 h -0.63288 l -2.00449,7.1e-4 -2.0067,0.23777 -2.5e-4,0.11853 v 0.11783 l 2.00695,0.23883 2.00449,3.5e-4 h 0.63288 v 0.28293 h 4.95441"
         style="display:none;fill:#231f20;fill-opacity:1;fill-rule:nonzero;stroke:#ffffff;stroke-width:0.463197;stroke-linecap:round;stroke-linejoin:round;stroke-miterlimit:10;stroke-dasharray:none;stroke-opacity:1"
         id="path5215"
         sodipodi:nodetypes="ccccccccccccc" />
      <path
         d="m 112.1903,113.94287 h -5.02814 l -0.10054,0.28328 h -0.53905 l -2.02212,7.1e-4 -2.02494,0.23777 v 0.11853 0.11783 l 2.02494,0.23883 2.02212,3.5e-4 h 0.50271 l 0.13688,0.28293 h 5.02814"
         style="display:inline;fill:#ffffff;fill-opacity:1;fill-rule:nonzero;stroke:none;stroke-width:0.352778"
         id="path5219" />
      <path
         d="m 112.1903,113.94287 h -5.02814 l -0.10054,0.28328 h -0.53905 l -2.02212,7.1e-4 -2.02494,0.23777 v 0.11853 0.11783 l 2.02494,0.23883 2.02212,3.5e-4 h 0.50271 l 0.13688,0.28293 h 5.02814 m -5.02814,0 c 0,0 -0.14464,-0.18309 -0.14464,-0.64276 0,-0.45226 0.14464,-0.63747 0.14464,-0.63747 m -2.6797,0.28399 0.19544,0.3376 -0.17745,0.37536"
         style="display:inline;fill:none;stroke:#231f20;stroke-width:0.185208;stroke-linecap:round;stroke-linejoin:round;stroke-miterlimit:2.613;stroke-dasharray:none;stroke-opacity:1"
         id="path5223" />
    </g>
  </g>
</svg>
