<svg version="1.1" viewBox="0 0 512 512" xmlns="http://www.w3.org/2000/svg">
 <style type="text/css">
  @keyframes blink {
   0%,25% {
    fill: #FFFFFF;
   }
   50%, 75% {
    fill: #FF4500;
   }
  }
  
  #LED {
   animation: blink 1s infinite;
  }
 </style>
 <g transform="matrix(16.838 0 0 16.838 -1754.6 -1714.5)">
  <path d="m130.82 103.23 2.3936 2.3936 0.51187-0.48577-2.4201-2.4197zm-24.513 28.964h0.4692m18.045-1e-3 -0.24341-0.24941c-0.0173-0.0374-2e-3 -0.0709-2e-3 -0.10654l-5e-3 -0.18768c-0.0106-0.23495 0.17569-0.43216 0.41134-0.43428h2.3964c0.23566 2e-3 0.42191 0.19933 0.41168 0.43428l-5e-3 0.18768c-3.5e-4 0.0356 0.0155 0.0691-2e-3 0.10654l-0.24305 0.24941m-7.2316 0-0.24341-0.24941c-0.0173-0.0374-2e-3 -0.0709-2e-3 -0.10654l-5e-3 -0.18768c-0.0106-0.23495 0.17604-0.43216 0.41134-0.43428h2.3968c0.23495 2e-3 0.42192 0.19933 0.41098 0.43428l-5e-3 0.18768c-3.5e-4 0.0356 0.0155 0.0691-2e-3 0.10654l-0.24341 0.24941m-7.2316 0-0.24341-0.24941c-0.0173-0.0374-2e-3 -0.0709-2e-3 -0.10654l-5e-3 -0.18768c-0.0106-0.23495 0.17638-0.43216 0.41133-0.43428h2.3968c0.23495 2e-3 0.42156 0.19933 0.41133 0.43428l-5e-3 0.18768c-3.6e-4 0.0356 0.0148 0.0691-2e-3 0.10654l-0.24307 0.24941m-7.2319 0-0.24271-0.24941c-0.0176-0.0374-2e-3 -0.0709-2e-3 -0.10654l-5e-3 -0.18768c-0.0106-0.23495 0.17603-0.43216 0.41133-0.43428h2.3964c0.23566 2e-3 0.42192 0.19933 0.4117 0.43428l-5e-3 0.18768c0 0.0356 0.0155 0.0691-2e-3 0.10654l-0.24342 0.24941m18.044 1e-3 0.25081-0.25082c0.0176-0.0374 2e-3 -0.0709 3e-3 -0.10654l5e-3 -0.18768c0.0106-0.2353-0.17673-0.43251-0.41238-0.43428h-2.3957c-0.23565 2e-3 -0.42192 0.19933-0.41169 0.43428l5e-3 0.18768c3.5e-4 0.0356-0.0155 0.0691 2e-3 0.10654l0.24306 0.24941m-19.846 0 0.24307-0.24941c2e-3 -0.0303 1e-3 -0.0353 2e-3 -0.0529 3.5e-4 -0.018 7e-4 -0.0356 7e-4 -0.0536l5e-3 -0.18768c0.0102-0.23495-0.17604-0.43216-0.4117-0.43428h-2.3957c-0.23566 2e-3 -0.42263 0.19898-0.41204 0.43428l5e-3 0.18768c3.5e-4 0.0356-0.0152 0.0691 2e-3 0.10654l0.25047 0.25082m0 0 0.0406-5e-3c0.2801-0.012 0.56056-0.0166 0.84067-0.0148h0.94121c0.29668-4e-3 0.59266 2e-3 0.889 0.0187h1.7939c0.29634-0.0162 0.59232-0.0222 0.88899-0.0187h0.94087c0.29704-4e-3 0.59302 2e-3 0.889 0.0187h1.7946c0.29599-0.0162 0.59233-0.0222 0.889-0.0187h0.94052c0.29668-4e-3 0.59301 2e-3 0.889 0.0187h1.7946c0.29564-0.0162 0.59197-0.0222 0.889-0.0187h0.94051c0.29669-4e-3 0.59301 2e-3 0.889 0.0187h1.7942c0.29599-0.0162 0.59197-0.0222 0.889-0.0187h0.94122c0.29669-4e-3 0.59231 2e-3 0.88865 0.0187h1.7942c0.29599-0.0162 0.59197-0.0222 0.88864-0.0187h0.94123c0.28044-2e-3 0.5609 8e-3 0.84102 0.0201h0.51179c0.20602 0 0.35242-0.0603 0.49848-0.20603l1.3499-1.3499c0.14534-0.14606 0.20603-0.29246 0.20674-0.49848v-24.449c3e-3 -0.20814-0.0575-0.35348-0.20674-0.49848l-1e-3 -1e-3 -3.1101-3.1097-2e-3 -1e-3c-0.14571-0.1457-0.29211-0.20638-0.49813-0.20638h-22.687c-0.20814-4e-3 -0.35348 0.0568-0.49847 0.20638l-2e-3 1e-3 -3.1107 3.1107c-0.14569 0.14605-0.20637 0.29246-0.20637 0.49848v24.449c0 0.20602 0.0607 0.35242 0.20637 0.49848l1.3479 1.3479 2e-3 2e-3c0.14499 0.14923 0.29033 0.20991 0.49847 0.20603m8.8607-25.555c0-0.38135-0.30938-0.69003-0.69109-0.69003-0.381 0-0.69003 0.30868-0.69003 0.69003 0 0.38171 0.30903 0.69074 0.69003 0.69074 0.38171 0 0.69109-0.30903 0.69109-0.69074zm-5.5118 22.276c0.0554-0.24059 0.0554-0.4646 0-0.7052-0.16438-0.71015-0.79691-1.2128-1.5254-1.2128-0.72884 0-1.361 0.5027-1.5251 1.2128-0.0557 0.2406-0.0557 0.46461 0 0.7052 0.16404 0.71015 0.79622 1.2128 1.5251 1.2128 0.72849 0 1.361-0.5027 1.5254-1.2128m0-0.7052h-0.8202c-0.19473 0-0.35242-0.15805-0.35242-0.35278v-0.33726c-0.11783-5e-3 -0.58809-5e-3 -0.7052 0v0.33726c0 0.19473-0.15805 0.35278-0.35278 0.35278h-0.81845m-3.5e-4 0.7052h0.8188c0.19473 0 0.35278 0.1577 0.35278 0.35242v0.33761c0.23495 8e-3 0.46954 8e-3 0.7052 0v-0.33795c0-0.19472 0.15769-0.35242 0.35242-0.35242h0.81844m-3.5719-0.35242c0 1.131 0.91652 2.0479 2.0482 2.0479 1.1314 0 2.0479-0.91687 2.0479-2.0479 0-1.1314-0.91652-2.0486-2.0479-2.0486-1.1317 0-2.0482 0.91723-2.0482 2.0486zm8.0772 0.35242c0.0557-0.24059 0.0557-0.4646 0-0.7052-0.16438-0.71015-0.79656-1.2128-1.5254-1.2128s-1.361 0.5027-1.5254 1.2128c-0.0554 0.2406-0.0554 0.46461 0 0.7052 0.1644 0.71015 0.79657 1.2128 1.5254 1.2128s1.361-0.5027 1.5254-1.2128m0-0.7052h-0.82019c-0.19474 0-0.35278-0.15805-0.35278-0.35278v-0.33726c-0.11712-5e-3 -0.58739-5e-3 -0.70485 0v0.33726c0 0.19473-0.15805 0.35278-0.35278 0.35278h-0.81845m-3.6e-4 0.7052h0.8188c0.19473 0 0.35278 0.1577 0.35278 0.35242v0.33761c0.23529 8e-3 0.4699 8e-3 0.70485 0v-0.33761c0-0.19472 0.15804-0.35242 0.35278-0.35242h0.81878m-3.5722-0.35242c0 1.131 0.91687 2.0479 2.0482 2.0479s2.0482-0.91687 2.0482-2.0479c0-1.1314-0.91687-2.0486-2.0482-2.0486s-2.0482 0.91723-2.0482 2.0486zm8.0772 0.35242c0.0554-0.24059 0.0554-0.4646 0-0.7052-0.16438-0.71015-0.79656-1.2128-1.5254-1.2128-0.72883 0-1.361 0.5027-1.5254 1.2128-0.0554 0.2406-0.0554 0.46461 0 0.7052 0.1644 0.71015 0.79657 1.2128 1.5254 1.2128 0.72885 0 1.361-0.5027 1.5254-1.2128m0-0.7052h-0.82055c-0.19438 0-0.35242-0.15805-0.35242-0.35278v-0.33726c-0.11748-5e-3 -0.58774-5e-3 -0.70485 0v0.33726c0 0.19473-0.15805 0.35278-0.35243 0.35278h-0.81888m-3.6e-4 0.7052h0.81915c0.19439 0 0.35243 0.1577 0.35243 0.35242v0.33761c0.23529 8e-3 0.4699 8e-3 0.70485 0v-0.33761c0-0.19472 0.15804-0.35242 0.35242-0.35242h0.81879m-3.5719-0.35242c0 1.131 0.91722 2.0479 2.0482 2.0479 1.1314 0 2.0482-0.91687 2.0482-2.0479 0-1.1314-0.91687-2.0486-2.0482-2.0486-1.131 0-2.0482 0.91723-2.0482 2.0486zm8.0768 0.35242c0.0561-0.24059 0.0561-0.4646 0-0.7052-0.16403-0.71015-0.79621-1.2128-1.525-1.2128-0.72883 0-1.361 0.5027-1.5254 1.2128-0.0554 0.2406-0.0554 0.46461 0 0.7052 0.1644 0.71015 0.79658 1.2128 1.5254 1.2128 0.72884 0 1.361-0.5027 1.525-1.2128m0-0.7052h-0.81984c-0.19474 0-0.35243-0.15805-0.35243-0.35278v-0.33726c-0.11782-5e-3 -0.58809-5e-3 -0.7052 0v0.33726c0 0.19473-0.15804 0.35278-0.35242 0.35278h-0.8188m-3.5e-4 0.7052h0.81915c0.19438 0 0.35242 0.1577 0.35242 0.35242v0.33761c0.23529 8e-3 0.46989 8e-3 0.7052 0v-0.33761c0-0.19472 0.15769-0.35242 0.35243-0.35242h0.81879m-3.5722-0.35242c0 1.131 0.91687 2.0479 2.0482 2.0479 1.1314 0 2.0482-0.91687 2.0482-2.0479 0-1.1314-0.91687-2.0486-2.0482-2.0486-1.1314 0-2.0482 0.91723-2.0482 2.0486zm8.0772 0.35242c0.0557-0.24059 0.0557-0.4646 0-0.7052-0.16439-0.71015-0.79656-1.2128-1.5251-1.2128-0.72918 0-1.3614 0.5027-1.5254 1.2128-0.0561 0.2406-0.0561 0.46461 0 0.7052 0.16405 0.71015 0.79623 1.2128 1.5254 1.2128 0.7285 0 1.3607-0.5027 1.5251-1.2128m0-0.7052h-0.8202c-0.19438 0-0.35243-0.15805-0.35243-0.35278v-0.33726c-0.11783-5e-3 -0.58773-5e-3 -0.70485 0v0.33726c0 0.19473-0.15804 0.35278-0.35313 0.35278h-0.81845m-3.5e-4 0.7052h0.8188c0.19509 0 0.35313 0.1577 0.35313 0.35242v0.33761c0.23459 8e-3 0.46954 8e-3 0.70485 0v-0.33761c0-0.19472 0.15805-0.35242 0.35243-0.35242h0.81914m-3.5726-0.35242c0 1.131 0.91687 2.0479 2.0486 2.0479 1.131 0 2.0479-0.91687 2.0479-2.0479 0-1.1314-0.91687-2.0486-2.0479-2.0486-1.1317 0-2.0486 0.91723-2.0486 2.0486zm8.0768 0.35242c0.0561-0.24059 0.0561-0.4646 0-0.7052-0.16368-0.71015-0.79657-1.2128-1.5251-1.2128-0.72848 0-1.361 0.5027-1.5254 1.2128-0.0554 0.2406-0.0554 0.46461 0 0.7052 0.1644 0.71015 0.79693 1.2128 1.5254 1.2128 0.72849 0 1.3614-0.5027 1.5251-1.2128m0-0.7052h-0.8195c-0.19473 0-0.35243-0.15805-0.35243-0.35278v-0.33726c-0.11783-5e-3 -0.58808-5e-3 -0.70555 0v0.33726c0 0.19473-0.15769 0.35278-0.35278 0.35278h-0.8181m-3.5e-4 0.7052h0.81845c0.19509 0 0.35278 0.1577 0.35278 0.35242v0.33761c0.2353 8e-3 0.46989 8e-3 0.70555 0v-0.33761c0-0.19472 0.1577-0.35242 0.35243-0.35242h0.81773m-3.5712-0.35242c0 1.131 0.91652 2.0479 2.0479 2.0479 1.1314 0 2.0482-0.91687 2.0482-2.0479 0-1.1314-0.91688-2.0486-2.0482-2.0486-1.1314 0-2.0479 0.91723-2.0479 2.0486zm-12.432-21.924c0-0.93415-0.75742-1.6912-1.6923-1.6912-0.93415 0-1.6909 0.75707-1.6909 1.6912 0 0.93451 0.75671 1.6919 1.6909 1.6919 0.93486 0 1.6923-0.75741 1.6923-1.6919zm-0.66499 0c0 0.56727-0.46003 1.0269-1.0273 1.0269-0.56691 0-1.0262-0.45967-1.0262-1.0269 0-0.56691 0.45932-1.0266 1.0262-1.0266 0.56726 0 1.0273 0.45967 1.0273 1.0266zm14.656-3.283h-21.494m18.003 3.8216c0.19508 3.6e-4 0.35276-0.15769 0.35241-0.35242v-0.31539c3.5e-4 -0.19508-0.15733-0.35313-0.35241-0.35277h-1.8196c-0.19438-3.6e-4 -0.35244 0.15769-0.35244 0.35277v0.31539c0 0.19473 0.15806 0.35278 0.35244 0.35242zm-1.8309-1.3346c-0.36089 7.1e-4 -0.65405 0.29353-0.65511 0.65548v0.33795c1e-3 0.3616 0.29422 0.6544 0.65511 0.65546h1.8418c0.36195-1e-3 0.65476-0.29386 0.65582-0.65546v-0.33795c-1e-3 -0.36195-0.29387-0.65477-0.65582-0.65548zm-3.804 1.3346c0.19473 3.6e-4 0.35278-0.15769 0.35242-0.35242v-0.31539c3.6e-4 -0.19508-0.15769-0.35313-0.35242-0.35277h-1.82c-0.19437-3.6e-4 -0.35242 0.15769-0.35207 0.35277v0.31539c-3.5e-4 0.19473 0.1577 0.35278 0.35207 0.35242zm-1.8309-1.3346c-0.36123 7.1e-4 -0.65405 0.29353-0.65511 0.65548v0.33795c1e-3 0.3616 0.29388 0.6544 0.65511 0.65546h1.8422c0.36158-1e-3 0.6544-0.29386 0.65546-0.65546v-0.33795c-1e-3 -0.36195-0.29388-0.65477-0.65546-0.65548zm7.4376 1.9964c0.647 0 1.1719-0.52493 1.1719-1.1719 0-0.64735-0.52492-1.1723-1.1719-1.1723h-7.4041c-0.64734 0-1.1723 0.52493-1.1723 1.1723 0 0.64699 0.52494 1.1719 1.1723 1.1719zm3.5193-4.4834c-0.0169-0.0815-0.0286-0.16333-0.0349-0.24588-0.0314-0.16722 4e-3 -0.27799 0.12737-0.39547 0.0935-0.0907 0.18696-0.18062 0.2808-0.27093 0.0554-0.0536 0.11042-0.10689 0.16546-0.16016 0.0469-0.0452 0.0808-0.10478 0.13935-0.13476 0.0723-0.012 0.14604-0.0169 0.21978-0.0131 0.0603 3e-3 0.12417 0.0258 0.18415 0.0215 0.11959 0.0826 0.21625 0.20356 0.31926 0.30692 0.0921 0.0921 0.18414 0.18415 0.27657 0.27622 0.3094 0.30974 0.61878 0.61913 0.92851 0.92887 0.31045 0.3108 0.6216 0.62159 0.9324 0.93204 0.0928 0.0931 0.18662 0.18662 0.27975 0.27975 0.10371 0.10372 0.21872 0.20214 0.30691 0.31856 1e-3 2e-3 2e-3 3e-3 3e-3 5e-3 -4e-3 0.0596 0.019 0.12383 0.0222 0.18415 4e-3 0.0734 4e-3 0.15593-0.0152 0.22755-0.0353 0.0512-0.09 0.0864-0.13299 0.13123-0.0533 0.0554-0.10689 0.11042-0.1598 0.1658-0.0903 0.0935-0.18099 0.18733-0.27165 0.28117-0.11712 0.12277-0.22825 0.1584-0.39475 0.127-0.0832-7e-3 -0.1644-0.0183-0.2459-0.0349-0.0772-0.0399-0.13617-0.10759-0.19684-0.16826-0.097-0.097-0.19332-0.19368-0.29068-0.29069-0.30834-0.30833-0.61702-0.61701-0.92534-0.92534-0.47944-0.47942-0.9592-0.9592-1.439-1.439-0.0314-0.0314-0.0582-0.0674-0.0787-0.10689-0.0169-0.0815 0.0201 0.0392 0 0zm-24.555 2.268 2.3932-2.3936-0.48577-0.51152-2.4194 2.4193zm0.12594 0.66252c-0.0815 0.0166-0.16369 0.0282-0.24624 0.0349-0.16686 0.0317-0.27799-4e-3 -0.39511-0.127-0.0907-0.0938-0.18097-0.18768-0.27129-0.28116-0.0533-0.0554-0.10653-0.11042-0.16016-0.16581-0.0445-0.0466-0.10407-0.0808-0.1344-0.13935-0.012-0.0723-0.0173-0.14605-0.0131-0.21907 3e-3 -0.0607 0.0254-0.12488 0.0215-0.1845 0.0822-0.11995 0.20355-0.21626 0.30691-0.31927 0.0917-0.0924 0.18415-0.1845 0.27587-0.27622l0.92922-0.92922c0.31044-0.31044 0.62089-0.62124 0.93204-0.93168 0.0928-0.0935 0.18662-0.18662 0.27975-0.28011 0.10372-0.10372 0.20179-0.21872 0.31891-0.30692l4e-3 -4e-3c0.0596 4e-3 0.12418-0.0183 0.18451-0.0215 0.073-4e-3 0.15593-4e-3 0.22719 0.0152 0.0511 0.0349 0.0868 0.0896 0.13158 0.13264 0.055 0.0533 0.11042 0.10654 0.16581 0.16016 0.0935 0.0903 0.18697 0.18062 0.28081 0.27093 0.12277 0.11748 0.15875 0.22825 0.127 0.39547-7e-3 0.0826-0.0183 0.16439-0.0349 0.24588-0.0399 0.0769-0.1076 0.13618-0.16827 0.1965-0.0967 0.097-0.19332 0.19368-0.28998 0.29034-0.30904 0.30868-0.61736 0.61701-0.92569 0.92533-0.47942 0.47978-0.95955 0.95921-1.439 1.439-0.0318 0.0317-0.0674 0.0586-0.10689 0.079-0.0815 0.0166 0.0392-0.0201 0 0zm4e-3 -3.6e-4v23.429c-7.1e-4 0.072 0.0208 0.12312 0.0723 0.17393l0.74965 0.74966c0.0508 0.0515 0.1016 0.0727 0.17392 0.072h25.363c0.0727 7.1e-4 0.12348-0.0205 0.17429-0.072l0.74965-0.74966c0.0515-0.0508 0.0727-0.10196 0.0723-0.17393v-23.429" fill="#fff" stroke="#231f20" stroke-linecap="round" stroke-linejoin="round" stroke-width=".085019"/>
  <ellipse id="LED" cx="114.48" cy="106.64" rx="1.0693" ry="1.0693" fill="none"/>
 </g>
</svg>
