<svg width="512" height="512" version="1.1" viewBox="0 0 135.47 135.47" xmlns="http://www.w3.org/2000/svg">
 <g fill="none" stroke="#231f20">
  <g stroke-linecap="round" stroke-linejoin="round">
   <g stroke-miterlimit="10">
    <path d="m15.201 133.15-5.689-5.452c-0.545-0.47-0.858-1.148-0.858-1.866v-107.9c0-1.791 1.336-3.306 3.12-3.531l106.64-13.177c0.886-0.112 1.778 0.217 2.38 0.878l5.131 5.617s0.897 0.67 0.897 3.619v106.02c0 1.841-1.372 3.394-3.203 3.624l-105.33 13.25c-1.158 0.148-2.319-0.338-3.084-1.085z" stroke-width="2px"/>
    <path d="m9.949 16.23 4.373 4.89" stroke-width=".14"/>
    <g stroke-width="2px">
     <path d="m126.82 11.342c0-2.2-1.928-3.901-4.115-3.627l-105.33 13.253c-1.83 0.232-3.202 1.783-3.202 3.624v106.02c0 1.034 0.351 1.879 1.031 2.538"/>
     <path d="m34.013 118.71c-0.491-0.468-0.741-1.078-0.741-1.814v-75.78c0-1.316 0.99-2.427 2.31-2.59l76.095-9.474c1.58-0.193 2.973 1.019 2.973 2.593v75.78c0 1.313-0.987 2.427-2.311 2.59l-76.098 9.471c-0.837 0.106-1.674-0.243-2.228-0.776z"/>
     <path d="m33.639 118.45-4.337-3.523 0.015-77.122c0-1.163 0.866-2.142 2.021-2.282l78.391-9.84c1.91-0.238 3.629 1.176 3.761 3.094"/>
    </g>
   </g>
   <path d="m33.339 39.476-2.758-3.066" stroke-width=".14"/>
   <path d="m114.26 30.193-3.991-4.438" stroke-width=".25"/>
  </g>
  <path d="m72.302 76.482c5e-3 1.349 1.184 1.755 2.177 1.189 0.726-0.401 1.326-1.287 1.326-2.21 0-1.355-1.184-1.753-2.174-1.197-0.729 0.406-1.329 1.287-1.329 2.218z" stroke-width=".25"/>
 </g>
</svg>
