<svg version="1.1" viewBox="0 0 512 512" xmlns="http://www.w3.org/2000/svg">
 <g transform="matrix(29.846 0 0 29.846 -844.35 -3263.6)" fill="none" stroke="#231f20">
  <g stroke-linecap="round" stroke-linejoin="round">
   <g stroke-miterlimit="10">
    <path d="m30.199 126.24-0.72249-0.69321c-0.06879-0.0596-0.10866-0.14605-0.10866-0.23706v-13.716c0-0.2279 0.16969-0.42052 0.39582-0.44909l13.536-1.675c0.11289-0.0141 0.22578 0.0275 0.30268 0.11183l0.65088 0.71367s0.1143 0.085 0.1143 0.46038v13.477c0 0.2339-0.17427 0.43145-0.40675 0.46073l-13.371 1.6845c-0.14711 0.0187-0.29457-0.043-0.39158-0.13794z" stroke-miterlimit="10" stroke-width=".24041"/>
    <path d="m29.532 111.37 0.55562 0.62159" stroke-width=".049389"/>
    <path d="m44.368 110.75c0-0.27975-0.24483-0.49565-0.52246-0.46108l-13.371 1.6849c-0.23248 0.0293-0.4064 0.22683-0.4064 0.46072v13.477c0 0.13159 0.04445 0.23919 0.13053 0.32279" stroke-miterlimit="10" stroke-width=".21036"/>
    <path d="m32.587 124.4c-0.06244-0.0593-0.09454-0.13688-0.09454-0.23036v-9.6333c0-0.16757 0.12594-0.30868 0.29386-0.32949l9.6594-1.2044c0.20073-0.0247 0.37747 0.12982 0.37747 0.32949v9.6333c0 0.16687-0.12559 0.30868-0.29351 0.32914l-9.6598 1.2044c-0.10619 0.0134-0.21272-0.0311-0.28293-0.0988z" stroke-miterlimit="10" stroke-width=".16171"/>
   </g>
   <path d="m32.539 124.37-0.55033-0.44767 0.0018-9.804c0-0.14782 0.11007-0.27235 0.25682-0.28999l9.9508-1.251c0.24271-0.0303 0.46108 0.14958 0.47766 0.39335" stroke-width=".17175"/>
   <path d="m32.501 114.33-0.34996-0.38982" stroke-width=".049389"/>
   <path d="m42.774 113.15-0.50659-0.56374" stroke-width=".088194"/>
   <g stroke-miterlimit="10" stroke-width=".088194">
    <path d="m35.331 117.88c0-0.0974 0.0889-0.1591 0.17745-0.17039 0.28751-0.0229 0.57609-0.0452 0.8636-0.072h0.0025c0.79446-0.0699 1.5893-0.1531 2.3763-0.28575l0.0014-3.5e-4c0.36124-0.0596 0.72214-0.12136 1.0827-0.18591 0.12382-0.0236 0.24306-0.0533 0.25365 0.11218l0.0064 2.7792c0 0.0526-0.04833 0.17815-0.1397 0.20214-1.4792 0.28258-2.9683 0.44627-4.4686 0.5648-0.07691 3.5e-4 -0.14993-0.0801-0.15416-0.16475 0.01552-0.92569 0.01658-1.8535-0.0014-2.7792z" stroke-miterlimit="10" stroke-width=".12157"/>
    <path d="m37.852 122.99c-0.05433 0.0444-0.11395 0.0914-0.2413 0.0981-0.20673-2e-3 -0.27234-0.15839-0.22507-0.28575 0.01834-0.0737 0.06773-0.127 0.11994-0.17921 0.1016-0.11783-0.07832-0.20355-0.17462-0.0808-0.02081 0.0222-0.04057 0.0455-0.05821 0.0699-0.08502 0.10865-0.10654 0.21025-0.10125 0.32702 0.05433 0.6223 0.97437 0.29386 0.99166-0.21343 0-0.0702-0.01552-0.13617-0.04445-0.18697-0.02611-0.0487-0.06421-0.09-0.11042-0.11924-0.08184-0.0511-0.21026 0.0783-0.14323 0.15557 0.04304 0.0314 0.0762 0.0748 0.08925 0.1263 0.02258 0.0776-0.0025 0.19403-0.10231 0.28857-0.05433 0.0444 0.09984-0.0945 0 0z"/>
    <path d="m37.78 122.66c-0.0067 0.11324-0.20249 0.15875-0.20249 0.0258l0.01199-0.16439 0.01023-0.16475c0-0.11818 0.20532-0.15487 0.20532-0.0265l-0.01446 0.1644c-0.0035 0.0554-0.0074 0.11006-0.01058 0.16545z"/>
   </g>
  </g>
 </g>
</svg>
