<svg width="25mm" height="25mm" version="1.1" viewBox="0 0 25 25" xmlns="http://www.w3.org/2000/svg">
 <path d="m9.1941 22.245v1.9886s0.095717 0.64214 0.67341 0.64214c0.57694 0 0.67341-0.64214 0.67341-0.64214v-1.5386s1.3148 0.60897 3.1749 0.19181v-0.8656l0.57807-0.19294v1.2191s0.12775 0.60935 0.7371 0.60935c0.60897 0 0.57732-0.67341 0.57732-0.67341v-0.73748s2.0526-0.76988 2.1167-2.1167v-1.989s2.1484-0.54491 3.4959-1.2828c0 0 1.0261-0.41641 1.1226-2.2124l0.03203-6.4462s0.06406-1.1226-0.28904-1.732c-0.35272-0.60935-1.475-3.3354-4.4256-5.6447 0 0-1.2507-1.0906-3.7846-0.57732 0 0-5.5806 0.8656-9.1727 2.3093 0 0-2.0843 0.51326-2.0843 2.3413l0.096094 7.4727s0 0.86598 0.38475 1.5394c0.38475 0.67341 1.9562 3.2713 3.9127 4.9389 0 0 0.063686 0.57732 0.28866 0.76951v0.7062s0.064063 0.48085 0.41641 0.73672l0.54566-0.09572c3.769e-4 0 0.32107 0.7371 0.93042 1.282z" fill="none" stroke="#231f20" stroke-linecap="round" stroke-linejoin="round" stroke-miterlimit="10" stroke-width=".3"/>
 <path d="m7.302 18.967s1.3148 1.1546 3.6881 0.70582c2.3733-0.44957 6.2857-1.4757 6.2857-1.4757m-9.6535 1.0623s1.3144 0.95793 3.6881 0.52532c2.373-0.43261 6.0298-1.331 6.0298-1.331m-2.0206 3.8807-0.44882-0.38438v-2.7913m0.22422 2.5983v-2.694m-1.0902 0.38475v2.4698m0.28904-0.06444 0.54491-0.16016m-0.7062-0.28866 0.64176-0.16053m-6.5103-0.25663v-1.3468m-0.60935 1.1867-0.032031-1.3792m1.6992 2.8866s0.60973 0.28904 1.2191 0.38475m0.03203-11.097s5.0994-0.35272 10.295-2.5659c0 0 1.8284-0.70507 0.9617-2.4374-0.8656-1.732-1.4105-2.5015-2.2769-3.4959-0.86636-0.9941-2.1167-2.1167-2.1167-2.1167s-0.93004-0.80192-2.5339-0.60935c-1.6031 0.19257-4.1373 0.70544-5.4838 1.0585-1.3468 0.35272-4.0733 1.0585-4.8428 1.4753 0 0-1.8921 0.76988-1.5714 2.0847 0.32069 1.3148 2.0526 4.1694 3.8807 5.6127 0 0 1.4433 1.2507 3.6881 0.9941zm-7.729-6.2537c0.52305 1.4309 2.4201 4.3389 4.0733 5.6443 0 0 1.5714 1.0585 3.8159 0.80192 0 0 5.2599-0.44844 10.456-2.662 0 0 0.63271-0.38061 0.9617-0.9941m-12.989 2.3093c0.26567 0 0.48122 0.12926 0.48122 0.28866s-0.21555 0.28866-0.48122 0.28866c-0.26605 0-0.48122-0.12926-0.48122-0.28866s0.21518-0.28866 0.48122-0.28866zm3.2069-8.1461c3.2062 0 5.8052 1.5149 5.8052 3.3833 0 1.8687-2.5991 3.384-5.8052 3.384-3.2062 0-5.8048-1.5153-5.8048-3.384 0-1.8684 2.5987-3.3833 5.8048-3.3833zm-4.1697 4.8748c0.43073-0.25851 0.93117-0.47783 1.4836-0.64628m1.1765-0.26756c0.4816-0.075368 0.9877-0.11569 1.51-0.11569 1.2583 0 2.4223 0.23326 3.3735 0.6297m-8.3768 0.59202 0.80116-0.19219 0.96283 1.2507m-2.1495-1.5714 0.86636-0.2246-1.0902-1.3792m1.0902 1.9566v-0.57732m7.986-3.5917v3.9764l0.83395 0.86598m0.80116-3.7202-0.641 0.25663v3.3034m1.0585-3.0147-0.76988 0.28828v2.4698m-1.2507-4.025 0.96207 0.97828m1.2187 1.6359-0.93004-1.0589m-7.3442 1.3472v-3.2393l0.9617-0.25663m-0.06369 1.9245v1.4433m-0.70582-3.0147s0.19256 0.3369 0.19256 0.83395c0 0.49743-0.30486 0.93004-0.30486 0.93004m0.83395-1.9566s0.19256 0.33689 0.19256 0.83395-0.30486 0.93004-0.30486 0.93004v1.3951l0.46502 0.78571-0.76988 0.27246-0.40096-0.78571m0.080644-0.064063 0.62518-0.17636m-0.70544-1.1705 0.68962-0.17674m4.0921 10.262c0.59918-0.59918 1.4633-0.70658 1.9298-0.23967 0.4669 0.4669 0.35988 1.3314-0.23929 1.9302-0.59918 0.59918-1.4629 0.7062-1.9302 0.23929-0.4669-0.4669-0.3595-1.331 0.23967-1.9298z" fill="none" stroke="#231f20" stroke-linecap="round" stroke-linejoin="round" stroke-miterlimit="10" stroke-width=".2"/>
</svg>
