<svg width="512" height="512" version="1.1" viewBox="0 0 135.47 135.47" xmlns="http://www.w3.org/2000/svg">
 <style type="text/css">
  @keyframes blink {
   0%,25% {
    fill: #FDDD1000;
   }
   50%, 75% {
    fill: #FDDD10FF;
   }
  }
  
  #LED {
   animation: blink 1s infinite;
  }
 </style>
 <path d="m80.816 47.398-0.20832 0.23506m1.4737-0.76291-0.14076-0.02674-0.22099-0.0183m1.4526-0.20551c-0.27026-0.08164-0.49688-0.07742-0.60385 0m-0.38145 0.21958 0.38145-0.21958m-0.50814 0.25196 0.07601-0.01267 0.07319-0.02956m-0.4265-0.01267-0.13231 0.03801-0.48561 0.28011-0.16469 0.10979-0.19988 0.17032m1.1486-0.56444 0.19002 0.21254m-0.0366-0.15765 0.12809-0.07038 0.05912 0.1675m-29.289-10.547-3.122 4.0102m3.122-4.0102c0.56866-0.65452 0.632-2.0241 0.21254-3.3697-0.37442-1.188-1.0501-2.1156-1.7482-2.497m-0.4279-0.64889c0 0.23366 0.16187 0.45887 0.4279 0.64889m-2.5731 10.776-0.60244 0.7052-0.54755 0.79247-0.0056 0.1858v1.0684m6.8239-8.2934 0.21536-0.34063m-3.4697 4.5197-0.1478 0.22944m-0.22662 1.1247 0.01971-0.43635 0.05067-0.32797 0.08727-0.297m3.5696-4.6239-0.07319 0.11683-0.02534 0.03519-3.267 4.1988m1.6581-0.16891-0.0042 0.18862v4.1566l0.19143 0.67704m-1.2415-5.6303 1.0543 0.60807m2.1156-4.5887-3.122 4.0088m3.122-4.0088c0.69252-0.89381 0.62214-2.5224-0.08446-4.1341m-3.5767-1.7468c-0.17454 0.15202-0.29841 0.34626-0.36878 0.55599m3.9454 1.1908c-0.14362-0.37582-0.3632-0.7249-0.61657-1.0135-0.9093-1.0388-2.2352-1.3668-2.9601-0.73335m-0.36878 1.3879v-0.83188m0 0.83188c0.0028 0.23788 0.16046 0.46732 0.4279 0.67282m0.81076 0.90226-0.08445-0.15624-0.1112-0.15624-0.1309-0.15202-0.14639-0.15061-0.16187-0.14639-0.17595-0.14076m0.92478 4.2213c0.55458-0.71364 0.48139-2.0339-0.11401-3.3191m-4.6915 9.2703 0.7432-0.92056 0.70942-0.71646 0.09431-0.12809 3.2585-4.1861m-3.4978 5.6993 0.62637-0.594 0.55599-0.32093 0.13654-0.038 0.28292 0.04786 0.7995-0.43776m1.6539 0.01971-2.01 1.2204m1.6736-9.5532 0.38145-0.21818 0.1492-0.03378 0.15906-0.04504m-0.3519-0.15202 0.15061-0.02252 0.15061-0.05067 0.14216-0.0099 0.14498 7e-3 0.47576-0.27588 0.03237-0.14639 0.05771-0.16609m0.71223 4.8139 0.25196-0.14498m-1.4428 0.98678-3.2585 4.1847m3.2585-4.1847c0.76854-0.99797 0.62637-2.8264-0.25055-4.6225m-0.12387-0.44198 0.05067 0.22521 0.07319 0.21536m-3.1699 10.206v3.8835m0.40398-5.2911c-0.27729 0.35752-0.4082 0.8544-0.40398 1.4076m0.72209-0.46169-0.72209 0.46169-0.14357 0.04786-0.1309 0.0042-0.14639 0.01548-0.14076 0.04926-1.9059 1.0979m3.4655-2.8841-0.05067 0.13372-0.08164 0.40116-0.02674 0.44339v4.1566l0.19143 0.67423m-1.592-4.0228v3.4429m0.43213-4.942c-0.297 0.37864-0.43494 0.9107-0.43213 1.4991m3.6921-5.6866c0.74883-0.97967 0.60385-2.7546-0.25759-4.5155m-0.19002-1.0796 0.0099 0.1675 0.03097 0.28715 0.02111 0.13654 0.04363 0.23084 0.08446 0.25759m1.4681-0.65171c-0.02815-0.19847-0.31811-0.44761-0.69253-0.60667-0.45746-0.19706-0.89804-0.19847-0.98108-0.0028-0.02393 0.05349-0.01548 0.11683 0.01548 0.18158m1.9284 4.7407c0.54051-0.97123 0.45465-2.8025-0.27025-4.3142m-3.298 8.9635 3.2585-4.1861m6.7057 79.085v10.571m0.8924-1.2443v0m-6.0962 3e-3c0.0014 0.96982 1.3668 1.7567 3.0488 1.7552 1.6835 0 3.0488-0.78683 3.0474-1.7581m0 0v-9.1971m-5.0757 11.449c0.91915 0.87552 2.3084 1.012 3.4415 0.42651 1.043-0.55178 1.6426-1.599 1.6342-2.6786m-6.0132 0.63059c0.09571 0.61371 0.47295 1.2443 0.93745 1.6215m-1.0205-14.566v12.313l0.02815 0.36174 0.0549 0.26885m36.546-52.401 0.56162-0.5574 0.29137-0.2421m4.0116-0.89381c-1.112-0.61933-2.6153-0.22662-4.0116 0.89381m-0.85299 0.7995c-0.54896 0.594-1.0233 1.2612-1.3865 1.9228-1.6666 2.9925-1.568 6.2229 0.21958 7.2195 1.7848 0.99375 4.5845-0.62496 6.2511-3.6175 1.6652-2.9911 1.568-6.2229-0.21958-7.2181m-3.0094 5.1517-0.04504-0.02534m1.7665-2.9095 0.16609 0.09712m0.15765-0.65875c-0.11683-0.06334-0.2407-0.1112-0.35471-0.13654m-0.79387 6.8324c0.54192-0.49547 1.0022-1.112 1.3456-1.7567 1.112-2.072 1.0247-4.2833-0.19706-4.9392m-2.8433 7.0618 0.01408 0.54896m0.04364 0.02815-0.01267-0.55177m2.3816-6.5832c-1.0585-0.43635-2.5942 0.54192-3.5161 2.2141-0.92337 1.6792-0.91211 3.4781-0.0014 4.1439m1.1486 0.77698-0.48139 0.06616-0.4462-0.04786-0.39975-0.15624m1.9551 0.1858 0.16046-0.01408 0.15765-0.17032 0.06053-0.22099-0.08023-3.6766-0.07179-0.1492m1.8355-2.7574-0.22803-0.13654-0.16469-0.09431m-3.4908 6.3693 0.335 0.17595 0.38286 0.07742 0.46309-0.0028m2.7138-7.1153c-1.2288-0.63482-3.1136 0.50532-4.2326 2.5533-1.1303 2.0705-1.0543 4.2889 0.17032 4.9575 0.01126 7e-3 0.02393 0.01267 0.03378 0.0183m2.9066-1.3808c0.41101-0.40257 0.7615-0.88396 1.0247-1.378 0.88396-1.6426 0.88114-3.3866 0.03097-4.0763m-1.0444 6.0047-0.01126-0.55036m-0.67986-2.6392-0.2041-0.0099-0.15765 0.1675-0.06334 0.2238 0.08446 3.678 0.11401 0.17313m-20.33 36.494c0.21395 0.19987 0.44902 0.36034 0.67986 0.47294 1.4906 0.75024 3.3317 0.10698 4.1101-1.4371 0.335-0.66438 0.41805-1.3879 0.28715-2.048m-6.0104 1.4048c0.09571 0.60385 0.47435 1.2344 0.93322 1.6074m4.1833-2.7307v1.7215m-4.9955-0.61512c0.45887 0.69676 1.606 1.1275 2.8489 1.1317 1.6806-4e-3 3.0404-0.79247 3.0404-1.7595m2.6519-1.7947-0.02956 8e-3h-0.02815l-0.04927-0.01m-28.398-0.28715-0.01971 0.0296-0.01689 0.0155m1.7313-1.012-0.0014-9.5223m6.1159 2.6237 0.06616 10.319 0.0042 0.0647m-11.727-15.916 0.16187 11.356 0.04504 0.18156 0.10698 0.1295 0.96419 0.63059 1.0374 0.59963 1.1021 0.56303 0.20551 0.0493 0.13935-0.0408 1.7778-1.0219m6.0962 3.5175c7.1533 1.2936 14.988 0.30686 20.703-2.2718m-26.799-1.2457 6.0962 3.5189m21.094-14-0.17876 11.428-0.0549 0.16609-0.14498 0.12668-1.3302 0.55318m5.3361-2.9925 0.0056-11.296m-0.0056 11.296 7e-3 -11.297m3.9539-2.2662 7.646-4.4859 2.2915-1.4245 1.485-0.97123 0.72209-0.49688 0.70661-0.50532 0.68689-0.51517 0.66016-0.52784 0.63341-0.5391 0.59822-0.55599 0.54191-0.55036 0.41383-0.47717 0.20973-0.26744m-15.61 16.745 0.06053-6.0272m-0.08727 6.5114c0.01408-0.17032 0.02393-0.33923 0.02674-0.4828m-5.0574 8.323c3.1952-2.3239 4.8378-5.0771 5.0307-7.8402m-6.8465-2.5632 0.14498 9.5251 0.06756 0.14498 1.2795 0.73757 0.15624 0.0408 0.16891-0.0465m-40.41-4.6915 0.09994 0.1478 4.1946 2.4323m-5.201-6.4664c-0.0183 1.4076 0.31389 2.7476 0.90648 3.8863m-0.96419-9.656 0.05771 5.7682m-15.115-16.346 0.20832 0.24773 0.24633 0.26885 0.42227 0.44198 0.4462 0.43353 0.46591 0.42509 0.48139 0.41946 0.49969 0.41383 0.51236 0.40257 1.0557 0.7995 1.6525 1.1613 2.3422 1.53 6.5945 3.9609 0.6123 0.35049m22.831 9.625-0.88255-0.0535-0.86284-0.1112-0.83751-0.15342-0.8164-0.1858-0.79387-0.20692-0.77839-0.22943-0.7615-0.2421-0.74742-0.25617-0.73616-0.26885-1.4343-0.563-1.4315-0.61371-2.0325-0.93885-3.26-1.6469-7.4841-4.1706-0.62919-0.36738m23.488 10.008c1.2964 0.0436 2.7743-0.16891 4.2593-0.57148m18.445-9.062-8.0359 4.5408-2.559 1.347-1.9889 0.96983-1.3752 0.61511-0.74039 0.30826-0.71786 0.28574-0.73053 0.27307-0.74602 0.25899-0.76572 0.2407-0.78402 0.22239m-26.419 0.53348-0.10275-0.18158-0.07882-9.1183m8.0316 4.4212-0.03097 11.324m-0.43072 0.0633-0.05771-0.15905 0.0084-11.491m29.064 11.705 0.11964-0.16469m3.3711-1.9101-0.08305-0.15202m0.51799-0.0408-0.14357 0.0619-0.14076 8e-3 -0.18862-0.0549m0.47295-0.0141c2.939-2.1606 4.5423-4.6844 4.8702-7.1744m-6.6522 6.4833 1.264 0.73053 0.02815 6e-3m0.01689-0.031 0.0056-11.045m19.962-12.656-0.58133 0.54473-0.67423 0.5757-0.63623 0.50673-0.52361 0.39834-0.55318 0.40398-1.34 0.92478-2.4506 1.5694-13.966 8.1344-4.1242 2.2338-1.5371 0.77416-1.6469 0.77699-0.88537 0.38849-0.80091 0.33219-0.73616 0.28855-0.76291 0.2787-0.65593 0.22381-0.6686 0.21254-0.63622 0.18158-0.57148 0.14779-0.57852 0.1295-0.75868 0.14639-0.83329 0.11683-0.81499 0.069-0.75868 0.0155-0.7432-0.0296-0.86988-0.0901-0.94589-0.15624-0.88255-0.19143-0.79528-0.2041-0.75587-0.21536-0.86566-0.27026-0.99094-0.33782-0.93604-0.34767-1.1627-0.46309-1.1824-0.50391-2.11-0.97123-3.0826-1.5455-6.3313-3.4908-7.052-4.1524-2.4478-1.5371-1.9115-1.2753-1.3245-0.94448-0.63904-0.47858-0.59963-0.46872-0.59259-0.48561-0.53066-0.45606-0.44198-0.39975-0.44057-0.42368-0.37442-0.38568-0.32374-0.35471m50.538-57.243-0.05067-0.01971m2.421-1.6046-2.2423 1.295-0.12668 0.13372-0.05349 0.17454-0.02111 15.24m-6.6029-19.064 6.6241 3.8244m-6.3313-3.975-0.13935 0.0183-0.12809 0.06756-0.06756 15.292m18.432-4.9293c-0.78543-1.896-2.4633-3.8511-4.2467-5.0898m-5.0968-2.9869 0.1309 0.10698 0.06616 0.14357-0.04364 15.3m-0.1534-15.549c-2.6983-1.1542-5.6697-1.9453-8.5736-2.3619m-0.18017-0.01126 0.17876 0.01126m8.7284 17.911 1.2415 0.58837 1.0402 0.56303m-11.525-3.6963c-7.2138-0.99656-14.43-0.04926-20.055 2.2718m29.299 0.27307-2.2395 1.2922-0.17876 0.04363-0.17876-0.04363-6.6452-3.8371m-17.731 3.6161-2.3267-1.3442m0 0-0.10416-4.3959m-0.20691-8.5693-0.07601-3.198m17.039-5.3122 0.32937 0.02111m-0.32937-0.02111 0.32937 0.02111m-1.4146-0.06756-0.01689-0.0028-0.50954-0.0099-0.5208-7e-3m0 0-1.0416 0.0084m-40.83 12.484 0.61511-0.58133 0.65452-0.57007 0.68127-0.55599 0.70942-0.54473 1.1852-0.85581 1.8481-1.233 1.3119-0.82625m-0.5194 0.32374 14.029-8.2231 5.1348-2.8137 2.4886-1.264 1.1936-0.56725 1.0374-0.46591 1.0599-0.44902 1.6412-0.632m-0.98249 0.37442 0.66015-0.25759 1.4048-0.49406 1.1021-0.33923 1.1415-0.30404 1.1753-0.25618 1.2119-0.19706 1.1247-0.11683 0.99375-0.04786 0.37723-0.0042 0.62919 0.01267 0.62778 0.03237 0.20973 0.01689 0.83047 0.08586 0.19706 0.02534 0.63622 0.09712 0.57288 0.10275 0.23647 0.04645 0.90366 0.20128 0.93745 0.23788 0.99516 0.28714 1.1049 0.35471 1.4174 0.50251m-0.86144-0.30967 0.86144 0.30967 1.0472 0.40116m28.499 16.113-0.51659-0.39553-0.95011-0.69112-2.0635-1.4132-2.3732-1.5258-7.8529-4.6549-6.0498-3.3416-2.5731-1.3288-2.2803-1.1035-1.2893-0.58837-1.3048-0.56444-1.2753-0.5208-0.66297-0.25055m35.94 64.502 0.11965-0.35893 0.12949-0.43635 0.0563-0.30544 0.0479-0.45746 8e-3 -0.26462-1.2415-38.69-0.0493-0.65452-0.0296-0.16609-0.12809-0.4828-0.0858-0.25333-0.1675-0.37582-0.1675-0.34063-0.21818-0.35893-0.23225-0.36316-0.51658-0.68408-0.57711-0.66578-0.62637-0.64749-0.6686-0.63341-0.70379-0.62356-0.73475-0.60807-0.75869-0.60104-0.77979-0.59118m4.7041 52.076c1.3668-1.2936 2.2423-2.5083 2.6195-3.5147m-10.084-49.673 0.90225 0.64326 0.67001 0.49969 0.66719 0.51658 0.62497 0.50814 0.59681 0.50954 0.594 0.5391 0.88255 0.86848m-41.551-20.635 0.93885-0.03801 0.93322 0.01408 0.94167 0.06897 0.93463 0.11683 0.93885 0.16187 0.94026 0.2041 0.92619 0.23366 0.93745 0.27166 0.91211 0.28855 0.89522 0.30826 0.9853 0.36316 0.87974 0.34345 1.7595 0.74039 1.7004 0.77558 2.5196 1.2387 4.9026 2.6322 8.6482 5.011 3.0319 1.8805 3.0742 2.0325m-36.798-16.647c-1.2542 0.08446-2.5548 0.30826-3.7385 0.62637m-34.911 19.743 0.7235-0.7052 0.56866-0.50954 0.61933-0.51658 0.64186-0.50391 0.65312-0.48843 1.6356-1.1401 2.2071-1.4259 14.215-8.2991 4.0552-2.2099 1.644-0.83892 1.6975-0.80936 0.84173-0.37723 0.86144-0.36456 0.8924-0.35752 0.87833-0.32796 0.96701-0.335 0.89944-0.28152 0.9107-0.25196m-37.014 20.456 0.57429-0.59681 0.47435-0.44057m-1.0486 1.0374c-1.4062 1.5033-2.048 3.001-1.9861 4.2762m-1.1542 39.522-0.08305-0.69394 1.2373-38.828m-1.1542 39.522c0.18439 1.0458 0.84736 2.2212 1.82 3.3627m35.409-59.422 1.1542-0.2224 0.96278-0.15624 1.0965-0.15061 1.2274-0.13231 0.95856-0.0746 0.8361-0.04926 0.77698-0.02956 0.30263-0.0042m-7.3166 0.81921c-9.6701 2.0241-16.059 6.9661-16.951 12.408m49.347 1.4625-6.6227-3.823m-16.367-10.855 0.84595 0.03237 0.23929 0.01408m12.62 2.8658-0.9853-0.40679-0.97123-0.36034-0.95574-0.32374-0.86988-0.26603-0.83329-0.23506-0.74039-0.18862-0.85721-0.19988-0.95012-0.19988-0.9839-0.18017-1.0289-0.16046-0.7995-0.10698-1.3963-0.1492-0.91915-0.06756m22.576 14.29c-0.090085-4.6591-4.0623-8.7523-10.287-11.445m10.285 11.821c0.0042-0.1295 0.0042-0.26322 0.0014-0.37582m-70.711 41.737 0.07601 0.69816 0.19424 0.71505 0.32656 0.75446 0.47717 0.80795 0.6503 0.87692 0.85158 0.96278 1.0726 1.0444 1.2823 1.1078 1.4681 1.1444 1.6201 1.1641 1.7567 1.181 1.8988 1.2119 9.2309 5.4431 4.493 2.4816 2.0987 1.0965 2.0452 1.0149 2.0114 0.93322 1.972 0.84314 1.9129 0.7432 1.8158 0.61933 1.6736 0.49547 1.5329 0.38004 1.409 0.28011 1.3105 0.18721 1.2429 0.11261 1.2077 0.045 1.2007-0.0211 1.2204-0.0859 1.2682-0.15343 1.3161-0.23225 1.3541-0.30685 1.378-0.38005 1.3963-0.44902 1.3977-0.50672 1.3682-0.54896 1.2936-0.56303 1.1964-0.55599 2.1888-1.0866 13.801-7.7769 4.7618-2.8532 1.447-0.9107 1.3034-0.85299 1.2893-0.891 1.119-0.82484 1.0698-0.85581 0.92618-0.81358 0.83329-0.82202 0.69816-0.79387 0.5771-0.78261 0.4462-0.76854 0.31249-0.75024 0.1858-0.74179 0.0563-0.72209m-15.576-6.9717c0.25336 0.13372 0.50814 0.33641 0.72912 0.60104l0.28715 0.40679c0.93463 1.6286 0.7052 4.4043-0.72209 7.0337-1.8228 3.3655-4.9139 5.2193-6.9028 4.1411-1.9875-1.0768-2.1198-4.6774-0.29418-8.0415 1.8228-3.3655 4.9139-5.2193 6.9028-4.1411m-72.165-32.18 0.23084 0.64326 0.34345 0.64749 0.43494 0.64889 0.52643 0.65312 0.61089 0.67001 0.69816 0.68127 0.78261 0.69957 0.86566 0.71927 0.94871 0.73616 1.0303 0.75728 1.1106 0.77276 1.1852 0.79528 2.597 1.6469 2.8672 1.7285m-13.235-15.493c-1.0402 1.3513-1.3372 2.6209-0.99656 3.6935m2.034-4.8815-0.55459 0.59259-0.4828 0.594m39.905 27.363-1.112-0.13654-1.1162-0.20551-1.1204-0.25196-1.1247-0.30685-1.15-0.35612-1.1767-0.40257-1.2063-0.45042-1.2387-0.5025-1.271-0.54755-1.302-0.59118-2.6997-1.3217-4.3184-2.3028-7.8205-4.4845m26.657 11.86c2.0973 0.21958 4.3241 0.0042 6.4171-0.5391m36.797-21.982-0.32234 0.60104-0.4096 0.59259-0.4828 0.59259-0.55599 0.59118-0.63341 0.60948-0.71083 0.62074-0.79106 0.63763-0.86566 0.6503-0.96137 0.68268-1.0261 0.69112-2.2578 1.4357-13.808 8.0415-3.8962 2.1198-1.2302 0.63622-1.2021 0.59259-1.1739 0.54896-1.1444 0.50673-1.112 0.45887-1.0852 0.41101-1.0585 0.36597-1.036 0.32093-1.0332 0.27588m37.163-23.238c0.0648-0.66438-0.0605-1.3161-0.33078-1.8904m-0.0352 3.1445c0.21254-0.42087 0.33219-0.8544 0.36597-1.2542m-2.2479-4.5085 0.61089 0.66719 0.52643 0.65171 0.43494 0.6503 0.34486 0.64889m-3.519-5.1517 0.51659 0.39553 1.0233 0.83188 0.82907 0.72772 0.71364 0.68127 0.63341 0.65593 0.5011 0.57711 0.45887 0.59259 0.34626 0.51658 0.29841 0.53206m-23.737-16.785 8.2174 4.6844 4.3762 2.6533 2.3661 1.523 1.119 0.75446 1.0599 0.74461 1.0092 0.73898 0.92618 0.71505 0.86144 0.7052 0.78121 0.67986 0.69393 0.65171 0.6306 0.64186 0.55177 0.62215 0.47998 0.60948 0.39131 0.58133m-87.696 2.01 0.05771-0.68127 0.17454-0.67845 0.35471-0.78965m-0.58837 2.1508c-0.07742 2.2423 2.2831 5.0335 6.434 8.0091m33.399 17.188-1.2091-0.28855-1.233-0.34063-1.2936-0.40679-1.2724-0.4448-1.3977-0.53488-1.3471-0.55881-1.4737-0.64889-1.44-0.67282-3.0446-1.5272-4.7492-2.5857-8.1991-4.7689-2.9517-1.8327-1.3471-0.87833-1.2851-0.87692-1.1528-0.82202m33.406 17.184c2.1719 0.47717 4.2481 0.63622 5.9752 0.49688m1.1556-0.09853-1.1697 0.10416m1.1697-0.10275c1.9045-0.21677 3.93-0.7052 5.826-1.3738m35.412-22.337-0.30685 0.67845-0.41101 0.67845-0.48421 0.64749-0.66156 0.75165-0.80091 0.78543-0.83892 0.74039-0.85721 0.68971-0.90507 0.68268-1.0064 0.71786-1.0219 0.6883-2.4816 1.5779-13.064 7.6234-4.576 2.5097-1.4568 0.75024-1.3611 0.67001-1.4005 0.64608-1.2654 0.54473-1.3189 0.52221-1.1936 0.42931m35.676-23.599c0.0239-0.58414-0.0831-1.1584-0.29137-1.6638m0.0267 2.9292c0.1675-0.43635 0.25618-0.87974 0.26462-1.2654m-0.48702-2.1057 0.19565 0.44057m-45.026-24.475c-1.4808 0.05208-3.0164 0.29137-4.4395 0.66297m8.7354-0.31107c-1.5652-0.30122-3.0404-0.41101-4.2973-0.35049m12.71 35.862c-0.66438-0.66578-1.8749-1.0388-3.1403-1.0402-1.9917 0.0042-3.6048 0.93745-3.6118 2.0846m7.4728-1.257c-0.62919-0.93885-2.1761-1.5146-3.8511-1.5202-2.2803 0.0028-4.127 1.0669-4.1256 2.3816 0 0.25196 0.06897 0.49687 0.18862 0.70942m19.778-10.482-0.22099 0.08164m-16.982 10.122c9.5293-1.5512 15.932-5.9892 17.665-11.434m-24.497 11.994 1.6046-0.03941 1.6103-0.0929 0.95152-0.08305 1.6623-0.19706 1.0036-0.1478m16.992-14.229 0.04504 0.17454 0.02111 0.1478-0.09431 3.8174m0.75728-1.5272 0.0366-0.11824 0.15906-0.69253 0.06897-0.46732m-29.766 13.23 0.67423 0.06475 1.7032 0.1112 2.5702 0.04926m-18.179-4.1467 1.3977 0.74039 1.34 0.61793 1.2907 0.51377 1.2753 0.44057 1.4202 0.41805 1.4287 0.36456 1.2176 0.2604 1.181 0.21254 1.0613 0.16187 0.85862 0.10979 0.76009 0.08164m-20.244-11.822c0.93885 3.1488 3.5049 5.8851 7.0126 7.8993m-7.3827-10.312 0.0183 0.5025 0.03519 0.36597 0.04082 0.3153 0.04504 0.27026 0.04645 0.23507 0.04926 0.21677 0.06616 0.26181 0.07038 0.24492m10.137-11.703c-2.1705 0.91633-4.0102 2.0002-5.3981 3.1178m0.13231 14.95-0.13231-14.95m-5.1123 5.8766 0.0014 0.29559m-0.0014-0.29559 0.07601-0.95293 0.03237-0.18721m-0.0929 0.83469 0.0056-0.14076 0.0183-0.16187m8.5679 11.787 4.6169-2.6674m31.891-13.611 0.02534-0.02393m-2.2549 1.3006 2.2549-1.3006m-2.7124 15.99 0.32796-14.471 0.09572-0.19706m7.2645 6.3805-0.0563 0.17876m0 0 0.0563-0.17876m0.26462-1.2781 0.07179-0.78121v-0.13794m-0.07179 0.91915 0.02534-0.17876 0.01126-0.13513m-20.275 13.331-7e-3 -0.15765m0.0183 0.1858-0.0183-0.1858m0.04364 0.27307-0.04364-0.15765m4.6366-0.60385c-1.3836-0.24633-2.8827 0.04082-3.7596 0.66719" fill="none" stroke="#231f20" stroke-linecap="round" stroke-width=".37019"/>
 <path id="LED" d="m68.301 56.329c1.2654 0 2.2901 0.6137 2.2901 1.3724s-1.0247 1.3724-2.2901 1.3724c-1.264 0-2.2887-0.6137-2.2887-1.3724s1.0247-1.3724 2.2887-1.3724z" fill="none" stroke="#231f20" stroke-linecap="round" stroke-linejoin="round" stroke-miterlimit="10" stroke-width=".37019"/>
 <path d="m133.15 86.94c-2.4562-0.12246-10.167-4.9575-10.167-4.9575-6.6156-1.3893-8.4821-2.3704-12.209-5.384-1.2767-0.31108-2.5083-4.69-6.175-5.9259-2.7983-0.89944-6.7845 0.08586-7.8754 2.0579-2.9432 5.6092-3.2079 30.523 34.901 35.554 5.7148 0.84737 3.077 1.7158 6.51 3.8131" fill="#fff"/>
 <path d="m133.15 86.94c-2.4562-0.12246-10.167-4.9575-10.167-4.9575-6.6156-1.3893-8.4821-2.3704-12.209-5.384-1.2767-0.31108-2.5083-4.69-6.175-5.9259-2.7983-0.89944-6.7845 0.08586-7.8754 2.0579-2.9432 5.6092-3.2079 30.523 34.901 35.554 5.7148 0.84737 3.077 1.7158 6.51 3.8131" fill="none" stroke="#231f20" stroke-linecap="round" stroke-miterlimit="2.613" stroke-width=".37019"/>
 <path d="m110.47 76.624c2.787 5.3995 0.35189 10.847-1.6694 11.757-2.9123 1.3119-14.554-9.6686-5.9808-17.759" fill="#fff"/>
 <path d="m110.47 76.624c2.787 5.3995 0.35189 10.847-1.6694 11.757-2.9123 1.3119-14.554-9.6686-5.9808-17.759m18.496 12.657c1.0937 3.9849 1.5357 3.1065-1.0163 7.3053m-3.1558-8.392c-0.47154 4.1186-3.1248 4.8758-0.31107 9.3336" fill="none" stroke="#231f20" stroke-linecap="round" stroke-miterlimit="2.613" stroke-width=".37019"/>
</svg>
