<?xml version="1.0" encoding="UTF-8" standalone="no"?>
<!-- Generator: Adobe Illustrator 19.2.1, SVG Export Plug-In . SVG Version: 6.00 Build 0)  -->

<svg
   xmlns:dc="http://purl.org/dc/elements/1.1/"
   xmlns:cc="http://creativecommons.org/ns#"
   xmlns:rdf="http://www.w3.org/1999/02/22-rdf-syntax-ns#"
   xmlns:svg="http://www.w3.org/2000/svg"
   xmlns="http://www.w3.org/2000/svg"
   xmlns:sodipodi="http://sodipodi.sourceforge.net/DTD/sodipodi-0.dtd"
   xmlns:inkscape="http://www.inkscape.org/namespaces/inkscape"
   version="1.2"
   id="Layer_1"
   x="0px"
   y="0px"
   viewBox="0 0 50.5 50.5"
   xml:space="preserve"
   sodipodi:docname="icon.svg"
   inkscape:version="0.92.4 (5da689c313, 2019-01-14)"><metadata
   id="metadata15"><rdf:RDF><cc:Work
       rdf:about=""><dc:format>image/svg+xml</dc:format><dc:type
         rdf:resource="http://purl.org/dc/dcmitype/StillImage" /></cc:Work></rdf:RDF></metadata><defs
   id="defs13"><marker
     inkscape:isstock="true"
     style="overflow:visible"
     id="Arrow1Send"
     refX="0"
     refY="0"
     orient="auto"
     inkscape:stockid="Arrow1Send"><path
       transform="matrix(-0.2,0,0,-0.2,-1.2,0)"
       style="fill:#000000;fill-opacity:1;fill-rule:evenodd;stroke:#000000;stroke-width:1.00000003pt;stroke-opacity:1"
       d="M 0,0 5,-5 -12.5,0 5,5 Z"
       id="path4714"
       inkscape:connector-curvature="0" /></marker><clipPath
     id="clipPath69-0"><path
       d="m 409.441,126.252 v -43.63 h 147.796 v 43.63"
       id="path71-2"
       inkscape:connector-curvature="0" /></clipPath><clipPath
     id="clipPath101-1"><path
       d="m 409.441,126.252 v -43.63 h 147.796 v 43.63"
       id="path103-6"
       inkscape:connector-curvature="0" /></clipPath><clipPath
     id="clipPath69"><path
       d="m 409.441,126.252 v -43.63 h 147.796 v 43.63"
       id="path71"
       inkscape:connector-curvature="0" /></clipPath><clipPath
     id="clipPath101"><path
       d="m 409.441,126.252 v -43.63 h 147.796 v 43.63"
       id="path103"
       inkscape:connector-curvature="0" /></clipPath></defs><sodipodi:namedview
   pagecolor="#ffffff"
   bordercolor="#666666"
   borderopacity="1"
   objecttolerance="10"
   gridtolerance="10"
   guidetolerance="10"
   inkscape:pageopacity="0"
   inkscape:pageshadow="2"
   inkscape:window-width="1680"
   inkscape:window-height="987"
   id="namedview11"
   showgrid="false"
   inkscape:zoom="8"
   inkscape:cx="10.579592"
   inkscape:cy="13.523591"
   inkscape:window-x="-8"
   inkscape:window-y="-8"
   inkscape:window-maximized="1"
   inkscape:current-layer="layer2" />




<g
   inkscape:groupmode="layer"
   id="layer3"
   inkscape:label="Layer 3" /><g
   inkscape:groupmode="layer"
   id="layer2"
   inkscape:label="Layer 2"><path
     style="fill:none;stroke:#000000;stroke-width:0.3;stroke-linecap:butt;stroke-linejoin:miter;stroke-opacity:1;stroke-miterlimit:4;stroke-dasharray:none"
     d="m 12.197034,29.904131 c 0,0 1.507647,-2.813446 2.567797,-3.985434 1.238618,-1.369284 4.333156,-3.450477 4.333156,-3.450477 l 6.285753,-0.02675 -0.0067,0.367784 2.487553,-0.02006 0.0067,-0.347723 6.499735,-0.02675 c 0,0 2.793403,1.862399 3.931938,3.076007 1.123499,1.197581 2.78178,4.065678 2.78178,4.065678 v 13.454184 c 0,0 -1.386111,2.363092 -2.27357,3.396981 -0.850811,0.991194 -2.888771,2.64804 -2.888771,2.64804 l -2.313692,0.01338 -0.02675,-0.548332 -2.701536,0.02283 0.0016,0.595616 -1.021287,-2e-6 0.0033,-0.591698 -2.716532,-0.0039 -0.0039,0.599533 -1.006963,-0.0055 -0.0039,-0.603449 -2.659119,0.0095 0.01108,0.605745 -1.083289,-4e-6 -0.0039,-0.611284 -2.657497,-0.01729 -0.02675,0.657618 -2.40731,-0.01567 c 0,0 -2.354631,-1.933851 -3.316737,-3.102754 -0.748356,-0.90921 -1.872352,-2.995763 -1.872352,-2.995763 z"
     id="path834"
     inkscape:connector-curvature="0"
     sodipodi:nodetypes="caccccccaccaccccccccccccccccccacc" /><g
     id="g842"><path
       sodipodi:nodetypes="ccccc"
       inkscape:connector-curvature="0"
       id="path836"
       d="m 19.726563,45.244041 2.741657,-0.01337 6e-6,2.728284 -2.741659,-0.02675 z"
       style="fill:none;stroke:#000000;stroke-width:0.3;stroke-linecap:butt;stroke-linejoin:miter;stroke-opacity:1;stroke-miterlimit:4;stroke-dasharray:none" /><path
       d="m 21.120702,45.538275 a 1.0699152,1.0699152 0 0 1 1.066661,1.073117 1.0699152,1.0699152 0 0 1 -1.073076,1.066703 1.0699152,1.0699152 0 0 1 -1.066745,-1.073033 1.0699152,1.0699152 0 0 1 1.072992,-1.066788"
       sodipodi:open="true"
       sodipodi:end="4.7152688"
       sodipodi:start="4.7154259"
       sodipodi:ry="1.0699152"
       sodipodi:rx="1.0699152"
       sodipodi:cy="46.608185"
       sodipodi:cx="21.117453"
       sodipodi:type="arc"
       id="path838"
       style="fill:#000000;fill-opacity:1;fill-rule:evenodd;stroke:none;stroke-width:0.08988764;stroke-miterlimit:4;stroke-dasharray:none;stroke-opacity:0.94423792" /></g><g
     id="g854"
     transform="matrix(1,0,0,1.0176826,3.704308,-0.81541976)"><path
       style="fill:none;stroke:#000000;stroke-width:0.30000001;stroke-linecap:butt;stroke-linejoin:miter;stroke-miterlimit:4;stroke-dasharray:none;stroke-opacity:1"
       d="m 19.726563,45.244041 2.741657,-0.01337 6e-6,2.728284 -2.741659,-0.02675 z"
       id="path850"
       inkscape:connector-curvature="0"
       sodipodi:nodetypes="ccccc" /><path
       style="fill:#000000;fill-opacity:1;fill-rule:evenodd;stroke:none;stroke-width:0.08988764;stroke-miterlimit:4;stroke-dasharray:none;stroke-opacity:0.94423792"
       id="path852"
       sodipodi:type="arc"
       sodipodi:cx="21.117453"
       sodipodi:cy="46.608185"
       sodipodi:rx="1.0699152"
       sodipodi:ry="1.0699152"
       sodipodi:start="4.7154259"
       sodipodi:end="4.7152688"
       sodipodi:open="true"
       d="m 21.120702,45.538275 a 1.0699152,1.0699152 0 0 1 1.066661,1.073117 1.0699152,1.0699152 0 0 1 -1.073076,1.066703 1.0699152,1.0699152 0 0 1 -1.066745,-1.073033 1.0699152,1.0699152 0 0 1 1.072992,-1.066788" /></g><g
     transform="matrix(1,0,0,1.0176826,7.423058,-0.81541976)"
     id="g860"><path
       sodipodi:nodetypes="ccccc"
       inkscape:connector-curvature="0"
       id="path856"
       d="m 19.726563,45.244041 2.741657,-0.01337 6e-6,2.728284 -2.741659,-0.02675 z"
       style="fill:none;stroke:#000000;stroke-width:0.30000001;stroke-linecap:butt;stroke-linejoin:miter;stroke-miterlimit:4;stroke-dasharray:none;stroke-opacity:1" /><path
       d="m 21.120702,45.538275 a 1.0699152,1.0699152 0 0 1 1.066661,1.073117 1.0699152,1.0699152 0 0 1 -1.073076,1.066703 1.0699152,1.0699152 0 0 1 -1.066745,-1.073033 1.0699152,1.0699152 0 0 1 1.072992,-1.066788"
       sodipodi:open="true"
       sodipodi:end="4.7152688"
       sodipodi:start="4.7154259"
       sodipodi:ry="1.0699152"
       sodipodi:rx="1.0699152"
       sodipodi:cy="46.608185"
       sodipodi:cx="21.117453"
       sodipodi:type="arc"
       id="path858"
       style="fill:#000000;fill-opacity:1;fill-rule:evenodd;stroke:none;stroke-width:0.08988764;stroke-miterlimit:4;stroke-dasharray:none;stroke-opacity:0.94423792" /></g><g
     id="g866"
     transform="matrix(1,0,0,1.0176826,11.110558,-0.81541976)"><path
       style="fill:none;stroke:#000000;stroke-width:0.30000001;stroke-linecap:butt;stroke-linejoin:miter;stroke-miterlimit:4;stroke-dasharray:none;stroke-opacity:1"
       d="m 19.726563,45.244041 2.741657,-0.01337 6e-6,2.728284 -2.741659,-0.02675 z"
       id="path862"
       inkscape:connector-curvature="0"
       sodipodi:nodetypes="ccccc" /><path
       style="fill:#000000;fill-opacity:1;fill-rule:evenodd;stroke:none;stroke-width:0.08988764;stroke-miterlimit:4;stroke-dasharray:none;stroke-opacity:0.94423792"
       id="path864"
       sodipodi:type="arc"
       sodipodi:cx="21.117453"
       sodipodi:cy="46.608185"
       sodipodi:rx="1.0699152"
       sodipodi:ry="1.0699152"
       sodipodi:start="4.7154259"
       sodipodi:end="4.7152688"
       sodipodi:open="true"
       d="m 21.120702,45.538275 a 1.0699152,1.0699152 0 0 1 1.066661,1.073117 1.0699152,1.0699152 0 0 1 -1.073076,1.066703 1.0699152,1.0699152 0 0 1 -1.066745,-1.073033 1.0699152,1.0699152 0 0 1 1.072992,-1.066788" /></g><path
     style="fill:none;stroke:#000000;stroke-width:0.40000001;stroke-linecap:butt;stroke-linejoin:miter;stroke-miterlimit:4;stroke-dasharray:none;stroke-opacity:1"
     d="M 15.03125,43.21875 21.125,43.125"
     id="path868"
     inkscape:connector-curvature="0" /><path
     inkscape:connector-curvature="0"
     id="path870"
     d="m 23.5,43.1875 6.09375,-0.09375"
     style="fill:none;stroke:#000000;stroke-width:0.40000001;stroke-linecap:butt;stroke-linejoin:miter;stroke-miterlimit:4;stroke-dasharray:none;stroke-opacity:1" /><path
     style="fill:none;stroke:#000000;stroke-width:0.40000001;stroke-linecap:butt;stroke-linejoin:miter;stroke-miterlimit:4;stroke-dasharray:none;stroke-opacity:1"
     d="M 32,43.15625 38.09375,43.0625"
     id="path872"
     inkscape:connector-curvature="0" /><path
     inkscape:connector-curvature="0"
     id="path874"
     d="M 15.09375,41.1875 21.1875,41.09375"
     style="fill:none;stroke:#000000;stroke-width:0.40000001;stroke-linecap:butt;stroke-linejoin:miter;stroke-miterlimit:4;stroke-dasharray:none;stroke-opacity:1" /><path
     style="fill:none;stroke:#000000;stroke-width:0.40000001;stroke-linecap:butt;stroke-linejoin:miter;stroke-miterlimit:4;stroke-dasharray:none;stroke-opacity:1"
     d="M 23.5625,41.15625 29.65625,41.0625"
     id="path876"
     inkscape:connector-curvature="0" /><path
     inkscape:connector-curvature="0"
     id="path878"
     d="m 32.0625,41.125 6.09375,-0.09375"
     style="fill:none;stroke:#000000;stroke-width:0.40000001;stroke-linecap:butt;stroke-linejoin:miter;stroke-miterlimit:4;stroke-dasharray:none;stroke-opacity:1" /><path
     style="fill:none;stroke:#000000;stroke-width:0.40000001;stroke-linecap:butt;stroke-linejoin:miter;stroke-miterlimit:4;stroke-dasharray:none;stroke-opacity:1"
     d="m 15.0625,39.125 6.09375,-0.09375"
     id="path880"
     inkscape:connector-curvature="0" /><path
     inkscape:connector-curvature="0"
     id="path882"
     d="M 23.53125,39.09375 29.625,39"
     style="fill:none;stroke:#000000;stroke-width:0.40000001;stroke-linecap:butt;stroke-linejoin:miter;stroke-miterlimit:4;stroke-dasharray:none;stroke-opacity:1" /><path
     style="fill:none;stroke:#000000;stroke-width:0.40000001;stroke-linecap:butt;stroke-linejoin:miter;stroke-miterlimit:4;stroke-dasharray:none;stroke-opacity:1"
     d="M 32.03125,39.0625 38.125,38.96875"
     id="path884"
     inkscape:connector-curvature="0" /><path
     inkscape:connector-curvature="0"
     id="path886"
     d="M 15,37.15625 21.09375,37.0625"
     style="fill:none;stroke:#000000;stroke-width:0.40000001;stroke-linecap:butt;stroke-linejoin:miter;stroke-miterlimit:4;stroke-dasharray:none;stroke-opacity:1" /><path
     style="fill:none;stroke:#000000;stroke-width:0.40000001;stroke-linecap:butt;stroke-linejoin:miter;stroke-miterlimit:4;stroke-dasharray:none;stroke-opacity:1"
     d="M 23.46875,37.125 29.5625,37.03125"
     id="path888"
     inkscape:connector-curvature="0" /><path
     inkscape:connector-curvature="0"
     id="path890"
     d="M 31.96875,37.09375 38.0625,37"
     style="fill:none;stroke:#000000;stroke-width:0.40000001;stroke-linecap:butt;stroke-linejoin:miter;stroke-miterlimit:4;stroke-dasharray:none;stroke-opacity:1" /><path
     style="fill:none;stroke:#000000;stroke-width:0.40000001;stroke-linecap:butt;stroke-linejoin:miter;stroke-miterlimit:4;stroke-dasharray:none;stroke-opacity:1"
     d="M 15,35.21875 21.09375,35.125"
     id="path892"
     inkscape:connector-curvature="0" /><path
     inkscape:connector-curvature="0"
     id="path894"
     d="M 23.46875,35.1875 29.5625,35.09375"
     style="fill:none;stroke:#000000;stroke-width:0.40000001;stroke-linecap:butt;stroke-linejoin:miter;stroke-miterlimit:4;stroke-dasharray:none;stroke-opacity:1" /><path
     style="fill:none;stroke:#000000;stroke-width:0.40000001;stroke-linecap:butt;stroke-linejoin:miter;stroke-miterlimit:4;stroke-dasharray:none;stroke-opacity:1"
     d="M 31.96875,35.15625 38.0625,35.0625"
     id="path896"
     inkscape:connector-curvature="0" /><path
     inkscape:connector-curvature="0"
     id="path898"
     d="M 15.03125,33.21875 21.125,33.125"
     style="fill:none;stroke:#000000;stroke-width:0.40000001;stroke-linecap:butt;stroke-linejoin:miter;stroke-miterlimit:4;stroke-dasharray:none;stroke-opacity:1" /><path
     style="fill:none;stroke:#000000;stroke-width:0.40000001;stroke-linecap:butt;stroke-linejoin:miter;stroke-miterlimit:4;stroke-dasharray:none;stroke-opacity:1"
     d="m 23.5,33.1875 6.09375,-0.09375"
     id="path900"
     inkscape:connector-curvature="0" /><path
     inkscape:connector-curvature="0"
     id="path902"
     d="M 32,33.15625 38.09375,33.0625"
     style="fill:none;stroke:#000000;stroke-width:0.40000001;stroke-linecap:butt;stroke-linejoin:miter;stroke-miterlimit:4;stroke-dasharray:none;stroke-opacity:1" /><path
     style="fill:#000000;fill-rule:evenodd;fill-opacity:1;stroke:none"
     id="path904"
     sodipodi:type="arc"
     sodipodi:cx="16.375"
     sodipodi:cy="30.71875"
     sodipodi:rx="1.3125"
     sodipodi:ry="1.3125"
     sodipodi:start="4.7154259"
     sodipodi:end="4.7152688"
     sodipodi:open="true"
     d="m 16.378986,29.406256 a 1.3125,1.3125 0 0 1 1.308508,1.316428 1.3125,1.3125 0 0 1 -1.316377,1.30856 1.3125,1.3125 0 0 1 -1.308611,-1.316325 1.3125,1.3125 0 0 1 1.316274,-1.308664" /><path
     d="m 17.228769,26.320316 a 0.7265625,0.7265625 0 0 1 0.724353,0.728737 0.7265625,0.7265625 0 0 1 -0.728709,0.724381 0.7265625,0.7265625 0 0 1 -0.72441,-0.72868 0.7265625,0.7265625 0 0 1 0.728652,-0.724438"
     sodipodi:open="true"
     sodipodi:end="4.7152688"
     sodipodi:start="4.7154259"
     sodipodi:ry="0.7265625"
     sodipodi:rx="0.7265625"
     sodipodi:cy="27.046875"
     sodipodi:cx="17.226562"
     sodipodi:type="arc"
     id="path906"
     style="fill:#000000;fill-opacity:1;fill-rule:evenodd;stroke:none;stroke-width:0.5535714" /><path
     style="fill:none;stroke:#000000;stroke-width:0.30000001;stroke-linecap:butt;stroke-linejoin:miter;stroke-miterlimit:4;stroke-dasharray:none;stroke-opacity:1"
     d="M 34.371028,22.414721 32.76998,21.243457 17.942835,21.132972 c 0,0 -2.20194,1.073025 -4.198447,3.226174 -2.092743,2.256935 -2.717942,4.70668 -2.717942,4.70668 0,0 -1.5524944,0.0026 -3.1819802,0.04419 -0.4680187,0.01194 -0.9605492,0.233804 -1.281631,0.574524 -0.3565196,0.378326 -0.5496221,0.938573 -0.5524272,1.458408 -0.018048,3.344493 0.011141,4.95048 0.022097,7.910757 0.00179,0.482548 0.3849565,0.923355 0.751301,1.237437 0.3510006,0.300927 0.8192924,0.52904 1.281631,0.53033 1.7493227,0.0049 2.9610094,0 2.9610094,0 l 0.06629,0.552427 1.024133,1.690284 v 0"
     id="path908"
     inkscape:connector-curvature="0"
     sodipodi:nodetypes="cccscsassascccc" /><path
     style="fill:none;stroke:#000000;stroke-width:0.3;stroke-linecap:butt;stroke-linejoin:miter;stroke-opacity:1;stroke-miterlimit:4;stroke-dasharray:none"
     d="M 11.026446,40.821472 V 29.065826"
     id="path910"
     inkscape:connector-curvature="0" /><path
     style="fill:none;stroke:#000000;stroke-width:0.3;stroke-linecap:butt;stroke-linejoin:miter;stroke-opacity:1;stroke-miterlimit:4;stroke-dasharray:none"
     d="m 11.026446,29.065826 1.170588,0.838305"
     id="path912"
     inkscape:connector-curvature="0" /><path
     style="fill:none;stroke:#000000;stroke-width:0.3;stroke-linecap:butt;stroke-linejoin:miter;stroke-opacity:1;stroke-miterlimit:4;stroke-dasharray:none"
     d="m 17.942835,21.132972 1.155152,1.335248"
     id="path914"
     inkscape:connector-curvature="0" /><path
     style="fill:none;stroke:#000000;stroke-width:0.30000001;stroke-linecap:butt;stroke-linejoin:miter;stroke-miterlimit:4;stroke-dasharray:none;stroke-opacity:1"
     d="m 28.066606,22.429752 -1.218645,-0.700159 -2.05503,-0.0221 0.629872,0.683196"
     id="path916"
     inkscape:connector-curvature="0"
     sodipodi:nodetypes="cccc" /><path
     style="fill:none;stroke:#000000;stroke-width:0.60000002;stroke-linecap:round;stroke-linejoin:miter;stroke-miterlimit:4;stroke-dasharray:none;stroke-opacity:1"
     d="m 26.074562,22.083146 c 0,0 -0.06123,-0.863878 0.220971,-1.237437 2.191744,-2.90127 2.520469,-3.296351 3.712311,-4.993941 0.781784,-1.113527 1.801887,-2.119671 2.253903,-3.402952 0.530832,-1.50704 0.713373,-3.1983987 0.441942,-4.7729704 C 32.441685,6.1559629 31.835958,4.5815567 30.759145,3.4773991 29.806995,2.5010698 28.428981,1.9294329 27.091029,1.665438 25.627801,1.3767245 24.023402,1.4498035 22.627417,1.9747972 21.39745,2.4373558 20.161958,3.232232 19.489631,4.3612826 c -0.872518,1.4652346 -1.089075,2.5367991 -1.237437,3.8890873 -0.125816,1.1467852 -0.01012,2.3293371 0.309359,3.4471451 0.29971,1.048634 0.657191,1.736291 1.546796,2.784233 0.707223,0.833099 2.067449,1.374148 3.093592,1.325826 1.180605,-0.0556 3.49134,-0.618719 3.49134,-0.618719 l 4.065864,-1.458408 2.253903,-0.839689 1.679378,-1.546796"
     id="path920"
     inkscape:connector-curvature="0"
     sodipodi:nodetypes="csaaaaaasassscccc" /><path
     style="fill:none;stroke:#000000;stroke-width:1px;stroke-linecap:round;stroke-linejoin:miter;stroke-opacity:1"
     d="m 24.748737,15.674991 7.822369,-2.65165"
     id="path922"
     inkscape:connector-curvature="0"
     sodipodi:nodetypes="cc" /><path
     style="fill:none;stroke:#000000;stroke-width:0.30000001;stroke-linecap:butt;stroke-linejoin:miter;stroke-miterlimit:4;stroke-dasharray:none;stroke-opacity:1"
     d="m 41.203125,40.421875 c 0,0 0.513162,0.0151 1.578125,0 0.44202,-0.0063 0.80735,-0.413256 1.09375,-0.75 0.25359,-0.298167 0.500281,-0.671077 0.5,-1.0625 -0.0021,-2.8739 -0.0036,-4.969508 0,-7.921875 5.68e-4,-0.465993 -0.273897,-0.926739 -0.59375,-1.265625 -0.292731,-0.31015 -0.698551,-0.604247 -1.125,-0.609375 -1.506949,-0.01812 -2,0.03125 -2,0.03125"
     id="path924"
     inkscape:connector-curvature="0"
     sodipodi:nodetypes="csassasc" /><path
     style="fill:none;stroke:#000000;stroke-width:0.1;stroke-linecap:butt;stroke-linejoin:miter;stroke-miterlimit:4;stroke-dasharray:none;stroke-opacity:1"
     d="m 8.09375,33.421875 c 0,0 -0.6400088,-0.591941 -0.609375,-1.390625 C 7.5024976,31.558757 7.7612304,31.067702 8.125,30.765625 8.4255186,30.516072 8.8595738,30.425039 9.25,30.4375 c 0.3820418,0.01219 0.804876,0.123343 1.078125,0.390625 0.319443,0.312467 0.459104,0.80386 0.484375,1.25 0.01858,0.32793 -0.06888,0.679123 -0.25,0.953125 -0.198496,0.30028 -0.6875,0.5 -0.6875,0.5 0,0 -0.076443,1.765229 0.015625,2.640625 0.051177,0.486595 0.161201,0.942943 0.296875,1.4375 0.07303,0.266206 0.05962,0.533173 -0.04687,0.765625 -0.121191,0.264528 -0.3495717,0.515557 -0.625,0.609375 C 9.2178086,39.085819 8.8247744,39.070319 8.578125,38.875 8.3262585,38.67555 8.3218629,38.281884 8.25,37.96875 8.1375546,37.478782 8.137889,36.969514 8.09375,36.46875 8.0492758,35.964184 7.9845605,35.459647 7.984375,34.953125 7.9841876,34.441408 8.09375,33.421875 8.09375,33.421875 Z"
     id="path926"
     inkscape:connector-curvature="0"
     sodipodi:nodetypes="csaaaascasaaaaaac" /><path
     style="fill:none;stroke:#000000;stroke-width:0.1;stroke-linecap:butt;stroke-linejoin:miter;stroke-miterlimit:4;stroke-dasharray:none;stroke-opacity:1"
     d="m 41.222116,30.601573 c 0,0 0.480739,0.01192 0.718155,0.375651 0.230613,0.353304 0.313191,0.795368 0.353553,1.21534 0.120613,1.254983 0.10936,1.265722 0.121534,1.900349 0.01385,0.72194 -0.259997,1.3864 -0.05524,2.165515 0.07419,0.282303 0.456638,0.311296 0.541379,1.104854 0.03873,0.362688 -0.02146,0.766357 -0.220971,1.071709 -0.195065,0.298552 -0.540132,0.490295 -0.872835,0.618718 -0.200721,0.07748 -0.640815,0.07734 -0.640815,0.07734"
     id="path928"
     inkscape:connector-curvature="0"
     sodipodi:nodetypes="cssassaac" /><path
     style="fill:none;stroke:#000000;stroke-width:0.1;stroke-linecap:butt;stroke-linejoin:miter;stroke-miterlimit:4;stroke-dasharray:none;stroke-opacity:1"
     d="m 35.1875,26.09375 c -5.126582,0.009 -10.742484,-0.01793 -16.28125,-0.03125 -0.15315,-3.68e-4 -0.306105,0.102554 -0.4025,0.221563 -0.115839,0.143014 -0.160709,0.344396 -0.16,0.528437 0.0072,1.878066 0.01534,2.613226 0.03125,4.4375 0.0028,0.316799 0.339446,0.689483 0.65625,0.6875 5.033833,-0.03151 10.231712,0.0017 15.8125,-0.125 0.318777,-0.0072 0.748976,-0.274893 0.75,-0.59375 0.0061,-1.884672 -8.36e-4,-2.209187 0,-4.5625 8.2e-5,-0.231288 -0.174963,-0.562908 -0.40625,-0.5625 z"
     id="path930"
     inkscape:connector-curvature="0"
     sodipodi:nodetypes="ssasssssss" /><g
     id="g1023"
     transform="matrix(0.01119928,0,0,0.01119928,28.289259,24.211285)"><g
       style="fill:#000000;fill-opacity:1"
       transform="matrix(3.9617467,0,0,-3.9617467,-1584.8706,690.47633)"
       id="g11"><g
         style="fill:#000000;fill-opacity:1"
         transform="translate(1.4705494,-0.9803663)"
         id="g2510"><path
           inkscape:connector-curvature="0"
           d="m 426.252,119.898 c -3.379,1.5 -5.394,2.082 -7.395,2.082 -2.1,0 -3.445,-0.752 -3.445,-1.914 0,-3.507 11.897,-2.52 11.897,-10.632 0,-4.473 -3.753,-7.072 -8.967,-7.072 -4.09,0 -6.104,1.058 -8.424,2.256 v 5.018 c 3.346,-2.217 5.394,-3 7.975,-3 2.238,0 3.445,0.783 3.445,2.148 0,3.819 -11.897,2.42 -11.897,10.773 0,4.028 3.481,6.695 8.901,6.695 2.616,0 4.976,-0.549 7.91,-1.811 v -4.543"
           id="path53"
           style="fill:#000000;fill-opacity:1;fill-rule:nonzero;stroke:none" /><path
           inkscape:connector-curvature="0"
           d="m 442.909,103.428 c -1.983,-0.719 -3.66,-1.062 -5.333,-1.062 -5.541,0 -9.123,3.227 -9.123,8.137 0,4.82 3.721,8.225 8.917,8.225 1.605,0 3.657,-0.411 5.298,-1.022 v -3.69 c -1.299,0.69 -2.803,1.068 -4.034,1.068 -2.974,0 -4.887,-1.787 -4.887,-4.545 0,-2.797 1.881,-4.638 4.715,-4.638 1.196,0 2.259,0.274 4.447,1.093 v -3.566"
           id="path55"
           style="fill:#000000;fill-opacity:1;fill-rule:nonzero;stroke:none" /><path
           inkscape:connector-curvature="0"
           d="m 486.109,112.311 c 0.203,2.19 1.475,3.456 3.423,3.456 1.915,0 3.213,-1.302 3.418,-3.456 z m 3.081,6.412 c -4.862,0 -8.323,-3.434 -8.323,-8.266 0,-4.868 3.599,-8.091 9.146,-8.091 1.229,0 4.201,0 7.032,2.095 v 3.081 c -2.319,-1.652 -3.853,-2.221 -5.833,-2.221 -3.125,0 -5.036,1.617 -5.209,4.377 h 11.321 c 0.235,5.761 -3.547,9.025 -8.134,9.025"
           id="path57"
           style="fill:#000000;fill-opacity:1;fill-rule:nonzero;stroke:none" /><path
           inkscape:connector-curvature="0"
           d="m 499.239,102.653 h 4.9502 v 15.779 h -4.9502 z"
           id="path59"
           style="fill:#000000;fill-opacity:1;fill-rule:nonzero;stroke:none" /><path
           inkscape:connector-curvature="0"
           d="m 517.964,106.966 c -1.031,-0.928 -1.888,-1.3 -2.945,-1.3 -2.331,0 -3.806,1.918 -3.806,4.793 0,3.15 1.475,4.966 3.97,4.966 0.893,0 2.059,-0.411 2.781,-0.926 z m 0,18.995 v -8.221 c -1.337,0.647 -2.67,0.988 -4.111,0.988 -4.515,0 -7.639,-3.337 -7.639,-8.166 0,-4.725 3.124,-8.2 7.36,-8.2 1.68,0 2.978,0.44 4.39,1.566 v -1.27 h 4.949 v 23.303 h -4.949"
           id="path61"
           style="fill:#000000;fill-opacity:1;fill-rule:nonzero;stroke:none" /><path
           inkscape:connector-curvature="0"
           d="m 530.24,112.311 c 0.206,2.19 1.471,3.456 3.416,3.456 1.918,0 3.229,-1.302 3.434,-3.456 z m 3.078,6.412 c -4.861,0 -8.316,-3.434 -8.316,-8.266 0,-4.868 3.599,-8.091 9.14,-8.091 1.227,0 4.205,0 7.043,2.095 v 3.081 c -2.322,-1.652 -3.859,-2.221 -5.848,-2.221 -3.108,0 -5.027,1.617 -5.2,4.377 h 11.316 c 0.235,5.761 -3.55,9.025 -8.135,9.025"
           id="path63"
           style="fill:#000000;fill-opacity:1;fill-rule:nonzero;stroke:none" /><g
           style="fill:#000000;fill-opacity:1"
           id="g65"><g
             style="fill:#000000;fill-opacity:1"
             clip-path="url(#clipPath69)"
             id="g67"><path
               inkscape:connector-curvature="0"
               d="m 548.863,113.914 h 0.073 c 1.469,3.284 3.114,4.824 5.023,4.824 0.989,0 1.842,-0.377 3.278,-1.439 l -1.362,-4.375 c -1.3,0.82 -2.154,1.163 -2.939,1.163 -1.816,0 -2.978,-1.712 -4.073,-4.606 v -6.807 h -4.956 v 15.775 h 4.956 v -4.535"
               id="path73"
               style="fill:#000000;fill-opacity:1;fill-rule:nonzero;stroke:none" /><path
               inkscape:connector-curvature="0"
               d="m 504.421,125.07 c 0.465,-1.226 -0.372,-2.936 -1.863,-3.816 -1.497,-0.879 -3.079,-0.6 -3.54,0.626 -0.47,1.228 0.363,2.94 1.858,3.815 1.493,0.884 3.076,0.604 3.545,-0.625"
               id="path75"
               style="fill:#000000;fill-opacity:1;fill-rule:nonzero;stroke:none" /></g></g><path
           inkscape:connector-curvature="0"
           d="m 460.738,112.696 c 0,4.276 -2.906,6.027 -5.774,6.027 -1.95,0 -3.553,-0.823 -4.987,-2.638 h -0.068 v 9.876 h -4.955 v -23.262 h 4.955 v 9.997 c 1.159,1.677 2.149,2.394 3.31,2.394 1.541,0 2.565,-1.096 2.565,-3.453 v -5.543 c 1.662,0.854 3.351,1.378 4.954,1.573 v 5.029"
           id="path77"
           style="fill:#000000;fill-opacity:1;fill-rule:nonzero;stroke:none" /><path
           inkscape:connector-curvature="0"
           d="m 473.166,118.728 c -2.018,0 -3.559,-0.75 -5.136,-2.554 v 2.258 h -4.953 v -10.723 c 1.716,-0.171 3.905,-0.958 4.953,-2.258 v 7.369 c 1.302,1.954 2.226,2.605 3.458,2.605 1.403,0 2.469,-0.926 2.469,-3.151 v -9.58 h 4.954 v 9.99 c 0,4.647 -3.282,6.044 -5.745,6.044"
           id="path79"
           style="fill:#000000;fill-opacity:1;fill-rule:nonzero;stroke:none" /><path
           inkscape:connector-curvature="0"
           d="m 481.647,98.163 h -5.756 v -4.09 h 5.553 v -1.755 h -5.553 v -4.219 h 5.928 v -1.753 h -7.858 v 13.568 h 7.686 v -1.751"
           id="path81"
           style="fill:#000000;fill-opacity:1;fill-rule:nonzero;stroke:none" /><path
           inkscape:connector-curvature="0"
           d="m 486.348,86.338 h 1.7631 v 13.58 h -1.7631 z"
           id="path83"
           style="fill:#000000;fill-opacity:1;fill-rule:nonzero;stroke:none" /><path
           inkscape:connector-curvature="0"
           d="m 496.84,93.944 c 1.25,0 2.025,-0.861 2.083,-2.214 h -4.49 c 0.243,1.413 1.056,2.214 2.407,2.214 z m -2.439,-3.391 h 6.281 c 0,3.311 -1.513,4.909 -3.882,4.909 -2.458,0 -4.165,-1.817 -4.165,-4.527 0,-2.477 1.542,-4.764 4.318,-4.764 1.513,0 2.491,0.336 3.574,1.055 v 1.716 c -1.046,-0.685 -2.061,-1.08 -3.129,-1.08 -1.708,0 -2.722,0.916 -2.997,2.691"
           id="path85"
           style="fill:#000000;fill-opacity:1;fill-rule:nonzero;stroke:none" /><path
           inkscape:connector-curvature="0"
           d="m 512.195,92.942 c -1.014,0.694 -1.691,0.898 -2.463,0.898 -1.614,0 -2.732,-1.238 -2.732,-3.051 0,-1.847 1.19,-2.96 3.027,-2.96 0.756,0 1.476,0.196 2.365,0.594 v -1.739 c -0.594,-0.28 -1.726,-0.513 -2.66,-0.513 -2.67,0 -4.523,1.836 -4.523,4.46 0,2.961 1.693,4.831 4.402,4.831 1.035,0 1.731,-0.241 2.584,-0.616 v -1.904"
           id="path87"
           style="fill:#000000;fill-opacity:1;fill-rule:nonzero;stroke:none" /><path
           inkscape:connector-curvature="0"
           d="m 520.228,95.291 h 2.83 v -1.589 h -2.83 V 89.11 c 0,-1.051 0.761,-1.355 1.275,-1.355 0.638,0 1.296,0.223 2.01,0.664 v -1.654 c -0.619,-0.341 -1.569,-0.594 -2.151,-0.594 -1.92,0 -2.891,1.192 -2.891,2.806 v 4.725 h -1.555 v 0.197 l 3.312,3.241 v -1.849"
           id="path89"
           style="fill:#000000;fill-opacity:1;fill-rule:nonzero;stroke:none" /><path
           inkscape:connector-curvature="0"
           d="M 529.8,95.291 V 93.22 h 0.036 c 0.899,1.585 1.754,2.242 2.586,2.242 0.718,0 1.39,-0.337 2.129,-1.036 l -0.934,-1.554 c -0.537,0.531 -1.231,0.897 -1.65,0.897 -1.214,0 -2.167,-1.234 -2.167,-2.763 v -4.668 h -1.761 v 8.953 h 1.761"
           id="path91"
           style="fill:#000000;fill-opacity:1;fill-rule:nonzero;stroke:none" /><path
           inkscape:connector-curvature="0"
           d="m 552.618,92.942 c -1.019,0.694 -1.695,0.898 -2.472,0.898 -1.61,0 -2.719,-1.238 -2.719,-3.051 0,-1.847 1.191,-2.96 3.017,-2.96 0.757,0 1.473,0.196 2.374,0.594 v -1.739 c -0.607,-0.28 -1.74,-0.513 -2.672,-0.513 -2.666,0 -4.527,1.836 -4.527,4.46 0,2.961 1.701,4.831 4.41,4.831 1.037,0 1.726,-0.241 2.589,-0.616 v -1.904"
           id="path93"
           style="fill:#000000;fill-opacity:1;fill-rule:nonzero;stroke:none" /><path
           inkscape:connector-curvature="0"
           d="m 539.225,86.338 h 1.7628 v 8.9527 h -1.7628 z"
           id="path95"
           style="fill:#000000;fill-opacity:1;fill-rule:nonzero;stroke:none" /><g
           style="fill:#000000;fill-opacity:1"
           id="g97"><g
             style="fill:#000000;fill-opacity:1"
             clip-path="url(#clipPath101)"
             id="g99"><path
               inkscape:connector-curvature="0"
               d="m 541.047,98.507 c 0.172,-0.432 -0.129,-1.043 -0.659,-1.354 -0.534,-0.312 -1.099,-0.212 -1.26,0.221 -0.161,0.437 0.131,1.043 0.667,1.355 0.529,0.316 1.091,0.215 1.252,-0.222"
               id="path105"
               style="fill:#000000;fill-opacity:1;fill-rule:nonzero;stroke:none" /><path
               inkscape:connector-curvature="0"
               d="m 462.13,97.783 c -0.311,0 -0.442,-0.051 -0.569,-0.193 -0.05,-0.055 -0.07,-0.111 -0.088,-0.223 l -1.581,-5.996 c -0.371,-2.103 -2.954,-4.203 -6.321,-4.203 h -4.681 l 0.812,3.081 h 3.007 c 0.307,0 0.547,0.114 0.748,0.338 0.074,0.087 0.17,0.223 0.183,0.363 l 1.248,5.239 c 0.368,2.104 2.591,4.428 5.957,4.428 h 4.794 l -0.613,-2.834 z m 1.08,-3.654 0.535,1.94 h 4.87 c 0.601,2.813 0.128,5.419 -1.579,7.126 -3.455,3.455 -10.683,2.281 -16.068,-2.871 -0.841,-0.8 -1.551,-1.665 -2.198,-2.549 h 2.932 l -0.682,-1.944 h -3.503 c -0.335,-0.613 -0.649,-1.221 -0.889,-1.838 h 4.154 l -0.665,-1.944 h -4.082 c -0.698,-2.97 -0.253,-5.74 1.503,-7.499 3.412,-3.411 10.618,-2.212 16,2.939 0.942,0.896 1.72,1.863 2.423,2.856 h -3.767 l 0.574,1.94 h 4.404 c 0.323,0.617 0.62,1.227 0.852,1.844 h -4.814"
               id="path107"
               style="fill:#000000;fill-opacity:1;fill-rule:nonzero;stroke:none" /></g></g></g></g></g><text
     xml:space="preserve"
     style="font-style:normal;font-weight:normal;font-size:1.53999484px;line-height:1.25;font-family:sans-serif;letter-spacing:0px;word-spacing:0px;fill:#000000;fill-opacity:1;stroke:none;stroke-width:0.03849987"
     x="18.639175"
     y="27.921034"
     id="text1043"><tspan
       sodipodi:role="line"
       id="tspan1041"
       x="18.639175"
       y="27.921034"
       style="stroke-width:0.03849987">MTN507501</tspan></text>
<text
     id="text4750"
     y="30.858126"
     x="18.706003"
     style="font-style:normal;font-weight:normal;font-size:1.20055568px;line-height:1.25;font-family:sans-serif;letter-spacing:0px;word-spacing:0px;fill:#000000;fill-opacity:1;stroke:none;stroke-width:0.03001389"
     xml:space="preserve"><tspan
       style="stroke-width:0.03001389"
       y="30.858126"
       x="18.706003"
       id="tspan4748"
       sodipodi:role="line">CONNECT, switch 1-gang</tspan></text>
</g><g
   inkscape:groupmode="layer"
   id="layer1"
   inkscape:label="Layer 1" /><style
   id="style2"
   type="text/css">
	.st0{fill:none;stroke:#000000;stroke-width:2;stroke-linecap:round;stroke-linejoin:round;stroke-miterlimit:10;}
</style></svg>