<?xml version="1.0" encoding="UTF-8" standalone="no"?>
<!-- Generator: Adobe Illustrator 19.2.1, SVG Export Plug-In . SVG Version: 6.00 Build 0)  -->

<svg
   xmlns:dc="http://purl.org/dc/elements/1.1/"
   xmlns:cc="http://creativecommons.org/ns#"
   xmlns:rdf="http://www.w3.org/1999/02/22-rdf-syntax-ns#"
   xmlns:svg="http://www.w3.org/2000/svg"
   xmlns="http://www.w3.org/2000/svg"
   xmlns:sodipodi="http://sodipodi.sourceforge.net/DTD/sodipodi-0.dtd"
   xmlns:inkscape="http://www.inkscape.org/namespaces/inkscape"
   version="1.2"
   id="Layer_1"
   x="0px"
   y="0px"
   viewBox="0 0 50.5 50.5"
   xml:space="preserve"
   sodipodi:docname="icon.svg"
   inkscape:version="0.92.4 (5da689c313, 2019-01-14)"><metadata
   id="metadata15"><rdf:RDF><cc:Work
       rdf:about=""><dc:format>image/svg+xml</dc:format><dc:type
         rdf:resource="http://purl.org/dc/dcmitype/StillImage" /></cc:Work></rdf:RDF></metadata><defs
   id="defs13"><marker
     inkscape:isstock="true"
     style="overflow:visible"
     id="Arrow1Send"
     refX="0"
     refY="0"
     orient="auto"
     inkscape:stockid="Arrow1Send"><path
       transform="matrix(-0.2,0,0,-0.2,-1.2,0)"
       style="fill:#000000;fill-opacity:1;fill-rule:evenodd;stroke:#000000;stroke-width:1.00000003pt;stroke-opacity:1"
       d="M 0,0 5,-5 -12.5,0 5,5 Z"
       id="path4714"
       inkscape:connector-curvature="0" /></marker><clipPath
     id="clipPath69-0"><path
       d="m 409.441,126.252 v -43.63 h 147.796 v 43.63"
       id="path71-2"
       inkscape:connector-curvature="0" /></clipPath><clipPath
     id="clipPath101-1"><path
       d="m 409.441,126.252 v -43.63 h 147.796 v 43.63"
       id="path103-6"
       inkscape:connector-curvature="0" /></clipPath><clipPath
     id="clipPath69"><path
       d="m 409.441,126.252 v -43.63 h 147.796 v 43.63"
       id="path71"
       inkscape:connector-curvature="0" /></clipPath><clipPath
     id="clipPath101"><path
       d="m 409.441,126.252 v -43.63 h 147.796 v 43.63"
       id="path103"
       inkscape:connector-curvature="0" /></clipPath><clipPath
     id="clipPath69-4"><path
       d="m 409.441,126.252 v -43.63 h 147.796 v 43.63"
       id="path71-3"
       inkscape:connector-curvature="0" /></clipPath><clipPath
     id="clipPath101-3"><path
       d="m 409.441,126.252 v -43.63 h 147.796 v 43.63"
       id="path103-2"
       inkscape:connector-curvature="0" /></clipPath></defs><sodipodi:namedview
   pagecolor="#ffffff"
   bordercolor="#666666"
   borderopacity="1"
   objecttolerance="10"
   gridtolerance="10"
   guidetolerance="10"
   inkscape:pageopacity="0"
   inkscape:pageshadow="2"
   inkscape:window-width="1680"
   inkscape:window-height="987"
   id="namedview11"
   showgrid="false"
   inkscape:zoom="11.313708"
   inkscape:cx="26.559989"
   inkscape:cy="29.541114"
   inkscape:window-x="-8"
   inkscape:window-y="-8"
   inkscape:window-maximized="1"
   inkscape:current-layer="layer2" />




<g
   inkscape:groupmode="layer"
   id="layer3"
   inkscape:label="Layer 3" /><g
   inkscape:groupmode="layer"
   id="layer2"
   inkscape:label="Layer 2">

<path
   style="fill:none;stroke:#000000;stroke-width:0.30000001;stroke-linecap:butt;stroke-linejoin:miter;stroke-miterlimit:4;stroke-dasharray:none;stroke-opacity:1"
   d="m 40.724874,41.15533 v 2.78125 l -0.78125,0.71875 -30.0312503,-0.03125 -0.8125,-0.84375 -0.0625,-7.59375 -1.5,-0.0625 0.03125,-3.46875 h -1.0625 l -0.0625,-13.21875 1.125,0.03125 -0.0625,-3.5625 1.59375,-0.03125 -0.03125,-7.3437499 1.2812503,-1.09375 h 29.5625 l 0.75,0.84375 0.0625,2.6562499 -0.25,-0.1875 -14.46875,0.125 v 30.25 l 14.5,0.0625 0.4375,-0.5625 -0.0625,-29.5 -0.15625,-0.1875"
   id="path923"
   inkscape:connector-curvature="0" /><path
   style="fill:none;stroke:#000000;stroke-width:0.2998856;stroke-linecap:butt;stroke-linejoin:miter;stroke-miterlimit:4;stroke-dasharray:none;stroke-opacity:1"
   d="m 25.662374,10.863232 -14.25,-0.06245 -0.71875,0.593299 0.0625,29.352601 0.5,0.468393 14.4375,-0.09368 V 11.269172 Z"
   id="path925"
   inkscape:connector-curvature="0" /><path
   style="fill:none;stroke:#000000;stroke-width:0.30000001;stroke-linecap:butt;stroke-linejoin:miter;stroke-miterlimit:4;stroke-dasharray:none;stroke-opacity:1"
   d="m 10.724874,24.71783 c 0,0 -0.07109,-0.145779 -0.390625,-0.265625 -0.229253,-0.08598 -0.507141,-0.07556 -0.7343753,0.01563 -0.2360597,0.09473 -0.5511234,0.261523 -0.5625,0.515625 -0.066362,1.482229 0.03514,1.826577 0.0625,2.078125 0.060859,0.559533 0.34375,0.578125 0.34375,0.578125 0,0 0.4973389,0.131479 0.8906253,0 0.325447,-0.1088 0.421875,-0.29688 0.421875,-0.29688"
   id="path929"
   inkscape:connector-curvature="0"
   sodipodi:nodetypes="csasscsc" /><path
   sodipodi:nodetypes="cssssssc"
   inkscape:connector-curvature="0"
   id="path931"
   d="m 10.766627,24.1275 c 0,0 -0.09995,-0.207532 -0.549189,-0.378145 -0.3223112,-0.122402 -0.7152089,-0.112875 -1.0324746,0.02225 -0.3341143,0.142301 -0.783054,0.656002 -0.7908319,0.905921 -0.036848,1.184005 -0.00309,2.438067 0.08787,2.786557 0.085562,0.327804 0.2227997,0.580287 0.5301612,0.713647 0.4275132,0.185493 0.6054703,0.218424 1.2052753,0.109375 0.475268,-0.08641 0.593124,-0.422641 0.593124,-0.422641"
   style="fill:none;stroke:#000000;stroke-width:0.14147371;stroke-linecap:butt;stroke-linejoin:miter;stroke-miterlimit:4;stroke-dasharray:none;stroke-opacity:1" /><path
   sodipodi:nodetypes="csasscsc"
   inkscape:connector-curvature="0"
   id="path933"
   d="m 40.914809,27.357235 c 0,0 0.06799,0.147252 0.384911,0.27384 0.22738,0.09081 0.505426,0.08629 0.734542,-6.8e-5 0.238013,-0.08971 0.556539,-0.24979 0.573296,-0.503594 0.09774,-1.480491 0.0036,-1.826912 -0.01846,-2.078983 -0.04899,-0.560696 -0.331426,-0.585276 -0.331426,-0.585276 0,0 -0.494443,-0.141985 -0.890426,-0.01887 -0.327678,0.101881 -0.428068,0.287877 -0.428068,0.287877"
   style="fill:none;stroke:#000000;stroke-width:0.30000001;stroke-linecap:butt;stroke-linejoin:miter;stroke-miterlimit:4;stroke-dasharray:none;stroke-opacity:1" /><path
   style="fill:none;stroke:#000000;stroke-width:0.14147371;stroke-linecap:butt;stroke-linejoin:miter;stroke-miterlimit:4;stroke-dasharray:none;stroke-opacity:1"
   d="m 40.860561,27.946548 c 0,0 0.09553,0.209602 0.541054,0.389693 0.319647,0.129202 0.712659,0.128 1.032714,-3.72e-4 0.337055,-0.135191 0.796775,-0.639268 0.809845,-0.888966 0.06192,-1.182958 0.05475,-2.437454 -0.02882,-2.787793 -0.07859,-0.329543 -0.210456,-0.584876 -0.514924,-0.724717 -0.423488,-0.194508 -0.600707,-0.231201 -1.202687,-0.134886 -0.476993,0.07632 -0.601945,0.409982 -0.601945,0.409982"
   id="path935"
   inkscape:connector-curvature="0"
   sodipodi:nodetypes="cssssssc" /><path
   style="fill:none;stroke:#000000;stroke-width:0.30000001;stroke-linecap:butt;stroke-linejoin:miter;stroke-miterlimit:4;stroke-dasharray:none;stroke-opacity:1"
   d="m 40.943624,15.87408 1.6875,0.03125 0.03125,3.4375 1.125,0.03125 0.03125,13.25 -1.15625,0.0625 -0.0625,3.5 -1.53125,0.03125"
   id="path937"
   inkscape:connector-curvature="0" /><path
   style="fill:none;stroke:#000000;stroke-width:0.1;stroke-linecap:butt;stroke-linejoin:miter;stroke-miterlimit:4;stroke-dasharray:none;stroke-opacity:1"
   d="m 40.680737,42.147301 -6.319767,0.0221 -1e-6,2.452777"
   id="path939"
   inkscape:connector-curvature="0"
   sodipodi:nodetypes="ccc" /><path
   style="fill:none;stroke:#000000;stroke-width:0.1;stroke-linecap:butt;stroke-linejoin:miter;stroke-miterlimit:4;stroke-dasharray:none;stroke-opacity:1"
   d="m 17.500893,41.263418 -0.0221,0.817592 -2.010835,0.0221 -0.0221,2.452777"
   id="path941"
   inkscape:connector-curvature="0" /><path
   style="fill:none;stroke:#000000;stroke-width:0.1;stroke-linecap:butt;stroke-linejoin:miter;stroke-miterlimit:4;stroke-dasharray:none;stroke-opacity:1"
   d="m 9.148194,37.772078 h 0.7071067 l 0.044194,0.972272 0.8175923,-0.0221"
   id="path943"
   inkscape:connector-curvature="0" /><path
   style="fill:none;stroke:#000000;stroke-width:0.1;stroke-linecap:butt;stroke-linejoin:miter;stroke-miterlimit:4;stroke-dasharray:none;stroke-opacity:1"
   d="m 10.650796,40.224854 -0.8396894,0.0221 -0.3756505,-0.30936 0.022097,-0.883883 0.4419415,-0.309359"
   id="path945"
   inkscape:connector-curvature="0" /><path
   style="fill:none;stroke:#000000;stroke-width:0.1;stroke-linecap:butt;stroke-linejoin:miter;stroke-miterlimit:4;stroke-dasharray:none;stroke-opacity:1"
   d="m 15.423767,7.4990688 0.0221,2.4748738 -5.6126603,0.022097 0.044194,1.8782524"
   id="path947"
   inkscape:connector-curvature="0" /><path
   style="fill:none;stroke:#000000;stroke-width:0.1;stroke-linecap:butt;stroke-linejoin:miter;stroke-miterlimit:4;stroke-dasharray:none;stroke-opacity:1"
   d="m 9.2144852,14.23868 0.6408155,-0.0221 0.022097,-0.950175"
   id="path949"
   inkscape:connector-curvature="0" /><path
   style="fill:none;stroke:#000000;stroke-width:0.1;stroke-linecap:butt;stroke-linejoin:miter;stroke-miterlimit:4;stroke-dasharray:none;stroke-opacity:1"
   d="m 10.606602,13.244311 -0.7292043,0.02209 -0.4198445,-0.287259 -0.022097,-0.839689 0.4419446,-0.265165 0.7292013,-0.04419"
   id="path951"
   inkscape:connector-curvature="0" /><path
   style="fill:none;stroke:#000000;stroke-width:0.1;stroke-linecap:butt;stroke-linejoin:miter;stroke-miterlimit:4;stroke-dasharray:none;stroke-opacity:1"
   d="m 34.412374,7.49908 -0.01563,2.546875 6.1875,-0.0625"
   id="path953"
   inkscape:connector-curvature="0" /><path
   style="fill:none;stroke:#000000;stroke-width:0.30000001;stroke-linecap:butt;stroke-linejoin:miter;stroke-miterlimit:4;stroke-dasharray:none;stroke-opacity:1"
   d="m 27.210936,10.858203 c 0,0 0.147207,-0.06809 0.273583,-0.385094 0.09066,-0.22744 0.08319,-0.5044629 -5.58e-4,-0.7345415 -0.08358,-0.229625 -0.220006,-0.5196753 -0.470831,-0.5619111 -0.574576,-0.096751 -1.523773,-0.056416 -2.112116,0.0088 -0.455376,0.050477 -0.562957,0.3539137 -0.562957,0.3539137 0,0 -0.163752,0.4724409 -0.04038,0.8683409 0.1021,0.327611 0.288163,0.427877 0.288163,0.427877"
   id="path955"
   inkscape:connector-curvature="0"
   sodipodi:nodetypes="csasscsc" /><path
   sodipodi:nodetypes="cssssssc"
   inkscape:connector-curvature="0"
   id="path957"
   d="m 27.747729,10.826215 c 0,0 0.0012,0.111273 0.163326,-0.296805 0.11634,-0.292778 0.115019,-0.7631421 -0.0011,-1.0561365 -0.122092,-0.3085571 -0.577015,-0.7292123 -0.802236,-0.7410278 -1.066992,-0.055976 -2.198465,-0.048644 -2.514399,0.028094 -0.297181,0.072166 -0.527395,0.1930712 -0.65334,0.4719567 -0.175179,0.3879048 -0.208167,0.5502059 -0.120935,1.1013766 0.06913,0.436735 0.370142,0.550949 0.370142,0.550949"
   style="fill:none;stroke:#000000;stroke-width:0.12857001;stroke-linecap:butt;stroke-linejoin:miter;stroke-miterlimit:4;stroke-dasharray:none;stroke-opacity:1" /><path
   sodipodi:nodetypes="csasscsc"
   inkscape:connector-curvature="0"
   id="path959"
   d="m 24.479116,41.107989 c 0,0 -0.0541,0.04324 -0.183495,0.359029 -0.09283,0.226564 -0.088,0.503646 -0.0065,0.734513 0.08139,0.230412 0.215037,0.521751 0.465448,0.566377 0.573627,0.102228 1.523165,0.07096 2.112104,0.01135 0.455837,-0.04613 0.566308,-0.348526 0.566308,-0.348526 0,0 0.168252,-0.470857 0.04866,-0.867917 -0.09897,-0.328569 -0.284067,-0.430606 -0.284067,-0.430606"
   style="fill:none;stroke:#000000;stroke-width:0.30000001;stroke-linecap:butt;stroke-linejoin:miter;stroke-miterlimit:4;stroke-dasharray:none;stroke-opacity:1" /><path
   style="fill:none;stroke:#000000;stroke-width:0.12857001;stroke-linecap:butt;stroke-linejoin:miter;stroke-miterlimit:4;stroke-dasharray:none;stroke-opacity:1"
   d="m 24.035792,41.111416 c 0,0 -1.38e-4,-0.111279 -0.16615,0.295234 -0.119129,0.291654 -0.122295,0.762009 -0.009,1.056098 0.119142,0.309708 0.570031,0.734685 0.795129,0.748648 1.066409,0.06616 2.197901,0.06961 2.514553,-0.0041 0.297856,-0.06933 0.529213,-0.18803 0.657813,-0.465702 0.178872,-0.386215 0.213407,-0.548194 0.131438,-1.100173 -0.06496,-0.437374 -0.364869,-0.554454 -0.364869,-0.554454"
   id="path961"
   inkscape:connector-curvature="0"
   sodipodi:nodetypes="cssssssc" /><path
   style="fill:#000000;fill-opacity:1;fill-rule:evenodd"
   id="path963"
   sodipodi:type="arc"
   sodipodi:cx="18.349874"
   sodipodi:cy="26.061581"
   sodipodi:rx="0.3125"
   sodipodi:ry="0.3125"
   sodipodi:start="4.7154259"
   sodipodi:end="4.7152688"
   sodipodi:open="true"
   d="m 18.350824,25.749082 a 0.3125,0.3125 0 0 1 0.311549,0.313435 0.3125,0.3125 0 0 1 -0.313423,0.311562 0.3125,0.3125 0 0 1 -0.311574,-0.313411 0.3125,0.3125 0 0 1 0.313398,-0.311586" /><path
   d="m 33.444572,25.717832 a 0.3125,0.3125 0 0 1 0.311549,0.313435 0.3125,0.3125 0 0 1 -0.313423,0.311562 0.3125,0.3125 0 0 1 -0.311574,-0.313411 0.3125,0.3125 0 0 1 0.313399,-0.311586"
   sodipodi:open="true"
   sodipodi:end="4.7152688"
   sodipodi:start="4.7154259"
   sodipodi:ry="0.3125"
   sodipodi:rx="0.3125"
   sodipodi:cy="26.030331"
   sodipodi:cx="33.443623"
   sodipodi:type="arc"
   id="path967"
   style="fill:#000000;fill-opacity:1;fill-rule:evenodd" /><g
   id="g1023"
   transform="matrix(0.0223699,0,0,0.0223699,33.853441,-2.2762661)"><g
     style="fill:#000000;fill-opacity:1"
     transform="matrix(3.9617467,0,0,-3.9617467,-1584.8706,690.47633)"
     id="g11"><g
       style="fill:#000000;fill-opacity:1"
       transform="translate(1.4705494,-0.9803663)"
       id="g2510"><path
         inkscape:connector-curvature="0"
         d="m 426.252,119.898 c -3.379,1.5 -5.394,2.082 -7.395,2.082 -2.1,0 -3.445,-0.752 -3.445,-1.914 0,-3.507 11.897,-2.52 11.897,-10.632 0,-4.473 -3.753,-7.072 -8.967,-7.072 -4.09,0 -6.104,1.058 -8.424,2.256 v 5.018 c 3.346,-2.217 5.394,-3 7.975,-3 2.238,0 3.445,0.783 3.445,2.148 0,3.819 -11.897,2.42 -11.897,10.773 0,4.028 3.481,6.695 8.901,6.695 2.616,0 4.976,-0.549 7.91,-1.811 v -4.543"
         id="path53"
         style="fill:#000000;fill-opacity:1;fill-rule:nonzero;stroke:none" /><path
         inkscape:connector-curvature="0"
         d="m 442.909,103.428 c -1.983,-0.719 -3.66,-1.062 -5.333,-1.062 -5.541,0 -9.123,3.227 -9.123,8.137 0,4.82 3.721,8.225 8.917,8.225 1.605,0 3.657,-0.411 5.298,-1.022 v -3.69 c -1.299,0.69 -2.803,1.068 -4.034,1.068 -2.974,0 -4.887,-1.787 -4.887,-4.545 0,-2.797 1.881,-4.638 4.715,-4.638 1.196,0 2.259,0.274 4.447,1.093 v -3.566"
         id="path55"
         style="fill:#000000;fill-opacity:1;fill-rule:nonzero;stroke:none" /><path
         inkscape:connector-curvature="0"
         d="m 486.109,112.311 c 0.203,2.19 1.475,3.456 3.423,3.456 1.915,0 3.213,-1.302 3.418,-3.456 z m 3.081,6.412 c -4.862,0 -8.323,-3.434 -8.323,-8.266 0,-4.868 3.599,-8.091 9.146,-8.091 1.229,0 4.201,0 7.032,2.095 v 3.081 c -2.319,-1.652 -3.853,-2.221 -5.833,-2.221 -3.125,0 -5.036,1.617 -5.209,4.377 h 11.321 c 0.235,5.761 -3.547,9.025 -8.134,9.025"
         id="path57"
         style="fill:#000000;fill-opacity:1;fill-rule:nonzero;stroke:none" /><path
         inkscape:connector-curvature="0"
         d="m 499.239,102.653 h 4.9502 v 15.779 h -4.9502 z"
         id="path59"
         style="fill:#000000;fill-opacity:1;fill-rule:nonzero;stroke:none" /><path
         inkscape:connector-curvature="0"
         d="m 517.964,106.966 c -1.031,-0.928 -1.888,-1.3 -2.945,-1.3 -2.331,0 -3.806,1.918 -3.806,4.793 0,3.15 1.475,4.966 3.97,4.966 0.893,0 2.059,-0.411 2.781,-0.926 z m 0,18.995 v -8.221 c -1.337,0.647 -2.67,0.988 -4.111,0.988 -4.515,0 -7.639,-3.337 -7.639,-8.166 0,-4.725 3.124,-8.2 7.36,-8.2 1.68,0 2.978,0.44 4.39,1.566 v -1.27 h 4.949 v 23.303 h -4.949"
         id="path61"
         style="fill:#000000;fill-opacity:1;fill-rule:nonzero;stroke:none" /><path
         inkscape:connector-curvature="0"
         d="m 530.24,112.311 c 0.206,2.19 1.471,3.456 3.416,3.456 1.918,0 3.229,-1.302 3.434,-3.456 z m 3.078,6.412 c -4.861,0 -8.316,-3.434 -8.316,-8.266 0,-4.868 3.599,-8.091 9.14,-8.091 1.227,0 4.205,0 7.043,2.095 v 3.081 c -2.322,-1.652 -3.859,-2.221 -5.848,-2.221 -3.108,0 -5.027,1.617 -5.2,4.377 h 11.316 c 0.235,5.761 -3.55,9.025 -8.135,9.025"
         id="path63"
         style="fill:#000000;fill-opacity:1;fill-rule:nonzero;stroke:none" /><g
         style="fill:#000000;fill-opacity:1"
         id="g65"><g
           style="fill:#000000;fill-opacity:1"
           clip-path="url(#clipPath69-4)"
           id="g67"><path
             inkscape:connector-curvature="0"
             d="m 548.863,113.914 h 0.073 c 1.469,3.284 3.114,4.824 5.023,4.824 0.989,0 1.842,-0.377 3.278,-1.439 l -1.362,-4.375 c -1.3,0.82 -2.154,1.163 -2.939,1.163 -1.816,0 -2.978,-1.712 -4.073,-4.606 v -6.807 h -4.956 v 15.775 h 4.956 v -4.535"
             id="path73"
             style="fill:#000000;fill-opacity:1;fill-rule:nonzero;stroke:none" /><path
             inkscape:connector-curvature="0"
             d="m 504.421,125.07 c 0.465,-1.226 -0.372,-2.936 -1.863,-3.816 -1.497,-0.879 -3.079,-0.6 -3.54,0.626 -0.47,1.228 0.363,2.94 1.858,3.815 1.493,0.884 3.076,0.604 3.545,-0.625"
             id="path75"
             style="fill:#000000;fill-opacity:1;fill-rule:nonzero;stroke:none" /></g></g><path
         inkscape:connector-curvature="0"
         d="m 460.738,112.696 c 0,4.276 -2.906,6.027 -5.774,6.027 -1.95,0 -3.553,-0.823 -4.987,-2.638 h -0.068 v 9.876 h -4.955 v -23.262 h 4.955 v 9.997 c 1.159,1.677 2.149,2.394 3.31,2.394 1.541,0 2.565,-1.096 2.565,-3.453 v -5.543 c 1.662,0.854 3.351,1.378 4.954,1.573 v 5.029"
         id="path77"
         style="fill:#000000;fill-opacity:1;fill-rule:nonzero;stroke:none" /><path
         inkscape:connector-curvature="0"
         d="m 473.166,118.728 c -2.018,0 -3.559,-0.75 -5.136,-2.554 v 2.258 h -4.953 v -10.723 c 1.716,-0.171 3.905,-0.958 4.953,-2.258 v 7.369 c 1.302,1.954 2.226,2.605 3.458,2.605 1.403,0 2.469,-0.926 2.469,-3.151 v -9.58 h 4.954 v 9.99 c 0,4.647 -3.282,6.044 -5.745,6.044"
         id="path79"
         style="fill:#000000;fill-opacity:1;fill-rule:nonzero;stroke:none" /><path
         inkscape:connector-curvature="0"
         d="m 481.647,98.163 h -5.756 v -4.09 h 5.553 v -1.755 h -5.553 v -4.219 h 5.928 v -1.753 h -7.858 v 13.568 h 7.686 v -1.751"
         id="path81"
         style="fill:#000000;fill-opacity:1;fill-rule:nonzero;stroke:none" /><path
         inkscape:connector-curvature="0"
         d="m 486.348,86.338 h 1.7631 v 13.58 h -1.7631 z"
         id="path83"
         style="fill:#000000;fill-opacity:1;fill-rule:nonzero;stroke:none" /><path
         inkscape:connector-curvature="0"
         d="m 496.84,93.944 c 1.25,0 2.025,-0.861 2.083,-2.214 h -4.49 c 0.243,1.413 1.056,2.214 2.407,2.214 z m -2.439,-3.391 h 6.281 c 0,3.311 -1.513,4.909 -3.882,4.909 -2.458,0 -4.165,-1.817 -4.165,-4.527 0,-2.477 1.542,-4.764 4.318,-4.764 1.513,0 2.491,0.336 3.574,1.055 v 1.716 c -1.046,-0.685 -2.061,-1.08 -3.129,-1.08 -1.708,0 -2.722,0.916 -2.997,2.691"
         id="path85"
         style="fill:#000000;fill-opacity:1;fill-rule:nonzero;stroke:none" /><path
         inkscape:connector-curvature="0"
         d="m 512.195,92.942 c -1.014,0.694 -1.691,0.898 -2.463,0.898 -1.614,0 -2.732,-1.238 -2.732,-3.051 0,-1.847 1.19,-2.96 3.027,-2.96 0.756,0 1.476,0.196 2.365,0.594 v -1.739 c -0.594,-0.28 -1.726,-0.513 -2.66,-0.513 -2.67,0 -4.523,1.836 -4.523,4.46 0,2.961 1.693,4.831 4.402,4.831 1.035,0 1.731,-0.241 2.584,-0.616 v -1.904"
         id="path87"
         style="fill:#000000;fill-opacity:1;fill-rule:nonzero;stroke:none" /><path
         inkscape:connector-curvature="0"
         d="m 520.228,95.291 h 2.83 v -1.589 h -2.83 V 89.11 c 0,-1.051 0.761,-1.355 1.275,-1.355 0.638,0 1.296,0.223 2.01,0.664 v -1.654 c -0.619,-0.341 -1.569,-0.594 -2.151,-0.594 -1.92,0 -2.891,1.192 -2.891,2.806 v 4.725 h -1.555 v 0.197 l 3.312,3.241 v -1.849"
         id="path89"
         style="fill:#000000;fill-opacity:1;fill-rule:nonzero;stroke:none" /><path
         inkscape:connector-curvature="0"
         d="M 529.8,95.291 V 93.22 h 0.036 c 0.899,1.585 1.754,2.242 2.586,2.242 0.718,0 1.39,-0.337 2.129,-1.036 l -0.934,-1.554 c -0.537,0.531 -1.231,0.897 -1.65,0.897 -1.214,0 -2.167,-1.234 -2.167,-2.763 v -4.668 h -1.761 v 8.953 h 1.761"
         id="path91"
         style="fill:#000000;fill-opacity:1;fill-rule:nonzero;stroke:none" /><path
         inkscape:connector-curvature="0"
         d="m 552.618,92.942 c -1.019,0.694 -1.695,0.898 -2.472,0.898 -1.61,0 -2.719,-1.238 -2.719,-3.051 0,-1.847 1.191,-2.96 3.017,-2.96 0.757,0 1.473,0.196 2.374,0.594 v -1.739 c -0.607,-0.28 -1.74,-0.513 -2.672,-0.513 -2.666,0 -4.527,1.836 -4.527,4.46 0,2.961 1.701,4.831 4.41,4.831 1.037,0 1.726,-0.241 2.589,-0.616 v -1.904"
         id="path93"
         style="fill:#000000;fill-opacity:1;fill-rule:nonzero;stroke:none" /><path
         inkscape:connector-curvature="0"
         d="m 539.225,86.338 h 1.7628 v 8.9527 h -1.7628 z"
         id="path95"
         style="fill:#000000;fill-opacity:1;fill-rule:nonzero;stroke:none" /><g
         style="fill:#000000;fill-opacity:1"
         id="g97"><g
           style="fill:#000000;fill-opacity:1"
           clip-path="url(#clipPath101-3)"
           id="g99"><path
             inkscape:connector-curvature="0"
             d="m 541.047,98.507 c 0.172,-0.432 -0.129,-1.043 -0.659,-1.354 -0.534,-0.312 -1.099,-0.212 -1.26,0.221 -0.161,0.437 0.131,1.043 0.667,1.355 0.529,0.316 1.091,0.215 1.252,-0.222"
             id="path105"
             style="fill:#000000;fill-opacity:1;fill-rule:nonzero;stroke:none" /><path
             inkscape:connector-curvature="0"
             d="m 462.13,97.783 c -0.311,0 -0.442,-0.051 -0.569,-0.193 -0.05,-0.055 -0.07,-0.111 -0.088,-0.223 l -1.581,-5.996 c -0.371,-2.103 -2.954,-4.203 -6.321,-4.203 h -4.681 l 0.812,3.081 h 3.007 c 0.307,0 0.547,0.114 0.748,0.338 0.074,0.087 0.17,0.223 0.183,0.363 l 1.248,5.239 c 0.368,2.104 2.591,4.428 5.957,4.428 h 4.794 l -0.613,-2.834 z m 1.08,-3.654 0.535,1.94 h 4.87 c 0.601,2.813 0.128,5.419 -1.579,7.126 -3.455,3.455 -10.683,2.281 -16.068,-2.871 -0.841,-0.8 -1.551,-1.665 -2.198,-2.549 h 2.932 l -0.682,-1.944 h -3.503 c -0.335,-0.613 -0.649,-1.221 -0.889,-1.838 h 4.154 l -0.665,-1.944 h -4.082 c -0.698,-2.97 -0.253,-5.74 1.503,-7.499 3.412,-3.411 10.618,-2.212 16,2.939 0.942,0.896 1.72,1.863 2.423,2.856 h -3.767 l 0.574,1.94 h 4.404 c 0.323,0.617 0.62,1.227 0.852,1.844 h -4.814"
             id="path107"
             style="fill:#000000;fill-opacity:1;fill-rule:nonzero;stroke:none" /></g></g></g></g></g></g><g
   inkscape:groupmode="layer"
   id="layer1"
   inkscape:label="Layer 1" /><style
   id="style2"
   type="text/css">
	.st0{fill:none;stroke:#000000;stroke-width:2;stroke-linecap:round;stroke-linejoin:round;stroke-miterlimit:10;}
</style></svg>