<?xml version="1.0" encoding="utf-8"?>
<!-- Generator: Adobe Illustrator 24.0.0, SVG Export Plug-In . SVG Version: 6.00 Build 0)  -->
<svg version="1.1" id="Laag_1" xmlns="http://www.w3.org/2000/svg" xmlns:xlink="http://www.w3.org/1999/xlink" x="0px" y="0px"
	 viewBox="0 0 548 541" style="enable-background:new 0 0 548 541;" xml:space="preserve">
<style type="text/css">
	.st0{font-family:'Helvetica';}
	.st1{font-size:16.2935px;}
</style>
<text transform="matrix(1.0283 0 0 1 389.0264 475.0752)" class="st0 st1">Universal-</text>
<text transform="matrix(1.0283 0 0 1 389.0264 495.4414)" class="st0 st1">Superdimmer</text>
<path d="M18.2,0h390.4c4.7,0.6,9.5,2,12.8,5.6c3.9,3.7,5.4,9.2,5.4,14.4c0,39.7,0,79.5,0,119.2c1.7,0,3.5,0,5.2,0
	c0,4.2,0,8.5,0,12.8c3.2,0,6.3,0,9.5,0c0.1-5.7-0.2-11.3-0.3-17c10.7,0,21.4,0,32.1,0c0,5.4,0,10.8,0,16.2c2.9,0,5.8,0,8.7,0
	c0-4,0-8,0-12c10.3,0,20.5,0,30.8,0c9.9,9.2,19.7,18.4,29.5,27.6c0,9.3,0,18.6,0,27.9c1.7,0,3.3,0,5,0c0,6.6,0,13.2,0,19.7
	c-5.8,0-11.5,0-17.2,0c-0.1,6.9,0,13.8,0.3,20.8c5.6,0,11.3,0,16.9,0c0,7.2,0,14.3,0,21.5c-1.8,0-3.5,0-5.2,0
	c-0.3,56.4-0.3,112.8-0.2,169.2c-4.4,0-8.8,0-13.3,0c0,2.8,0,5.7,0,8.5c6.3,0,12.5,0,18.8,0c0,10.8,0,21.6,0,32.4
	c-6.1,0.2-12.3,0.4-18.4,0.3c-0.1,2.8-0.2,5.6-0.3,8.5c4,0.2,8,0.3,12,0.3c0,10.9,0,21.8,0,32.7c-8.5,7.8-17.2,15.3-25.6,23.1
	c-1.7,1.4-3.4,3.4-5.8,3.1c-6.9,0.1-13.7-0.2-20.6,0.3c0,1.4,0,2.8,0,4.2c-7.5,0-15,0.1-22.5-0.1c0-5.6,0-11.1,0-16.7
	c-6.7,0-13.5,0-20.2,0c-0.3,5.8-0.4,11.7-0.3,17.5c-6.5,0-13,0-19.5,0c0-1.8,0-3.5,0-5.2c-57.2,0.4-114.5,0.7-171.7,1.3
	c0.2-4.3,0.4-8.7,0.6-13c-2.8,0-5.5,0-8.3,0c-0.2,5.2-0.4,10.5-0.3,15.8c-10.6,0-21.2,0-31.7,0c0.1-5.7,0-11.4-0.3-17
	c-3.2,0-6.4,0-9.6,0c0.2,4,0.2,8,0.2,12c-9.6,0-19.2,0.1-28.8,0c-2.2,0.3-3.9-1.3-5.4-2.7c-8.6-7.8-17.2-15.5-25.8-23.2
	c0-9.3,0-18.6,0-27.9c-1.6,0-3.2,0-4.8,0c0-6.2,0-12.4,0-18.6c5.9-0.3,11.8-0.2,17.7-0.2c0.1-7.2-0.3-14.3-0.3-21.5
	c-5.9,0-11.9,0-17.8,0c0.1-1.7,0.2-3.3,0.3-5c-40,0-80,0-120,0c-5.3,0.1-10.7-1.6-14.4-5.5c-3.1-3.1-4.3-7.4-5.6-11.4V20
	C0.7,15.1,1.7,9.9,5.2,6.2C8.4,2.4,13.4,0.8,18.2,0 M15.2,9.2c-3.9,1.4-6.5,5.6-6.4,9.7c0,130.7,0,261.3,0,392c0.1,4-0.6,8.7,2.3,12
	c2.3,3,6.2,3.9,9.8,3.8c129,0,258.1,0,387.1,0c5.7,0.2,10.7-4.9,10.4-10.6c0.1-132,0-264.1,0-396.1c0.6-5.9-4.4-11.7-10.4-11.4
	c-128,0-256.1,0-384.1,0C21,8.6,18,8.2,15.2,9.2 M449.8,143.3c0,5.7,0,11.3,0,17c-7.7,0-15.3,0-23,0c0,20,0,39.9,0,59.9
	c2.4,1.6,4.8,3.3,7.1,5.1c2.3-0.4,4.5-0.8,6.8-1.1c5.7,5.4,11.6,10.5,17.4,15.8c-0.4,3.4-0.8,6.8-1.2,10.3c1.7,1.4,3.4,2.8,5.1,4.2
	c-0.5,7.6,0.2,15.1,0.1,22.7c0.4,12.9,0.3,25.8,0.8,38.7c3.2,1.1,6.2,2.6,9,4.3c-0.1-7.4,0-14.7-0.1-22.1c4,0,8,0,12,0
	c0,10.3,0,20.6,0,31c-4,0-8,0-12,0c-0.1-2.1,0.3-4.4-0.4-6.4c-4.7-4.1-11.2-6-17.4-5.3c-8.2,0.8-15.6,6.5-18.6,14.2
	c-2.4,5.8-1.9,12.6,1,18.1c3.2,6.3,9.7,10.8,16.7,11.9c6.5,1.1,13.3-1.1,18.4-5.2c0-2.3-0.1-4.5-0.1-6.8c3.9,0,7.9,0,11.8,0
	c0,10.3,0,20.6,0,31c-3.9,0-7.8,0-11.8,0c0-7.2,0-14.3,0-21.5c-2.8,1.7-5.7,3.1-8.8,4.2c-0.5,20.5,0.3,41-1.6,61.5
	c-1.6,1.3-3.2,2.7-4.8,4c0.4,3.4,0.8,6.9,1.2,10.3c-5.9,5.2-11.6,10.5-17.5,15.8c-2.2-0.4-4.5-0.8-6.7-1.2c-1.6,1.1-3,3-5.2,3
	c-16.3,0.5-32.6,0.8-48.9,1.4c-0.3,6.3-0.4,12.7-0.5,19c-1.9,0-3.8,0-5.6,0c-0.5,1-0.9,2-1.4,3c-1.8,0.8-3.7,1.9-5.7,1.8
	c-15.7,0-31.4,0-47.1,0c-2-1.7-3.8-3.5-5.4-5.6c-1.7-0.3-3.3-0.6-5-0.8c-0.4-6.3-1.2-12.5-1.1-18.9c-16.6,0-33.3,0-49.9,0
	c-1.2-1-2.5-2-3.7-3.1c-2.2,0.4-4.5,0.8-6.7,1.3c-5.9-5.3-11.8-10.6-17.6-15.9c0.2-1.3,0.3-2.6,0.5-3.9c-21.4,0-42.8,0-64.3,0
	c-0.1,11.6,0.4,23.2,0.2,34.8c-6,0-12-0.1-18.1,0c-0.1,3.1,3.1,2,5.1,2.3c0,10.7,0,21.4,0,32.1c7.5,6.8,15.1,13.5,22.6,20.3
	c1.4,1.6,3.6,1.2,5.4,1.3c5.2,0,10.3,0,15.5-0.1c-0.3-3.9-0.3-7.8-0.3-11.7c8.7-0.4,17.5-0.4,26.3-0.6c-0.1,5.8,0,11.5,0.3,17.3
	c5.1,0,10.1,0,15.2,0c0.4-5.1,0.2-10.3,0.3-15.4c8.4-0.2,16.8-0.6,25.2-0.6c-0.2,4.4-0.4,8.8-0.5,13.2c11.3-0.5,22.7,0,34-0.2
	c13.7-0.6,27.4,0.1,41.1-0.5c32.1,0,64.1-0.6,96.2-0.5c0,1.7,0,3.5,0,5.2c0.7,0,2.2,0,2.9,0c0.3-5.8,0.3-11.7,0.3-17.5
	c12.2,0.1,24.5-0.3,36.8,0.3c0,5.5,0,11,0,16.5c2,0,4,0,6,0c0-1.4,0-2.8,0-4.2c9.3,0,18.5-0.4,27.8-0.2c8.1-7.3,16.2-14.5,24.2-21.8
	c0-6.9,0-13.8,0-20.6c-4-0.4-8-0.4-12.1-0.3c-0.1-8.3,0.5-16.6,0.2-25c6.2-0.1,12.4,0,18.5,0c0-5.4,0-10.8,0-16.2
	c-6.3,0-12.7,0-19,0c0.1-8.4,0.4-16.9,0.3-25.3c4.4,0.2,8.8,0.4,13.2,0.3c0-32.3,0-64.5,0-96.8c-0.1-24.1,0.5-48.3,0.2-72.4
	c1.8,0,3.5,0,5.3,0c0-1.7,0-3.3,0-5c-5.7,0-11.3,0-17,0c0-12.4-0.4-24.8-0.2-37.2c5.7,0,11.5,0,17.2,0c0-0.8,0-2.5,0-3.3
	c-1.7-0.1-3.4-0.2-5-0.3c0-10.3,0.1-20.5,0-30.8c0.2-1.6-1.4-2.5-2.3-3.6c-7.5-6.9-14.8-14-22.4-20.8c-6.4,0.1-12.7,0-19.1,0.1
	c0,4,0,8,0,12c-8.4-0.1-16.8,0.1-25.2,0.3c0-5.5,0-11,0-16.5C459.9,143.2,454.8,143.2,449.8,143.3 M426.2,230.3
	c0.6-0.2,1.8-0.5,2.4-0.7c1.1-1.3,2.3-2.5,3.4-3.7C428.7,223.6,427.2,228.1,426.2,230.3 M430.2,230.6c7.6,7.1,15.1,14.3,22.6,21.5
	c3.2-2.8,2.4-7.5,3.1-11.4c-5.4-4.8-10.8-9.7-16.1-14.5C436.1,226.5,432.7,227.8,430.2,230.6 M426.4,232.6c0.8,1.5,1.7,3,2.9,4.2
	c7.4,7.2,14.6,14.6,21.9,21.9c2.5-1.4,5.1-2.7,7.6-4.1c-1.1-0.9-2.1-1.7-3.2-2.6c-1,0.9-2.1,1.9-3.1,2.8
	c-7.1-6.7-14.1-13.5-21.2-20.2c-1.3-1.2-2.5-2.6-3.5-4.1C427.4,231.2,426.9,231.9,426.4,232.6 M426.7,237.1c0,1.8,0,3.6,0.1,5.3
	c2.9,1.1,6,2.3,8,4.8c4.7,4.8,5.3,12.9,1.6,18.5c-2,3.7-5.9,5.5-9.7,6.8c0,2.6,0,5.2,0,7.8c7.1,0.1,14.2-0.2,21.3-0.3
	c0.4,11.7,0.5,23.4,1,35c-7.4,0-14.9,0.1-22.3-0.1c0,17.2,0.1,34.5,0,51.7c7.8-1.4,15.7-1.3,23.5-1.9c0.4,12.5,0.6,25,0.5,37.5
	c-8,0.3-16,0.7-24,0.4c0,6.5,0.4,13-0.6,19.4c0.6,0.2,1.8,0.6,2.4,0.8c-0.9,0.9-2,1.3-3.2,1.6c-1.6,2.5-3.4,4.9-5.6,6.9
	c1.5,1.2,3.8,2.3,2.8,4.6c-1.6-1.1-3.2-2.2-4.7-3.3c-2.3,0.9-4.6,1.7-6.9,2.4c-0.2,1.5-0.3,3.1-0.4,4.7c-0.5,0-1.5,0.2-2.1,0.2
	c0.1-1.6,0.3-3.3,0.5-4.9c-3.8,0.2-8.1-0.9-11.5,1.4c-0.3-0.4-1-1-1.4-1.4c-47.2,0-94.3,0-141.5,0c4,4,8,8,11.9,12
	c-2,2.5-4.1,5-6.2,7.6c15.8-0.1,31.6,0,47.4-0.1c0-4.6-0.3-9.2-0.3-13.7c2.6,0,5.3-0.1,8,0.1c0.3,1.5,0.5,2.9,0.7,4.4
	c18.7,0,37.4,0.2,56-0.2c0.1-1.6,0.3-3.2,0.4-4.9c2.4-0.3,4.9-0.6,7.3-1c-0.1,5.6-0.2,11.2-0.4,16.8c16-0.5,32-1,48-1.2
	c-2.1-2.6-4.2-5.2-6.3-7.8c9.8-9.8,19.6-19.6,29.3-29.4c3.1,1.6,6.1,3.2,9.2,4.9c1.5-19.6,0.9-39.2,1.3-58.9
	c-5.6,0.6-11.4-0.1-16.3-2.9c-7.7-4.1-12.8-12.8-12.5-21.6c-0.1-7.7,4.1-15.2,10.5-19.5c5.3-3.8,12-4.8,18.4-4.2
	c-0.6-19.3-0.8-38.6-1.1-57.8c-5.1,6.6-10.3,13.2-15.5,19.8c-0.8,1.3-2.2,1.9-3.7,2c4.9-7.6,10.9-14.3,16.4-21.4
	c-2,1.1-4.1,2.2-6.1,3.3C442.8,253.2,434.8,245.1,426.7,237.1 M426.8,244.5c0,3.8-0.3,7.6,0.1,11.4c2.2,3.3,4.5,7,7.9,9
	c2.3-4.5,2.9-10.3-0.2-14.6C432.9,247.5,429.8,245.8,426.8,244.5 M426.5,259.6c0.9,3.3,3.3,6,6.1,7.9
	C431,264.5,428.9,261.9,426.5,259.6 M426.6,264.4c0.1,1.9,0.2,3.9,0.3,5.8c1.1-0.5,2.2-0.9,3.2-1.4
	C428.9,267.4,427.8,265.9,426.6,264.4 M429.2,282.3c-1,1.5-2.5,2.8-2.4,4.7c-0.1,7,0,14-0.1,21c0.2,1.6-0.5,4,1.4,4.9
	c6.2,0.4,12.5,0,18.8,0.1c-0.3-10.4-0.6-20.7-0.7-31C440.6,282.2,434.9,282.3,429.2,282.3 M473.8,300c0,9,0,18,0,27c2.7,0,5.3,0,8,0
	c0-9,0-18,0-27C479.1,300,476.4,300,473.8,300 M473.5,351.5c0,9,0,18,0,27c2.6,0,5.1,0,7.7,0c0-9,0-18,0-27
	C478.7,351.5,476.1,351.5,473.5,351.5 M430,368.1c-1.3,0.1-2.2,1.1-3.3,1.7c0.1,8.7,0,17.5,0,26.2c-0.2,1.8,0.8,3.4,1.7,4.9
	c6.8-0.1,13.5-0.3,20.3-0.5c-0.1-11.2-0.1-22.4-0.6-33.6C442.1,367.3,436.1,367.4,430,368.1 M423.7,447.1c1.8,2.3,3.7,4.6,5.5,6.9
	c0.5-0.4,1.6-1.1,2.2-1.5c-1.5-1.4-3-2.8-4.6-4.2c8.2-8.3,16.8-16.1,25.2-24.2c1.1,0.9,2.1,1.8,3.2,2.6c1-0.8,2.1-1.6,3.2-2.4
	c-2.6-1.4-5.1-2.8-7.7-4.1C441.7,429.1,432.7,438.1,423.7,447.1 M429.8,448.3c2.4,2.6,5.7,4.2,9.3,4.2c5.8-4.4,10.9-9.7,16.4-14.5
	c-0.6-3.8-0.2-8.1-2.8-11.3C444.8,433.6,437.5,441.1,429.8,448.3 M232.1,435c-0.1,0.7-0.3,2.2-0.3,2.9c5.4,4.9,10.8,9.8,16.2,14.7
	c3.6-0.4,7-1.6,9.4-4.4c-4.6-4.4-9.3-8.7-13.8-13.2C239.8,435,235.9,435,232.1,435 M246.6,434.9c4.5,4.6,9.3,8.7,13.8,13.4
	c-1.5,1.3-3.1,2.7-4.6,4c0.7,0.6,1.4,1.2,2.1,1.8c1.9-2.3,3.7-4.6,5.6-7c-3.6-3.6-7.2-7.3-10.8-10.8
	C251.2,434.4,248.6,435.2,246.6,434.9 M373.1,447c-19.5,0.4-39,0.1-58.5,0.3c-0.5-1.6-1.1-3.2-1.6-4.8c-0.2,2.3-0.2,4.6-0.3,6.9
	c1.4,0.1,2.7,0.3,4.1,0.4c0,3,0,6.1,0,9.1c17.7,0.3,35.4,0.9,53.1,0.2c2.2,0,5-1.6,4.8-4.1c0.1-4.5,0-9.1,0.1-13.6
	C374.2,443.3,373.7,445.1,373.1,447 M376.8,457.4c-1.3,1.2-2.6,2.4-3.9,3.6c-5,0.3-10,0.3-15,0.6c-0.3,2-0.7,3.9-1,5.9
	c6.7-0.7,13.5-1.4,20.2-2.1c0-8.1,0.9-16.1,0.2-24.2C376.3,446.5,376.9,452,376.8,457.4 M309.4,442.1c0.1,7.6,0.1,15.2,0.4,22.8
	c6.9,0.8,13.8,1.6,20.7,2.5c-0.7-2-1.4-4.1-2-6.1c-4.6-0.1-9.1-0.3-13.7-0.3c0-3.1,0-6.3,0-9.4c-1.3,0-2.7-0.1-4-0.1
	C310.3,448.5,312,444.4,309.4,442.1 M330.6,461.2c0.8,2.2,1.6,4.5,2.5,6.7c6.9,3,14.7,3,21.6,0c0.4-2.1,0.8-4.3,1.2-6.4
	C347.4,461.6,339,461.3,330.6,461.2 M309.9,467c0.1,0.8,0.4,2.3,0.5,3.1c8.8,1.5,17.6,2.8,26.5,3.7c12.7,1.3,25.4-1.1,37.9-3.1
	c1.9,0.1,2-1.8,2.5-3.2c-5.8,0.4-11.5,1.1-17.3,1.7c-5.8,0.5-11.1,3.6-17.1,3.2c-5.2,0.2-9.8-2.8-14.9-3.2
	C322,468.4,316,467.7,309.9,467 M309.8,473.3c1.6,0.3,3.2,0.6,4.8,0.9c1.6,2,3.4,3.9,5.3,5.6c15.7-0.2,31.4,0.1,47.1-0.1
	c2.8,0,4-2.8,5.2-4.9c1.5,0.1,3.1,0.2,4.6,0.3c0-0.7,0-2,0-2.6c-8.5,1.3-17,2.8-25.6,3.4c-12.8,0.9-25.4-1.6-38-3.3
	C311.8,472.2,310.7,472.5,309.8,473.3z"/>
<path d="M18.4,13.6c3.5-2.2,7.7-1.6,11.6-1.7c109.7,0,219.3,0,329,0c3.5,0,6.9,0.2,10.4-0.4c11.5,0.9,23.2,0,34.7,0.5
	c6.3,0.7,11.3,6.7,11.1,13c0,128.3,0,256.7,0,385c0.2,6.1-4.3,11.9-10.3,13.1c-3,0.4-6,0.2-9,0.2c-101.7,0-203.4,0-305,0
	c-1.1,0-2.1,0.3-3,0.8c-2.8-1.1-5.9-0.7-8.9-0.8c-18,0-36,0-54.1,0c-5,0.1-9.8-3-11.9-7.5c-1.6-3.4-1.1-7.2-1.1-10.8
	c0-126.6,0-253.3,0-379.9C11.8,20.4,14.3,15.8,18.4,13.6 M20.8,14.8c-4,1.6-6.8,5.8-6.8,10.2c0,128.4,0,256.7,0,385.1
	c-0.2,5.9,5,11.4,11,11.2c20.9,0,41.9,0.1,62.8,0C180.9,285.5,274,149.7,367,14c-112.3,0-224.7,0-337,0
	C26.9,14.1,23.7,13.6,20.8,14.8 M369.5,14.1c-93,135.8-186.1,271.5-279.1,407.2c103.9-0.1,207.8,0,311.7,0c6,0.3,11.5-5.3,11.2-11.3
	c0-128.3,0-256.7,0-385c0.1-5.9-5.2-11.4-11.2-11C391.2,14,380.3,13.9,369.5,14.1z"/>
<path d="M509.3,159.6c7.5-3,16.1,4.5,14.3,12.3c-1.1,8-11.9,11.8-17.8,6.3C499.4,173.3,501.6,161.9,509.3,159.6 M510.4,161.4
	c-5.7,1.5-8.4,9.1-4.5,13.7c3.6,5.3,12.4,4.5,15-1.4C524.5,167.4,517.3,158.9,510.4,161.4z"/>
<path d="M496.4,318.1c-1.3-5.8,2.9-11.9,8.6-13.1c6.3-1.7,13.5,3.2,13.8,9.9c0.7,11,1.6,22.1,0.7,33.1c-0.4,5.3-0.9,10.6-1.3,15.9
	c2.8,3.7,4.7,8.3,4.3,13c-0.3,7.6-6.1,14.5-13.5,16.1c-6.1,1.5-12.9-0.4-17.1-5c-5.3-5.4-6.3-14.3-2.6-20.8c1.7-3.3,4.7-5.5,7.7-7.6
	C498.6,345.9,498.5,331.9,496.4,318.1 M498.4,317.8c2.1,14.4,2.2,29.1,0.4,43.5c-4.1,2-7.6,5.4-8.9,9.8c-2.4,6.9,1,15.1,7.5,18.5
	c7.4,4.3,17.9,0.9,21.5-6.9c3.1-5.9,1.5-13.1-2.7-18c0.6-9.3,1.9-18.6,1.8-27.9c-0.3-7.3-0.5-14.7-1.1-22c-0.5-5-5.9-8.9-10.8-7.9
	C501.1,307.7,497.3,312.9,498.4,317.8z"/>
<path d="M452.4,323.6c9.2-3,19.9,3.8,20.8,13.5c1.4,9.3-6.7,18.5-16.1,18.2c-8.7,0.2-16.3-7.6-16.1-16.2
	C440.7,332.1,445.8,325.5,452.4,323.6 M448.2,328.2c-2.8,2.1-4.1,5.4-5.3,8.6c9.5,0.1,18.9-0.4,28.4-0.3c-1.2-3.1-2.6-6.3-5.3-8.4
	C461,323.9,453.1,324,448.2,328.2 M443.1,339l1.2,1.2c8.7,0.3,17.5-0.2,26.2-0.3l0.1-1.4C461.4,338.5,452.2,338.6,443.1,339
	 M443.2,342.6c2.1,7.3,10.1,12.5,17.6,10.2c5.2-1.3,8.7-5.8,10.3-10.7C461.8,342.2,452.5,342.2,443.2,342.6z"/>
<path d="M293.8,485.8c4.6-5.3,12.6-7.1,19.2-4.8c4.3,1.4,7.5,4.8,10.1,8.4c11,1,22,1.1,32.9-0.5c5.4-0.3,11.2-3.1,16.3-0.1
	c6.7,3.4,7.8,13.7,2,18.5c-3.5,3.5-8.7,2.9-13.2,3.4c-11.9,1.2-24,1.4-35.9,0.4c-2.7-0.1-5.8-0.9-8,1.1c-7.3,5.4-18.5,3.8-24-3.4
	C287.8,502.4,288.1,492,293.8,485.8 M304.2,482.3c-7,1.2-12.7,7.6-12.9,14.8c-0.7,9.3,8.4,17.6,17.6,16.2c3.9-0.2,6.7-2.9,10-4.5
	c10.3,0.4,20.7,1.4,31,0.7c6-0.4,12-0.8,18-1.5c5.1-0.5,9.1-5.9,8-11c-0.8-4.8-5.9-8.6-10.8-7.4c-14.3,2.5-28.9,3.2-43.3,1.6
	c-1.8-1.9-3-4.4-5.2-6C313.1,482.7,308.5,481.4,304.2,482.3z"/>
<path d="M172.2,494.3c6.5-2.5,14.4,2.7,14.3,9.7c0.8,7.1-6.8,13.2-13.5,11.1c-5.4-1.1-9.1-6.9-8.1-12.3
	C165.5,498.9,168.4,495.4,172.2,494.3 M173.2,496.1c-5.8,1.5-8.4,9.4-4.4,14c3.9,5.3,12.9,3.8,15.1-2.3
	C186.9,501.4,179.9,493.7,173.2,496.1z"/>
<path d="M509.4,494.6c6.3-1.4,13.1,3.8,12.9,10.4c0.6,7.2-7.4,13.3-14.2,10.7c-6.4-1.7-9.5-10-6.1-15.7
	C503.5,497.2,506.2,495.1,509.4,494.6 M508.2,497.1c-6.5,2.2-7.6,12-1.7,15.6c5.2,4,13.4-0.2,13.7-6.6
	C521,499.8,514,494.5,508.2,497.1z"/>
<g id="_x23_ffffffff">
</g>
</svg>
