<?xml version="1.0" encoding="UTF-8" standalone="no"?>
<!-- Generator: Adobe Illustrator 22.1.0, SVG Export Plug-In . SVG Version: 6.00 Build 0)  -->

<svg
   xmlns:dc="http://purl.org/dc/elements/1.1/"
   xmlns:cc="http://creativecommons.org/ns#"
   xmlns:rdf="http://www.w3.org/1999/02/22-rdf-syntax-ns#"
   xmlns:svg="http://www.w3.org/2000/svg"
   xmlns="http://www.w3.org/2000/svg"
   xmlns:sodipodi="http://sodipodi.sourceforge.net/DTD/sodipodi-0.dtd"
   xmlns:inkscape="http://www.inkscape.org/namespaces/inkscape"
   version="1.1"
   id="Layer_1"
   x="0px"
   y="0px"
   viewBox="0 0 667 666"
   style="enable-background:new 0 0 667 666;"
   xml:space="preserve"
   sodipodi:docname="icon.svg"
   inkscape:version="0.92.4 (5da689c313, 2019-01-14)"><metadata
   id="metadata319"><rdf:RDF><cc:Work
       rdf:about=""><dc:format>image/svg+xml</dc:format><dc:type
         rdf:resource="http://purl.org/dc/dcmitype/StillImage" /></cc:Work></rdf:RDF></metadata><defs
   id="defs317"><marker
     inkscape:stockid="Arrow1Send"
     orient="auto"
     refY="0"
     refX="0"
     id="Arrow1Send"
     style="overflow:visible"
     inkscape:isstock="true"><path
       inkscape:connector-curvature="0"
       id="path4714"
       d="M 0,0 5,-5 -12.5,0 5,5 Z"
       style="fill:#000000;fill-opacity:1;fill-rule:evenodd;stroke:#000000;stroke-width:1.00000003pt;stroke-opacity:1"
       transform="matrix(-0.2,0,0,-0.2,-1.2,0)" /></marker><clipPath
     id="clipPath69-0"><path
       inkscape:connector-curvature="0"
       id="path71-2"
       d="m 409.441,126.252 v -43.63 h 147.796 v 43.63" /></clipPath><clipPath
     id="clipPath101-1"><path
       inkscape:connector-curvature="0"
       id="path103-6"
       d="m 409.441,126.252 v -43.63 h 147.796 v 43.63" /></clipPath></defs><sodipodi:namedview
   pagecolor="#ffffff"
   bordercolor="#666666"
   borderopacity="1"
   objecttolerance="10"
   gridtolerance="10"
   guidetolerance="10"
   inkscape:pageopacity="0"
   inkscape:pageshadow="2"
   inkscape:window-width="1680"
   inkscape:window-height="987"
   id="namedview315"
   showgrid="false"
   inkscape:zoom="0.35435435"
   inkscape:cx="333.5"
   inkscape:cy="333"
   inkscape:window-x="1672"
   inkscape:window-y="-8"
   inkscape:window-maximized="1"
   inkscape:current-layer="Layer_1" />
<style
   type="text/css"
   id="style2">
	.st0{fill:none;stroke:#000000;stroke-width:2;stroke-linecap:round;stroke-linejoin:round;stroke-miterlimit:10;}
</style>

<path
   style="fill:none;stroke:#000000;stroke-width:2.39723492px;stroke-linecap:butt;stroke-linejoin:miter;stroke-opacity:1"
   d="m 134.9349,73.546213 -61.268247,64.852517 -0.47884,442.31805 25.733043,21.66981 478.092554,1.35444 27.08756,-24.37868 V 137.83773 L 539.57004,73.867803 Z"
   id="path871"
   inkscape:connector-curvature="0"
   sodipodi:nodetypes="ccccccccc" /><path
   style="fill:none;stroke:#000000;stroke-width:2.39723492px;stroke-linecap:butt;stroke-linejoin:miter;stroke-opacity:1"
   d="m 130.18655,78.770363 14.60468,13.647 -52.672624,53.869757 -13.168183,-12.92874"
   id="path4577"
   inkscape:connector-curvature="0" /><path
   inkscape:connector-curvature="0"
   id="path4579"
   d="m 599.16003,131.29625 -13.8879,14.37593 -52.98705,-53.560387 13.14572,-12.95152"
   style="fill:none;stroke:#000000;stroke-width:2.39723492px;stroke-linecap:butt;stroke-linejoin:miter;stroke-opacity:1" /><path
   style="fill:none;stroke:#000000;stroke-width:2.39723492px;stroke-linecap:butt;stroke-linejoin:miter;stroke-opacity:1"
   d="m 114.15751,601.70937 v -11.85073 h 47.74154 v 12.52795"
   id="path4581"
   inkscape:connector-curvature="0" /><path
   style="fill:none;stroke:#000000;stroke-width:2.45855021px;stroke-linecap:butt;stroke-linejoin:miter;stroke-opacity:1"
   d="m 473.4042,603.4313 v -13.53311 h -47.06443 v 14.24557"
   id="path4583"
   inkscape:connector-curvature="0" /><path
   style="fill:none;stroke:#000000;stroke-width:2.26176524px;stroke-linecap:butt;stroke-linejoin:miter;stroke-opacity:1"
   d="M 412.4207,601.66886 V 589.78001 H 175.39864 v 11.88885"
   id="path4585"
   inkscape:connector-curvature="0" /><path
   inkscape:connector-curvature="0"
   id="path4587"
   d="m 545.1858,603.4313 v -13.53311 h -47.06443 v 14.24557"
   style="fill:none;stroke:#000000;stroke-width:2.45855021px;stroke-linecap:butt;stroke-linejoin:miter;stroke-opacity:1" /><path
   style="fill:#000000;fill-opacity:1;fill-rule:evenodd;stroke:none;stroke-width:2.92942095;stroke-miterlimit:4;stroke-dasharray:none;stroke-opacity:1"
   id="path4589"
   sodipodi:type="arc"
   sodipodi:cx="449.7027"
   sodipodi:cy="545.16455"
   sodipodi:rx="29.796143"
   sodipodi:ry="29.796143"
   sodipodi:start="4.7154259"
   sodipodi:end="4.7152688"
   d="m 449.79319,515.36855 a 29.796143,29.796143 0 0 1 29.70552,29.88532 29.796143,29.796143 0 0 1 -29.88416,29.70669 29.796143,29.796143 0 0 1 -29.70787,-29.88299 29.796143,29.796143 0 0 1 29.88183,-29.70904 l -0.0858,29.79602 z" /><path
   d="m 521.57462,515.36855 a 29.796143,29.796143 0 0 1 29.70552,29.88532 29.796143,29.796143 0 0 1 -29.88416,29.70669 29.796143,29.796143 0 0 1 -29.70786,-29.88299 29.796143,29.796143 0 0 1 29.88182,-29.70904 l -0.0858,29.79602 z"
   sodipodi:end="4.7152688"
   sodipodi:start="4.7154259"
   sodipodi:ry="29.796143"
   sodipodi:rx="29.796143"
   sodipodi:cy="545.16455"
   sodipodi:cx="521.48413"
   sodipodi:type="arc"
   id="path4591"
   style="fill:#000000;fill-opacity:1;fill-rule:evenodd;stroke:none;stroke-width:2.92942095;stroke-miterlimit:4;stroke-dasharray:none;stroke-opacity:1" /><path
   d="m 138.96531,515.36855 a 29.796143,29.796143 0 0 1 29.70552,29.88532 29.796143,29.796143 0 0 1 -29.88416,29.70669 29.796143,29.796143 0 0 1 -29.70787,-29.88299 29.796143,29.796143 0 0 1 29.88182,-29.70904 l -0.0858,29.79602 z"
   sodipodi:end="4.7152688"
   sodipodi:start="4.7154259"
   sodipodi:ry="29.796143"
   sodipodi:rx="29.796143"
   sodipodi:cy="545.16455"
   sodipodi:cx="138.87482"
   sodipodi:type="arc"
   id="path4593"
   style="fill:#000000;fill-opacity:1;fill-rule:evenodd;stroke:none;stroke-width:2.92942095;stroke-miterlimit:4;stroke-dasharray:none;stroke-opacity:1" /><path
   style="fill:none;stroke:#000000;stroke-width:2.39723492px;stroke-linecap:butt;stroke-linejoin:miter;stroke-opacity:1"
   d="m 160.3536,306.34009 h 17.35801 v 42.85635 h -17.47773 z"
   id="path4599"
   inkscape:connector-curvature="0" /><path
   inkscape:connector-curvature="0"
   id="path4601"
   d="m 160.3536,372.70421 h 17.35801 v 42.85637 h -17.47773 z"
   style="fill:none;stroke:#000000;stroke-width:2.39723492px;stroke-linecap:butt;stroke-linejoin:miter;stroke-opacity:1" /><path
   style="fill:#000000;fill-opacity:1;fill-rule:evenodd;stroke-width:2.39723492"
   id="path4603"
   sodipodi:type="arc"
   sodipodi:cx="169.34811"
   sodipodi:cy="264.13266"
   sodipodi:rx="7.1104422"
   sodipodi:ry="7.1104422"
   sodipodi:start="4.7154259"
   sodipodi:end="4.7152688"
   d="m 169.36971,257.02225 a 7.1104422,7.1104422 0 0 1 7.08881,7.13172 7.1104422,7.1104422 0 0 1 -7.13144,7.0891 7.1104422,7.1104422 0 0 1 -7.08938,-7.13117 7.1104422,7.1104422 0 0 1 7.13089,-7.08965 l -0.0205,7.11041 z" /><g
   id="g11"
   transform="matrix(1.4570287,0,0,-1.4570287,-460.15348,320.26436)"
   style="fill:#000000;fill-opacity:1"><g
     id="g2510"
     transform="translate(1.4705494,-0.9803663)"
     style="fill:#000000;fill-opacity:1"><path
       style="fill:#000000;fill-opacity:1;fill-rule:nonzero;stroke:none"
       id="path53"
       d="m 426.252,119.898 c -3.379,1.5 -5.394,2.082 -7.395,2.082 -2.1,0 -3.445,-0.752 -3.445,-1.914 0,-3.507 11.897,-2.52 11.897,-10.632 0,-4.473 -3.753,-7.072 -8.967,-7.072 -4.09,0 -6.104,1.058 -8.424,2.256 v 5.018 c 3.346,-2.217 5.394,-3 7.975,-3 2.238,0 3.445,0.783 3.445,2.148 0,3.819 -11.897,2.42 -11.897,10.773 0,4.028 3.481,6.695 8.901,6.695 2.616,0 4.976,-0.549 7.91,-1.811 v -4.543"
       inkscape:connector-curvature="0" /><path
       style="fill:#000000;fill-opacity:1;fill-rule:nonzero;stroke:none"
       id="path55"
       d="m 442.909,103.428 c -1.983,-0.719 -3.66,-1.062 -5.333,-1.062 -5.541,0 -9.123,3.227 -9.123,8.137 0,4.82 3.721,8.225 8.917,8.225 1.605,0 3.657,-0.411 5.298,-1.022 v -3.69 c -1.299,0.69 -2.803,1.068 -4.034,1.068 -2.974,0 -4.887,-1.787 -4.887,-4.545 0,-2.797 1.881,-4.638 4.715,-4.638 1.196,0 2.259,0.274 4.447,1.093 v -3.566"
       inkscape:connector-curvature="0" /><path
       style="fill:#000000;fill-opacity:1;fill-rule:nonzero;stroke:none"
       id="path57"
       d="m 486.109,112.311 c 0.203,2.19 1.475,3.456 3.423,3.456 1.915,0 3.213,-1.302 3.418,-3.456 z m 3.081,6.412 c -4.862,0 -8.323,-3.434 -8.323,-8.266 0,-4.868 3.599,-8.091 9.146,-8.091 1.229,0 4.201,0 7.032,2.095 v 3.081 c -2.319,-1.652 -3.853,-2.221 -5.833,-2.221 -3.125,0 -5.036,1.617 -5.209,4.377 h 11.321 c 0.235,5.761 -3.547,9.025 -8.134,9.025"
       inkscape:connector-curvature="0" /><path
       style="fill:#000000;fill-opacity:1;fill-rule:nonzero;stroke:none"
       id="path59"
       d="m 499.239,102.653 h 4.9502 v 15.779 h -4.9502 z"
       inkscape:connector-curvature="0" /><path
       style="fill:#000000;fill-opacity:1;fill-rule:nonzero;stroke:none"
       id="path61"
       d="m 517.964,106.966 c -1.031,-0.928 -1.888,-1.3 -2.945,-1.3 -2.331,0 -3.806,1.918 -3.806,4.793 0,3.15 1.475,4.966 3.97,4.966 0.893,0 2.059,-0.411 2.781,-0.926 z m 0,18.995 v -8.221 c -1.337,0.647 -2.67,0.988 -4.111,0.988 -4.515,0 -7.639,-3.337 -7.639,-8.166 0,-4.725 3.124,-8.2 7.36,-8.2 1.68,0 2.978,0.44 4.39,1.566 v -1.27 h 4.949 v 23.303 h -4.949"
       inkscape:connector-curvature="0" /><path
       style="fill:#000000;fill-opacity:1;fill-rule:nonzero;stroke:none"
       id="path63"
       d="m 530.24,112.311 c 0.206,2.19 1.471,3.456 3.416,3.456 1.918,0 3.229,-1.302 3.434,-3.456 z m 3.078,6.412 c -4.861,0 -8.316,-3.434 -8.316,-8.266 0,-4.868 3.599,-8.091 9.14,-8.091 1.227,0 4.205,0 7.043,2.095 v 3.081 c -2.322,-1.652 -3.859,-2.221 -5.848,-2.221 -3.108,0 -5.027,1.617 -5.2,4.377 h 11.316 c 0.235,5.761 -3.55,9.025 -8.135,9.025"
       inkscape:connector-curvature="0" /><g
       id="g65"
       style="fill:#000000;fill-opacity:1"><g
         id="g67"
         clip-path="url(#clipPath69-0)"
         style="fill:#000000;fill-opacity:1"><path
           style="fill:#000000;fill-opacity:1;fill-rule:nonzero;stroke:none"
           id="path73"
           d="m 548.863,113.914 h 0.073 c 1.469,3.284 3.114,4.824 5.023,4.824 0.989,0 1.842,-0.377 3.278,-1.439 l -1.362,-4.375 c -1.3,0.82 -2.154,1.163 -2.939,1.163 -1.816,0 -2.978,-1.712 -4.073,-4.606 v -6.807 h -4.956 v 15.775 h 4.956 v -4.535"
           inkscape:connector-curvature="0" /><path
           style="fill:#000000;fill-opacity:1;fill-rule:nonzero;stroke:none"
           id="path75"
           d="m 504.421,125.07 c 0.465,-1.226 -0.372,-2.936 -1.863,-3.816 -1.497,-0.879 -3.079,-0.6 -3.54,0.626 -0.47,1.228 0.363,2.94 1.858,3.815 1.493,0.884 3.076,0.604 3.545,-0.625"
           inkscape:connector-curvature="0" /></g></g><path
       style="fill:#000000;fill-opacity:1;fill-rule:nonzero;stroke:none"
       id="path77"
       d="m 460.738,112.696 c 0,4.276 -2.906,6.027 -5.774,6.027 -1.95,0 -3.553,-0.823 -4.987,-2.638 h -0.068 v 9.876 h -4.955 v -23.262 h 4.955 v 9.997 c 1.159,1.677 2.149,2.394 3.31,2.394 1.541,0 2.565,-1.096 2.565,-3.453 v -5.543 c 1.662,0.854 3.351,1.378 4.954,1.573 v 5.029"
       inkscape:connector-curvature="0" /><path
       style="fill:#000000;fill-opacity:1;fill-rule:nonzero;stroke:none"
       id="path79"
       d="m 473.166,118.728 c -2.018,0 -3.559,-0.75 -5.136,-2.554 v 2.258 h -4.953 v -10.723 c 1.716,-0.171 3.905,-0.958 4.953,-2.258 v 7.369 c 1.302,1.954 2.226,2.605 3.458,2.605 1.403,0 2.469,-0.926 2.469,-3.151 v -9.58 h 4.954 v 9.99 c 0,4.647 -3.282,6.044 -5.745,6.044"
       inkscape:connector-curvature="0" /><path
       style="fill:#000000;fill-opacity:1;fill-rule:nonzero;stroke:none"
       id="path81"
       d="m 481.647,98.163 h -5.756 v -4.09 h 5.553 v -1.755 h -5.553 v -4.219 h 5.928 v -1.753 h -7.858 v 13.568 h 7.686 v -1.751"
       inkscape:connector-curvature="0" /><path
       style="fill:#000000;fill-opacity:1;fill-rule:nonzero;stroke:none"
       id="path83"
       d="m 486.348,86.338 h 1.7631 v 13.58 h -1.7631 z"
       inkscape:connector-curvature="0" /><path
       style="fill:#000000;fill-opacity:1;fill-rule:nonzero;stroke:none"
       id="path85"
       d="m 496.84,93.944 c 1.25,0 2.025,-0.861 2.083,-2.214 h -4.49 c 0.243,1.413 1.056,2.214 2.407,2.214 z m -2.439,-3.391 h 6.281 c 0,3.311 -1.513,4.909 -3.882,4.909 -2.458,0 -4.165,-1.817 -4.165,-4.527 0,-2.477 1.542,-4.764 4.318,-4.764 1.513,0 2.491,0.336 3.574,1.055 v 1.716 c -1.046,-0.685 -2.061,-1.08 -3.129,-1.08 -1.708,0 -2.722,0.916 -2.997,2.691"
       inkscape:connector-curvature="0" /><path
       style="fill:#000000;fill-opacity:1;fill-rule:nonzero;stroke:none"
       id="path87"
       d="m 512.195,92.942 c -1.014,0.694 -1.691,0.898 -2.463,0.898 -1.614,0 -2.732,-1.238 -2.732,-3.051 0,-1.847 1.19,-2.96 3.027,-2.96 0.756,0 1.476,0.196 2.365,0.594 v -1.739 c -0.594,-0.28 -1.726,-0.513 -2.66,-0.513 -2.67,0 -4.523,1.836 -4.523,4.46 0,2.961 1.693,4.831 4.402,4.831 1.035,0 1.731,-0.241 2.584,-0.616 v -1.904"
       inkscape:connector-curvature="0" /><path
       style="fill:#000000;fill-opacity:1;fill-rule:nonzero;stroke:none"
       id="path89"
       d="m 520.228,95.291 h 2.83 v -1.589 h -2.83 V 89.11 c 0,-1.051 0.761,-1.355 1.275,-1.355 0.638,0 1.296,0.223 2.01,0.664 v -1.654 c -0.619,-0.341 -1.569,-0.594 -2.151,-0.594 -1.92,0 -2.891,1.192 -2.891,2.806 v 4.725 h -1.555 v 0.197 l 3.312,3.241 v -1.849"
       inkscape:connector-curvature="0" /><path
       style="fill:#000000;fill-opacity:1;fill-rule:nonzero;stroke:none"
       id="path91"
       d="M 529.8,95.291 V 93.22 h 0.036 c 0.899,1.585 1.754,2.242 2.586,2.242 0.718,0 1.39,-0.337 2.129,-1.036 l -0.934,-1.554 c -0.537,0.531 -1.231,0.897 -1.65,0.897 -1.214,0 -2.167,-1.234 -2.167,-2.763 v -4.668 h -1.761 v 8.953 h 1.761"
       inkscape:connector-curvature="0" /><path
       style="fill:#000000;fill-opacity:1;fill-rule:nonzero;stroke:none"
       id="path93"
       d="m 552.618,92.942 c -1.019,0.694 -1.695,0.898 -2.472,0.898 -1.61,0 -2.719,-1.238 -2.719,-3.051 0,-1.847 1.191,-2.96 3.017,-2.96 0.757,0 1.473,0.196 2.374,0.594 v -1.739 c -0.607,-0.28 -1.74,-0.513 -2.672,-0.513 -2.666,0 -4.527,1.836 -4.527,4.46 0,2.961 1.701,4.831 4.41,4.831 1.037,0 1.726,-0.241 2.589,-0.616 v -1.904"
       inkscape:connector-curvature="0" /><path
       style="fill:#000000;fill-opacity:1;fill-rule:nonzero;stroke:none"
       id="path95"
       d="m 539.225,86.338 h 1.7628 v 8.9527 h -1.7628 z"
       inkscape:connector-curvature="0" /><g
       id="g97"
       style="fill:#000000;fill-opacity:1"><g
         id="g99"
         clip-path="url(#clipPath101-1)"
         style="fill:#000000;fill-opacity:1"><path
           style="fill:#000000;fill-opacity:1;fill-rule:nonzero;stroke:none"
           id="path105"
           d="m 541.047,98.507 c 0.172,-0.432 -0.129,-1.043 -0.659,-1.354 -0.534,-0.312 -1.099,-0.212 -1.26,0.221 -0.161,0.437 0.131,1.043 0.667,1.355 0.529,0.316 1.091,0.215 1.252,-0.222"
           inkscape:connector-curvature="0" /><path
           style="fill:#000000;fill-opacity:1;fill-rule:nonzero;stroke:none"
           id="path107"
           d="m 462.13,97.783 c -0.311,0 -0.442,-0.051 -0.569,-0.193 -0.05,-0.055 -0.07,-0.111 -0.088,-0.223 l -1.581,-5.996 c -0.371,-2.103 -2.954,-4.203 -6.321,-4.203 h -4.681 l 0.812,3.081 h 3.007 c 0.307,0 0.547,0.114 0.748,0.338 0.074,0.087 0.17,0.223 0.183,0.363 l 1.248,5.239 c 0.368,2.104 2.591,4.428 5.957,4.428 h 4.794 l -0.613,-2.834 z m 1.08,-3.654 0.535,1.94 h 4.87 c 0.601,2.813 0.128,5.419 -1.579,7.126 -3.455,3.455 -10.683,2.281 -16.068,-2.871 -0.841,-0.8 -1.551,-1.665 -2.198,-2.549 h 2.932 l -0.682,-1.944 h -3.503 c -0.335,-0.613 -0.649,-1.221 -0.889,-1.838 h 4.154 l -0.665,-1.944 h -4.082 c -0.698,-2.97 -0.253,-5.74 1.503,-7.499 3.412,-3.411 10.618,-2.212 16,2.939 0.942,0.896 1.72,1.863 2.423,2.856 h -3.767 l 0.574,1.94 h 4.404 c 0.323,0.617 0.62,1.227 0.852,1.844 h -4.814"
           inkscape:connector-curvature="0" /></g></g></g></g><text
   xml:space="preserve"
   style="font-style:normal;font-weight:normal;font-size:21.59945679px;line-height:1.25;font-family:sans-serif;letter-spacing:0px;word-spacing:0px;fill:#000000;fill-opacity:1;stroke:none;stroke-width:0.53998649"
   x="202.61984"
   y="253.99988"
   id="text4671"><tspan
     sodipodi:role="line"
     id="tspan4669"
     x="202.61984"
     y="253.99988"
     style="fill:#000000;fill-opacity:1;stroke-width:0.53998649">CCT5010-001</tspan><tspan
     sodipodi:role="line"
     x="202.61984"
     y="280.99921"
     style="fill:#000000;fill-opacity:1;stroke-width:0.53998649"
     id="tspan4673">W50100 Dimmer</tspan><tspan
     sodipodi:role="line"
     x="202.61984"
     y="307.9985"
     style="fill:#000000;fill-opacity:1;stroke-width:0.53998649"
     id="tspan4675" /><tspan
     sodipodi:role="line"
     x="202.61984"
     y="334.99783"
     style="fill:#000000;fill-opacity:1;stroke-width:0.53998649"
     id="tspan4677">220-240V~, 50/60Hz</tspan><tspan
     sodipodi:role="line"
     x="202.61984"
     y="361.99716"
     style="fill:#000000;fill-opacity:1;stroke-width:0.53998649"
     id="tspan4679">5-100VA LED RC</tspan><tspan
     sodipodi:role="line"
     x="202.61984"
     y="388.99646"
     style="fill:#000000;fill-opacity:1;stroke-width:0.53998649"
     id="tspan4681">5-20VA LED RL</tspan><tspan
     sodipodi:role="line"
     x="202.61984"
     y="415.99579"
     style="fill:#000000;fill-opacity:1;stroke-width:0.53998649"
     id="tspan4683">14-200VA</tspan></text>
<text
   xml:space="preserve"
   style="font-style:normal;font-variant:normal;font-weight:normal;font-stretch:normal;font-size:58.89206696px;line-height:1.25;font-family:'Tw Cen MT';-inkscape-font-specification:'Tw Cen MT, Normal';font-variant-ligatures:normal;font-variant-caps:normal;font-variant-numeric:normal;font-feature-settings:normal;text-align:start;letter-spacing:0px;word-spacing:0px;writing-mode:lr-tb;text-anchor:start;fill:#000000;fill-opacity:1;stroke:none;stroke-width:1.4723407"
   x="129.20277"
   y="505.52911"
   id="text4687"><tspan
     sodipodi:role="line"
     id="tspan4685"
     x="129.20277"
     y="505.52911"
     style="font-style:normal;font-variant:normal;font-weight:normal;font-stretch:normal;font-size:58.89206696px;font-family:'Tw Cen MT';-inkscape-font-specification:'Tw Cen MT, Normal';font-variant-ligatures:normal;font-variant-caps:normal;font-variant-numeric:normal;font-feature-settings:normal;text-align:start;writing-mode:lr-tb;text-anchor:start;stroke-width:1.4723407">L</tspan></text>
<text
   id="text4691"
   y="505.45245"
   x="505.45874"
   style="font-style:normal;font-variant:normal;font-weight:normal;font-stretch:normal;font-size:58.89206696px;line-height:1.25;font-family:'Tw Cen MT';-inkscape-font-specification:'Tw Cen MT, Normal';font-variant-ligatures:normal;font-variant-caps:normal;font-variant-numeric:normal;font-feature-settings:normal;text-align:start;letter-spacing:0px;word-spacing:0px;writing-mode:lr-tb;text-anchor:start;fill:#000000;fill-opacity:1;stroke:none;stroke-width:1.4723407"
   xml:space="preserve"><tspan
     style="font-style:normal;font-variant:normal;font-weight:normal;font-stretch:normal;font-size:58.89206696px;font-family:'Tw Cen MT';-inkscape-font-specification:'Tw Cen MT, Normal';font-variant-ligatures:normal;font-variant-caps:normal;font-variant-numeric:normal;font-feature-settings:normal;text-align:start;writing-mode:lr-tb;text-anchor:start;stroke-width:1.4723407"
     y="505.45245"
     x="505.45874"
     id="tspan4689"
     sodipodi:role="line">1</tspan></text>
<text
   xml:space="preserve"
   style="font-style:normal;font-weight:normal;font-size:50.22603607px;line-height:1.25;font-family:sans-serif;letter-spacing:0px;word-spacing:0px;fill:#000000;fill-opacity:1;stroke:none;stroke-width:1.25565076"
   x="376.54114"
   y="705.45099"
   id="text4695"
   transform="matrix(1.5975654,0.19596876,-0.2694422,0.59290077,0,0)"><tspan
     sodipodi:role="line"
     id="tspan4693"
     x="376.54114"
     y="705.45099"
     style="stroke-width:1.25565076">~</tspan></text>
<path
   style="fill:none;stroke:#000000;stroke-width:3.25097275;stroke-linecap:butt;stroke-linejoin:miter;stroke-miterlimit:4;stroke-dasharray:none;stroke-opacity:1;marker-end:url(#Arrow1Send)"
   d="m 441.70053,497.5766 c 8.2834,-12.57301 14.44262,-20.26694 14.44262,-20.26694"
   id="path4697"
   inkscape:connector-curvature="0"
   sodipodi:nodetypes="cc" /></svg>