<?xml version="1.0" standalone="no"?>
<!DOCTYPE svg PUBLIC "-//W3C//DTD SVG 20010904//EN"
 "http://www.w3.org/TR/2001/REC-SVG-20010904/DTD/svg10.dtd">
<svg version="1.0" xmlns="http://www.w3.org/2000/svg"
 width="512.000000pt" height="512.000000pt" viewBox="0 0 512.000000 512.000000"
 preserveAspectRatio="xMidYMid meet">
<metadata>
Created by potrace 1.16, written by Peter Selinger 2001-2019
</metadata>
<g transform="translate(0.000000,512.000000) scale(0.100000,-0.100000)"
fill="#000000" stroke="none">
<path d="M12 5108 c-17 -17 -17 -5079 0 -5096 17 -17 5079 -17 5096 0 17 17
17 5079 0 5096 -17 17 -5079 17 -5096 0z m4988 -2548 l0 -2440 -2440 0 -2440
0 0 2440 0 2440 2440 0 2440 0 0 -2440z"/>
<path d="M316 4884 c-14 -14 -16 -237 -16 -2308 0 -1964 2 -2295 14 -2312 14
-19 37 -19 1091 -19 1054 0 1077 0 1091 19 12 17 14 348 14 2311 0 2208 -1
2293 -18 2308 -17 16 -107 17 -1090 17 -960 0 -1072 -2 -1086 -16z m2074 -229
l0 -125 -985 0 -985 0 0 125 0 125 985 0 985 0 0 -125z m0 -400 l0 -155 -985
0 -985 0 0 155 0 155 985 0 985 0 0 -155z m0 -425 l0 -150 -985 0 -985 0 0
150 0 150 985 0 985 0 0 -150z m0 -400 l0 -130 -985 0 -985 0 0 130 0 130 985
0 985 0 0 -130z m-1710 -980 l0 -731 -77 -149 c-76 -145 -78 -150 -63 -177
l16 -28 181 -3 c253 -4 255 0 138 214 l-75 137 0 733 0 734 795 0 795 0 0
-1405 0 -1405 -985 0 -985 0 0 1405 0 1405 130 0 130 0 0 -730z"/>
<path d="M2636 4878 c-14 -20 -16 -255 -16 -2306 l0 -2283 25 -24 24 -25 1061
0 c1047 0 1060 0 1080 20 20 20 20 33 20 2311 0 1560 -3 2296 -10 2310 -10 19
-33 19 -1090 19 l-1079 0 -15 -22z m2074 -2303 l0 -2205 -980 0 -980 0 0 985
0 985 305 0 305 0 15 24 c14 21 16 51 13 176 -3 136 -5 153 -22 166 -16 11
-76 14 -318 14 l-298 0 0 1030 0 1030 980 0 980 0 0 -2205z m-1450 -45 l0 -70
-255 0 -255 0 0 70 0 70 255 0 255 0 0 -70z"/>
</g>
</svg>
