<svg width="512px" height="512px" viewBox="0 0 512 512" xmlns="http://www.w3.org/2000/svg">
  <defs></defs>
  <g>
    <path d="M 363.006 169.931 C 356.13 169.931 353.239 171.052 350.406 174.18 C 349.343 175.419 348.871 176.658 348.488 179.137 L 313.521 311.805 C 305.288 358.31 248.161 404.755 173.682 404.755 L 70.109 404.755 L 88.08 336.621 L 154.62 336.621 C 161.407 336.621 166.718 334.113 171.174 329.156 C 172.768 327.238 174.922 324.228 175.187 321.1 L 202.836 205.193 C 210.98 158.688 260.141 107.256 334.589 107.256 L 440.641 107.256 L 427.068 169.931 L 363.006 169.931 Z M 386.937 250.783 L 398.74 207.848 L 506.503 207.848 C 519.782 145.646 509.336 87.987 471.536 50.217 C 395.11 -26.209 235.207 -0.242 116.053 113.747 C 97.493 131.452 81.765 150.573 67.424 170.108 L 132.312 170.108 L 117.234 213.13 L 39.775 213.13 C 32.369 226.704 25.405 240.13 20.093 253.792 L 111.952 253.792 L 97.257 296.815 L 6.962 296.815 C -8.471 362.5 1.385 423.788 40.218 462.709 C 115.699 538.161 275.131 511.633 394.166 397.673 C 415.028 377.873 432.231 356.48 447.753 334.497 L 364.422 334.497 L 377.111 291.592 L 474.575 291.592 C 481.687 277.93 488.297 264.445 493.402 250.783 L 386.937 250.783 L 386.937 250.783 Z"></path>
  </g>
</svg>