<svg version="1.1" viewBox="0 0 512 512" xmlns="http://www.w3.org/2000/svg">
 <style type="text/css">
  @keyframes blink {
   0%,25% {
    fill: #FF450000;
   }
   50%, 75% {
    fill: #FF4500FF;
   }
  }
  
  #LED {
   animation: blink 1s infinite;
  }
 </style>
 <g fill="none">
  <g transform="matrix(8.2231,0,0,-8.2231,103.3,468.7)">
   <path d="m0 0-2.048 1.965c-0.196 0.169-0.308 0.414-0.308 0.671v38.873c0 0.647 0.481 1.192 1.122 1.273l38.371 4.748c0.321 0.039 0.64-0.079 0.858-0.318l1.844-2.022s0.324-0.242 0.324-1.304v-38.197c0-0.663-0.493-1.223-1.151-1.306l-37.902-4.775c-0.417-0.052-0.835 0.123-1.11 0.392"/>
   <path d="m0 0-2.048 1.965c-0.196 0.169-0.308 0.414-0.308 0.671v38.873c0 0.647 0.481 1.192 1.122 1.273l38.371 4.748c0.321 0.039 0.64-0.079 0.858-0.318l1.844-2.022s0.324-0.242 0.324-1.304v-38.197c0-0.663-0.493-1.223-1.151-1.306l-37.902-4.775c-0.417-0.052-0.835 0.123-1.11 0.392z" stroke="#231f20" stroke-linecap="round" stroke-linejoin="round" stroke-miterlimit="10" stroke-width=".5"/>
  </g>
  <g transform="matrix(8.2231,0,0,-8.2231,87.748,122.31)">
   <path d="m0 0 1.574-1.762" fill="none" stroke="#231f20" stroke-linecap="round" stroke-linejoin="round" stroke-miterlimit="10" stroke-width=".14"/>
  </g>
  <g transform="matrix(8.2231,0,0,-8.2231,433.56,107.83)">
   <path d="m0 0c0 0.792-0.694 1.405-1.48 1.306l-37.902-4.774c-0.658-0.084-1.152-0.643-1.152-1.307v-38.196c0-0.373 0.126-0.677 0.371-0.915" fill="none" stroke="#231f20" stroke-linecap="round" stroke-linejoin="round" stroke-miterlimit="10" stroke-width=".25"/>
  </g>
  <g transform="matrix(8.2231,0,0,-8.2231,158.96,425.93)">
   <path d="m0 0c-0.177 0.168-0.268 0.389-0.268 0.653v27.302c0 0.474 0.357 0.874 0.832 0.934l27.382 3.413c0.568 0.07 1.071-0.368 1.071-0.934v-27.302c0-0.472-0.358-0.874-0.833-0.932l-27.382-3.413c-0.302-0.039-0.603 0.088-0.802 0.279z" fill="none" stroke="#231f20" stroke-linecap="round" stroke-linejoin="round" stroke-miterlimit="10" stroke-width=".25"/>
  </g>
  <g transform="matrix(8.2231,0,0,-8.2231,157.84,425.17)">
   <path d="m0 0-1.56 1.268 5e-3 27.786c0 0.42 0.312 0.772 0.728 0.824l28.207 3.544c0.688 0.086 1.307-0.424 1.353-1.115" fill="none" stroke="#231f20" stroke-linecap="round" stroke-linejoin="round" stroke-width=".25"/>
  </g>
  <g transform="matrix(8.2231,0,0,-8.2231,145.01,414.74)">
   <path d="m0 0s-0.087-1.324 0.828-1.218c1.005 0.114 0.359 0.036 0.359 0.036" fill="none" stroke="#231f20" stroke-linecap="round" stroke-linejoin="round" stroke-width=".25"/>
  </g>
  <g transform="matrix(8.2231,0,0,-8.2231,156.97,191.19)">
   <path d="m0 0-0.993 1.104" fill="none" stroke="#231f20" stroke-linecap="round" stroke-linejoin="round" stroke-width=".14"/>
  </g>
 </g>
 <g transform="matrix(8.2231,0,0,-8.2231,272.25,300.82)" fill="none">
  <path id="LED" d="M 0,0 C 0.003,-0.485 0.426,-0.631 0.784,-0.428 1.045,-0.284 1.261,0.036 1.261,0.369 1.261,0.857 0.835,1 0.479,0.8 0.216,0.654 0,0.336 0,0 Z" fill="none" stroke="#231f20" stroke-width=".25"/>
 </g>
 <g transform="matrix(8.2231 0 0 -8.2231 476.73 115.87)">
  <path d="m0 0c-6.622-7.838-10.849-9.499-11.382-9.73-6.759-2.929-11.584 0.451-12.542 2.209-0.477 0.915 0.166 2.813 1.235 3.77 1.418 1.241 3.417 0.73 3.863 1.189 2.112 0.851 2.971 1.4 5.205 3.835 0.862 0.363 1.561 0.717 2.145 1.075l0.025 0.2c3.87 1.596 5.026 9.082 10.233 11.033" fill="#fff"/>
 </g>
 <g fill="none">
  <g transform="matrix(8.2231,0,0,-8.2231,466.71,4.1951)">
   <path d="m0 0c-9.403-6.506-4.839-9.11-12.402-12.307-2.239-2.437-3.094-2.985-5.209-3.834-0.447-0.463-2.442 0.05-3.863-1.191-1.066-0.956-1.712-2.854-1.236-3.77 1.391-2.543 10.877-8.496 22.619 6.239 1.796 2.19 1.448 0.882 3.135 1.824" fill="none" stroke="#231f20" stroke-linecap="round" stroke-miterlimit="2.613" stroke-width=".25"/>
  </g>
  <g transform="matrix(8.2231,0,0,-8.2231,321.33,138.04)">
   <path d="m0 0c2.79-0.1 4.25-2.396 4.078-3.449-0.245-1.525-7.453-3.816-8.348 1.664" fill="none" stroke="#231f20" stroke-linecap="round" stroke-miterlimit="2.613" stroke-width=".25"/>
  </g>
  <g transform="matrix(8.2231,0,0,-8.2231,365.28,113.62)">
   <path d="m0 0c1.808-0.476 1.59-0.085 2.54-2.138" fill="none" stroke="#231f20" stroke-linecap="round" stroke-miterlimit="2.613" stroke-width=".25"/>
  </g>
  <g transform="matrix(8.2231,0,0,-8.2231,353.01,125.86)">
   <path d="m0 0c1.458-1.161 1.067-2.446 3.5-2.318" fill="none" stroke="#231f20" stroke-linecap="round" stroke-miterlimit="2.613" stroke-width=".25"/>
  </g>
 </g>
</svg>
