<?xml version="1.0" encoding="UTF-8"?>
<!-- Created with Inkscape (http://www.inkscape.org/) -->
<svg width="512mm" height="512mm" version="1.1" viewBox="0 0 512 512" xmlns="http://www.w3.org/2000/svg">
 <defs>
  <clipPath id="clipPath188">
   <path d="m14.583 1081.3h82.04v95.105h-82.04z"/>
  </clipPath>
  <clipPath id="clipPath200">
   <path d="m14.583 1098.9h67.982v76.458h-67.982z"/>
  </clipPath>
  <clipPath id="clipPath212">
   <path d="m14.583 1081.3h82.04v95.105h-82.04z"/>
  </clipPath>
  <clipPath id="clipPath224">
   <path d="m14.583 1098.9h67.982v76.458h-67.982z"/>
  </clipPath>
  <clipPath id="clipPath248">
   <path d="m14.583 1081.3h82.04v95.105h-82.04z"/>
  </clipPath>
  <clipPath id="clipPath264">
   <path d="m14.583 1098.9h67.982v76.458h-67.982z"/>
  </clipPath>
 </defs>
 <g transform="translate(-71.296 -121.86)">
  <g transform="matrix(6.6966 0 0 -6.6966 2.0141 7992.9)" stroke-width="1.0001">
   <g clip-path="url(#clipPath188)">
    <g transform="translate(51.674 1174.3)" stroke-width="1.0001">
     <path d="m0 0 4.363 0.626s0.985 0.354 1.622-0.626c0.639-0.98 4.041-6.205 4.041-6.205s0.135-0.476-0.523-0.656c0 0 0.962-0.126 1.26-0.554 0.297-0.428 0.203-1.751 0.203-1.751v-58.691s0.463-1.308-1.126-1.626c-0.559-0.113-2.363-0.437-2.363-0.437l-34.601-4.967s-2.235-0.481-3.675 0.391c-1.439 0.872-1.156 1.668-1.156 1.668s-0.109-0.155-0.381 0.248c-0.271 0.403-4.316 6.614-4.316 6.614v60.21s0.094 0.509 0.671 0.591c0.576 0.083 35.981 5.165 35.981 5.165" fill="none"/>
    </g>
   </g>
   <g clip-path="url(#clipPath200)">
    <g transform="translate(51.674 1174.3)" stroke-width="1.0001">
     <path d="m0 0 4.363 0.626s0.985 0.354 1.622-0.626c0.639-0.98 4.041-6.205 4.041-6.205s0.135-0.476-0.523-0.656c0 0 0.962-0.126 1.26-0.554 0.297-0.428 0.203-1.751 0.203-1.751v-58.691s0.463-1.308-1.126-1.626c-0.559-0.113-2.363-0.437-2.363-0.437l-34.601-4.967s-2.235-0.481-3.675 0.391c-1.439 0.872-1.156 1.668-1.156 1.668s-0.109-0.155-0.381 0.248c-0.271 0.403-4.316 6.614-4.316 6.614v60.21s0.094 0.509 0.671 0.591c0.576 0.083 35.981 5.165 35.981 5.165z" fill="none" stroke="#000000" stroke-linejoin="round" stroke-miterlimit="10" stroke-width="1.0001"/>
    </g>
   </g>
   <g clip-path="url(#clipPath212)">
    <g transform="translate(68.323 1168)" stroke-width="1.0001">
     <path d="m0 0 0.018 2.712s-0.063 0.782 0.874 0.933c0.936 0.15 8.207 1.194 8.207 1.194s1.485 0.439 2.116-0.528c0.63-0.968 2.187-3.655 2.187-3.655s0.473-6e-3 0.465-1.401c-8e-3 -1.394-8e-3 -59.271-8e-3 -59.271s-0.206-0.694-1.191-0.836c-0.986-0.141-8.294-1.197-8.294-1.197s-1.003-0.511-1.722 0.592c-0.717 1.104-2.578 3.959-2.578 3.959z" fill="none"/>
    </g>
   </g>
   <g clip-path="url(#clipPath224)">
    <g transform="translate(68.323 1168)">
     <path d="m0 0 0.018 2.712s-0.063 0.782 0.874 0.933c0.936 0.15 8.207 1.194 8.207 1.194s1.485 0.439 2.116-0.528c0.63-0.968 2.187-3.655 2.187-3.655s0.473-6e-3 0.465-1.401c-8e-3 -1.394-8e-3 -59.271-8e-3 -59.271s-0.206-0.694-1.191-0.836c-0.986-0.141-8.294-1.197-8.294-1.197s-1.003-0.511-1.722 0.592c-0.717 1.104-2.578 3.959-2.578 3.959z" fill="none" stroke="#000000" stroke-linejoin="round" stroke-miterlimit="10" stroke-width="1.0001"/>
    </g>
    <g transform="translate(62.42 1166.7)">
     <path d="m0 0c-0.253 0.389-0.817 0.692-1.522 0.872 0.472 0.093 0.736 0.335 0.583 0.57l-4.257 6.538c-0.163 0.25-0.728 0.391-1.261 0.314l-40.49-5.811c-0.533-0.077-0.833-0.341-0.671-0.592l4.258-6.537c0.153-0.236 0.66-0.367 1.163-0.32-0.37-0.334-0.477-0.734-0.224-1.123 0.514-0.788 2.293-1.233 3.973-0.992l36.336 5.216c1.68 0.241 2.626 1.076 2.112 1.865z" fill="none" stroke="#000000" stroke-linejoin="round" stroke-miterlimit="10" stroke-width="1.0001"/>
    </g>
    <g transform="translate(60.957 1167.5)">
     <path d="m0 0c-0.725 0.186-1.601 0.239-2.452 0.117l-36.336-5.216c-0.84-0.12-1.497-0.389-1.879-0.727" fill="none" stroke="#000000" stroke-miterlimit="10" stroke-width="1.0001"/>
    </g>
    <g transform="translate(19.999 1160.6)">
     <path d="m0 0v-60.21c0.514-0.789 2.292-1.232 3.973-0.991l36.336 5.215c1.68 0.241 2.626 1.076 2.112 1.865v59.729m-47.618 2.372v-60.209l4.258-6.539c0.153-0.235 0.437-0.371 0.939-0.324-0.37-0.335-0.253-0.728 0-1.118" fill="none" stroke="#000000" stroke-linejoin="round" stroke-miterlimit="10" stroke-width="1.0001"/>
    </g>
   </g>
   <g clip-path="url(#clipPath248)">
    <g transform="translate(41.697 1132.7)">
     <path d="m0 0c0-0.276-0.243-0.535-0.542-0.578s-0.542 0.145-0.542 0.422c0 0.276 0.243 0.535 0.542 0.578s0.542-0.146 0.542-0.422zm3.083-2.168c-0.841-1.115-2.152-1.943-3.625-2.154-1.473-0.212-2.784 0.239-3.625 1.113m-0.068 5.128c0.837 1.162 2.18 2.03 3.693 2.247 1.491 0.214 2.816-0.251 3.657-1.146m-0.93-4.709c-0.638-0.832-1.623-1.448-2.727-1.607-1.14-0.163-2.151 0.196-2.787 0.886m-2e-3 3.861c0.636 0.873 1.648 1.525 2.789 1.688 1.127 0.162 2.129-0.188 2.767-0.864" fill="none" stroke="#939598" stroke-miterlimit="10" stroke-width="1.0001"/>
    </g>
    <g transform="translate(50.47 1121.7)">
     <path d="m0 0-0.266-0.591-0.599-0.332-0.598 0.16-0.2 0.524 0.2 0.582 0.598 0.27 0.599-0.098 0.266-0.515m-0.831 1.33v-0.447m0-2.048v-0.447m1.594 1.7-0.486-0.071m-2.217-0.317-0.485-0.07m2.721 1.432-0.344-0.367m-1.567-1.673-0.343-0.366m2.254 0.324-0.344 0.268m-1.567 1.222-0.343 0.267" fill="none" stroke="#939598" stroke-linecap="round" stroke-linejoin="round" stroke-miterlimit="10" stroke-width="1.0001"/>
    </g>
   </g>
   <g clip-path="url(#clipPath264)">
    <g transform="translate(76.89 1135.9)">
     <path d="m0 0c0-0.167-0.147-0.324-0.329-0.351-0.182-0.026-0.328 0.089-0.328 0.257 0 0.167 0.146 0.324 0.328 0.35 0.182 0.027 0.329-0.089 0.329-0.256zm1.871-1.315c-0.511-0.677-1.306-1.179-2.2-1.307s-1.689 0.145-2.199 0.676m-0.041 3.111c0.508 0.705 1.322 1.231 2.24 1.363 0.905 0.13 1.709-0.153 2.219-0.696m-0.564-2.856c-0.387-0.505-0.984-0.879-1.655-0.975-0.691-0.1-1.305 0.119-1.691 0.537m0 2.343c0.385 0.53 1 0.925 1.691 1.024 0.685 0.098 1.292-0.115 1.679-0.524" fill="none" stroke="#939598" stroke-miterlimit="10" stroke-width="1.0001"/>
    </g>
    <g transform="translate(82.115 1168.3)">
     <path d="m0 0c-0.077 0.12-0.22 0.219-0.39 0.304 0.039 0.116 0.039 0.236-0.039 0.355l-2.148 3.299c-0.275 0.421-1.222 0.657-2.116 0.529l-7.899-1.134c-0.895-0.128-1.399-0.573-1.126-0.993l2.15-3.299c0.077-0.12 0.219-0.22 0.389-0.305-0.039-0.116-0.038-0.235 0.039-0.355 0.275-0.42 1.222-0.656 2.117-0.528l7.899 1.134c0.894 0.128 1.398 0.573 1.124 0.993zm-11.003-1.158c0.191 0.206 0.565 0.373 1.06 0.444l7.898 1.133c0.496 0.072 1.007 0.031 1.411-0.091m-10.545-61.782c-0.039-0.116-0.038-0.235 0.039-0.355 0.275-0.42 1.222-0.656 2.117-0.528l7.899 1.133c0.782 0.113 1.266 0.468 1.191 0.836v59.656m-11.246-60.742v59.855m-2.595 3.959v-59.865c-0.035-0.113-0.018-0.23 0.056-0.345l2.15-3.3c0.077-0.119 0.219-0.219 0.389-0.304m-46.606 52.627v-59.833m34.6 64.691v-59.832m13.767 61.233v-59.833m7.985 61.285v-59.833" fill="none" stroke="#000000" stroke-miterlimit="10" stroke-width="1.0001"/>
    </g>
   </g>
  </g>
 </g>
</svg>
