<?xml version="1.0" encoding="UTF-8" standalone="no"?>
<!-- Generator: Adobe Illustrator 19.2.1, SVG Export Plug-In . SVG Version: 6.00 Build 0)  -->

<svg
   xmlns:dc="http://purl.org/dc/elements/1.1/"
   xmlns:cc="http://creativecommons.org/ns#"
   xmlns:rdf="http://www.w3.org/1999/02/22-rdf-syntax-ns#"
   xmlns:svg="http://www.w3.org/2000/svg"
   xmlns="http://www.w3.org/2000/svg"
   xmlns:sodipodi="http://sodipodi.sourceforge.net/DTD/sodipodi-0.dtd"
   xmlns:inkscape="http://www.inkscape.org/namespaces/inkscape"
   version="1.2"
   id="Layer_1"
   x="0px"
   y="0px"
   viewBox="0 0 50.5 50.5"
   xml:space="preserve"
   sodipodi:docname="icon.svg"
   inkscape:version="0.92.4 (5da689c313, 2019-01-14)"><metadata
   id="metadata15"><rdf:RDF><cc:Work
       rdf:about=""><dc:format>image/svg+xml</dc:format><dc:type
         rdf:resource="http://purl.org/dc/dcmitype/StillImage" /></cc:Work></rdf:RDF></metadata><defs
   id="defs13"><marker
     inkscape:isstock="true"
     style="overflow:visible"
     id="Arrow1Send"
     refX="0"
     refY="0"
     orient="auto"
     inkscape:stockid="Arrow1Send"><path
       transform="matrix(-0.2,0,0,-0.2,-1.2,0)"
       style="fill:#000000;fill-opacity:1;fill-rule:evenodd;stroke:#000000;stroke-width:1.00000003pt;stroke-opacity:1"
       d="M 0,0 5,-5 -12.5,0 5,5 Z"
       id="path4714"
       inkscape:connector-curvature="0" /></marker><clipPath
     id="clipPath69-0"><path
       d="m 409.441,126.252 v -43.63 h 147.796 v 43.63"
       id="path71-2"
       inkscape:connector-curvature="0" /></clipPath><clipPath
     id="clipPath101-1"><path
       d="m 409.441,126.252 v -43.63 h 147.796 v 43.63"
       id="path103-6"
       inkscape:connector-curvature="0" /></clipPath><clipPath
     id="clipPath69"><path
       d="m 409.441,126.252 v -43.63 h 147.796 v 43.63"
       id="path71"
       inkscape:connector-curvature="0" /></clipPath><clipPath
     id="clipPath101"><path
       d="m 409.441,126.252 v -43.63 h 147.796 v 43.63"
       id="path103"
       inkscape:connector-curvature="0" /></clipPath><clipPath
     id="clipPath69-7"><path
       d="m 409.441,126.252 v -43.63 h 147.796 v 43.63"
       id="path71-5"
       inkscape:connector-curvature="0" /></clipPath><clipPath
     id="clipPath101-8"><path
       d="m 409.441,126.252 v -43.63 h 147.796 v 43.63"
       id="path103-7"
       inkscape:connector-curvature="0" /></clipPath></defs><sodipodi:namedview
   pagecolor="#ffffff"
   bordercolor="#666666"
   borderopacity="1"
   objecttolerance="10"
   gridtolerance="10"
   guidetolerance="10"
   inkscape:pageopacity="0"
   inkscape:pageshadow="2"
   inkscape:window-width="1680"
   inkscape:window-height="987"
   id="namedview11"
   showgrid="false"
   inkscape:zoom="8"
   inkscape:cx="-8.556188"
   inkscape:cy="25.29457"
   inkscape:window-x="1672"
   inkscape:window-y="-8"
   inkscape:window-maximized="1"
   inkscape:current-layer="layer2" />




<g
   inkscape:groupmode="layer"
   id="layer3"
   inkscape:label="Layer 3" /><g
   inkscape:groupmode="layer"
   id="layer2"
   inkscape:label="Layer 2">

<path
   style="fill:none;fill-opacity:1;fill-rule:evenodd;stroke:#000000;stroke-width:0.30000001;stroke-miterlimit:4;stroke-dasharray:none;stroke-opacity:0.98141264"
   id="path923"
   sodipodi:type="arc"
   sodipodi:cx="25.28125"
   sodipodi:cy="11.53125"
   sodipodi:rx="8.0625"
   sodipodi:ry="8.0625"
   sodipodi:start="4.7154259"
   sodipodi:end="4.7152688"
   sodipodi:open="true"
   d="m 25.305735,3.4687872 a 8.0625,8.0625 0 0 1 8.037979,8.0866308 8.0625,8.0625 0 0 1 -8.086316,8.038297 8.0625,8.0625 0 0 1 -8.038614,-8.086 8.0625,8.0625 0 0 1 8.085685,-8.0389316" /><path
   d="m 25.304037,4.0278175 a 7.5034671,7.5034671 0 0 1 7.480646,7.5259255 7.5034671,7.5034671 0 0 1 -7.525631,7.480941 7.5034671,7.5034671 0 0 1 -7.481237,-7.525337 7.5034671,7.5034671 0 0 1 7.525044,-7.481533"
   sodipodi:open="true"
   sodipodi:end="4.7152688"
   sodipodi:start="4.7154259"
   sodipodi:ry="7.5034671"
   sodipodi:rx="7.5034671"
   sodipodi:cy="11.53125"
   sodipodi:cx="25.28125"
   sodipodi:type="arc"
   id="path925"
   style="fill:none;fill-opacity:1;fill-rule:evenodd;stroke:#000000;stroke-width:0.09306626;stroke-miterlimit:4;stroke-dasharray:none;stroke-opacity:0.98141264" /><rect
   style="opacity:1;fill:none;fill-opacity:1;stroke:#000000;stroke-width:0.39619115;stroke-linecap:square;stroke-linejoin:miter;stroke-miterlimit:4;stroke-dasharray:none;stroke-dashoffset:0;stroke-opacity:0.98141264;paint-order:markers stroke fill"
   id="rect927"
   width="24.156345"
   height="24.213223"
   x="13.172155"
   y="23.461033"
   ry="1.1750695"
   rx="0" /><rect
   rx="0"
   ry="1.1753808"
   y="23.461849"
   x="13.172973"
   height="24.219641"
   width="24.156322"
   id="rect929"
   style="opacity:1;fill:none;fill-opacity:1;stroke:#000000;stroke-width:0.39624348;stroke-linecap:square;stroke-linejoin:miter;stroke-miterlimit:4;stroke-dasharray:none;stroke-dashoffset:0;stroke-opacity:0.98141264;paint-order:markers stroke fill" /><rect
   style="opacity:1;fill:none;fill-opacity:1;stroke:#000000;stroke-width:0.09700323;stroke-linecap:square;stroke-linejoin:miter;stroke-miterlimit:4;stroke-dasharray:none;stroke-dashoffset:0;stroke-opacity:0.98141264;paint-order:markers stroke fill"
   id="rect933"
   width="23.419573"
   height="23.506714"
   x="13.531777"
   y="23.817547"
   ry="1.1407824"
   rx="0" /><path
   style="fill:#000000;fill-opacity:1;fill-rule:evenodd"
   id="path937"
   sodipodi:type="arc"
   sodipodi:cx="25.087776"
   sodipodi:cy="41.494572"
   sodipodi:rx="0.44194174"
   sodipodi:ry="0.44194174"
   sodipodi:start="4.7154259"
   sodipodi:end="4.7152688"
   sodipodi:open="true"
   d="m 25.089118,41.052632 a 0.44194174,0.44194174 0 0 1 0.440598,0.443264 0.44194174,0.44194174 0 0 1 -0.443247,0.440615 0.44194174,0.44194174 0 0 1 -0.440633,-0.443229 0.44194174,0.44194174 0 0 1 0.443213,-0.44065" /><path
   d="m 32.835029,34.279576 a 7.7535205,8.0625 0 0 1 -3.682663,7.569136 7.7535205,8.0625 0 0 1 -8.157497,-0.04666 7.7535205,8.0625 0 0 1 -3.602367,-7.610803"
   sodipodi:open="true"
   sodipodi:end="3.2381766"
   sodipodi:start="6.1976019"
   sodipodi:ry="8.0625"
   sodipodi:rx="7.7535205"
   sodipodi:cy="34.96875"
   sodipodi:cx="25.109886"
   sodipodi:type="arc"
   id="path941"
   style="fill:none;fill-opacity:1;fill-rule:evenodd;stroke:#000000;stroke-width:0.29419541;stroke-miterlimit:4;stroke-dasharray:none;stroke-opacity:0.98141264" /><path
   style="fill:none;fill-opacity:1;fill-rule:evenodd;stroke:#000000;stroke-width:0.33016735;stroke-miterlimit:4;stroke-dasharray:none;stroke-opacity:0.98141264"
   id="path943"
   sodipodi:type="arc"
   sodipodi:cx="25.163263"
   sodipodi:cy="34.966957"
   sodipodi:rx="8.724431"
   sodipodi:ry="9.0246019"
   sodipodi:start="6.1976019"
   sodipodi:end="3.2381766"
   sodipodi:open="true"
   d="M 33.855763,34.195543 A 8.724431,9.0246019 0 0 1 29.71195,42.667908 8.724431,9.0246019 0 0 1 20.532956,42.615683 8.724431,9.0246019 0 0 1 16.479493,34.09668" /><path
   style="fill:none;stroke:#000000;stroke-width:0.30000001;stroke-linecap:butt;stroke-linejoin:miter;stroke-miterlimit:4;stroke-dasharray:none;stroke-opacity:1"
   d="m 16.388615,34.215513 c 0,0 0.358012,-0.171517 0.546144,-0.152918 0.189715,0.01875 0.509884,0.259058 0.509884,0.259058"
   id="path945"
   inkscape:connector-curvature="0"
   sodipodi:nodetypes="cac" /><path
   style="fill:none;stroke:#000000;stroke-width:0.30000001;stroke-linecap:butt;stroke-linejoin:miter;stroke-miterlimit:4;stroke-dasharray:none;stroke-opacity:1"
   d="m 33.949493,34.319492 c 0,0 -0.395366,-0.221434 -0.608887,-0.204974 -0.208891,0.0161 -0.557912,0.289458 -0.557912,0.289458"
   id="path947"
   inkscape:connector-curvature="0"
   sodipodi:nodetypes="cac" /><g
   id="g1023"
   transform="matrix(0.01987735,0,0,0.01987735,35.824746,-0.8277159)"><g
     style="fill:#000000;fill-opacity:1"
     transform="matrix(3.9617467,0,0,-3.9617467,-1584.8706,690.47633)"
     id="g11"><g
       style="fill:#000000;fill-opacity:1"
       transform="translate(1.4705494,-0.9803663)"
       id="g2510"><path
         inkscape:connector-curvature="0"
         d="m 426.252,119.898 c -3.379,1.5 -5.394,2.082 -7.395,2.082 -2.1,0 -3.445,-0.752 -3.445,-1.914 0,-3.507 11.897,-2.52 11.897,-10.632 0,-4.473 -3.753,-7.072 -8.967,-7.072 -4.09,0 -6.104,1.058 -8.424,2.256 v 5.018 c 3.346,-2.217 5.394,-3 7.975,-3 2.238,0 3.445,0.783 3.445,2.148 0,3.819 -11.897,2.42 -11.897,10.773 0,4.028 3.481,6.695 8.901,6.695 2.616,0 4.976,-0.549 7.91,-1.811 v -4.543"
         id="path53"
         style="fill:#000000;fill-opacity:1;fill-rule:nonzero;stroke:none" /><path
         inkscape:connector-curvature="0"
         d="m 442.909,103.428 c -1.983,-0.719 -3.66,-1.062 -5.333,-1.062 -5.541,0 -9.123,3.227 -9.123,8.137 0,4.82 3.721,8.225 8.917,8.225 1.605,0 3.657,-0.411 5.298,-1.022 v -3.69 c -1.299,0.69 -2.803,1.068 -4.034,1.068 -2.974,0 -4.887,-1.787 -4.887,-4.545 0,-2.797 1.881,-4.638 4.715,-4.638 1.196,0 2.259,0.274 4.447,1.093 v -3.566"
         id="path55"
         style="fill:#000000;fill-opacity:1;fill-rule:nonzero;stroke:none" /><path
         inkscape:connector-curvature="0"
         d="m 486.109,112.311 c 0.203,2.19 1.475,3.456 3.423,3.456 1.915,0 3.213,-1.302 3.418,-3.456 z m 3.081,6.412 c -4.862,0 -8.323,-3.434 -8.323,-8.266 0,-4.868 3.599,-8.091 9.146,-8.091 1.229,0 4.201,0 7.032,2.095 v 3.081 c -2.319,-1.652 -3.853,-2.221 -5.833,-2.221 -3.125,0 -5.036,1.617 -5.209,4.377 h 11.321 c 0.235,5.761 -3.547,9.025 -8.134,9.025"
         id="path57"
         style="fill:#000000;fill-opacity:1;fill-rule:nonzero;stroke:none" /><path
         inkscape:connector-curvature="0"
         d="m 499.239,102.653 h 4.9502 v 15.779 h -4.9502 z"
         id="path59"
         style="fill:#000000;fill-opacity:1;fill-rule:nonzero;stroke:none" /><path
         inkscape:connector-curvature="0"
         d="m 517.964,106.966 c -1.031,-0.928 -1.888,-1.3 -2.945,-1.3 -2.331,0 -3.806,1.918 -3.806,4.793 0,3.15 1.475,4.966 3.97,4.966 0.893,0 2.059,-0.411 2.781,-0.926 z m 0,18.995 v -8.221 c -1.337,0.647 -2.67,0.988 -4.111,0.988 -4.515,0 -7.639,-3.337 -7.639,-8.166 0,-4.725 3.124,-8.2 7.36,-8.2 1.68,0 2.978,0.44 4.39,1.566 v -1.27 h 4.949 v 23.303 h -4.949"
         id="path61"
         style="fill:#000000;fill-opacity:1;fill-rule:nonzero;stroke:none" /><path
         inkscape:connector-curvature="0"
         d="m 530.24,112.311 c 0.206,2.19 1.471,3.456 3.416,3.456 1.918,0 3.229,-1.302 3.434,-3.456 z m 3.078,6.412 c -4.861,0 -8.316,-3.434 -8.316,-8.266 0,-4.868 3.599,-8.091 9.14,-8.091 1.227,0 4.205,0 7.043,2.095 v 3.081 c -2.322,-1.652 -3.859,-2.221 -5.848,-2.221 -3.108,0 -5.027,1.617 -5.2,4.377 h 11.316 c 0.235,5.761 -3.55,9.025 -8.135,9.025"
         id="path63"
         style="fill:#000000;fill-opacity:1;fill-rule:nonzero;stroke:none" /><g
         style="fill:#000000;fill-opacity:1"
         id="g65"><g
           style="fill:#000000;fill-opacity:1"
           clip-path="url(#clipPath69-7)"
           id="g67"><path
             inkscape:connector-curvature="0"
             d="m 548.863,113.914 h 0.073 c 1.469,3.284 3.114,4.824 5.023,4.824 0.989,0 1.842,-0.377 3.278,-1.439 l -1.362,-4.375 c -1.3,0.82 -2.154,1.163 -2.939,1.163 -1.816,0 -2.978,-1.712 -4.073,-4.606 v -6.807 h -4.956 v 15.775 h 4.956 v -4.535"
             id="path73"
             style="fill:#000000;fill-opacity:1;fill-rule:nonzero;stroke:none" /><path
             inkscape:connector-curvature="0"
             d="m 504.421,125.07 c 0.465,-1.226 -0.372,-2.936 -1.863,-3.816 -1.497,-0.879 -3.079,-0.6 -3.54,0.626 -0.47,1.228 0.363,2.94 1.858,3.815 1.493,0.884 3.076,0.604 3.545,-0.625"
             id="path75"
             style="fill:#000000;fill-opacity:1;fill-rule:nonzero;stroke:none" /></g></g><path
         inkscape:connector-curvature="0"
         d="m 460.738,112.696 c 0,4.276 -2.906,6.027 -5.774,6.027 -1.95,0 -3.553,-0.823 -4.987,-2.638 h -0.068 v 9.876 h -4.955 v -23.262 h 4.955 v 9.997 c 1.159,1.677 2.149,2.394 3.31,2.394 1.541,0 2.565,-1.096 2.565,-3.453 v -5.543 c 1.662,0.854 3.351,1.378 4.954,1.573 v 5.029"
         id="path77"
         style="fill:#000000;fill-opacity:1;fill-rule:nonzero;stroke:none" /><path
         inkscape:connector-curvature="0"
         d="m 473.166,118.728 c -2.018,0 -3.559,-0.75 -5.136,-2.554 v 2.258 h -4.953 v -10.723 c 1.716,-0.171 3.905,-0.958 4.953,-2.258 v 7.369 c 1.302,1.954 2.226,2.605 3.458,2.605 1.403,0 2.469,-0.926 2.469,-3.151 v -9.58 h 4.954 v 9.99 c 0,4.647 -3.282,6.044 -5.745,6.044"
         id="path79"
         style="fill:#000000;fill-opacity:1;fill-rule:nonzero;stroke:none" /><path
         inkscape:connector-curvature="0"
         d="m 481.647,98.163 h -5.756 v -4.09 h 5.553 v -1.755 h -5.553 v -4.219 h 5.928 v -1.753 h -7.858 v 13.568 h 7.686 v -1.751"
         id="path81"
         style="fill:#000000;fill-opacity:1;fill-rule:nonzero;stroke:none" /><path
         inkscape:connector-curvature="0"
         d="m 486.348,86.338 h 1.7631 v 13.58 h -1.7631 z"
         id="path83"
         style="fill:#000000;fill-opacity:1;fill-rule:nonzero;stroke:none" /><path
         inkscape:connector-curvature="0"
         d="m 496.84,93.944 c 1.25,0 2.025,-0.861 2.083,-2.214 h -4.49 c 0.243,1.413 1.056,2.214 2.407,2.214 z m -2.439,-3.391 h 6.281 c 0,3.311 -1.513,4.909 -3.882,4.909 -2.458,0 -4.165,-1.817 -4.165,-4.527 0,-2.477 1.542,-4.764 4.318,-4.764 1.513,0 2.491,0.336 3.574,1.055 v 1.716 c -1.046,-0.685 -2.061,-1.08 -3.129,-1.08 -1.708,0 -2.722,0.916 -2.997,2.691"
         id="path85"
         style="fill:#000000;fill-opacity:1;fill-rule:nonzero;stroke:none" /><path
         inkscape:connector-curvature="0"
         d="m 512.195,92.942 c -1.014,0.694 -1.691,0.898 -2.463,0.898 -1.614,0 -2.732,-1.238 -2.732,-3.051 0,-1.847 1.19,-2.96 3.027,-2.96 0.756,0 1.476,0.196 2.365,0.594 v -1.739 c -0.594,-0.28 -1.726,-0.513 -2.66,-0.513 -2.67,0 -4.523,1.836 -4.523,4.46 0,2.961 1.693,4.831 4.402,4.831 1.035,0 1.731,-0.241 2.584,-0.616 v -1.904"
         id="path87"
         style="fill:#000000;fill-opacity:1;fill-rule:nonzero;stroke:none" /><path
         inkscape:connector-curvature="0"
         d="m 520.228,95.291 h 2.83 v -1.589 h -2.83 V 89.11 c 0,-1.051 0.761,-1.355 1.275,-1.355 0.638,0 1.296,0.223 2.01,0.664 v -1.654 c -0.619,-0.341 -1.569,-0.594 -2.151,-0.594 -1.92,0 -2.891,1.192 -2.891,2.806 v 4.725 h -1.555 v 0.197 l 3.312,3.241 v -1.849"
         id="path89"
         style="fill:#000000;fill-opacity:1;fill-rule:nonzero;stroke:none" /><path
         inkscape:connector-curvature="0"
         d="M 529.8,95.291 V 93.22 h 0.036 c 0.899,1.585 1.754,2.242 2.586,2.242 0.718,0 1.39,-0.337 2.129,-1.036 l -0.934,-1.554 c -0.537,0.531 -1.231,0.897 -1.65,0.897 -1.214,0 -2.167,-1.234 -2.167,-2.763 v -4.668 h -1.761 v 8.953 h 1.761"
         id="path91"
         style="fill:#000000;fill-opacity:1;fill-rule:nonzero;stroke:none" /><path
         inkscape:connector-curvature="0"
         d="m 552.618,92.942 c -1.019,0.694 -1.695,0.898 -2.472,0.898 -1.61,0 -2.719,-1.238 -2.719,-3.051 0,-1.847 1.191,-2.96 3.017,-2.96 0.757,0 1.473,0.196 2.374,0.594 v -1.739 c -0.607,-0.28 -1.74,-0.513 -2.672,-0.513 -2.666,0 -4.527,1.836 -4.527,4.46 0,2.961 1.701,4.831 4.41,4.831 1.037,0 1.726,-0.241 2.589,-0.616 v -1.904"
         id="path93"
         style="fill:#000000;fill-opacity:1;fill-rule:nonzero;stroke:none" /><path
         inkscape:connector-curvature="0"
         d="m 539.225,86.338 h 1.7628 v 8.9527 h -1.7628 z"
         id="path95"
         style="fill:#000000;fill-opacity:1;fill-rule:nonzero;stroke:none" /><g
         style="fill:#000000;fill-opacity:1"
         id="g97"><g
           style="fill:#000000;fill-opacity:1"
           clip-path="url(#clipPath101-8)"
           id="g99"><path
             inkscape:connector-curvature="0"
             d="m 541.047,98.507 c 0.172,-0.432 -0.129,-1.043 -0.659,-1.354 -0.534,-0.312 -1.099,-0.212 -1.26,0.221 -0.161,0.437 0.131,1.043 0.667,1.355 0.529,0.316 1.091,0.215 1.252,-0.222"
             id="path105"
             style="fill:#000000;fill-opacity:1;fill-rule:nonzero;stroke:none" /><path
             inkscape:connector-curvature="0"
             d="m 462.13,97.783 c -0.311,0 -0.442,-0.051 -0.569,-0.193 -0.05,-0.055 -0.07,-0.111 -0.088,-0.223 l -1.581,-5.996 c -0.371,-2.103 -2.954,-4.203 -6.321,-4.203 h -4.681 l 0.812,3.081 h 3.007 c 0.307,0 0.547,0.114 0.748,0.338 0.074,0.087 0.17,0.223 0.183,0.363 l 1.248,5.239 c 0.368,2.104 2.591,4.428 5.957,4.428 h 4.794 l -0.613,-2.834 z m 1.08,-3.654 0.535,1.94 h 4.87 c 0.601,2.813 0.128,5.419 -1.579,7.126 -3.455,3.455 -10.683,2.281 -16.068,-2.871 -0.841,-0.8 -1.551,-1.665 -2.198,-2.549 h 2.932 l -0.682,-1.944 h -3.503 c -0.335,-0.613 -0.649,-1.221 -0.889,-1.838 h 4.154 l -0.665,-1.944 h -4.082 c -0.698,-2.97 -0.253,-5.74 1.503,-7.499 3.412,-3.411 10.618,-2.212 16,2.939 0.942,0.896 1.72,1.863 2.423,2.856 h -3.767 l 0.574,1.94 h 4.404 c 0.323,0.617 0.62,1.227 0.852,1.844 h -4.814"
             id="path107"
             style="fill:#000000;fill-opacity:1;fill-rule:nonzero;stroke:none" /></g></g></g></g></g></g><g
   inkscape:groupmode="layer"
   id="layer1"
   inkscape:label="Layer 1" /><style
   id="style2"
   type="text/css">
	.st0{fill:none;stroke:#000000;stroke-width:2;stroke-linecap:round;stroke-linejoin:round;stroke-miterlimit:10;}
</style></svg>