<svg version="1.1" viewBox="0 0 500 500" xmlns="http://www.w3.org/2000/svg">
 <g transform="translate(85.545)">
  <g transform="matrix(9.8459 0 0 9.8459 3.8773 3.8745)" fill="none">
   <path d="m0.109 45.646v-41.219c0-0.346 0.495-1.089 1.126-1.145 0.632-0.055 25.901-3.11 26.351-3.161 0.45-0.052 0.643-0.012 0.958 0.237 0.316 0.249 2.819 2.249 3.195 2.565 0.375 0.316 0.77 0.818 0.77 1.402v40.218c0 0.964-1.043 2.124-1.982 2.251-0.94 0.126-24.623 2.968-25.545 3.079-0.92 0.111-1.631-0.542-2.026-0.936-0.394-0.396-2.358-2.455-2.558-2.654-0.199-0.2-0.289-0.473-0.289-0.637"/>
   <path d="m0.109 45.646v-41.219c0-0.346 0.495-1.089 1.126-1.145 0.632-0.055 25.901-3.11 26.351-3.161 0.45-0.052 0.643-0.012 0.958 0.237 0.316 0.249 2.819 2.249 3.195 2.565 0.375 0.316 0.77 0.818 0.77 1.402v40.218c0 0.964-1.043 2.124-1.982 2.251-0.94 0.126-24.623 2.968-25.545 3.079-0.92 0.111-1.631-0.542-2.026-0.936-0.394-0.396-2.358-2.455-2.558-2.654-0.199-0.2-0.289-0.473-0.289-0.637z" stroke="#231f20" stroke-linecap="round" stroke-linejoin="round" stroke-miterlimit="10" stroke-width="1.0056"/>
   <path d="m26.437 16.632c0-0.109-0.089-0.187-0.199-0.175-0.109 0.014-0.197 0.114-0.197 0.223 0 0.11 0.089 0.188 0.197 0.174 0.11-0.012 0.199-0.112 0.199-0.222"/>
   <g stroke="#231f20" stroke-linecap="round" stroke-linejoin="round" stroke-miterlimit="10" stroke-width=".25">
    <path d="m26.437 16.632c0-0.109-0.089-0.187-0.199-0.175-0.109 0.014-0.197 0.114-0.197 0.223 0 0.11 0.089 0.188 0.197 0.174 0.11-0.012 0.199-0.112 0.199-0.222z"/>
    <path d="m30.305 8.033c-1e-3 -1.163-0.944-1.992-2.105-1.853-1.161 0.141-2.101 1.196-2.099 2.361 2e-3 1.163 0.944 1.992 2.105 1.853 1.16-0.142 2.1-1.198 2.099-2.361z" stroke-miterlimit="10" stroke-width=".30168"/>
    <path d="m24.49 21.905c-5e-3 -3.736-3.031-6.4-6.76-5.95-3.731 0.449-6.749 3.842-6.745 7.579 5e-3 3.737 3.032 6.4 6.761 5.951 3.729-0.45 6.749-3.843 6.744-7.58z" stroke-miterlimit="10" stroke-width=".60336"/>
    <path d="m11.556 21.93c0.173 0.127 0.397 0.188 0.642 0.159 0.545-0.067 0.987-0.563 0.987-1.109s-0.442-0.935-0.987-0.868c-0.15 0.018-0.293 0.07-0.42 0.145"/>
    <path d="m19.722 20.168c0-0.546-0.442-0.934-0.987-0.868-0.544 0.066-0.987 0.563-0.987 1.108 0 0.547 0.443 0.936 0.987 0.869 0.545-0.067 0.987-0.563 0.987-1.109z"/>
    <path d="m21.201 16.497v2.583l1.865 1.612 0.91-0.111s-0.266-1.663-0.91-2.655v2.766"/>
    <path d="m21.201 20.932v2.535l1.86 1.734s0.915-1.442 0.915-2.706l-1.882-1.716z"/>
    <path d="m21.201 20.932 1.86 1.667 0.915-0.104"/>
    <path d="m23.061 22.608v2.602"/>
    <path d="m22.1 20.784s0.092-0.351 0.092-0.85"/>
    <path d="m21.201 23.47s-1.154 2.253-3.682 3.346"/>
    <path d="m11.861 26.747s0.826 0.485 2.336 0.663"/>
    <path d="m11.556 26.18v-2.183l-0.565-0.56"/>
    <path d="m11.013 24.049 0.546-0.057"/>
    <path d="m11.135 22.115 0.423-0.054v-1.314"/>
    <path d="m14.225 27.351s0.424 0.166 1.029 0.124c0.603-0.042 0.829-0.111 0.829-0.111l0.495-0.286s0.234 0.244 0.234 0.936l-0.642 0.09s-0.135 0.017-0.135 0.347l0.107 0.101s6e-3 -0.187 0.08-0.138 0.458 0.312 0.458 0.312 6e-3 0.017 0.172 8e-3c0.166-0.01 0.726-0.09 0.726-0.09s0.146-0.083 0.146-0.452c0-0.367-0.019-0.517-0.093-0.891-0.075-0.373-0.235-0.635-0.416-0.815-0.047-0.048-0.139 5e-3 -0.139 5e-3s-0.121-0.093-0.301-0.078c-0.178 0.014-0.35 0.13-0.35 0.13l-0.408-0.137s-0.062-0.024-0.062-0.123v-0.635s-0.016-0.073-0.083-0.064c-0.068 9e-3 -0.76 0.092-0.76 0.092s-0.137 0.057-0.137 0.168v0.686l-0.773 0.449v0.384s0.024 0.07 0.098 0.085c0.073 0.014 0.606 0.165 0.71 0.191s0.218 0.086 0.27 0.138c0.051 0.053 1.722 1.544 1.722 1.544s0.296 0.037 0.668-0.036c0.374-0.073 0.311-0.073 0.311-0.073l-0.533-0.549"/>
    <path d="m14.203 27.03s0.706 0.339 1.052 0.14c0.346-0.2 1.05-0.573 1.05-0.573s0.135-0.068 0.218 0.076c0.082 0.143 0.402 0.441 0.402 1.556 0 0.173-0.02 0.478-0.19 0.507"/>
    <path d="m16.173 28.115s0.027 1e-3 0.09 0.038c0.062 0.037 0.38 0.27 0.419 0.292 0.037 0.021 0.133 0.052 0.133-0.42"/>
    <path d="m16.581 27.08s-0.113-0.265-0.217-0.206c-0.104 0.06-1.097 0.601-1.097 0.601"/>
    <path d="m17.076 26.501s0.352 0.313 0.426 0.776 0.092 0.554 0.081 0.685c-0.012 0.133-0.106 0.32-0.247 0.32-0.142 0-0.29-0.092-0.29-0.305 0-0.215-0.09-0.966-0.479-1.388"/>
    <path d="m16.011 16.386s0.376 1.032 0.606 1.032c0.06 0 0.105-0.022 0.15 4e-3s0.113 0.057 0.253 0.051c0.142-8e-3 0.206-0.031 0.356-0.154 0 0 0.178 0.041 0.262-0.223 0.083-0.265 0.141-0.668 0.037-1.134"/>
    <path d="m16.125 16.349s0.283 0.854 0.494 0.781c0.21-0.073 0.234-0.586 0.166-0.988"/>
    <path d="m16.698 17.409s0.346-0.296 0.199-1.303"/>
    <path d="m16.763 17.421s0.122-0.043 0.19-0.224c0.067-0.181 0.076-0.335 0.093-0.453 0.017-0.115 0.139-0.341 0.293-0.332 0.156 8e-3 0.263 0.135 0.248 0.3-0.016 0.166-0.05 0.393-0.214 0.605"/>
    <path d="m24.49 36.307c-5e-3 -3.736-3.031-6.4-6.76-5.95-3.731 0.45-6.749 3.842-6.745 7.579 5e-3 3.737 3.032 6.4 6.761 5.951 3.729-0.45 6.749-3.844 6.744-7.58z" stroke-miterlimit="10" stroke-width=".60336"/>
    <path d="m11.556 36.332c0.173 0.127 0.397 0.19 0.642 0.159 0.545-0.065 0.987-0.563 0.987-1.108s-0.442-0.935-0.987-0.868c-0.15 0.017-0.293 0.069-0.42 0.145"/>
    <path d="m19.722 34.558c0-0.546-0.442-0.935-0.987-0.869-0.544 0.067-0.987 0.563-0.987 1.109s0.443 0.935 0.987 0.869c0.545-0.067 0.987-0.563 0.987-1.109z"/>
    <path d="m21.201 30.899v2.583l1.865 1.612 0.91-0.111s-0.266-1.662-0.91-2.655v2.766"/>
    <path d="m21.201 35.334v2.536l1.86 1.733s0.915-1.441 0.915-2.705l-1.882-1.717z"/>
    <path d="m21.201 35.334 1.86 1.667 0.915-0.103"/>
    <path d="m23.061 36.997v2.602"/>
    <path d="m22.1 35.174s0.092-0.351 0.092-0.85"/>
    <path d="m21.201 37.872s-1.154 2.253-3.682 3.346"/>
    <path d="m11.861 41.137s0.826 0.485 2.336 0.661"/>
    <path d="m11.556 40.57v-2.184l-0.565-0.561"/>
    <path d="m11.013 38.439 0.546-0.056"/>
    <path d="m11.135 36.505 0.423-0.055v-1.313"/>
    <path d="m14.225 41.753s0.424 0.166 1.029 0.126c0.603-0.042 0.829-0.113 0.829-0.113l0.495-0.285s0.234 0.244 0.234 0.936l-0.642 0.09s-0.135 0.017-0.135 0.347l0.107 0.1s6e-3 -0.187 0.08-0.137c0.074 0.048 0.458 0.312 0.458 0.312s6e-3 0.017 0.172 7e-3c0.166-8e-3 0.726-0.09 0.726-0.09s0.146-0.082 0.146-0.45c0-0.369-0.019-0.519-0.093-0.891-0.075-0.374-0.235-0.637-0.416-0.817-0.047-0.047-0.139 6e-3 -0.139 6e-3s-0.121-0.093-0.301-0.079c-0.178 0.014-0.35 0.131-0.35 0.131l-0.408-0.138s-0.062-0.022-0.062-0.123v-0.634s-0.016-0.072-0.083-0.064c-0.068 8e-3 -0.76 0.092-0.76 0.092s-0.137 0.057-0.137 0.168v0.687l-0.773 0.447v0.384s0.024 0.07 0.098 0.085c0.073 0.015 0.606 0.165 0.71 0.191s0.218 0.088 0.27 0.139c0.051 0.052 1.722 1.544 1.722 1.544s0.296 0.037 0.668-0.036c0.374-0.074 0.311-0.074 0.311-0.074l-0.533-0.549"/>
    <path d="m14.203 41.433s0.706 0.338 1.052 0.139c0.346-0.2 1.05-0.573 1.05-0.573s0.135-0.068 0.218 0.076c0.082 0.143 0.402 0.441 0.402 1.556 0 0.174-0.02 0.478-0.19 0.507"/>
    <path d="m16.173 42.504s0.027 2e-3 0.09 0.039c0.062 0.035 0.38 0.269 0.419 0.292 0.037 0.02 0.133 0.051 0.133-0.421"/>
    <path d="m16.581 41.482s-0.113-0.265-0.217-0.205c-0.104 0.061-1.097 0.602-1.097 0.602"/>
    <path d="m17.076 40.89s0.352 0.313 0.426 0.777c0.074 0.463 0.092 0.553 0.081 0.685-0.012 0.131-0.106 0.32-0.247 0.32-0.142 0-0.29-0.092-0.29-0.306s-0.09-0.967-0.479-1.387"/>
    <path d="m16.011 30.776s0.376 1.033 0.606 1.033c0.06 0 0.105-0.022 0.15 4e-3s0.113 0.057 0.253 0.049c0.142-7e-3 0.206-0.029 0.356-0.152 0 0 0.178 0.04 0.262-0.225 0.083-0.265 0.141-0.667 0.037-1.132"/>
    <path d="m16.125 30.739s0.283 0.855 0.494 0.781c0.21-0.073 0.234-0.585 0.166-0.988"/>
    <path d="m16.698 31.811s0.346-0.296 0.199-1.303"/>
    <path d="m16.763 31.823s0.122-0.044 0.19-0.224c0.067-0.181 0.076-0.335 0.093-0.452 0.017-0.116 0.139-0.343 0.293-0.333 0.156 9e-3 0.263 0.135 0.248 0.301-0.016 0.163-0.05 0.393-0.214 0.604"/>
   </g>
  </g>
  <g transform="matrix(9.8459 0 0 9.8459 3.8773 3.8745)" fill="#7b7979">
   <path d="m26.905 8.058c-0.015 0.016-0.022 0.035-0.022 0.056 0 0.02 7e-3 0.039 0.022 0.051l0.373 0.325c0.015 0.012 0.033 0.017 0.053 0.015 0.018-3e-3 0.038-0.012 0.052-0.028 0.212-0.241 0.492-0.392 0.792-0.429 0.273-0.033 0.532 0.033 0.737 0.19-0.068 0.073-0.198 0.219-0.259 0.288-0.139-0.099-0.309-0.136-0.481-0.116-0.193 0.025-0.386 0.123-0.534 0.29-0.029 0.032-0.029 0.078-3e-3 0.104l0.339 0.333c-6e-3 0.017-0.01 0.037-0.01 0.057 0 0.061 0.011 0.114 0.052 0.157 0.037 0.04 0.09 0.061 0.147 0.059 0.11-2e-3 0.239-0.108 0.239-0.229 0-0.061-0.01-0.113-0.051-0.157-0.037-0.04-0.09-0.062-0.147-0.06-0.044 2e-3 -0.091 0.019-0.13 0.047-0.052-0.05-0.215-0.21-0.277-0.272 0.109-0.101 0.242-0.161 0.375-0.177 0.157-0.02 0.312 0.022 0.43 0.126 0.015 0.013 0.034 0.018 0.053 0.015 0.019-2e-3 0.039-0.011 0.052-0.027l0.365-0.406c0.015-0.016 0.022-0.036 0.022-0.057 0-0.02-7e-3 -0.038-0.022-0.051-0.239-0.212-0.558-0.306-0.897-0.265-0.314 0.039-0.61 0.19-0.844 0.428-0.063-0.054-0.2-0.175-0.267-0.233 0.304-0.318 0.694-0.52 1.108-0.57 0.44-0.054 0.853 0.067 1.163 0.343 0.015 0.014 0.035 0.019 0.053 0.016 0.02-2e-3 0.039-0.012 0.053-0.029 0.03-0.032 0.03-0.08 0-0.106-0.338-0.301-0.789-0.434-1.269-0.375-0.478 0.058-0.929 0.302-1.267 0.687"/>
   <path d="m13.912 20.144c-0.017 0.021-0.028 0.046-0.028 0.072 0 0.025 0.011 0.048 0.028 0.064l0.478 0.417c0.019 0.016 0.043 0.022 0.068 0.019 0.023-3e-3 0.048-0.016 0.066-0.037 0.273-0.306 0.632-0.501 1.014-0.548 0.35-0.043 0.682 0.043 0.944 0.243-0.086 0.095-0.253 0.281-0.331 0.368-0.178-0.127-0.397-0.173-0.615-0.146-0.248 0.031-0.497 0.156-0.685 0.369-0.036 0.042-0.037 0.101-3e-3 0.135l0.434 0.425c-9e-3 0.023-0.012 0.048-0.012 0.072 0 0.079 0.013 0.147 0.065 0.202 0.047 0.051 0.115 0.078 0.187 0.076 0.142-3e-3 0.307-0.138 0.307-0.292 0-0.079-0.014-0.147-0.067-0.203-0.046-0.05-0.114-0.077-0.187-0.076-0.055 1e-3 -0.114 0.024-0.166 0.059-0.065-0.064-0.275-0.268-0.355-0.347 0.141-0.128 0.311-0.207 0.482-0.227 0.199-0.025 0.398 0.027 0.55 0.162 0.018 0.017 0.042 0.023 0.067 0.019 0.025-2e-3 0.048-0.015 0.067-0.035l0.466-0.52c0.018-0.02 0.029-0.046 0.029-0.072s-0.01-0.049-0.029-0.065c-0.306-0.272-0.714-0.393-1.148-0.34-0.401 0.05-0.781 0.244-1.079 0.548-0.08-0.07-0.256-0.223-0.342-0.298 0.389-0.407 0.889-0.665 1.419-0.731 0.562-0.069 1.09 0.088 1.489 0.441 0.018 0.016 0.042 0.023 0.067 0.02 0.024-4e-3 0.049-0.016 0.068-0.037 0.037-0.042 0.037-0.103 0-0.135-0.434-0.386-1.012-0.556-1.624-0.481-0.614 0.075-1.19 0.387-1.624 0.879"/>
   <path d="m25.217 21.055c-0.017 0.021-0.028 0.046-0.027 0.072 0 0.026 0.01 0.049 0.028 0.065l0.478 0.416c0.019 0.016 0.042 0.023 0.067 0.02 0.024-2e-3 0.049-0.016 0.067-0.037 0.271-0.307 0.631-0.501 1.013-0.548 0.351-0.043 0.683 0.043 0.944 0.243-0.086 0.094-0.253 0.281-0.33 0.368-0.179-0.127-0.398-0.174-0.616-0.147-0.248 0.031-0.497 0.157-0.685 0.37-0.036 0.042-0.037 0.101-3e-3 0.134l0.434 0.425c-8e-3 0.024-0.012 0.048-0.012 0.073 0 0.079 0.013 0.147 0.065 0.202 0.047 0.051 0.116 0.078 0.187 0.075 0.142-2e-3 0.307-0.138 0.307-0.292 0-0.079-0.014-0.146-0.065-0.202-0.047-0.05-0.116-0.077-0.189-0.076-0.055 1e-3 -0.115 0.023-0.166 0.059-0.066-0.064-0.275-0.269-0.355-0.348 0.14-0.129 0.312-0.206 0.482-0.226 0.199-0.025 0.398 0.027 0.55 0.161 0.019 0.017 0.043 0.024 0.067 0.02 0.024-3e-3 0.049-0.015 0.068-0.036l0.465-0.52c0.019-0.019 0.029-0.045 0.029-0.071s-0.01-0.049-0.027-0.065c-0.308-0.273-0.716-0.393-1.15-0.341-0.402 0.051-0.781 0.243-1.079 0.549-0.08-0.07-0.256-0.223-0.341-0.298 0.388-0.408 0.888-0.666 1.418-0.731 0.561-0.069 1.09 0.087 1.489 0.441 0.019 0.016 0.043 0.022 0.068 0.02 0.023-4e-3 0.048-0.016 0.066-0.037 0.039-0.042 0.039-0.104 0-0.137-0.433-0.384-1.01-0.554-1.623-0.48-0.613 0.076-1.19 0.388-1.624 0.879"/>
  </g>
  <g transform="matrix(9.8459 0 0 9.8459 3.8773 3.8745)" fill="none" stroke="#231f20" stroke-miterlimit="10">
   <path d="m3.733 49.576s-0.898-0.543-0.898-1.555v-39.934c0-0.955 0.798-2.281 2.101-2.448 1.302-0.165 24.376-2.928 25.423-3.051 1.046-0.122 1.66 0.613 1.66 0.613" stroke-linecap="round" stroke-linejoin="round" stroke-miterlimit="10" stroke-width=".60336"/>
   <g stroke-width=".14">
    <path d="m2.586 16.423 0.25 0.216 29.671-3.558" stroke-miterlimit="10" stroke-width=".30168"/>
    <path d="m2.586 46.57 0.25 0.216 29.671-3.558" stroke-miterlimit="10" stroke-width=".30168"/>
    <path d="m0.556 4.004 2.543 2.337" stroke-linecap="round" stroke-linejoin="round"/>
   </g>
  </g>
 </g>
</svg>
