<svg version="1.1" viewBox="0 0 512 512" xmlns="http://www.w3.org/2000/svg">
 <style type="text/css">
  @keyframes blink {
   0%,25% {
    fill: #FFFFFF;
   }
   50%, 75% {
    fill: #FF4500;
   }
  }
  
  #LED {
   animation: blink 1s infinite;
  }
 </style>
 <g transform="matrix(7.0054 0 0 -7.0054 -845.65 2223.1)">
  <path d="m132.19 246.92v60.101c0 0.507 0.722 1.589 1.643 1.669 0.92 0.081 37.761 4.536 38.418 4.611 0.656 0.075 0.939 0.017 1.398-0.346 0.462-0.362 4.109-3.281 4.656-3.741 0.547-0.461 1.123-1.191 1.123-2.043v-58.642c0-1.405-1.519-3.097-2.889-3.282-1.37-0.183-35.9-4.329-37.242-4.49-1.344-0.161-2.38 0.792-2.955 1.367-0.576 0.575-3.438 3.576-3.73 3.867-0.292 0.292-0.422 0.692-0.422 0.929" fill="#fff"/>
  <path d="m134.62 250.69v60.101c0 0.507 0.722 1.589 1.643 1.669 0.92 0.081 37.761 4.536 38.418 4.611 0.656 0.075 0.939 0.017 1.398-0.346 0.462-0.362 4.109-3.281 4.656-3.741 0.547-0.461 1.123-1.191 1.123-2.043v-58.642c0-1.405-1.519-3.097-2.889-3.282-1.37-0.183-35.9-4.329-37.242-4.49-1.344-0.161-2.38 0.792-2.955 1.367-0.576 0.575-3.438 3.576-3.73 3.867-0.292 0.292-0.422 0.692-0.422 0.929z" fill="none" stroke="#231f20" stroke-linecap="round" stroke-linejoin="round" stroke-miterlimit="10" stroke-width=".5"/>
  <path d="m178.64 305.54c-2e-3 1.696-1.375 2.906-3.069 2.701-1.693-0.204-3.063-1.744-3.061-3.44 2e-3 -1.697 1.376-2.906 3.068-2.702 1.694 0.204 3.063 1.745 3.062 3.441" fill="#d3d2d2"/>
  <g fill="none" stroke="#231f20" stroke-linecap="round" stroke-linejoin="round" stroke-miterlimit="10" stroke-width=".25">
   <path d="m178.64 305.54c-2e-3 1.696-1.375 2.906-3.069 2.701-1.693-0.204-3.063-1.744-3.061-3.44 2e-3 -1.697 1.376-2.906 3.068-2.702 1.694 0.204 3.063 1.745 3.062 3.441z"/>
   <path d="m170.18 285.32c-7e-3 5.448-4.42 9.332-9.857 8.677-5.437-0.656-9.84-5.604-9.833-11.052s4.42-9.333 9.858-8.677c5.437 0.656 9.839 5.604 9.832 11.052z"/>
   <path d="m151.31 285.28c0.252-0.185 0.578-0.276 0.936-0.232 0.794 0.097 1.438 0.82 1.438 1.616s-0.644 1.363-1.438 1.267c-0.219-0.027-0.427-0.102-0.613-0.212"/>
   <path d="m163.22 287.86c0 0.796-0.644 1.363-1.439 1.266-0.793-0.097-1.438-0.821-1.438-1.617s0.645-1.362 1.438-1.265c0.795 0.096 1.439 0.82 1.439 1.616z"/>
   <path d="m165.38 293.2v-3.767l2.72-2.35 1.327 0.162s-0.388 2.424-1.327 3.871v-4.033"/>
   <path d="m165.38 286.73v-3.697l2.713-2.528s1.334 2.103 1.334 3.947l-2.744 2.501z"/>
   <path d="m165.38 286.73 2.713-2.431 1.334 0.153"/>
   <path d="m168.09 284.3v-3.794"/>
   <path d="m166.68 286.96s0.135 0.511 0.135 1.239"/>
   <path d="m165.38 283.04s-1.682-3.285-5.368-4.88"/>
   <path d="m151.76 278.26s1.205-0.708 3.406-0.965"/>
   <path d="m151.31 279.09v3.184l-0.824 0.817"/>
   <path d="m150.52 282.19 0.796 0.081"/>
   <path d="m150.7 285.01 0.616 0.08v1.915"/>
   <path d="m155.2 277.37s0.618-0.243 1.499-0.182c0.882 0.06 1.21 0.162 1.21 0.162l0.723 0.417s0.34-0.356 0.34-1.364l-0.936-0.132s-0.197-0.025-0.197-0.506l0.156-0.148s9e-3 0.275 0.117 0.203c0.107-0.073 0.668-0.455 0.668-0.455s9e-3 -0.026 0.25-0.012c0.241 0.013 1.06 0.131 1.06 0.131s0.211 0.121 0.211 0.658-0.028 0.756-0.135 1.299c-0.108 0.544-0.343 0.928-0.606 1.19-0.069 0.07-0.205-7e-3 -0.205-7e-3s-0.175 0.134-0.436 0.114c-0.26-0.02-0.511-0.19-0.511-0.19l-0.595 0.2s-0.091 0.033-0.091 0.179v0.925s-0.023 0.107-0.122 0.093c-0.098-0.012-1.106-0.133-1.106-0.133s-0.2-0.084-0.2-0.246v-1l-1.13-0.654v-0.56s0.038-0.103 0.145-0.123c0.106-0.022 0.884-0.241 1.035-0.279 0.152-0.038 0.317-0.126 0.393-0.202 0.076-0.077 2.512-2.252 2.512-2.252s0.43-0.053 0.974 0.053c0.544 0.107 0.453 0.107 0.453 0.107l-0.778 0.801"/>
   <path d="m155.17 277.84s1.03-0.494 1.535-0.203 1.529 0.836 1.529 0.836 0.198 0.099 0.319-0.111c0.12-0.21 0.587-0.644 0.587-2.269 0-0.254-0.03-0.699-0.278-0.74"/>
   <path d="m158.04 276.27s0.04-2e-3 0.131-0.056c0.093-0.053 0.557-0.394 0.611-0.425 0.055-0.032 0.195-0.076 0.195 0.613"/>
   <path d="m158.64 277.77s-0.163 0.387-0.315 0.299c-0.153-0.088-1.6-0.876-1.6-0.876"/>
   <path d="m159.36 278.62s0.514-0.457 0.622-1.132c0.107-0.675 0.135-0.807 0.117-0.999-0.016-0.192-0.154-0.466-0.36-0.466s-0.422 0.135-0.422 0.446-0.132 1.408-0.699 2.022"/>
   <path d="m157.8 293.36s0.548-1.506 0.884-1.506c0.087 0 0.152 0.033 0.218-5e-3s0.164-0.082 0.37-0.073c0.206 0.011 0.299 0.044 0.519 0.223 0 0 0.259-0.061 0.38 0.326 0.122 0.386 0.207 0.974 0.054 1.652"/>
   <path d="m157.98 293.43s0.413-1.245 0.72-1.138c0.306 0.105 0.342 0.853 0.241 1.439"/>
   <path d="m158.81 291.87s0.505 0.43 0.29 1.899"/>
   <path d="m158.91 291.85s0.178 0.064 0.276 0.327c0.1 0.263 0.112 0.488 0.137 0.658 0.026 0.169 0.203 0.499 0.428 0.486 0.225-0.012 0.382-0.197 0.359-0.438-0.022-0.24-0.071-0.573-0.31-0.883"/>
   <path d="m170.18 264.32c-7e-3 5.448-4.42 9.332-9.857 8.677-5.437-0.657-9.84-5.604-9.833-11.052s4.42-9.333 9.858-8.677c5.437 0.656 9.839 5.604 9.832 11.052z"/>
   <path d="m151.31 264.29c0.252-0.186 0.578-0.276 0.936-0.232 0.794 0.096 1.438 0.821 1.438 1.616 0 0.796-0.644 1.363-1.438 1.267-0.219-0.028-0.427-0.102-0.613-0.211"/>
   <path d="m163.22 266.86c0 0.796-0.644 1.363-1.439 1.267-0.793-0.098-1.438-0.821-1.438-1.618 0-0.795 0.645-1.362 1.438-1.265 0.795 0.096 1.439 0.82 1.439 1.616z"/>
   <path d="m165.38 272.21v-3.767l2.72-2.349 1.327 0.161s-0.388 2.425-1.327 3.871v-4.032"/>
   <path d="m165.38 265.74v-3.697l2.713-2.527s1.334 2.102 1.334 3.945l-2.744 2.503z"/>
   <path d="m165.38 265.74 2.713-2.431 1.334 0.152"/>
   <path d="m168.09 263.31v-3.793"/>
   <path d="m166.68 265.96s0.135 0.511 0.135 1.239"/>
   <path d="m165.38 262.04s-1.682-3.285-5.368-4.879"/>
   <path d="m151.76 257.26s1.205-0.708 3.406-0.964"/>
   <path d="m151.31 258.1v3.184l-0.824 0.817"/>
   <path d="m150.52 261.2 0.796 0.081"/>
   <path d="m150.7 264.02 0.616 0.079v1.915"/>
   <path d="m155.21 256.38s0.618-0.244 1.499-0.183c0.882 0.061 1.21 0.162 1.21 0.162l0.723 0.417s0.34-0.355 0.34-1.363l-0.936-0.132s-0.197-0.025-0.197-0.507l0.156-0.146s9e-3 0.273 0.117 0.201c0.107-0.072 0.668-0.454 0.668-0.454s9e-3 -0.026 0.25-0.013c0.241 0.014 1.06 0.131 1.06 0.131s0.211 0.122 0.211 0.659c0 0.536-0.028 0.755-0.135 1.298-0.108 0.544-0.343 0.928-0.606 1.191-0.069 0.069-0.205-8e-3 -0.205-8e-3s-0.175 0.134-0.436 0.114c-0.26-0.02-0.511-0.19-0.511-0.19l-0.595 0.201s-0.091 0.032-0.091 0.179v0.924s-0.023 0.107-0.122 0.094c-0.098-0.013-1.106-0.134-1.106-0.134s-0.2-0.084-0.2-0.246v-1l-1.13-0.653v-0.56s0.038-0.103 0.145-0.124c0.106-0.021 0.884-0.241 1.035-0.278 0.152-0.038 0.317-0.127 0.393-0.202 0.076-0.078 2.512-2.252 2.512-2.252s0.43-0.053 0.974 0.053c0.544 0.107 0.453 0.107 0.453 0.107l-0.778 0.801"/>
   <path d="m155.17 256.85s1.03-0.494 1.535-0.202 1.529 0.836 1.529 0.836 0.198 0.098 0.319-0.111c0.12-0.21 0.587-0.644 0.587-2.27 0-0.253-0.03-0.697-0.278-0.739"/>
   <path d="m158.04 255.28s0.04-3e-3 0.131-0.057c0.093-0.051 0.557-0.393 0.611-0.424 0.055-0.032 0.195-0.076 0.195 0.613"/>
   <path d="m158.64 256.78s-0.163 0.387-0.315 0.299c-0.153-0.088-1.6-0.876-1.6-0.876"/>
   <path d="m159.36 257.64s0.514-0.456 0.622-1.131c0.107-0.676 0.135-0.808 0.117-1-0.016-0.193-0.154-0.466-0.36-0.466s-0.422 0.135-0.422 0.445c0 0.312-0.132 1.409-0.699 2.023"/>
   <path d="m157.81 272.37s0.548-1.506 0.884-1.506c0.087 0 0.152 0.032 0.218-6e-3 0.066-0.037 0.164-0.082 0.37-0.072 0.206 0.011 0.299 0.044 0.519 0.223 0 0 0.259-0.061 0.38 0.326 0.122 0.386 0.207 0.973 0.054 1.652"/>
   <path d="m157.98 272.44s0.413-1.245 0.72-1.139c0.306 0.106 0.342 0.854 0.241 1.44"/>
   <path d="m158.81 270.88s0.505 0.43 0.29 1.899"/>
   <path d="m158.91 270.86s0.178 0.063 0.276 0.327c0.1 0.264 0.112 0.488 0.137 0.658 0.026 0.17 0.203 0.499 0.428 0.486 0.225-0.012 0.382-0.197 0.359-0.438-0.022-0.24-0.071-0.572-0.31-0.882"/>
  </g>
  <g fill="#7b7979">
   <path d="m173.68 305.5c-0.021-0.023-0.033-0.053-0.033-0.082s0.012-0.056 0.034-0.074l0.543-0.474c0.022-0.019 0.049-0.026 0.077-0.023 0.028 4e-3 0.055 0.018 0.077 0.042 0.308 0.349 0.719 0.571 1.154 0.625 0.399 0.049 0.776-0.049 1.074-0.276-0.097-0.109-0.288-0.32-0.377-0.42-0.202 0.143-0.451 0.197-0.7 0.167-0.282-0.035-0.565-0.178-0.78-0.422-0.041-0.046-0.043-0.113-3e-3 -0.152l0.493-0.484c-9e-3 -0.027-0.014-0.055-0.014-0.083 0-0.09 0.016-0.167 0.076-0.23 0.053-0.057 0.13-0.089 0.213-0.087 0.161 5e-3 0.349 0.158 0.349 0.334 0 0.09-0.016 0.167-0.074 0.23-0.055 0.057-0.132 0.089-0.215 0.087-0.063-2e-3 -0.131-0.027-0.189-0.068-0.076 0.073-0.314 0.307-0.405 0.396 0.16 0.147 0.355 0.235 0.549 0.259 0.227 0.028 0.453-0.031 0.627-0.184 0.021-0.019 0.049-0.026 0.076-0.023 0.028 3e-3 0.055 0.017 0.076 0.041l0.532 0.591c0.02 0.023 0.033 0.053 0.033 0.082 0 0.03-0.012 0.057-0.033 0.075-0.35 0.31-0.814 0.447-1.308 0.386-0.458-0.056-0.891-0.276-1.229-0.623-0.092 0.08-0.292 0.254-0.39 0.339 0.442 0.464 1.013 0.758 1.616 0.832 0.641 0.079 1.242-0.099 1.695-0.501 0.022-0.019 0.05-0.027 0.078-0.023 0.028 3e-3 0.055 0.017 0.077 0.042 0.043 0.048 0.043 0.118 0 0.155-0.494 0.439-1.152 0.632-1.85 0.547-0.698-0.086-1.355-0.441-1.849-1.001"/>
   <path d="m154.75 287.89c-0.026-0.03-0.04-0.067-0.04-0.105s0.015-0.071 0.041-0.094l0.697-0.608c0.027-0.023 0.062-0.032 0.098-0.028 0.035 4e-3 0.071 0.022 0.098 0.053 0.395 0.447 0.92 0.732 1.478 0.8 0.51 0.063 0.993-0.063 1.375-0.353-0.125-0.139-0.368-0.41-0.483-0.538-0.26 0.184-0.578 0.253-0.896 0.214-0.362-0.045-0.724-0.228-0.999-0.54-0.053-0.059-0.054-0.145-4e-3 -0.195l0.632-0.62c-0.011-0.034-0.018-0.07-0.018-0.106 0-0.115 0.02-0.213 0.096-0.294 0.069-0.074 0.168-0.114 0.273-0.111 0.207 6e-3 0.446 0.202 0.446 0.427 0 0.115-0.018 0.214-0.094 0.295-0.07 0.073-0.168 0.113-0.274 0.11-0.082-2e-3 -0.169-0.034-0.244-0.086-0.095 0.094-0.4 0.393-0.516 0.506 0.205 0.189 0.453 0.302 0.702 0.333 0.291 0.035 0.581-0.041 0.801-0.237 0.028-0.024 0.063-0.033 0.099-0.029 0.035 5e-3 0.07 0.022 0.098 0.053l0.68 0.757c0.026 0.03 0.041 0.067 0.041 0.105 0 0.037-0.014 0.072-0.041 0.095-0.448 0.397-1.042 0.573-1.674 0.495-0.586-0.071-1.14-0.354-1.574-0.798-0.118 0.102-0.374 0.326-0.5 0.435 0.568 0.593 1.297 0.97 2.07 1.064 0.819 0.101 1.591-0.127 2.171-0.642 0.027-0.024 0.062-0.033 0.098-0.028 0.035 4e-3 0.071 0.022 0.098 0.053 0.055 0.061 0.055 0.15 0 0.199-0.633 0.561-1.474 0.809-2.367 0.7-0.894-0.11-1.735-0.565-2.368-1.282"/>
   <path d="m171.15 286.83c-0.026-0.03-0.041-0.068-0.041-0.105 0-0.038 0.016-0.072 0.042-0.095l0.696-0.607c0.028-0.024 0.063-0.032 0.098-0.029 0.036 5e-3 0.071 0.023 0.099 0.054 0.395 0.447 0.92 0.731 1.477 0.8 0.511 0.063 0.993-0.063 1.375-0.353-0.125-0.14-0.368-0.41-0.482-0.538-0.26 0.184-0.578 0.252-0.897 0.213-0.361-0.044-0.722-0.227-0.998-0.539-0.052-0.06-0.054-0.146-5e-3 -0.195l0.633-0.62c-0.011-0.034-0.017-0.07-0.017-0.106 0-0.115 0.018-0.213 0.094-0.295 0.07-0.073 0.168-0.113 0.275-0.11 0.206 5e-3 0.445 0.202 0.445 0.427 0 0.115-0.018 0.214-0.095 0.295-0.069 0.073-0.168 0.113-0.273 0.11-0.082-2e-3 -0.169-0.034-0.244-0.086-0.095 0.094-0.401 0.392-0.517 0.506 0.205 0.189 0.454 0.302 0.702 0.333 0.291 0.035 0.581-0.041 0.802-0.237 0.027-0.024 0.064-0.033 0.099-0.029s0.07 0.022 0.097 0.053l0.68 0.757c0.026 0.029 0.041 0.067 0.042 0.105 0 0.037-0.015 0.071-0.041 0.095-0.447 0.397-1.042 0.573-1.675 0.495-0.586-0.072-1.139-0.354-1.573-0.799-0.118 0.103-0.374 0.326-0.5 0.435 0.567 0.594 1.297 0.97 2.069 1.065 0.82 0.101 1.591-0.127 2.171-0.642 0.028-0.024 0.064-0.033 0.099-0.029 0.035 5e-3 0.071 0.023 0.099 0.053 0.053 0.062 0.053 0.151 0 0.199-0.634 0.562-1.475 0.81-2.369 0.7-0.893-0.11-1.734-0.565-2.367-1.281"/>
  </g>
  <g fill="none" stroke="#231f20" stroke-linecap="round" stroke-linejoin="round">
   <g stroke-miterlimit="10">
    <path d="m139.91 244.97s-1.309 0.792-1.309 2.266v58.228c0 1.393 1.163 3.328 3.063 3.569 1.899 0.242 35.541 4.271 37.066 4.45 1.525 0.178 2.42-0.895 2.42-0.895" stroke-width=".25"/>
    <g stroke-width=".14">
     <path d="m138.23 293.32 0.364-0.314 43.26 5.188"/>
     <path d="m138.23 249.36 0.364-0.314 43.26 5.187"/>
     <path d="m135.27 311.42 3.707-3.408"/>
    </g>
   </g>
  </g>
  <path d="m190.01 289.1c-7.391 3.871-11.067 9.524-11.346 9.907-3.519 4.847-1.687 9.273-0.46 10.344 0.642 0.541 2.261 0.366 3.209-0.314 1.235-0.907 1.184-2.583 1.626-2.856 1.049-1.526 1.636-2.11 3.965-3.454 0.438-0.619 0.843-1.112 1.23-1.513l0.162 0.015c1.952-2.788 8.097-2.384 10.564-6.173" fill="#fff"/>
  <path d="m198.57 294.71-0.68 0.597c-0.228 0.194-0.452 0.411-0.683 0.584-0.464 0.354-0.912 0.729-1.408 1.042-0.243 0.162-0.483 0.334-0.74 0.469-0.254 0.137-0.499 0.302-0.762 0.418-0.265 0.117-0.518 0.26-0.79 0.357-0.271 0.102-0.535 0.214-0.818 0.295-0.548 0.185-1.133 0.32-1.729 0.502-0.302 0.091-0.604 0.192-0.904 0.326-0.304 0.113-0.586 0.296-0.872 0.453-0.258 0.197-0.552 0.362-0.778 0.59-0.236 0.218-0.487 0.425-0.687 0.667-0.206 0.238-0.439 0.461-0.617 0.715l-0.567 0.741 0.157-0.142-1.155 0.709c-0.391 0.215-0.752 0.536-1.126 0.809-0.388 0.259-0.676 0.659-1.016 0.985-0.158 0.174-0.278 0.366-0.42 0.548l-0.408 0.554 0.151-0.142c-0.129 0.105-0.303 0.289-0.343 0.392-0.048 0.104-0.102 0.217-0.14 0.316l-0.174 0.525c-0.105 0.335-0.223 0.629-0.373 0.9-0.15 0.269-0.338 0.494-0.56 0.677-0.012 0.014-0.086 0.075-0.045 0.05l-0.115 0.069-0.231 0.139-0.396 0.162c-0.578 0.195-1.289 0.248-1.736 0.065-0.041-0.028-0.082-0.053-0.128-0.074 0.014 0.015-0.052-0.043 0.026 0.031l-0.024-0.025-0.045-0.049-0.091-0.099-0.182-0.197-0.115-0.185c-0.167-0.22-0.301-0.544-0.448-0.833-0.232-0.62-0.424-1.268-0.479-1.939-0.037-0.334-0.071-0.669-0.043-1.006 7e-3 -0.337 0.012-0.674 0.085-1.006 0.076-0.673 0.296-1.32 0.517-1.961l0.426-0.93c0.139-0.312 0.354-0.587 0.526-0.883 0.33-0.604 0.822-1.104 1.243-1.65 0.464-0.514 0.984-0.981 1.478-1.47l1.65-1.298 1.77-1.147c0.602-0.363 1.24-0.674 1.857-1.014l0.467-0.25 0.283-0.156 0.225-0.144 0.454-0.293 0.465-0.433c1.154-1.166 1.494-2.726 2.28-3.661l0.018-0.022c0.178-0.211 0.151-0.526-0.06-0.704-0.212-0.178-0.527-0.151-0.704 0.061-0.544 0.645-0.824 1.336-1.15 1.961-0.302 0.633-0.66 1.212-1.081 1.651l-0.31 0.309-0.45 0.29-0.226 0.145-0.189 0.102-0.48 0.257c-0.637 0.35-1.289 0.67-1.912 1.045l-1.836 1.19-1.728 1.36c-0.524 0.515-1.073 1.009-1.567 1.558-0.455 0.585-0.975 1.118-1.339 1.776-0.188 0.321-0.416 0.62-0.571 0.962l-0.468 1.023c-0.248 0.708-0.488 1.428-0.576 2.182-0.079 0.372-0.087 0.751-0.095 1.13-0.03 0.38 7e-3 0.758 0.048 1.137 0.064 0.758 0.278 1.498 0.551 2.216 0.176 0.349 0.311 0.695 0.576 1.052l0.181 0.262 0.273 0.297 0.046 0.049 0.022 0.025c0.095 0.088 0.05 0.04 0.081 0.066 0.109 0.071 0.221 0.139 0.334 0.201 0.898 0.343 1.702 0.203 2.472-0.027 0.195-0.071 0.411-0.166 0.593-0.255l0.345-0.207c0.113-0.077 0.1-0.083 0.156-0.128 0.334-0.272 0.603-0.606 0.803-0.963 0.198-0.356 0.341-0.731 0.452-1.079l0.163-0.495 0.076-0.176c0.03-0.063 0.012 0.012-9e-3 -0.023l0.151-0.143 0.38-0.516c0.13-0.168 0.246-0.355 0.387-0.507 0.303-0.282 0.534-0.627 0.89-0.861 0.343-0.246 0.644-0.526 1.033-0.74l1.11-0.682 0.09-0.055 0.068-0.087 0.532-0.697c0.17-0.242 0.378-0.437 0.565-0.656 0.185-0.225 0.403-0.4 0.611-0.592 0.199-0.205 0.443-0.332 0.662-0.504 0.242-0.13 0.468-0.285 0.732-0.38 0.251-0.113 0.522-0.204 0.798-0.288 0.558-0.171 1.151-0.307 1.747-0.507 0.299-0.086 0.591-0.208 0.885-0.32 0.297-0.106 0.573-0.259 0.86-0.388 0.288-0.128 0.548-0.302 0.824-0.451 0.278-0.147 0.53-0.328 0.788-0.5 0.526-0.332 1.007-0.732 1.501-1.112 0.251-0.189 0.46-0.395 0.693-0.592l0.68-0.597c0.208-0.182 0.23-0.498 0.048-0.706-0.18-0.208-0.497-0.229-0.705-0.048l-1e-3 1e-3" fill="#fff"/>
  <g fill="none" stroke="#1b181a" stroke-linecap="round" stroke-miterlimit="2.613">
   <path d="m198.9 295.09c-6.822 6.314-8.084 2.232-11.957 7.67-2.329 1.346-2.915 1.928-3.963 3.456-0.446 0.274-0.39 1.948-1.627 2.855-0.947 0.679-2.567 0.857-3.21 0.317-1.773-1.553-4.823-10.133 8.945-16.849 2.055-1.04 2.297-3.285 3.342-4.458" stroke-width=".5"/>
   <g stroke-width=".25">
    <path d="m182.86 306.25c0.413-2.232-1.152-3.796-2.018-3.846-1.253-0.074-4.343 5.242-0.154 6.918"/>
    <path d="m186.16 302.53c-0.06-1.518 0.213-1.278-1.25-2.394"/>
    <path d="m184.72 303.45c-0.664-1.361-1.752-1.279-1.22-3.188"/>
   </g>
  </g>
  <g transform="matrix(1.1214 0 0 1.1214 -20.845 -35.605)">
   <path id="LED" d="m171.77 292.18c2e-3 -0.485 0.426-0.631 0.784-0.428 0.26 0.144 0.477 0.464 0.477 0.797 0 0.488-0.427 0.631-0.782 0.431-0.263-0.146-0.479-0.464-0.479-0.8" fill="#fff"/>
   <path d="m171.77 292.18c2e-3 -0.485 0.426-0.631 0.784-0.428 0.26 0.144 0.477 0.464 0.477 0.797 0 0.488-0.427 0.631-0.782 0.431-0.263-0.146-0.479-0.464-0.479-0.8z" fill="none" stroke="#231f20" stroke-width=".25"/>
  </g>
 </g>
</svg>
