<?xml version="1.0" encoding="UTF-8" standalone="no"?>
<!-- Created with Inkscape (http://www.inkscape.org/) -->

<svg
   width="21.50482mm"
   height="23.452499mm"
   viewBox="0 0 21.50482 23.452499"
   version="1.1"
   id="svg25793"
   sodipodi:docname="CCT5010-0002.svg"
   inkscape:version="1.1.1 (3bf5ae0d25, 2021-09-20)"
   xmlns:inkscape="http://www.inkscape.org/namespaces/inkscape"
   xmlns:sodipodi="http://sodipodi.sourceforge.net/DTD/sodipodi-0.dtd"
   xmlns="http://www.w3.org/2000/svg"
   xmlns:svg="http://www.w3.org/2000/svg">
  <sodipodi:namedview
     id="namedview25795"
     pagecolor="#ffffff"
     bordercolor="#666666"
     borderopacity="1.0"
     inkscape:pageshadow="2"
     inkscape:pageopacity="0.0"
     inkscape:pagecheckerboard="0"
     inkscape:document-units="mm"
     showgrid="false"
     inkscape:zoom="4"
     inkscape:cx="2.125"
     inkscape:cy="64.125"
     inkscape:window-width="2560"
     inkscape:window-height="1369"
     inkscape:window-x="-8"
     inkscape:window-y="-8"
     inkscape:window-maximized="1"
     inkscape:current-layer="g34106"
     fit-margin-top="0"
     fit-margin-left="0"
     fit-margin-right="0"
     fit-margin-bottom="0" />
  <defs
     id="defs25790">
    <clipPath
       clipPathUnits="userSpaceOnUse"
       id="clipPath929">
      <path
         d="m 453.469,278.577 h 8.106 v 7.087 h -8.106 z"
         id="path927" />
    </clipPath>
    <clipPath
       clipPathUnits="userSpaceOnUse"
       id="clipPath949">
      <path
         d="m 463.799,278.577 h 8.106 v 7.087 h -8.106 z"
         id="path947" />
    </clipPath>
    <clipPath
       clipPathUnits="userSpaceOnUse"
       id="clipPath4923">
      <path
         d="m 44.178,70.47 h 314.709 v 71.859 H 44.178 Z"
         id="path4921" />
    </clipPath>
    <clipPath
       clipPathUnits="userSpaceOnUse"
       id="clipPath4985">
      <path
         d="M 44.178,68.835 H 358.887 V 142.33 H 44.178 Z"
         id="path4983" />
    </clipPath>
    <clipPath
       clipPathUnits="userSpaceOnUse"
       id="clipPath5301">
      <path
         d="M 44.561,186.947 H 401.61 V 467.586 H 44.561 Z"
         id="path5299" />
    </clipPath>
    <clipPath
       clipPathUnits="userSpaceOnUse"
       id="clipPath5501">
      <path
         d="M 44.561,186.947 H 401.609 V 467.585 H 44.561 Z"
         id="path5499" />
    </clipPath>
    <clipPath
       clipPathUnits="userSpaceOnUse"
       id="clipPath5513">
      <path
         d="M 44.561,186.947 H 401.61 V 467.586 H 44.561 Z"
         id="path5511" />
    </clipPath>
    <clipPath
       clipPathUnits="userSpaceOnUse"
       id="clipPath5553">
      <path
         d="M 44.561,186.947 H 401.609 V 467.585 H 44.561 Z"
         id="path5551" />
    </clipPath>
    <clipPath
       clipPathUnits="userSpaceOnUse"
       id="clipPath5565">
      <path
         d="M 44.561,186.947 H 401.61 V 467.586 H 44.561 Z"
         id="path5563" />
    </clipPath>
    <clipPath
       clipPathUnits="userSpaceOnUse"
       id="clipPath5593">
      <path
         d="M 44.561,186.947 H 401.609 V 467.585 H 44.561 Z"
         id="path5591" />
    </clipPath>
    <clipPath
       clipPathUnits="userSpaceOnUse"
       id="clipPath6733">
      <path
         d="M 44.561,186.947 H 401.61 V 467.586 H 44.561 Z"
         id="path6731" />
    </clipPath>
    <clipPath
       clipPathUnits="userSpaceOnUse"
       id="clipPath6837">
      <path
         d="M 44.561,186.947 H 401.609 V 467.585 H 44.561 Z"
         id="path6835" />
    </clipPath>
    <clipPath
       clipPathUnits="userSpaceOnUse"
       id="clipPath6853">
      <path
         d="M 44.561,186.947 H 401.61 V 467.586 H 44.561 Z"
         id="path6851" />
    </clipPath>
    <clipPath
       clipPathUnits="userSpaceOnUse"
       id="clipPath7147">
      <path
         d="M 44.561,186.947 H 401.61 V 467.586 H 44.561 Z"
         id="path7145" />
    </clipPath>
    <clipPath
       clipPathUnits="userSpaceOnUse"
       id="clipPath7319">
      <path
         d="m 39.505,154.93 h 14.08 v 16.525 h -14.08 z"
         id="path7317" />
    </clipPath>
    <clipPath
       clipPathUnits="userSpaceOnUse"
       id="clipPath7331">
      <path
         d="m 37.505,153.202 h 22.11 v 19.843 h -22.11 z"
         id="path7329" />
    </clipPath>
  </defs>
  <g
     inkscape:label="Lager 1"
     inkscape:groupmode="layer"
     id="layer1"
     transform="translate(-58.733421,-129.39049)">
    <g
       id="g30075"
       style="display:none"
       inkscape:label="Screwdriver">
      <path
         d="M 84.502837,141.18532 H 73.732532 v 0.37183 H 72.90174 l -2.627842,-0.31574 -2.631369,0.31186 v 0.47201 0.47096 l 2.631369,0.31186 2.627842,-0.31468 h 0.830792 v 0.37042 h 10.770305"
         style="display:inline;fill:#231f20;fill-opacity:1;fill-rule:nonzero;stroke:none;stroke-width:0.352778"
         id="path6989" />
      <path
         d="M 84.502837,140.91234 H 73.732532 c -0.07232,0 -0.142523,0.0289 -0.193323,0.0801 -0.0508,0.0508 -0.08008,0.121 -0.08008,0.19332 v 0.0981 h -0.540808 l -2.611967,-0.31361 h -0.06456 l -2.631723,0.31185 c -0.137583,0.0162 -0.240947,0.13229 -0.240947,0.27164 v 0.47166 0.47131 c 0,0.13794 0.103364,0.25471 0.240947,0.27094 l 2.631723,0.31185 h 0.06456 l 2.611614,-0.31326 h 0.541161 v 0.0981 c 0,0.0716 0.02928,0.14217 0.08008,0.19297 0.0508,0.0508 0.121003,0.0804 0.193323,0.0804 h 10.770305 c 0.150989,0 0.273403,-0.12241 0.273403,-0.2734 0,-0.15134 -0.122414,-0.2734 -0.273403,-0.2734 H 74.005582 v -0.0977 c 0,-0.072 -0.02893,-0.14147 -0.08008,-0.19297 -0.0508,-0.0505 -0.121355,-0.0804 -0.192969,-0.0804 H 72.90174 l -0.03246,0.002 -2.595386,0.3115 -2.358319,-0.2794 v -0.22825 -0.2293 l 2.358319,-0.27975 2.595034,0.31256 0.03281,0.002 h 0.830792 c 0.07161,0 0.142169,-0.0293 0.192969,-0.0801 0.05115,-0.0508 0.08008,-0.12136 0.08008,-0.19332 v -0.0984 h 10.497255 c 0.150989,0 0.273403,-0.12241 0.273403,-0.27305 0,-0.15134 -0.122414,-0.2734 -0.273403,-0.2734"
         style="display:inline;fill:#ffffff;fill-opacity:1;fill-rule:nonzero;stroke:none;stroke-width:0.352778"
         id="path6993" />
      <path
         d="M 84.655519,141.18532 H 73.787494 l -0.131939,0.37183 h -0.706261 l -2.65183,-0.31574 -2.655006,0.31186 v 0.47201 0.47096 l 2.655006,0.31186 2.65183,-0.31468 h 0.659342 l 0.178858,0.37042 h 10.868025"
         style="display:inline;fill:#ffffff;fill-opacity:1;fill-rule:nonzero;stroke:none;stroke-width:0.352778"
         id="path6997" />
      <path
         d="M 84.655519,141.07596 H 73.787494 c -0.04621,0 -0.08784,0.0293 -0.103011,0.0727 l -0.106186,0.29916 h -0.6223 l -2.645128,-0.31468 h -0.02575 l -2.655359,0.3115 c -0.05539,0.006 -0.09666,0.0536 -0.09666,0.10901 v 0.47202 0.4706 c 0,0.0557 0.04127,0.10196 0.09666,0.10866 l 2.655359,0.3115 h 0.0254 l 2.64548,-0.31362 h 0.583847 l 0.149225,0.30833 c 0.01799,0.0381 0.0568,0.0624 0.09842,0.0624 h 10.868025 c 0.06033,0 0.109361,-0.049 0.109361,-0.10936 0,-0.0607 -0.04904,-0.10936 -0.109361,-0.10936 H 73.855933 l -0.148872,-0.30868 c -0.01834,-0.0377 -0.0568,-0.0621 -0.09842,-0.0621 h -0.659342 l -0.01235,7.1e-4 -2.639483,0.31326 -2.545645,-0.29915 v -0.37324 -0.37536 l 2.545645,-0.29845 2.639483,0.31433 0.01235,3.5e-4 h 0.706261 c 0.04621,0 0.08749,-0.0293 0.103011,-0.0727 l 0.106187,-0.29916 h 10.790766 c 0.06033,0 0.109361,-0.0487 0.109361,-0.10936 0,-0.0603 -0.04904,-0.10936 -0.109361,-0.10936"
         style="display:inline;fill:#231f20;fill-opacity:1;fill-rule:nonzero;stroke:none;stroke-width:0.352778"
         id="path7001" />
      <path
         d="m 73.873219,142.79642 -0.01411,0.0109 0.01446,-0.0106 -3.53e-4,-3.5e-4 -0.01411,0.0109 0.01446,-0.0106 c -0.0078,-0.0113 -0.165806,-0.23142 -0.166159,-0.77505 3.53e-4,-0.28469 0.04551,-0.48154 0.0889,-0.60466 0.02117,-0.061 0.04233,-0.10478 0.05715,-0.13194 l 0.01729,-0.0282 0.0032,-0.006 -0.01129,-0.007 0.01094,0.008 3.53e-4,-7.1e-4 -0.01129,-0.007 0.01094,0.008 c 0.03739,-0.0473 0.02858,-0.11606 -0.01905,-0.1524 -0.04762,-0.037 -0.116417,-0.0289 -0.153106,0.0187 -0.01376,0.0166 -0.212725,0.28716 -0.212372,0.90346 -7.06e-4,0.62548 0.198261,0.89288 0.212725,0.91017 0.03704,0.0473 0.106186,0.0554 0.153458,0.018 0.04727,-0.0374 0.05574,-0.10619 0.01799,-0.15346"
         style="display:inline;fill:#231f20;fill-opacity:1;fill-rule:nonzero;stroke:none;stroke-width:0.352778"
         id="path7005" />
    </g>
    <g
       id="g34106"
       style="display:inline"
       inkscape:label="Module">
      <path
         d="m 67.357484,139.93423 0.18415,0.0353 0.02117,-0.10654 -0.184856,-0.036 z m 0.185914,-1.15252 c -0.207433,0.0367 -0.330906,0.22718 -0.386997,0.38452 l -0.0018,0.005 -0.04374,0.2734 -0.0011,0.005 3.53e-4,0.005 c 0.0021,0.11042 0.02893,0.23424 0.0889,0.3369 0.05891,0.10231 0.160514,0.18556 0.298803,0.18485 l 0.06315,-0.005 -0.01764,-0.10759 -0.04551,0.004 c -0.09278,-7e-4 -0.155575,-0.0501 -0.204612,-0.13052 -0.04762,-0.0804 -0.07232,-0.1898 -0.07408,-0.28328 l -0.05468,7e-4 0.05433,0.009 0.04304,-0.26917 -0.05398,-0.008 0.05151,0.0176 c 0.04798,-0.13794 0.159455,-0.2921 0.301978,-0.31292 z m 0.01764,0.10759 0.04727,-0.004 c 0.09631,0.001 0.159103,0.0508 0.207081,0.133 0.04692,0.0829 0.0695,0.19614 0.0695,0.29598 l -7.06e-4,0.0328 c -0.0046,0.0977 -0.03634,0.2233 -0.0949,0.32279 -0.05927,0.10195 -0.140406,0.17533 -0.245886,0.19297 l 0.01764,0.10759 c 0.148166,-0.0247 0.254353,-0.12735 0.322791,-0.24553 0.06879,-0.11889 0.103364,-0.25682 0.109714,-0.37218 l 7.06e-4,-0.0384 c -3.53e-4,-0.11571 -0.02434,-0.24377 -0.08326,-0.34961 -0.05821,-0.10407 -0.161572,-0.18944 -0.302683,-0.18873 l -0.06491,0.006 z"
         style="fill:none;fill-opacity:1;fill-rule:nonzero;stroke:#000000;stroke-width:0.053;stroke-miterlimit:4;stroke-dasharray:none;stroke-opacity:1"
         id="path6753" />
      <path
         d="m 76.19866,150.31782 0.0088,0.054 c 0.322439,-0.0536 0.558095,-0.27763 0.714023,-0.5468 0.15628,-0.27023 0.236714,-0.58914 0.250119,-0.85196 0.0018,-0.0406 0.0028,-0.0804 0.0028,-0.11924 0,-0.26529 -0.05115,-0.50941 -0.200377,-0.75388 -0.142875,-0.23531 -0.376414,-0.41416 -0.666045,-0.41416 -0.03845,0 -0.07796,0.003 -0.11818,0.01 -0.322439,0.0526 -0.558448,0.27764 -0.714375,0.54646 -0.156634,0.26987 -0.237067,0.58878 -0.25012,0.85231 -0.0018,0.0402 -0.0032,0.079 -0.0032,0.11747 0,0.26564 0.05115,0.50977 0.201083,0.75459 0.142875,0.23531 0.376414,0.41487 0.666398,0.41487 0.03845,0 0.07796,-0.003 0.117827,-0.01 l -0.0088,-0.054 -0.0088,-0.0543 -0.100189,0.008 c -0.242006,0 -0.442736,-0.14887 -0.572911,-0.3623 -0.138642,-0.22755 -0.184503,-0.44486 -0.185209,-0.6978 l 0.0032,-0.11148 c 0.01129,-0.24659 0.08925,-0.55209 0.235303,-0.80362 0.146756,-0.25224 0.357717,-0.44803 0.637469,-0.49283 l 0.100542,-0.009 c 0.241653,0 0.442031,0.14816 0.572558,0.36124 0.137937,0.22754 0.18415,0.44485 0.184503,0.69744 l -0.0028,0.1136 c -0.01164,0.24624 -0.0889,0.55174 -0.23495,0.80292 -0.146403,0.25188 -0.358069,0.44732 -0.637469,0.49318 z"
         style="fill:none;fill-opacity:1;fill-rule:nonzero;stroke:#000000;stroke-width:0.153;stroke-miterlimit:4;stroke-dasharray:none;stroke-opacity:1"
         id="path6757" />
      <path
         d="m 78.169947,147.42501 -0.0088,-0.0536 c -0.322439,0.0529 -0.558448,0.27658 -0.714375,0.54645 -0.156281,0.27058 -0.237067,0.58843 -0.25012,0.85231 -0.0018,0.0395 -0.0032,0.0783 -0.0032,0.11607 0,0.2667 0.05115,0.51046 0.200731,0.75635 0.143227,0.23601 0.376766,0.41451 0.66675,0.41451 0.03845,0 0.07796,-0.003 0.117827,-0.009 0.322792,-0.0533 0.558448,-0.27763 0.714728,-0.5468 0.155928,-0.27094 0.236714,-0.58914 0.249767,-0.85302 l 0.0032,-0.11536 c 0,-0.26705 -0.05151,-0.51117 -0.201083,-0.75671 -0.143228,-0.236 -0.376767,-0.41451 -0.666398,-0.41451 -0.0388,0 -0.07796,0.003 -0.117827,0.01 l 0.0088,0.0536 0.0088,0.0543 0.100189,-0.008 c 0.241653,-3.5e-4 0.442384,0.14887 0.573264,0.36195 0.138289,0.22825 0.18415,0.44662 0.184856,0.69991 l -0.0032,0.11007 c -0.01164,0.24553 -0.0889,0.55139 -0.23495,0.80327 -0.146756,0.25295 -0.35807,0.44803 -0.637822,0.49389 l -0.100189,0.008 c -0.242006,0 -0.442736,-0.14852 -0.572911,-0.3623 -0.138289,-0.22789 -0.184503,-0.44556 -0.185209,-0.6992 l 0.0032,-0.11078 c 0.01164,-0.24553 0.08925,-0.55068 0.235303,-0.80257 0.146403,-0.25294 0.357717,-0.44802 0.637469,-0.49353 z"
         style="fill:none;fill-opacity:1;fill-rule:nonzero;stroke:#000000;stroke-width:0.153;stroke-miterlimit:4;stroke-dasharray:none;stroke-opacity:1"
         id="path6761" />
      <path
         d="m 67.633886,151.72639 0.0088,0.0543 c 0.322439,-0.0533 0.558095,-0.27799 0.71367,-0.54681 0.156633,-0.27058 0.237067,-0.58878 0.250119,-0.85266 l 0.0032,-0.11536 c 7.06e-4,-0.26741 -0.05045,-0.51153 -0.20073,-0.75777 -0.142875,-0.23495 -0.376767,-0.4138 -0.665692,-0.41416 -0.0388,0 -0.07832,0.004 -0.118533,0.0102 h 3.53e-4 c -0.322439,0.0529 -0.5588,0.27693 -0.714728,0.54646 -0.156281,0.26987 -0.236714,0.58843 -0.249767,0.8516 -0.0018,0.0399 -0.0032,0.0783 -0.0032,0.11712 0,0.26635 0.05115,0.50977 0.200731,0.75565 0.143227,0.23531 0.376414,0.41487 0.666397,0.41487 0.03845,0 0.07761,-0.003 0.11818,-0.009 l -0.0088,-0.0543 -0.0088,-0.0536 -0.100542,0.008 c -0.242358,0 -0.442736,-0.14923 -0.572558,-0.3623 -0.138289,-0.2279 -0.184856,-0.44556 -0.185209,-0.69886 l 0.0032,-0.11183 c 0.01129,-0.24518 0.08855,-0.55068 0.235303,-0.80221 0.146756,-0.25295 0.357364,-0.44733 0.637469,-0.49283 v -7.1e-4 l 0.100542,-0.008 c 0.2413,0 0.442031,0.14923 0.572558,0.3616 0.138642,0.22825 0.18415,0.44662 0.184503,0.70097 l -0.0028,0.11007 c -0.01164,0.24588 -0.08925,0.55139 -0.235656,0.80327 -0.146402,0.25189 -0.357363,0.44697 -0.636763,0.49354 z"
         style="fill:none;fill-opacity:1;fill-rule:nonzero;stroke:#000000;stroke-width:0.153;stroke-miterlimit:4;stroke-dasharray:none;stroke-opacity:1"
         id="path6765" />
      <path
         d="m 65.338149,135.25139 -7.06e-4,10.99114 h 0.05398 l -0.05398,-0.002 -0.0018,0.0434 c -3.53e-4,0.12594 0.03598,0.23636 0.110419,0.34219 l 0.04516,-0.031 -0.04621,0.0303 0.659341,1.01211 0.0018,0.002 c 0.07056,0.0995 0.07973,0.1778 0.08996,0.3235 l 0.05468,-0.004 h -0.05468 l -0.0085,3.76555 h 0.05468 l -0.05433,-0.002 -3.53e-4,0.0113 c -3.53e-4,0.0494 0.01587,0.0967 0.04692,0.13652 l 7.06e-4,0.002 0.403578,0.49707 0.04269,-0.0342 -0.05468,0.002 3.53e-4,0.01 c -7.06e-4,0.0455 -0.01058,0.0759 -0.03881,0.11465 l -0.0053,0.008 v 3.5e-4 l 0.04904,0.0247 -0.03704,-0.0399 -0.172508,0.15734 0.03704,0.0402 -0.03316,-0.0434 -0.09772,0.037 -0.03951,-0.004 -0.0099,0.0536 0.01834,-0.0512 c -0.04339,-0.0159 -0.07126,-0.0356 -0.100895,-0.0706 l -0.04198,0.0353 0.04233,-0.0346 -0.416983,-0.51435 -0.02399,-0.0353 -0.04516,0.0314 0.04833,-0.0257 c -0.03563,-0.066 -0.05539,-0.13158 -0.06421,-0.20602 l -0.05433,0.006 h 0.05468 l -0.0046,-3.68159 -0.05468,7e-4 0.05468,3.6e-4 v -0.01 c 3.53e-4,-0.1457 -0.0381,-0.27164 -0.120297,-0.39335 l -3.53e-4,-3.5e-4 -0.598311,-0.87665 h 3.52e-4 c -0.123472,-0.1838 -0.176388,-0.35631 -0.176741,-0.57609 v -0.0116 -3.5e-4 -11.01796 c 0.0011,-0.10442 0.02081,-0.19508 0.06385,-0.2921 l -0.02787,-0.0716 -0.07232,0.0275 c -0.04798,0.10795 -0.07267,0.21625 -0.07303,0.33584 v 11.01831 -3.5e-4 0.0123 c -3.53e-4,0.23777 0.06138,0.43921 0.195086,0.63747 l 7.05e-4,7.1e-4 0.598311,0.87665 h -7.05e-4 c 0.07197,0.10689 0.1016,0.20426 0.101953,0.33161 v 0.008 0.001 l 0.0046,3.68124 3.53e-4,0.007 c 0.0095,0.0868 0.03493,0.16687 0.0762,0.24412 l 0.0032,0.005 0.02505,0.037 0.0032,0.004 0.418394,0.51541 7.06e-4,0.001 c 0.03986,0.048 0.0889,0.0818 0.147814,0.10301 l 0.0088,0.002 0.05891,0.006 c 0.05927,7.1e-4 0.114653,-0.0208 0.163689,-0.0589 l 0.0039,-0.003 0.172509,-0.1577 0.01164,-0.0159 7.06e-4,-3.5e-4 -0.04904,-0.0247 0.04339,0.0335 c 0.04092,-0.054 0.06138,-0.11572 0.06103,-0.18098 l -3.53e-4,-0.0138 -0.01235,-0.0324 -0.40393,-0.49777 -0.04233,0.0349 0.0441,-0.0335 -0.02469,-0.0702 v -0.006 -0.003 l 0.0078,-3.76555 v -0.004 c -0.0088,-0.14464 -0.02223,-0.25824 -0.109714,-0.37995 l -0.04445,0.0317 0.04586,-0.03 -0.659341,-1.01283 -0.0014,-0.002 c -0.06385,-0.0921 -0.08996,-0.17357 -0.09066,-0.27975 l 0.0011,-0.0374 v -0.004 l 0.0014,-10.99114 -0.05468,-0.0547 z"
         style="fill:none;fill-opacity:1;fill-rule:nonzero;stroke:#000000;stroke-width:0.153;stroke-miterlimit:4;stroke-dasharray:none;stroke-opacity:1"
         id="path6769" />
      <path
         d="m 66.913196,132.52787 -0.233539,-0.1584 -0.03069,0.0448 0.03387,-0.042 c -0.05786,-0.048 -0.124178,-0.0734 -0.197203,-0.0808 l -0.006,0.0543 0.0088,-0.0533 c -0.637823,-0.10301 -1.276703,-0.20356 -1.914173,-0.30269 l -0.0046,-3.5e-4 -0.03845,-0.001 c -0.150283,0 -0.293511,0.0695 -0.386291,0.18944 l -0.0025,0.004 -1.284111,2.00202 -0.0021,0.004 c -0.02646,0.0501 -0.04375,0.11007 -0.04375,0.1711 -0.0032,0.0857 0.04304,0.18768 0.154517,0.21237 0.610305,0.14288 1.219905,0.28716 1.829505,0.43286 l 0.01305,-0.0533 -0.02364,0.0494 c 0.05292,0.0254 0.104069,0.0526 0.153458,0.0836 l 0.02822,-0.0473 -0.03175,0.0444 0.228952,0.16651 0.0014,10e-4 0.02646,0.0173 0.01552,0.006 c 0.05927,0.0166 0.118886,0.0272 0.178153,0.0342 l 0.0063,-0.0543 -0.02293,0.0494 0.0829,0.019 c 0.09878,-0.002 0.170392,-0.0684 0.213783,-0.13476 v -7e-4 l 1.325739,-2.06834 v -7.1e-4 c 0.04692,-0.0734 0.07161,-0.14781 0.07161,-0.22683 0,-0.0452 -0.0081,-0.0928 -0.02328,-0.14182 l -0.05221,0.0162 0.05397,-0.008 c -0.01058,-0.0759 -0.04163,-0.14253 -0.09419,-0.19932 l -0.07691,-0.004 -0.0039,0.0769 c 0.03916,0.0437 0.05786,0.084 0.06668,0.14217 l 0.0018,0.008 c 0.0127,0.0409 0.0187,0.0765 0.0187,0.10936 -3.53e-4,0.0554 -0.01623,0.10618 -0.05468,0.16827 l 0.04657,0.0293 -0.04586,-0.0296 -1.326444,2.0694 v -3.6e-4 c -0.03034,0.049 -0.08079,0.0868 -0.121356,0.085 l -0.03739,-0.009 -0.01658,-0.005 c -0.05539,-0.006 -0.108303,-0.0162 -0.161925,-0.0307 l -0.01446,0.0526 0.03034,-0.0452 -0.02469,-0.0159 -0.228248,-0.16546 -0.0032,-0.003 c -0.05327,-0.0321 -0.107244,-0.0614 -0.164041,-0.0882 l -0.01058,-0.004 c -0.6096,-0.14535 -1.219552,-0.29069 -1.830211,-0.43322 -0.05221,-0.0137 -0.06667,-0.0462 -0.06985,-0.10583 -3.52e-4,-0.0392 0.01235,-0.0857 0.03034,-0.11889 l -0.04763,-0.0258 0.04586,0.0296 1.283759,-2.00237 -0.04586,-0.0296 0.04304,0.0332 c 0.07197,-0.0921 0.183092,-0.14641 0.299861,-0.14641 l 0.03034,7.1e-4 0.0039,-0.0543 -0.0085,0.054 c 0.638175,0.0984 1.275997,0.19967 1.914172,0.30197 h 0.0028 c 0.05715,0.007 0.09666,0.0226 0.140758,0.0572 l 0.0035,0.003 0.233186,0.15839 0.0762,-0.0141 z"
         style="fill:none;fill-opacity:1;fill-rule:nonzero;stroke:#000000;stroke-width:0.153;stroke-miterlimit:4;stroke-dasharray:none;stroke-opacity:1"
         id="path6773" />
      <path
         d="m 77.634254,130.53747 c -0.05644,-0.0293 -0.123472,-0.0346 -0.184856,-0.0349 -0.04127,0 -0.07902,0.003 -0.10795,0.007 l -0.0011,3.6e-4 -10.585097,1.74025 0.0092,0.0536 -0.0081,-0.0536 c -0.07479,0.01 -0.132291,0.0219 -0.201436,0.0811 l -0.0078,0.0765 0.07655,0.008 c 0.06033,-0.0469 0.06773,-0.0441 0.148872,-0.0579 h 7.06e-4 l 10.584391,-1.74061 -0.0085,-0.0536 0.0071,0.054 0.09313,-0.006 c 0.05221,-3.6e-4 0.109714,0.009 0.132645,0.0222 l 0.07408,-0.0222 z"
         style="fill:none;fill-opacity:1;fill-rule:nonzero;stroke:#000000;stroke-width:0.153;stroke-miterlimit:4;stroke-dasharray:none;stroke-opacity:1"
         id="path6777" />
      <path
         d="m 68.086253,152.4928 0.120297,-0.0215 0.01976,-0.007 0.07867,-0.0494 0.01341,-0.0123 0.132291,-0.16581 0.0028,-0.004 0.01482,-0.0222 0.0025,-0.004 c 0.02646,-0.0487 0.0441,-0.10019 0.05221,-0.15734 l -0.05433,-0.007 0.05115,0.0194 0.02222,-0.0593 0.02963,-0.0437 0.03246,-0.0275 0.03669,-0.0134 6.572955,-1.08091 h 7.06e-4 l 0.01235,-0.001 c 0.03422,-0.002 0.06879,0.0353 0.08467,0.0882 l 0.05256,-0.0155 -0.05362,0.01 0.0025,0.0296 -0.02011,0.0688 0.04727,0.0275 -0.04445,-0.0321 -0.01482,0.0205 -0.131233,0.15911 -0.0762,0.0448 -0.02681,0.0473 v 3.6e-4 h 0.05468 l -3.53e-4,-0.0547 H 75.0582 l -1.660525,-0.20143 -0.06068,0.0476 0.04762,0.0614 1.6637,0.20179 h 0.0074 l 0.04586,-3.6e-4 0.05433,-0.0543 v -3.6e-4 h -0.05468 l 0.02752,0.0469 0.08467,-0.0501 0.01411,-0.012 0.138642,-0.16757 0.0025,-0.003 0.01587,-0.0222 0.0025,-0.004 c 0.02293,-0.0388 0.03563,-0.0801 0.03528,-0.12347 l -0.0046,-0.0487 -0.0014,-0.006 c -0.02152,-0.0751 -0.08114,-0.1644 -0.189442,-0.16687 l -0.03069,0.003 h 3.53e-4 l -6.578247,1.08126 -0.01023,0.003 -0.05045,0.0187 -0.01623,0.01 -0.04551,0.0385 -0.01023,0.0109 -0.03739,0.0554 -0.0064,0.0113 -0.02469,0.0656 -0.0028,0.0117 c -0.0064,0.0441 -0.01834,0.0811 -0.03986,0.12065 l 0.04833,0.0254 -0.04551,-0.0296 -0.01376,0.0198 -0.12453,0.15663 -0.06174,0.0388 -0.11042,0.0197 -0.0441,0.0635 z"
         style="fill:none;fill-opacity:1;fill-rule:nonzero;stroke:#000000;stroke-width:0.153;stroke-miterlimit:4;stroke-dasharray:none;stroke-opacity:1"
         id="path6781" />
      <path
         d="m 76.685422,151.07287 0.08184,-0.0497 0.01411,-0.0127 0.132997,-0.16545 0.0028,-0.004 0.01446,-0.0222 0.0025,-0.004 c 0.02681,-0.0497 0.0441,-0.10125 0.05186,-0.15769 l -0.05433,-0.007 0.05115,0.0194 0.02222,-0.0593 0.02999,-0.0437 0.0321,-0.0272 0.03669,-0.0137 0.183798,-0.0311 -0.0092,-0.0536 v 0.0547 h 7.06e-4 l 0.0085,-0.001 0.01129,-7e-4 c 0.03528,-0.002 0.0702,0.036 0.08573,0.0889 l 0.05256,-0.0155 -0.05362,0.0102 0.0032,0.0296 -0.02081,0.0684 0.04727,0.0268 -0.04445,-0.0303 -0.01411,0.0201 -0.131233,0.15698 -0.06491,0.0385 -0.02752,7e-4 -0.324908,-0.0395 -0.06103,0.0476 0.04833,0.061 0.328083,0.0395 0.0078,7e-4 0.04586,-0.001 0.02681,-0.007 0.08537,-0.0505 0.01446,-0.0116 0.138289,-0.16757 0.0032,-0.004 0.01517,-0.0215 0.0028,-0.004 c 0.02152,-0.0381 0.03493,-0.0797 0.03422,-0.12312 l -0.0046,-0.0497 -0.0014,-0.005 c -0.02152,-0.0758 -0.08149,-0.16545 -0.1905,-0.16756 l -0.02857,0.002 0.0088,0.0543 v -0.0547 h -7.06e-4 l -0.0092,3.5e-4 -0.188383,0.0321 -0.0099,0.002 -0.0508,0.0187 -0.01587,0.009 -0.04551,0.0392 -0.01023,0.0106 -0.03775,0.055 -0.006,0.0116 -0.02434,0.0653 -0.0032,0.012 c -0.006,0.0444 -0.01834,0.0825 -0.03951,0.12065 l 0.04833,0.0258 -0.04551,-0.0303 -0.01376,0.0208 -0.124531,0.15557 -0.07408,0.0455 -0.01834,0.0748 z"
         style="fill:none;fill-opacity:1;fill-rule:nonzero;stroke:#000000;stroke-width:0.153;stroke-miterlimit:4;stroke-dasharray:none;stroke-opacity:1"
         id="path6785" />
      <path
         d="m 78.888273,150.58861 c 0.127353,0.0145 0.410986,0.0469 0.411339,0.0469 h 0.01129 l 0.0702,-0.006 0.02752,-0.0109 0.06244,-0.0462 0.0092,-0.009 0.07479,-0.0896 0.08114,-0.0921 0.01023,-0.019 0.03069,-0.0917 7.06e-4,-0.0325 -0.01764,-0.0589 -0.0011,-0.002 c -0.02469,-0.0705 -0.08431,-0.14887 -0.184855,-0.15028 l -0.02928,0.002 h 3.53e-4 l -0.291042,0.0476 c -0.122061,0.0236 -0.179563,0.13511 -0.202494,0.21802 l -0.0014,0.007 c -0.0056,0.0427 -0.01799,0.0808 -0.03916,0.1203 l 0.04798,0.0257 -0.0448,-0.0317 -0.01411,0.0201 -0.124883,0.1591 -0.06844,0.0427 0.02893,0.0466 -0.01587,-0.0522 -0.0014,3.6e-4 -0.112183,0.0201 -0.04445,0.0635 0.06385,0.0441 0.115359,-0.0208 0.006,-0.001 0.0042,-0.001 0.01305,-0.006 0.07691,-0.048 0.01411,-0.0127 0.131233,-0.16651 0.0018,-0.002 0.01588,-0.0219 0.0032,-0.005 c 0.02716,-0.0497 0.0441,-0.10196 0.0515,-0.1584 l -0.05433,-0.007 0.05292,0.0145 c 0.01482,-0.0625 0.06421,-0.133 0.1143,-0.13759 l 0.291042,-0.048 h 3.53e-4 l 0.01094,-7e-4 c 0.03245,-0.002 0.06456,0.0296 0.0822,0.0773 l 0.05115,-0.0183 -0.05221,0.0159 0.0127,0.042 -0.02187,0.0653 -0.07338,0.084 -7.06e-4,0.001 -0.07161,0.0854 -0.04445,0.0335 -0.05503,0.005 0.0046,0.0543 0.0067,-0.0543 c 0,0 -0.284339,-0.0325 -0.411692,-0.0473 l -0.06033,0.0476 z"
         style="fill:none;fill-opacity:1;fill-rule:nonzero;stroke:#000000;stroke-width:0.153;stroke-miterlimit:4;stroke-dasharray:none;stroke-opacity:1"
         id="path6789" />
      <path
         d="m 67.147511,141.25704 0.02187,3.5e-4 c 0.0018,-0.10442 0.02928,-0.20955 0.08573,-0.29739 h 3.53e-4 l 0.09031,-0.0998 -0.01305,-0.0173 0.01094,0.0187 0.05468,-0.0318 0.05327,-0.0173 0.165453,-0.0275 0.106186,0.0145 0.09102,0.0709 0.01341,-0.0176 -0.01693,0.0138 c 0.02716,0.0349 0.04692,0.0737 0.06033,0.11676 l 0.02117,-0.007 -0.02152,0.005 0.01729,0.0734 0.006,0.0762 v 3.79342 c -0.0018,0.10407 -0.02928,0.20919 -0.08573,0.29704 l -0.09102,0.0998 0.01305,0.0173 -0.01129,-0.0187 -0.05397,0.0321 -0.05327,0.0173 -0.165806,0.0275 -0.106186,-0.0145 -0.09066,-0.0699 -0.01376,0.0166 0.01729,-0.0134 c -0.02716,-0.0342 -0.04727,-0.0744 -0.06103,-0.11748 l -0.02046,0.007 0.02117,-0.005 -0.01693,-0.0734 -0.006,-0.0765 v -3.79307 h -0.02187 -0.02187 v 3.79412 0.001 l 0.006,0.079 7.06e-4,0.004 0.01729,0.0748 3.52e-4,0.002 c 0.01517,0.0473 0.0374,0.0921 0.06844,0.13158 l 0.0039,0.004 0.09595,0.0737 0.0099,0.005 0.115359,0.0155 h 0.0063 l 0.170744,-0.0282 0.0028,-3.5e-4 0.0575,-0.019 0.0042,-0.002 0.05609,-0.0332 0.0018,-10e-4 c 0.04163,-0.0307 0.07479,-0.0695 0.101953,-0.11148 0.06103,-0.0953 0.09102,-0.20814 0.09278,-0.32032 v -3.79448 -0.002 l -0.0063,-0.078 -3.53e-4,-0.003 -0.01764,-0.0759 -3.53e-4,-0.002 c -0.01517,-0.0462 -0.03704,-0.091 -0.06809,-0.13018 l -0.0035,-0.004 -0.09596,-0.0744 -0.01023,-0.004 -0.115711,-0.0159 h -0.0067 l -0.170039,0.0286 -0.0032,7.1e-4 -0.0568,0.018 -0.0042,0.002 -0.05715,0.0335 -0.0021,10e-4 c -0.04057,0.0307 -0.07408,0.0695 -0.100895,0.11113 -0.06174,0.0952 -0.09102,0.20884 -0.09278,0.32032 z"
         style="fill:none;fill-opacity:1;fill-rule:nonzero;stroke:#000000;stroke-width:0.053;stroke-miterlimit:4;stroke-dasharray:none;stroke-opacity:1"
         id="path6793" />
      <path
         d="m 67.548443,140.54447 -0.0088,-0.054 c -0.07867,0.0127 -0.149931,0.048 -0.210609,0.0938 l 3.53e-4,-3.5e-4 c -0.06985,0.0512 -0.125942,0.11677 -0.171097,0.18697 -0.05045,0.079 -0.08749,0.16546 -0.113242,0.2533 v 0.001 c -0.01235,0.0445 -0.02258,0.0907 -0.02893,0.13829 v -3.6e-4 c -0.0067,0.0448 -0.01023,0.091 -0.01023,0.13724 v 0.004 3.79412 0.002 c 0,0.09 0.0127,0.18097 0.04057,0.26846 0.02469,0.078 0.06103,0.15417 0.1143,0.22013 h 3.53e-4 c 0.04727,0.0582 0.108303,0.10831 0.180269,0.13865 l 0.0074,0.002 0.09102,0.0233 0.01552,0.002 0.0949,-0.003 0.0071,-3.5e-4 0.170392,-0.0275 h 7.06e-4 c 0.07796,-0.013 0.148872,-0.0476 0.210255,-0.0938 l -3.53e-4,3.5e-4 c 0.0695,-0.0519 0.125237,-0.11677 0.170392,-0.18662 0.05151,-0.0787 0.08819,-0.16545 0.113595,-0.254 0.01305,-0.0462 0.02222,-0.0924 0.02928,-0.13864 v -3.5e-4 c 0.006,-0.0466 0.0095,-0.0938 0.0095,-0.14041 v -3.79447 c 0,-0.091 -0.0127,-0.18345 -0.04022,-0.27023 -0.02469,-0.079 -0.06138,-0.15487 -0.115005,-0.22049 -0.04727,-0.0589 -0.10795,-0.10865 -0.180975,-0.13864 l -0.0071,-0.002 -0.09031,-0.024 -0.01517,-0.002 -0.09454,0.003 -0.0074,3.6e-4 -0.170744,0.0279 0.0088,0.054 0.0088,0.054 0.166864,-0.0272 0.08326,-0.003 0.0829,0.0222 0.01376,-0.0533 -0.02046,0.0508 c 0.05292,0.0219 0.09948,0.0589 0.137936,0.10619 0.04269,0.0526 0.07373,0.11642 0.09525,0.1838 0.02399,0.0765 0.03493,0.15769 0.03493,0.23848 v 3.79447 c 0,0.0409 -0.0032,0.084 -0.0088,0.12594 l 0.05433,0.007 -0.05433,-0.008 c -0.0064,0.0427 -0.01446,0.0836 -0.02611,0.12488 -0.02222,0.079 -0.05539,0.15593 -0.09948,0.22472 -0.04022,0.0614 -0.08784,0.11606 -0.144286,0.15734 -0.04939,0.0374 -0.105834,0.0642 -0.163337,0.0737 l 0.0095,0.0543 -0.0085,-0.0543 -0.16757,0.0265 -0.08361,0.003 -0.0829,-0.0215 -0.01411,0.0529 0.02152,-0.0501 c -0.05292,-0.0219 -0.100189,-0.0596 -0.138289,-0.10689 h 3.52e-4 c -0.04269,-0.0522 -0.07444,-0.11606 -0.09596,-0.18415 v 3.5e-4 c -0.02328,-0.0755 -0.03492,-0.15592 -0.03492,-0.23565 v -0.002 -3.79448 -0.004 c 0,-0.0406 0.0032,-0.0815 0.0092,-0.12171 v -3.6e-4 c 0.0056,-0.0416 0.01482,-0.0836 0.02575,-0.12523 l -0.05292,-0.0138 0.05256,0.0152 c 0.02328,-0.0801 0.05644,-0.15663 0.100189,-0.22507 v 3.5e-4 c 0.03986,-0.0621 0.08749,-0.11642 0.143933,-0.1584 l 3.53e-4,-3.5e-4 c 0.04939,-0.0374 0.105128,-0.0632 0.162983,-0.073 z"
         style="fill:none;fill-opacity:1;fill-rule:nonzero;stroke:#000000;stroke-width:0.053;stroke-miterlimit:4;stroke-dasharray:none;stroke-opacity:1"
         id="path6797" />
      <path
         d="m 67.280367,142.68181 0.0508,-0.0212 -0.04233,-0.10301 v -1.37266 l 0.01588,-0.0787 0.02752,-0.037 v -3.5e-4 l 0.312209,-0.0519 -0.0092,-0.054 -0.0018,0.0547 0.02187,0.0159 0.01235,0.0533 v 0.002 1.38359 3.5e-4 0.001 l 0.0016,0.0699 -0.05703,0.0335 h 3.53e-4 l -0.340078,0.0501 0.0078,0.0543 0.0508,-0.0212 -0.0508,0.0212 0.0078,0.054 0.340783,-0.0504 h 3.53e-4 c 0.05644,-0.009 0.0956,-0.0487 0.116417,-0.0878 0.02187,-0.0409 0.03104,-0.084 0.0314,-0.12348 v -0.002 l -0.05468,3.5e-4 h 0.05468 v -1.38324 -0.002 l -0.02716,-0.1076 c -0.0187,-0.0356 -0.05962,-0.0699 -0.112536,-0.0709 l -0.01094,0.001 -0.311856,0.0522 h 3.53e-4 c -0.06385,0.012 -0.09454,0.0628 -0.11183,0.10336 -0.01729,0.0437 -0.02328,0.0871 -0.02364,0.11994 v 1.3836 l 0.0039,0.0205 0.04621,0.11324 z"
         style="fill:none;fill-opacity:1;fill-rule:nonzero;stroke:#000000;stroke-width:0.053;stroke-miterlimit:4;stroke-dasharray:none;stroke-opacity:1"
         id="path6801"
         sodipodi:nodetypes="cccccccccccccccccccccccccccsccccccccccccccccc" />
      <path
         d="m 67.280155,145.1945 0.05045,-0.0205 -0.04198,-0.10372 v -1.37266 l 0.01587,-0.0794 0.02752,-0.0367 h 7.06e-4 l 0.311855,-0.0519 -0.0092,-0.054 -0.0025,0.0547 0.02258,0.0159 0.01235,0.0536 v 0.002 1.38324 3.5e-4 0.001 l -0.01764,0.0713 -0.03845,0.0328 0.0092,0.054 -0.0081,-0.054 -0.34043,0.0494 0.0078,0.0543 0.05045,-0.0205 -0.05045,0.0205 0.0078,0.054 0.340783,-0.0497 h 0.0014 c 0.05644,-0.01 0.09454,-0.0494 0.116063,-0.0885 0.02152,-0.0409 0.03069,-0.084 0.03069,-0.12348 v -0.002 h -0.05397 0.05397 v -1.38289 -0.002 l -0.02646,-0.10759 c -0.01905,-0.0353 -0.05997,-0.0698 -0.112889,-0.0713 l -0.01129,0.001 -0.312208,0.0519 h 7.05e-4 c -0.06385,0.012 -0.09454,0.0621 -0.111478,0.10337 -0.01729,0.0437 -0.02364,0.0875 -0.02364,0.12029 v 1.3836 l 0.0039,0.0205 0.04586,0.11324 0.05856,0.0335 z"
         style="fill:none;fill-opacity:1;fill-rule:nonzero;stroke:#000000;stroke-width:0.053;stroke-miterlimit:4;stroke-dasharray:none;stroke-opacity:1"
         id="path6805" />
      <path
         d="m 64.919084,132.75489 -1.067858,1.66546 0.01658,0.0755 0.07549,-0.0166 1.067858,-1.66547 -0.01623,-0.0755 z"
         style="fill:none;fill-opacity:1;fill-rule:nonzero;stroke:#000000;stroke-width:0.153;stroke-miterlimit:4;stroke-dasharray:none;stroke-opacity:1"
         id="path6809" />
      <path
         d="m 63.173787,134.12934 1.085144,-1.69192 0.126295,0.0293 0.01235,0.001 v -0.0547 l -0.02963,0.0462 0.560211,0.36618 0.08784,0.10795 0.02258,0.0653 -1.033639,1.61113 0.01658,0.0751 0.07514,-0.0162 1.048102,-1.63407 0.006,-0.0469 -0.03457,-0.0995 -0.0092,-0.0162 -0.09948,-0.12241 -0.01235,-0.0117 -0.56762,-0.37006 -0.02999,-0.01 v 0.0547 l 0.01235,-0.0529 -0.164041,-0.0378 -0.05821,0.0236 -1.105605,1.72438 0.01623,0.0755 z"
         style="fill:none;fill-opacity:1;fill-rule:nonzero;stroke:#000000;stroke-width:0.153;stroke-miterlimit:4;stroke-dasharray:none;stroke-opacity:1"
         id="path6813" />
      <path
         d="m 63.349787,134.14772 1.093611,-1.70462 -0.01588,-0.0758 -0.07585,0.0166 -1.093611,1.70498 0.01623,0.0755 z"
         style="fill:none;fill-opacity:1;fill-rule:nonzero;stroke:#000000;stroke-width:0.153;stroke-miterlimit:4;stroke-dasharray:none;stroke-opacity:1"
         id="path6817" />
      <path
         d="m 64.079614,134.60792 -0.03598,-0.0632 -0.0046,-0.007 -0.09948,-0.12277 -0.01552,-0.013 -0.593725,-0.33161 -0.02081,-0.006 -0.176036,-0.0183 -0.05362,0.0275 0.0056,0.0607 0.318911,0.39159 0.07691,0.008 0.0081,-0.0769 -0.235656,-0.28857 0.03316,0.004 0.574323,0.32067 0.08996,0.11042 0.03351,0.0586 0.07444,0.0208 z"
         style="fill:none;fill-opacity:1;fill-rule:nonzero;stroke:#000000;stroke-width:0.153;stroke-miterlimit:4;stroke-dasharray:none;stroke-opacity:1"
         id="path6821" />
      <path
         d="m 79.410278,150.62142 0.06985,-0.0286 0.0053,-0.002 0.0127,-0.007 0.01023,-0.007 0.07514,-0.0656 0.01058,-0.0116 0.01376,-0.0222 0.474486,-0.73696 0.0011,-0.001 c 0.04657,-0.0744 0.07161,-0.15311 0.07761,-0.24095 v -0.003 l 7.06e-4,-0.0684 v -0.001 -3.64349 -0.008 c 0,-0.0452 -0.0025,-0.0896 -0.0088,-0.13476 l -0.0021,-0.0159 c -0.01235,-0.0893 -0.03492,-0.17321 -0.07267,-0.25612 l -3.52e-4,-7e-4 -0.0078,-0.0173 -0.0018,-0.003 -0.05715,-0.10125 -0.006,-0.0106 -0.0011,-0.003 -0.589492,-0.92146 -0.04586,0.03 0.04727,-0.0272 c -0.06562,-0.11712 -0.09525,-0.23389 -0.102305,-0.37041 l -0.05468,0.003 0.05468,-0.001 -0.0014,-0.0522 v -10.97668 -3.6e-4 l -0.0025,-0.26035 -0.0011,-0.009 c -0.01094,-0.10054 -0.08184,-0.17215 -0.179211,-0.18979 l -0.01235,0.0529 0.01517,-0.0526 -0.0074,-0.002 -0.0025,-3.6e-4 c -0.173214,-0.0416 -0.348191,-0.0829 -0.521758,-0.12382 l -0.06632,0.0402 0.04092,0.066 c 0.173919,0.0416 0.348544,0.0819 0.521758,0.12348 l 0.0127,-0.0529 -0.01552,0.0519 0.0078,0.002 0.0025,7e-4 c 0.07232,0.0222 0.07973,0.0289 0.09666,0.1016 l 0.05397,-0.008 -0.05468,3.5e-4 0.0025,0.26035 v -3.5e-4 10.97809 0.001 l 0.0014,0.0515 v 0.002 c 0.0074,0.14887 0.04127,0.28575 0.116769,0.41875 l 0.0014,0.002 0.588081,0.91969 0.0053,0.01 0.05609,0.0995 0.0074,0.0155 0.04904,-0.0236 -0.04939,0.0229 c 0.0321,0.072 0.05256,0.14535 0.06385,0.22578 l 0.0021,0.0152 c 0.0053,0.0395 0.0074,0.0783 0.0074,0.11995 v 0.008 3.64313 l -7.06e-4,0.0688 0.05468,7e-4 -0.05468,-0.004 c -0.0049,0.0716 -0.02328,0.12877 -0.06138,0.19086 l 0.04621,0.0289 -0.04586,-0.03 -0.474486,0.7366 -0.01023,0.0159 -0.06456,0.0561 -0.0049,0.003 -0.06703,0.0272 -0.03034,0.0709 z"
         style="fill:none;fill-opacity:1;fill-rule:nonzero;stroke:#000000;stroke-width:0.153;stroke-miterlimit:4;stroke-dasharray:none;stroke-opacity:1"
         id="path6825" />
      <path
         d="m 77.211732,150.98715 0.09772,-0.0512 0.01693,-0.0145 0.131939,-0.16615 0.0014,-0.001 c 0.04233,-0.0572 0.06526,-0.11994 0.06914,-0.18979 l -0.05468,-0.003 0.05362,0.0109 c 0.01517,-0.079 0.08043,-0.18239 0.148519,-0.18768 h 7.06e-4 l 1.0033,-0.1651 h 3.53e-4 l 0.01658,-0.001 0.07056,0.0349 0.04445,0.091 0.05327,-0.0123 -0.05433,0.006 0.0018,0.0257 -0.03316,0.0945 0.04445,0.0318 -0.04269,-0.0342 -0.01411,0.018 0.04269,0.0342 -0.04198,-0.0349 -0.124178,0.14923 -0.0014,0.002 -0.05256,0.0296 h -0.01517 l -0.006,0.0536 0.0064,-0.0536 -1.095728,-0.13229 -0.06068,0.0473 0.04762,0.061 1.095727,0.13194 h 7.06e-4 l 0.02716,0.001 c 0.05574,0.002 0.108303,-0.0289 0.1397,-0.0727 l -0.04375,-0.0332 0.04198,0.0346 0.124178,-0.14852 3.52e-4,-7e-4 0.01446,-0.018 0.0018,-0.002 c 0.03457,-0.0476 0.05397,-0.1016 0.05362,-0.15875 l -0.0025,-0.0381 -0.0014,-0.006 c -0.01094,-0.0483 -0.03316,-0.0984 -0.06879,-0.139 -0.03563,-0.0399 -0.08855,-0.072 -0.1524,-0.0716 l -0.03528,0.003 h 3.53e-4 l -1.002594,0.16474 0.0088,0.0543 -0.0081,-0.0543 c -0.147461,0.0272 -0.216252,0.17075 -0.239536,0.27305 l -0.0014,0.008 c -0.0035,0.0522 -0.01658,0.0889 -0.04762,0.13194 l 0.04375,0.0321 -0.04233,-0.0339 -0.125236,0.15699 -0.08714,0.0459 -0.02293,0.0741 z"
         style="fill:none;fill-opacity:1;fill-rule:nonzero;stroke:#000000;stroke-width:0.153;stroke-miterlimit:4;stroke-dasharray:none;stroke-opacity:1"
         id="path6829" />
      <path
         d="m 75.109317,151.33664 0.131233,-0.0215 0.02011,-0.007 0.08079,-0.0497 0.01411,-0.0123 0.116769,-0.14781 -0.04269,-0.0339 0.04233,0.0342 0.01482,-0.0183 0.0014,-0.002 c 0.04304,-0.0568 0.06526,-0.11994 0.06914,-0.18979 l -0.05433,-0.004 0.05327,0.0113 c 0.01552,-0.079 0.08043,-0.18203 0.148873,-0.18768 l 0.0011,-3.5e-4 1.002594,-0.16439 h 7.06e-4 l 0.01729,-0.001 0.06985,0.0349 0.0441,0.0907 0.05327,-0.0123 -0.05433,0.007 0.0021,0.0268 -0.03281,0.0928 0.0441,0.0321 -0.04198,-0.0349 -0.138289,0.16616 -0.0014,0.002 -0.05151,0.0307 -0.01552,-10e-4 -1.096433,-0.13123 -0.06103,0.048 0.04798,0.061 1.096786,0.13088 0.02822,0.002 c 0.05574,0.002 0.107598,-0.03 0.138642,-0.0734 l -0.04374,-0.0332 0.04233,0.0349 0.137936,-0.16616 0.0021,-0.003 c 0.03493,-0.0473 0.05433,-0.10125 0.05398,-0.15734 l -0.0028,-0.0399 -7.06e-4,-0.005 c -0.01094,-0.049 -0.03351,-0.0988 -0.06914,-0.13935 -0.03528,-0.0406 -0.08855,-0.0723 -0.151695,-0.072 l -0.03634,0.003 0.0095,0.0536 -0.0088,-0.0536 -1.002595,0.16474 0.0088,0.054 -0.0085,-0.0543 c -0.146756,0.0275 -0.215547,0.1711 -0.239183,0.27305 l -0.0014,0.008 c -0.0035,0.0529 -0.01658,0.0892 -0.04762,0.13123 l 0.04375,0.0328 -0.04233,-0.0346 -0.01482,0.0183 -3.53e-4,7.1e-4 -0.110772,0.14005 -0.0635,0.0388 -0.12065,0.0198 -0.04516,0.0628 z"
         style="fill:none;fill-opacity:1;fill-rule:nonzero;stroke:#000000;stroke-width:0.153;stroke-miterlimit:4;stroke-dasharray:none;stroke-opacity:1"
         id="path6841" />
      <path
         d="m 66.929847,152.3616 1.096081,0.13264 h 7.05e-4 l 0.02752,0.001 c 0.05574,0.002 0.108303,-0.0282 0.138994,-0.0737 l -0.04374,-0.0325 0.04233,0.0349 0.123472,-0.14852 -3.52e-4,3.6e-4 0.01552,-0.0183 0.0021,-0.003 c 0.03457,-0.0469 0.05397,-0.10019 0.05362,-0.15699 l -0.0025,-0.0406 -0.0011,-0.005 c -0.01129,-0.048 -0.03351,-0.0974 -0.06915,-0.13829 -0.03528,-0.0402 -0.08784,-0.0727 -0.151694,-0.0727 l -0.03669,0.004 0.0099,0.054 -0.0088,-0.0543 -1.002947,0.1651 0.0088,0.0536 -0.0081,-0.0536 c -0.147109,0.0275 -0.215195,0.16968 -0.239536,0.27234 l -0.0014,0.008 c -0.0032,0.0522 -0.01623,0.0882 -0.04692,0.13158 l 0.04374,0.0317 -0.04304,-0.0335 -0.01446,0.0183 h -3.53e-4 l -0.112183,0.14041 -0.05997,0.0395 -0.197202,0.0314 -0.03069,0.005 -0.08678,0.002 -0.0247,-0.003 -0.0056,0.054 0.0067,-0.054 -3.833284,-0.47801 -2.80423,-0.55775 -0.0762,-0.024 -0.102659,-0.0565 -0.02646,0.048 0.03598,-0.0409 -0.0028,-0.003 -0.0039,-0.003 -0.149225,-0.10619 -0.0032,-0.002 -0.0025,-0.002 -0.02928,0.0466 0.0321,-0.0444 c -0.18027,-0.12736 -0.382059,-0.32138 -0.419806,-0.54504 l -0.05398,0.01 0.05468,-0.002 -0.0074,-0.1651 v -0.0575 -16.54704 h -0.05468 l 0.05468,0.003 c 0.0085,-0.0709 0.0042,-0.0684 0.05468,-0.10231 l 0.0187,-0.0176 1.611489,-2.47614 0.0085,-0.0317 -3.52e-4,-0.005 c 0.0011,-0.0547 0.02787,-0.0988 0.07796,-0.1203 l -0.02117,-0.0508 0.01623,0.0526 0.01623,-0.005 0.01799,-0.005 0.02328,-0.004 10.854267,-1.78541 h 0.05115 v -0.0547 l -0.0063,0.0547 c 0.29598,0.0324 0.626533,0.067 0.920044,0.10371 l 0.0071,7.1e-4 h 0.0032 v -0.0543 l -0.0081,0.0533 1.927225,0.28752 0.02328,0.004 2.869847,0.58879 h -3.53e-4 l 0.05362,0.0109 0.08608,0.0229 0.01376,-0.0529 -0.02046,0.0504 c 0.05644,0.0268 0.0635,0.036 0.07549,0.0977 l 0.05433,-0.007 -0.05468,0.002 0.0014,0.0466 -0.0028,0.10583 c -0.0011,0.0734 0.0014,0.13759 -0.01587,0.19227 v 7e-4 l -0.01341,0.0956 c 3.52e-4,0.0434 0.0071,0.0907 0.03951,0.13158 l 1.410758,1.73602 0.0028,0.004 c 0.03634,0.0388 0.0822,0.0593 0.125236,0.0589 0.04798,-3.5e-4 0.08643,-0.0219 0.113595,-0.0444 l 0.05609,-0.078 -0.03634,-0.0677 -0.06809,0.0363 -3.52e-4,7.1e-4 -0.06491,0.0441 -0.04586,-0.0254 -0.03986,0.0378 0.04233,-0.0342 -1.410759,-1.73602 -0.01482,-0.0631 0.0088,-0.0642 c 0.02399,-0.0797 0.0187,-0.15452 0.02046,-0.22119 l 0.0021,-0.10901 -0.0011,-0.0522 -7.06e-4,-0.005 c -0.0078,-0.0854 -0.06103,-0.15451 -0.142875,-0.18379 l -0.006,-0.002 -0.08714,-0.0229 -0.0032,-7.1e-4 -0.05503,-0.0116 -2.869494,-0.58879 -0.02505,-0.005 -0.0032,-3.5e-4 -1.928636,-0.28646 -0.0078,-3.5e-4 H 72.569 v 0.0547 l 0.0067,-0.0543 c -0.295627,-0.0377 -0.62618,-0.0723 -0.921455,-0.10442 l -0.006,-7e-4 h -0.05574 l -0.0085,10e-4 -10.858852,1.78576 H 60.7248 l -0.0254,0.005 -0.0049,0.001 -0.02117,0.005 -0.0032,7.1e-4 -0.01764,0.005 -0.0046,0.002 c -0.09102,0.0381 -0.145344,0.12665 -0.144639,0.2212 v 0.009 l 0.05468,-0.002 -0.04586,-0.0296 -1.611136,2.47614 0.04586,0.03 -0.02716,-0.0476 c -0.07796,0.0392 -0.109714,0.11465 -0.109361,0.19191 l -3.53e-4,0.002 v 16.54704 0.0589 l 3.53e-4,0.002 0.0078,0.16581 3.53e-4,0.007 c 0.04939,0.27517 0.275519,0.48049 0.463903,0.6156 l 0.0032,0.002 0.0014,7.1e-4 0.144991,0.10442 0.0018,7.1e-4 0.0092,0.006 0.106892,0.0593 0.0099,0.004 0.08502,0.0265 0.0056,0.001 2.808464,0.55915 0.0039,0.001 3.835047,0.47766 0.0011,3.6e-4 0.02787,0.003 0.0071,7e-4 0.09454,-0.003 0.0078,-3.5e-4 0.03422,-0.006 h -3.53e-4 l 0.209197,-0.0332 0.02081,-0.008 0.07726,-0.0497 0.01305,-0.012 0.117475,-0.14781 h -3.53e-4 l 0.01482,-0.0183 0.0011,-0.001 c 0.04269,-0.0564 0.06597,-0.11924 0.06915,-0.19015 l -0.05468,-0.002 0.05362,0.0113 c 0.01587,-0.0804 0.08043,-0.18238 0.148873,-0.18803 h 0.0011 l 1.002947,-0.16474 h 0.0011 l 0.01658,-0.002 0.0695,0.0356 0.0448,0.0907 0.05327,-0.0123 -0.05433,0.007 0.0018,0.0265 -0.03281,0.0921 0.0441,0.0321 -0.04128,-0.0353 -0.01552,0.018 -3.53e-4,3.6e-4 -0.123472,0.14922 -0.0018,0.002 -0.0515,0.0296 -0.01517,-7e-4 h 3.53e-4 l -1.09608,-0.1323 -0.06103,0.048 z"
         style="fill:none;fill-opacity:1;fill-rule:nonzero;stroke:#000000;stroke-width:0.153;stroke-miterlimit:4;stroke-dasharray:none;stroke-opacity:1"
         id="path6845" />
      <path
         d="m 74.535983,129.86296 -0.104422,-0.0102 -0.0889,0.007 -10.64895,1.75083 c -0.231069,0.0388 -0.406047,0.2092 -0.517525,0.38135 v 3.6e-4 l -1.298222,2.02424 -3.53e-4,7e-4 c -0.142522,0.22895 -0.207786,0.45896 -0.207786,0.72743 v 0.005 16.47332 h 0.05468 l -0.05433,-0.003 -7.06e-4,0.031 c -0.0011,0.11994 0.03634,0.22507 0.111478,0.3235 l 0.0011,0.001 0.478014,0.58844 0.04233,-0.0346 -0.04445,0.0317 c 0.04833,0.0681 0.12312,0.11219 0.204259,0.12277 l 0.06138,-0.0462 -0.04692,-0.0617 c -0.05186,-0.007 -0.09948,-0.0353 -0.12947,-0.0783 l -0.0025,-0.003 -0.478014,-0.58738 -0.04233,0.0346 0.04374,-0.0328 c -0.0635,-0.0854 -0.0889,-0.1584 -0.08925,-0.25788 l 3.53e-4,-0.0261 v -0.002 -16.47367 -0.004 c 3.53e-4,-0.25153 0.05891,-0.45508 0.191206,-0.66957 l -0.04621,-0.0286 0.04586,0.0289 1.297869,-2.02459 v 7e-4 c 0.101247,-0.15769 0.258234,-0.30268 0.443442,-0.33302 l 10.649302,-1.75048 0.07091,-0.006 0.08361,0.008 0.06421,-0.043 z"
         style="fill:none;fill-opacity:1;fill-rule:nonzero;stroke:#000000;stroke-width:0.153;stroke-miterlimit:4;stroke-dasharray:none;stroke-opacity:1"
         id="path6857" />
      <path
         d="m 64.690978,135.08865 -5.735108,-1.02411 -0.02505,0.018 0.01729,0.0251 5.735108,1.02446 0.0254,-0.018 z"
         style="fill:none;fill-opacity:1;fill-rule:nonzero;stroke:#000000;stroke-width:0.153;stroke-miterlimit:4;stroke-dasharray:none;stroke-opacity:1"
         id="path6861" />
      <path
         d="m 66.626776,132.28901 -3.123494,-0.57009 h -0.0011 l -2.803877,-0.3556 -0.0247,0.0194 0.01905,0.024 2.803525,0.35596 3.122789,0.56903 0.0254,-0.0173 z"
         style="fill:none;fill-opacity:1;fill-rule:nonzero;stroke:#000000;stroke-width:0.153;stroke-miterlimit:4;stroke-dasharray:none;stroke-opacity:1"
         id="path6865" />
      <path
         d="m 66.325821,147.82005 13.710355,-2.25354 0.01799,-0.0261 -0.02505,-0.018 -13.710356,2.25425 -0.01764,0.0254 z"
         style="fill:none;fill-opacity:1;fill-rule:nonzero;stroke:#000000;stroke-width:0.153;stroke-miterlimit:4;stroke-dasharray:none;stroke-opacity:1"
         id="path6869" />
      <path
         d="m 58.972556,150.89878 2.782005,0.54822 h 0.0014 l 3.84175,0.51823 0.02434,-0.0187 -0.0187,-0.0247 -3.840692,-0.51859 -2.781652,-0.54751 -0.0254,0.0173 z"
         style="fill:none;fill-opacity:1;fill-rule:nonzero;stroke:#000000;stroke-width:0.153;stroke-miterlimit:4;stroke-dasharray:none;stroke-opacity:1"
         id="path6873" />
      <path
         d="m 65.491925,146.41321 13.738577,-2.25989 0.01834,-0.0247 -0.02505,-0.0176 -13.738931,2.25919 -0.01799,0.025 z"
         style="fill:none;fill-opacity:1;fill-rule:nonzero;stroke:#000000;stroke-width:0.153;stroke-miterlimit:4;stroke-dasharray:none;stroke-opacity:1"
         id="path6877" />
      <path
         d="m 64.85308,146.53481 0.470253,-0.0723 0.01764,-0.0247 -0.02469,-0.0183 -0.4699,0.072 -0.01834,0.025 z"
         style="fill:none;fill-opacity:1;fill-rule:nonzero;stroke:#000000;stroke-width:0.153;stroke-miterlimit:4;stroke-dasharray:none;stroke-opacity:1"
         id="path6881" />
      <path
         d="m 66.14467,147.83755 -0.451203,0.11818 -0.01587,0.0261 0.02681,0.0155 0.451203,-0.11748 0.01587,-0.0265 z"
         style="fill:none;fill-opacity:1;fill-rule:nonzero;stroke:#000000;stroke-width:0.153;stroke-miterlimit:4;stroke-dasharray:none;stroke-opacity:1"
         id="path6885" />
      <path
         d="m 66.204712,151.79991 -0.451203,0.11783 -0.01587,0.0265 0.02681,0.0159 0.451203,-0.11818 0.01587,-0.0268 z"
         style="fill:none;fill-opacity:1;fill-rule:nonzero;stroke:#000000;stroke-width:0.153;stroke-miterlimit:4;stroke-dasharray:none;stroke-opacity:1"
         id="path6889" />
      <path
         d="m 64.651432,132.61095 2.198864,0.33549 0.06174,-0.0455 -0.04551,-0.0621 -2.198511,-0.33584 -0.06244,0.0459 z"
         style="fill:none;fill-opacity:1;fill-rule:nonzero;stroke:#000000;stroke-width:0.153;stroke-miterlimit:4;stroke-dasharray:none;stroke-opacity:1"
         id="path6893" />
      <path
         d="m 67.631134,140.12978 -0.05927,0.005 c -0.140758,0 -0.259291,-0.0875 -0.338314,-0.21625 -0.08361,-0.13723 -0.11183,-0.26741 -0.11183,-0.42228 l 0.0018,-0.0699 c 0.0071,-0.14922 0.05468,-0.33655 0.14358,-0.49001 0.08925,-0.15346 0.216253,-0.26952 0.382059,-0.29633 l 0.04516,-0.0631 -0.06315,-0.0452 c -0.208844,0.0346 -0.359833,0.17956 -0.458258,0.34995 -0.09948,0.17216 -0.150284,0.37218 -0.15875,0.53975 l -0.0018,0.0748 c -3.53e-4,0.16757 0.03316,0.3242 0.128058,0.47907 0.09137,0.15135 0.242711,0.26882 0.431447,0.26882 l 0.07726,-0.007 0.04516,-0.0632 z"
         style="fill:none;fill-opacity:1;fill-rule:nonzero;stroke:#000000;stroke-width:0.053;stroke-miterlimit:4;stroke-dasharray:none;stroke-opacity:1"
         id="path7151" />
      <path
         d="m 67.367962,139.88131 0.184503,0.0353 m 0,-1.08127 c -0.174978,0.0289 -0.292453,0.20144 -0.344664,0.34925 l -0.04304,0.26847 c 0.0046,0.21872 0.117828,0.508 0.387703,0.46355 m 0,-1.08127 c 0.293511,-0.0473 0.398286,0.27905 0.386291,0.514 -0.01058,0.21449 -0.132997,0.52493 -0.386291,0.56727"
         style="display:inline;fill:none;fill-opacity:0;fill-rule:nonzero;stroke:#000000;stroke-width:0.053;stroke-miterlimit:4;stroke-dasharray:none;stroke-opacity:1"
         id="path7155"
         inkscape:label="LED" />
      <path
         d="m 67.547173,139.95783 c 0.147108,-0.025 0.252589,-0.127 0.320322,-0.24412 0.06809,-0.11818 0.102659,-0.25471 0.108303,-0.37007 l 0.0014,-0.0504 c 3.53e-4,-0.1143 -0.02223,-0.22366 -0.08855,-0.33126 -0.06315,-0.10478 -0.169686,-0.18838 -0.3048,-0.18874 l -0.05468,0.005 -0.04515,0.0635 0.06315,0.0441 0.03669,-0.003 c 0.08714,0 0.161219,0.054 0.211667,0.13547 0.05433,0.0903 0.07232,0.17392 0.07232,0.27517 l -0.0011,0.0451 c -0.0049,0.0977 -0.03563,0.22155 -0.09384,0.32068 -0.05821,0.10019 -0.139347,0.17321 -0.24377,0.19085 l -0.04515,0.0628 z"
         style="fill:none;fill-opacity:1;fill-rule:nonzero;stroke:#000000;stroke-width:0;stroke-miterlimit:4;stroke-dasharray:none;stroke-opacity:1"
         id="path7159" />
      <path
         d="m 67.529252,138.77807 c -0.147108,0.0243 -0.252589,0.12629 -0.320322,0.24412 -0.06773,0.11748 -0.102306,0.25471 -0.10795,0.36865 l -0.0014,0.0526 c -3.53e-4,0.11465 0.02293,0.22401 0.08819,0.32985 0.0635,0.10512 0.170392,0.18838 0.305506,0.18908 l 0.05362,-0.005 0.04551,-0.0628 -0.06279,-0.0452 -0.03634,0.003 c -0.08714,0 -0.16122,-0.054 -0.21202,-0.13582 -0.05433,-0.0896 -0.07232,-0.17215 -0.07267,-0.27375 l 0.0014,-0.0462 c 0.0046,-0.0977 0.03563,-0.22119 0.09384,-0.32032 0.05821,-0.10019 0.138994,-0.17356 0.243417,-0.1912 l 0.04515,-0.0624 z"
         style="fill:none;fill-opacity:1;fill-rule:nonzero;stroke:#000000;stroke-width:0;stroke-miterlimit:4;stroke-dasharray:none;stroke-opacity:1"
         id="path7163" />
      <path
         d="m 67.648843,138.63982 0.05997,-0.005 c 0.141111,0 0.259292,0.0868 0.338314,0.21519 v 3.6e-4 c 0.08326,0.13758 0.111478,0.26775 0.111831,0.42262 l -0.0018,0.0695 c -0.0071,0.14993 -0.05468,0.33796 -0.143581,0.49071 -0.08961,0.15382 -0.216605,0.26988 -0.382764,0.29669 l -0.04516,0.0628 0.06315,0.0452 c 0.208844,-0.0342 0.360539,-0.17921 0.459317,-0.35031 0.09948,-0.17074 0.14993,-0.37218 0.158044,-0.53975 l 0.0021,-0.0748 c 0,-0.16792 -0.03281,-0.32455 -0.128059,-0.47942 -0.09102,-0.15134 -0.242358,-0.26776 -0.431447,-0.26776 l -0.07796,0.007 -0.04516,0.0624 z"
         style="fill:none;fill-opacity:1;fill-rule:nonzero;stroke:#000000;stroke-width:0.053;stroke-miterlimit:4;stroke-dasharray:none;stroke-opacity:1"
         id="path7167" />
    </g>
    <g
       id="g30068"
       style="display:none"
       inkscape:label="External button">
      <path
         d="m 91.758664,165.45516 c -2.115961,-1.72402 -3.827639,-3.43394 -3.913364,-3.56658 -1.087614,-1.65594 -0.440619,-3.20816 -0.02963,-3.58916 0.214489,-0.19297 0.739069,-0.14288 1.039283,0.0843 0.390878,0.30551 0.354542,0.88865 0.4953,0.97966 0.323145,0.52176 0.508,0.72143 1.248128,1.17017 0.136172,0.21308 0.261761,0.38064 0.382764,0.51646 l 0.05292,-0.006 c 0.601487,0.95356 2.603853,0.7673 3.362325,2.0634"
         style="fill:#ffffff;fill-opacity:1;fill-rule:nonzero;stroke:none;stroke-width:0.352778"
         id="path7049" />
      <path
         d="m 81.387139,162.41711 1.272822,-1.47567 0.01552,-6.28368 c 0,0 -0.08396,-0.16862 -0.01023,-0.28434 0.0568,-0.0903 0.256822,-0.13687 0.256822,-0.13687 l 6.445955,-0.75424 c 0,0 0.06914,-0.0106 0.167217,0.0861 0.09666,0.0977 1.135945,-1.41817 1.135945,-1.41817 0,0 0.01587,-0.1203 -0.08114,-0.0875 -0.09772,0.0325 -8.675511,1.02623 -8.723489,1.05939 -0.04868,0.0321 -0.245181,0.002 -0.391231,0.10019 -0.0822,0.0547 -0.0949,0.44485 -0.0949,0.44485 z"
         style="fill:#ffffff;fill-opacity:1;fill-rule:evenodd;stroke:none;stroke-width:0.352778"
         id="path7009" />
      <path
         d="m 80.877022,152.86114 v 0.254 8.65681 c 0,0.11536 -0.03986,0.31715 0.0695,0.41452 l 0.02858,0.0208 0.182386,0.11748 c 0.130175,0.0843 0.226484,0.17462 0.384528,0.15663 l 0.251883,-0.0307 8.474428,-1.0407 c 0.171097,-0.0205 0.377825,-0.007 0.464608,-0.18767 0.05009,-0.10513 0.02575,-0.26988 0.02575,-0.36548 v -8.51747 -0.25435 c -0.0021,-0.1584 -0.1016,-0.24483 -0.199672,-0.36654 -0.09102,-0.11289 -0.143933,-0.22789 -0.291747,-0.24482 h -0.03704 l -0.252236,0.0317 -8.6106,1.05656 c -0.170744,0.0215 -0.378178,0.007 -0.463903,0.18768 l -0.02646,0.11148"
         style="fill:#ffffff;fill-opacity:1;fill-rule:evenodd;stroke:none;stroke-width:0.352778"
         id="path7013" />
      <path
         d="m 80.822553,152.86114 v 0.254 8.65681 c 0,0.0437 -0.0071,0.10936 -0.0071,0.17851 3.53e-4,0.0931 0.01164,0.20144 0.0949,0.27693 l 0.0021,0.002 0.03105,0.0222 0.0011,3.5e-4 0.183092,0.11959 c 0.113594,0.0716 0.214489,0.16581 0.373944,0.16651 l 0.04621,-0.002 0.252236,-0.0307 8.474781,-1.0407 c 0.08184,-0.01 0.178152,-0.0109 0.270933,-0.0353 0.09243,-0.0229 0.185561,-0.0758 0.236008,-0.18344 0.0314,-0.0663 0.03704,-0.14111 0.03704,-0.21096 0,-0.0692 -0.006,-0.13512 -0.006,-0.1778 v -8.51747 -0.25435 -3.5e-4 c -0.0028,-0.18556 -0.118886,-0.28434 -0.211314,-0.40041 -0.04269,-0.0533 -0.07902,-0.11147 -0.127353,-0.16157 -0.04833,-0.0508 -0.112889,-0.0938 -0.200731,-0.10372 h -0.0032 -0.04057 -0.0032 l -0.255411,0.0321 -8.610247,1.05657 c -0.08114,0.0106 -0.178506,0.0123 -0.270933,0.036 -0.09207,0.0226 -0.185914,0.0751 -0.236009,0.18274 l -0.0025,0.005 -0.02752,0.11712 0.04057,0.066 0.06597,-0.0406 0.02575,-0.11148 -0.05327,-0.0127 0.04939,0.0236 c 0.03563,-0.0727 0.08925,-0.10337 0.1651,-0.12418 0.07514,-0.0198 0.16757,-0.0226 0.257175,-0.0328 l 8.614833,-1.05692 0.244475,-0.031 h 0.03422 l -7.06e-4,-0.0547 -0.0063,0.054 c 0.05997,0.008 0.0956,0.0314 0.134056,0.0706 0.0381,0.0388 0.07373,0.0949 0.121355,0.15451 0.104423,0.12736 0.186973,0.20109 0.186973,0.33338 v -0.001 0.25435 8.51747 c 3.52e-4,0.0519 0.006,0.115 0.006,0.1778 3.53e-4,0.0628 -0.0063,0.12453 -0.02611,0.16404 -0.03598,0.073 -0.08925,0.10372 -0.1651,0.12453 -0.07514,0.0194 -0.167569,0.0222 -0.256822,0.0321 l -8.474428,1.0414 -0.25153,0.0303 3.53e-4,-3.5e-4 -0.03422,0.002 c -0.109714,0.001 -0.190147,-0.0677 -0.314325,-0.14922 l -0.180975,-0.11748 -0.02822,-0.0201 -0.0314,0.0448 0.03598,-0.0413 c -0.04339,-0.037 -0.05856,-0.11042 -0.05786,-0.19473 -3.53e-4,-0.0621 0.0071,-0.12488 0.0071,-0.17851 v -8.65681 -0.254 l -0.05468,-0.0547 z"
         style="fill:#231f20;fill-opacity:1;fill-rule:nonzero;stroke:none;stroke-width:0.352778"
         id="path7017" />
      <path
         d="m 80.940487,152.75485 0.519994,0.46849 0.07691,-0.004 -0.0039,-0.0776 -0.519994,-0.46779 -0.07726,0.004 z"
         style="fill:#231f20;fill-opacity:1;fill-rule:nonzero;stroke:none;stroke-width:0.352778"
         id="path7021" />
      <path
         d="m 82.348952,160.71679 c 0,0 0.143933,0.27517 0.375708,0.43639 0.153106,0.10795 0.415573,0.12065 0.446264,0.12488 0.07585,0.0109 3.046236,-0.37641 3.046236,-0.37641 0,0 3.700639,-0.46814 3.765197,-0.55916 0.05856,-0.0847 -0.329141,-6.53838 -0.318558,-6.62128 0.01693,-0.13124 -0.415572,-0.59761 -0.529167,-0.60678 -0.05821,-0.004 -3.306938,0.41769 -3.306938,0.41769 0,0 -3.424061,0.35278 -3.472039,0.5087 -0.05539,0.17145 -0.0067,6.67597 -0.0067,6.67597"
         style="fill:#ffffff;fill-opacity:1;fill-rule:evenodd;stroke:none;stroke-width:0.352778"
         id="path7025" />
      <path
         d="m 90.075138,160.29332 -0.01976,-0.30974 -0.378177,-6.02932 -0.01905,-0.30974 -7.06e-4,-0.0109 -0.03281,-0.0663 -0.0046,-0.0229 -0.0092,-0.0508 -0.424038,0.0579 0.0074,0.0547 -0.0067,-0.0547 -5.999691,0.7486 H 83.1871 c -0.03739,0.006 -0.120297,0.013 -0.201436,0.0314 -0.08043,0.0212 -0.165453,0.0452 -0.21202,0.12135 l -0.0042,0.007 -0.01376,0.0639 -0.0014,0.007 0.0194,0.31538 0.377473,6.01698 0.01834,0.30868 7.06e-4,0.006 0.01164,0.0409 0.0056,0.0194 0.08714,0.0589 0.01552,0.01 0.03634,-0.002 h 0.0025 l 0.308327,-0.0416 h -3.52e-4 l 5.968647,-0.74648 c 0.06667,-0.009 0.174272,-0.0116 0.27058,-0.0378 0.04833,-0.0134 0.0949,-0.0328 0.132998,-0.067 0.03845,-0.0342 0.06385,-0.0868 0.0635,-0.1471 l -3.53e-4,-0.0134 -0.0187,-0.30621 -0.374298,-5.9757 -0.01905,-0.30692 v -3.5e-4 c -0.01305,-0.10901 -0.10795,-0.20497 -0.195439,-0.29422 -0.0889,-0.085 -0.174977,-0.15134 -0.175683,-0.15169 l -0.03351,0.0434 0.03775,-0.0392 -0.152047,-0.1464 -0.0053,-0.005 -0.04868,-0.0275 -0.0099,-0.006 -0.08361,-0.008 -0.006,-3.6e-4 -0.312914,0.0399 -3.373967,0.43003 -2.648302,0.33726 -0.306564,0.0399 h -7.06e-4 c -0.07408,0.009 -0.131586,0.0512 -0.160161,0.10548 -0.02928,0.0536 -0.03563,0.11501 -0.03634,0.17534 7.06e-4,0.0935 0.01799,0.1912 0.02223,0.26035 l 0.377119,6.01909 0.0194,0.30727 3.53e-4,0.004 0.01129,0.0511 0.0025,0.0113 0.04833,0.067 0.0049,0.006 0.174978,0.13264 0.03281,-0.0434 -0.03669,0.0402 c 0.0011,0.001 0.07126,0.0653 0.160161,0.13264 0.09066,0.0674 0.190853,0.13864 0.281517,0.15487 l 0.06244,-0.0455 -0.04551,-0.0621 c -0.04339,-0.004 -0.14993,-0.0695 -0.23248,-0.1337 -0.08431,-0.0649 -0.152048,-0.12665 -0.1524,-0.12665 l -0.0021,-0.002 -0.164042,-0.12383 -0.02999,-0.042 -0.0071,-0.0314 -0.0194,-0.30375 -0.377472,-6.01874 c -0.0049,-0.0787 -0.02152,-0.17321 -0.02152,-0.25364 0,-0.0515 0.0074,-0.096 0.02293,-0.12348 0.01588,-0.0257 0.03281,-0.0416 0.07938,-0.049 h -3.53e-4 l 0.306211,-0.0399 2.648656,-0.33725 3.373966,-0.42969 0.299861,-0.0388 0.05468,0.006 0.02681,0.0152 0.147814,0.14147 0.0018,0.002 0.0028,0.002 c 0,0 0.08255,0.0632 0.166158,0.14393 0.08431,0.0776 0.164395,0.18486 0.162278,0.22296 l 0.05468,-0.004 -0.05468,0.003 0.01905,0.30727 0.373944,5.975 0.0187,0.30656 3.52e-4,0.007 -0.02752,0.066 c -0.05468,0.0561 -0.232481,0.0663 -0.343959,0.0772 l -5.968647,0.74719 -0.303741,0.0409 -0.01693,3.5e-4 0.0028,0.0547 0.03069,-0.0448 -0.05433,-0.0374 -0.0032,-0.0106 -0.01834,-0.30303 -0.377472,-6.01698 -0.01834,-0.30057 0.01058,-0.0487 -0.05362,-0.0109 0.04798,0.0265 c 0.0071,-0.0212 0.06844,-0.0529 0.141111,-0.0677 0.07232,-0.0166 0.149225,-0.0236 0.19297,-0.03 l -0.0085,-0.054 0.0071,0.054 5.998986,-0.74789 0.373239,-0.0515 -0.0078,-0.0543 -0.05327,0.01 0.0053,0.03 0.0014,0.007 0.02999,0.0603 0.01834,0.2988 0.377825,6.02862 0.02011,0.31044 0.05785,0.0505 z"
         style="fill:#231f20;fill-opacity:1;fill-rule:nonzero;stroke:none;stroke-width:0.352778"
         id="path7029" />
      <path
         d="m 82.32588,154.08686 0.464961,0.3877 0.07726,-0.007 -0.0071,-0.0765 -0.464961,-0.38735 -0.07726,0.007 z"
         style="fill:#231f20;fill-opacity:1;fill-rule:nonzero;stroke:none;stroke-width:0.352778"
         id="path7033" />
      <path
         d="m 81.418289,162.36024 1.272822,-1.47532 0.01587,-6.28403 c 0,0 -0.02575,-0.1591 0.04904,-0.27622 0.05644,-0.0896 0.250473,-0.12947 0.250473,-0.12947 l 6.393391,-0.76976 c 0,0 0.05362,0.025 0.150283,0.12135 0.09737,0.097 1.135592,-1.4478 1.135592,-1.4478 0,0 0.0321,-0.12488 -0.06526,-0.0921 -0.09666,0.0317 -8.674452,1.02623 -8.723136,1.05868 -0.04904,0.0318 -0.244475,0.003 -0.390525,0.0995 -0.08184,0.055 -0.09454,0.44626 -0.09454,0.44626 z"
         style="fill:#ffffff;fill-opacity:1;fill-rule:evenodd;stroke:none;stroke-width:0.352778"
         id="path7037" />
      <path
         d="m 81.54155,162.43507 c -0.06668,-0.0494 -0.07973,-0.1143 -0.08114,-0.20743 0,-0.0547 0.0064,-0.11536 0.0064,-0.1771 v -8.43915 c 0,-0.0589 -0.0053,-0.11818 -0.0053,-0.17498 0,-0.0875 0.01235,-0.16157 0.06033,-0.21519 0.0762,-0.0903 0.233187,-0.0857 0.382412,-0.1016 l 8.432094,-1.03046 h 3.53e-4 c 0.0822,-0.0106 0.154516,-0.0286 0.214136,-0.0282 0.05821,0.001 0.100541,0.0123 0.14993,0.0631 l 0.07761,0.002 0.0018,-0.0776 c -0.06844,-0.073 -0.152753,-0.0974 -0.229305,-0.0967 -0.07937,7.1e-4 -0.153811,0.0201 -0.227542,0.0289 l -8.4328,1.03082 c -0.129469,0.0183 -0.321028,-0.002 -0.450497,0.13723 -0.07549,0.0861 -0.08784,0.19261 -0.08784,0.28786 0,0.0628 0.0053,0.12277 0.0053,0.17498 v 8.43915 c 0,0.055 -0.0056,0.11536 -0.0063,0.1771 -7.06e-4,0.1016 0.01905,0.21837 0.126294,0.29562 l 0.07585,-0.012 z"
         style="fill:#231f20;fill-opacity:1;fill-rule:nonzero;stroke:none;stroke-width:0.352778"
         id="path7041" />
      <path
         d="m 82.882493,161.03609 -0.06738,-0.0169 -0.01341,0.0529 0.02258,-0.0501 -0.06244,-0.0702 c -0.01341,-0.0346 -0.01764,-0.0801 -0.01764,-0.12771 0,-0.0603 0.0071,-0.12206 0.0071,-0.17392 v -5.94995 c 0,-0.055 -0.006,-0.11783 -0.006,-0.17709 -7.05e-4,-0.0748 0.01023,-0.14217 0.04375,-0.18521 l -3.53e-4,3.5e-4 c 0.06668,-0.0938 0.230717,-0.09 0.375708,-0.10407 l 5.917848,-0.72707 0.248002,-0.0311 0.06703,0.004 0.0028,-0.054 -0.01305,0.0529 c 0.06914,0.0173 0.108302,0.0706 0.134055,0.14852 0.0247,0.0769 0.02963,0.16969 0.02893,0.23425 l 0.05468,0.0547 0.05468,-0.0547 c 0,-0.0692 -0.0035,-0.1711 -0.03422,-0.26741 -0.02963,-0.0949 -0.09313,-0.19262 -0.21202,-0.22154 l -0.0053,-0.001 -0.0769,-0.004 h -0.0049 l -0.256822,0.0317 -5.9182,0.72672 c -0.123472,0.0173 -0.325967,-0.007 -0.449086,0.1457 v 3.5e-4 c -0.0568,0.0762 -0.06562,0.16792 -0.06597,0.25118 0,0.0667 0.0063,0.12982 0.0063,0.17709 v 5.94995 c 0,0.0409 -0.0074,0.10583 -0.0074,0.17392 0,0.0547 0.0042,0.11113 0.02399,0.1651 0.0194,0.0536 0.05891,0.10513 0.12065,0.13264 l 0.0042,0.002 0.07197,0.0183 0.06597,-0.0392 z"
         style="fill:#231f20;fill-opacity:1;fill-rule:nonzero;stroke:none;stroke-width:0.352778"
         id="path7045" />
      <path
         d="m 91.639284,161.51509 c -0.123472,-0.048 -0.385233,-0.30621 -0.599722,-0.54681 -0.216959,-0.242 -0.397934,-0.46848 -0.398286,-0.46884 l -0.006,-0.007 -0.0081,-0.005 c -0.740834,-0.44979 -0.90805,-0.63217 -1.230137,-1.15287 l -0.0067,-0.01 -0.01023,-0.007 c -0.01305,-0.006 -0.03916,-0.0494 -0.05927,-0.11853 -0.06668,-0.20814 -0.11818,-0.61101 -0.432152,-0.85725 l -3.53e-4,-7.1e-4 c -0.186972,-0.14111 -0.445206,-0.21484 -0.678039,-0.21519 -0.168275,3.5e-4 -0.325261,0.0381 -0.4318,0.13229 l -7.05e-4,3.5e-4 -3.53e-4,3.6e-4 c -0.258586,0.24271 -0.584906,0.88723 -0.585964,1.7272 -0.0018,1.21461 0.698853,2.82539 3.311172,4.1469 l 0.02469,-0.048 -0.0254,0.0476 c 0.162278,0.085 0.259645,0.14816 0.318559,0.1979 0.08643,0.0762 0.08925,0.10936 0.110419,0.18662 0.01976,0.0776 0.05221,0.18521 0.179211,0.33938 l 0.07691,0.008 0.0078,-0.0773 c -0.156633,-0.19473 -0.141817,-0.2667 -0.180269,-0.37324 -0.0194,-0.0536 -0.05468,-0.10901 -0.123825,-0.16651 -0.06915,-0.0593 -0.172156,-0.12382 -0.337609,-0.21167 h -7.05e-4 l -3.53e-4,-7e-4 c -2.587978,-1.31269 -3.250494,-2.87867 -3.251906,-4.04918 -0.0014,-0.80998 0.324203,-1.43793 0.551745,-1.64677 l -0.0374,-0.0406 0.03634,0.0416 c 0.07444,-0.0677 0.207786,-0.10548 0.35948,-0.10513 0.209197,-3.5e-4 0.450497,0.0702 0.611717,0.19262 l 0.03281,-0.0434 -0.03387,0.043 c 0.181328,0.14076 0.2667,0.35031 0.323145,0.54187 0.02787,0.0963 0.04833,0.18662 0.07232,0.26141 0.02434,0.0755 0.04657,0.13829 0.104422,0.1785 l 0.02963,-0.0455 -0.04692,0.0282 c 0.323498,0.5267 0.523875,0.74048 1.266825,1.18851 l 0.02822,-0.0466 -0.04233,0.0342 c 3.53e-4,3.5e-4 0.182386,0.22895 0.401814,0.47378 0.22225,0.24447 0.470958,0.50271 0.639939,0.57467 l 0.07091,-0.0296 z"
         style="fill:#231f20;fill-opacity:1;fill-rule:nonzero;stroke:none;stroke-width:0.352778"
         id="path7053" />
      <path
         d="m 89.258104,159.36156 c 0.0095,0.0677 0.01376,0.133 0.01376,0.19756 0,0.3182 -0.110066,0.58913 -0.250472,0.7814 -0.138994,0.19261 -0.314325,0.30374 -0.414867,0.3108 h -0.0071 c -0.03845,0.001 -0.104422,-0.0303 -0.174625,-0.0984 -0.214136,-0.20002 -0.455436,-0.6858 -0.453672,-1.15711 0.0021,-0.41204 0.171802,-0.81033 0.692855,-1.04387 l 0.02752,-0.0716 -0.07197,-0.0275 c -0.560564,0.24694 -0.760236,0.70062 -0.757766,1.143 3.52e-4,0.33796 0.111125,0.67345 0.255058,0.92745 0.07161,0.1263 0.151694,0.23213 0.23248,0.30939 0.08149,0.0762 0.163337,0.12665 0.25012,0.12806 l 0.01623,-7.1e-4 c 0.156633,-0.0155 0.339725,-0.1464 0.493889,-0.35525 0.152752,-0.20884 0.271638,-0.50129 0.271638,-0.8456 0,-0.0688 -0.0046,-0.1397 -0.01517,-0.21273 l -0.06174,-0.0469 z"
         style="fill:#231f20;fill-opacity:1;fill-rule:nonzero;stroke:none;stroke-width:0.352778"
         id="path7057" />
      <path
         d="m 90.287439,160.61618 c -0.01764,0.26776 -0.0078,0.37782 -0.04304,0.44909 -0.0314,0.0744 -0.125589,0.15381 -0.370417,0.35348 l -0.0074,0.0773 0.07655,0.007 c 0.242358,-0.20002 0.346428,-0.27728 0.400755,-0.39123 0.0508,-0.11677 0.03316,-0.22684 0.05256,-0.48789 l -0.0508,-0.0582 z m -0.453319,-0.32879 c -0.09207,0.1905 -0.203553,0.29739 -0.300567,0.41134 -0.09631,0.11395 -0.177095,0.24306 -0.175683,0.45014 0,0.0829 0.01164,0.1778 0.03775,0.29069 l 0.06526,0.0406 0.04127,-0.0649 c -0.02434,-0.10689 -0.03493,-0.19367 -0.03493,-0.26635 0.0014,-0.18027 0.05997,-0.27022 0.150283,-0.37958 0.09031,-0.10795 0.214489,-0.22613 0.315031,-0.43498 l -0.0254,-0.0723 -0.07267,0.0254 z"
         style="fill:#231f20;fill-opacity:1;fill-rule:nonzero;stroke:none;stroke-width:0.352778"
         id="path7061" />
      <path
         d="m 78.28781,149.02736 v 0.43744"
         style="fill:none;stroke:#ffffff;stroke-width:0.874889;stroke-linecap:round;stroke-linejoin:round;stroke-miterlimit:4;stroke-dasharray:none;stroke-opacity:1"
         id="path7219" />
      <path
         d="m 78.28781,150.4027 v 7.50605"
         style="fill:none;stroke:#ffffff;stroke-width:0.874889;stroke-linecap:round;stroke-linejoin:round;stroke-miterlimit:4;stroke-dasharray:0.938389, 0.938389;stroke-dashoffset:0;stroke-opacity:1"
         id="path7223" />
      <path
         d="m 78.28781,157.90882 v 0.43744 h 0.437444"
         style="fill:none;stroke:#ffffff;stroke-width:0.874889;stroke-linecap:round;stroke-linejoin:round;stroke-miterlimit:4;stroke-dasharray:none;stroke-opacity:1"
         id="path7227" />
      <path
         d="m 79.236817,158.34627 h 1.023056"
         style="fill:none;stroke:#ffffff;stroke-width:0.874889;stroke-linecap:round;stroke-linejoin:round;stroke-miterlimit:4;stroke-dasharray:0.511528, 0.511528;stroke-dashoffset:0;stroke-opacity:1"
         id="path7231" />
      <path
         d="m 80.259732,158.34627 h 0.437444"
         style="fill:none;stroke:#ffffff;stroke-width:0.874889;stroke-linecap:round;stroke-linejoin:round;stroke-miterlimit:4;stroke-dasharray:none;stroke-opacity:1"
         id="path7235" />
      <path
         d="m 78.28781,149.02736 v 0.43744"
         style="fill:none;stroke:#a7a5a6;stroke-width:0.328083;stroke-linecap:round;stroke-linejoin:round;stroke-miterlimit:4;stroke-dasharray:none;stroke-opacity:1"
         id="path7239" />
      <path
         d="m 78.28781,150.4027 v 7.50605"
         style="fill:none;stroke:#a7a5a6;stroke-width:0.328083;stroke-linecap:round;stroke-linejoin:round;stroke-miterlimit:4;stroke-dasharray:0.938389, 0.938389;stroke-dashoffset:0;stroke-opacity:1"
         id="path7243" />
      <path
         d="m 78.28781,157.90882 v 0.43744 h 0.437444"
         style="fill:none;stroke:#a7a5a6;stroke-width:0.328083;stroke-linecap:round;stroke-linejoin:round;stroke-miterlimit:4;stroke-dasharray:none;stroke-opacity:1"
         id="path7247" />
      <path
         d="m 79.236817,158.34627 h 1.023056"
         style="fill:none;stroke:#a7a5a6;stroke-width:0.328083;stroke-linecap:round;stroke-linejoin:round;stroke-miterlimit:4;stroke-dasharray:0.511528, 0.511528;stroke-dashoffset:0;stroke-opacity:1"
         id="path7251" />
      <path
         d="m 80.259732,158.34627 h 0.437444"
         style="fill:none;stroke:#a7a5a6;stroke-width:0.328083;stroke-linecap:round;stroke-linejoin:round;stroke-miterlimit:4;stroke-dasharray:none;stroke-opacity:1"
         id="path7255" />
    </g>
  </g>
</svg>
