<svg width="26.043mm" height="23.452mm" version="1.1" viewBox="0 0 26.043 23.452" xmlns="http://www.w3.org/2000/svg">
 <style type="text/css">
  @keyframes blink {
   0%,25% {
    fill: #FF450000;
   }
   50%, 75% {
    fill: #FF4500FF;
   }
  }
  
  #LED {
   animation: blink 1s infinite;
  }
 </style>
 <g transform="translate(-58.733 -129.39)">
  <g fill="none">
   <g stroke="#000">
    <path d="m67.357 139.93 0.18415 0.0353 0.02117-0.10654-0.18486-0.036zm0.18591-1.1525c-0.20743 0.0367-0.33091 0.22718-0.387 0.38452l-0.0018 5e-3 -0.04374 0.2734-0.0011 5e-3 3.53e-4 5e-3c0.0021 0.11042 0.02893 0.23424 0.0889 0.3369 0.05891 0.10231 0.16051 0.18556 0.2988 0.18485l0.06315-5e-3 -0.01764-0.10759-0.04551 4e-3c-0.09278-7e-4 -0.15558-0.0501-0.20461-0.13052-0.04762-0.0804-0.07232-0.1898-0.07408-0.28328l-0.05468 7e-4 0.05433 9e-3 0.04304-0.26917-0.05398-8e-3 0.05151 0.0176c0.04798-0.13794 0.15946-0.2921 0.30198-0.31292zm0.01764 0.10759 0.04727-4e-3c0.09631 1e-3 0.1591 0.0508 0.20708 0.133 0.04692 0.0829 0.0695 0.19614 0.0695 0.29598l-7.06e-4 0.0328c-0.0046 0.0977-0.03634 0.2233-0.0949 0.32279-0.05927 0.10195-0.14041 0.17533-0.24589 0.19297l0.01764 0.10759c0.14817-0.0247 0.25435-0.12735 0.32279-0.24553 0.06879-0.11889 0.10336-0.25682 0.10971-0.37218l7.06e-4 -0.0384c-3.53e-4 -0.11571-0.02434-0.24377-0.08326-0.34961-0.05821-0.10407-0.16157-0.18944-0.30268-0.18873l-0.06491 6e-3z" stroke-width=".053"/>
    <g stroke-width=".153">
     <path d="m76.199 150.32 0.0088 0.054c0.32244-0.0536 0.5581-0.27763 0.71402-0.5468 0.15628-0.27023 0.23671-0.58914 0.25012-0.85196 0.0018-0.0406 0.0028-0.0804 0.0028-0.11924 0-0.26529-0.05115-0.50941-0.20038-0.75388-0.14288-0.23531-0.37641-0.41416-0.66604-0.41416-0.03845 0-0.07796 3e-3 -0.11818 0.01-0.32244 0.0526-0.55845 0.27764-0.71438 0.54646-0.15663 0.26987-0.23707 0.58878-0.25012 0.85231-0.0018 0.0402-0.0032 0.079-0.0032 0.11747 0 0.26564 0.05115 0.50977 0.20108 0.75459 0.14288 0.23531 0.37641 0.41487 0.6664 0.41487 0.03845 0 0.07796-3e-3 0.11783-0.01l-0.0088-0.054-0.0088-0.0543-0.10019 8e-3c-0.24201 0-0.44274-0.14887-0.57291-0.3623-0.13864-0.22755-0.1845-0.44486-0.18521-0.6978l0.0032-0.11148c0.01129-0.24659 0.08925-0.55209 0.2353-0.80362 0.14676-0.25224 0.35772-0.44803 0.63747-0.49283l0.10054-9e-3c0.24165 0 0.44203 0.14816 0.57256 0.36124 0.13794 0.22754 0.18415 0.44485 0.1845 0.69744l-0.0028 0.1136c-0.01164 0.24624-0.0889 0.55174-0.23495 0.80292-0.1464 0.25188-0.35807 0.44732-0.63747 0.49318z"/>
     <path d="m78.17 147.43-0.0088-0.0536c-0.32244 0.0529-0.55845 0.27658-0.71438 0.54645-0.15628 0.27058-0.23707 0.58843-0.25012 0.85231-0.0018 0.0395-0.0032 0.0783-0.0032 0.11607 0 0.2667 0.05115 0.51046 0.20073 0.75635 0.14323 0.23601 0.37677 0.41451 0.66675 0.41451 0.03845 0 0.07796-3e-3 0.11783-9e-3 0.32279-0.0533 0.55845-0.27763 0.71473-0.5468 0.15593-0.27094 0.23671-0.58914 0.24977-0.85302l0.0032-0.11536c0-0.26705-0.05151-0.51117-0.20108-0.75671-0.14323-0.236-0.37677-0.41451-0.6664-0.41451-0.0388 0-0.07796 3e-3 -0.11783 0.01l0.0088 0.0536 0.0088 0.0543 0.10019-8e-3c0.24165-3.5e-4 0.44238 0.14887 0.57326 0.36195 0.13829 0.22825 0.18415 0.44662 0.18486 0.69991l-0.0032 0.11007c-0.01164 0.24553-0.0889 0.55139-0.23495 0.80327-0.14676 0.25295-0.35807 0.44803-0.63782 0.49389l-0.10019 8e-3c-0.24201 0-0.44274-0.14852-0.57291-0.3623-0.13829-0.22789-0.1845-0.44556-0.18521-0.6992l0.0032-0.11078c0.01164-0.24553 0.08925-0.55068 0.2353-0.80257 0.1464-0.25294 0.35772-0.44802 0.63747-0.49353z"/>
     <path d="m67.634 151.73 0.0088 0.0543c0.32244-0.0533 0.5581-0.27799 0.71367-0.54681 0.15663-0.27058 0.23707-0.58878 0.25012-0.85266l0.0032-0.11536c7.06e-4 -0.26741-0.05045-0.51153-0.20073-0.75777-0.14288-0.23495-0.37677-0.4138-0.66569-0.41416-0.0388 0-0.07832 4e-3 -0.11853 0.0102h3.53e-4c-0.32244 0.0529-0.5588 0.27693-0.71473 0.54646-0.15628 0.26987-0.23671 0.58843-0.24977 0.8516-0.0018 0.0399-0.0032 0.0783-0.0032 0.11712 0 0.26635 0.05115 0.50977 0.20073 0.75565 0.14323 0.23531 0.37641 0.41487 0.6664 0.41487 0.03845 0 0.07761-3e-3 0.11818-9e-3l-0.0088-0.0543-0.0088-0.0536-0.10054 8e-3c-0.24236 0-0.44274-0.14923-0.57256-0.3623-0.13829-0.2279-0.18486-0.44556-0.18521-0.69886l0.0032-0.11183c0.01129-0.24518 0.08855-0.55068 0.2353-0.80221 0.14676-0.25295 0.35736-0.44733 0.63747-0.49283v-7.1e-4l0.10054-8e-3c0.2413 0 0.44203 0.14923 0.57256 0.3616 0.13864 0.22825 0.18415 0.44662 0.1845 0.70097l-0.0028 0.11007c-0.01164 0.24588-0.08925 0.55139-0.23566 0.80327-0.1464 0.25189-0.35736 0.44697-0.63676 0.49354z"/>
     <path d="m65.338 135.25-7.06e-4 10.991h0.05398l-0.05398-2e-3 -0.0018 0.0434c-3.53e-4 0.12594 0.03598 0.23636 0.11042 0.34219l0.04516-0.031-0.04621 0.0303 0.65934 1.0121 0.0018 2e-3c0.07056 0.0995 0.07973 0.1778 0.08996 0.3235l0.05468-4e-3h-0.05468l-0.0085 3.7656h0.05468l-0.05433-2e-3 -3.53e-4 0.0113c-3.53e-4 0.0494 0.01587 0.0967 0.04692 0.13652l7.06e-4 2e-3 0.40358 0.49707 0.04269-0.0342-0.05468 2e-3 3.53e-4 0.01c-7.06e-4 0.0455-0.01058 0.0759-0.03881 0.11465l-0.0053 8e-3v3.5e-4l0.04904 0.0247-0.03704-0.0399-0.17251 0.15734 0.03704 0.0402-0.03316-0.0434-0.09772 0.037-0.03951-4e-3 -0.0099 0.0536 0.01834-0.0512c-0.04339-0.0159-0.07126-0.0356-0.1009-0.0706l-0.04198 0.0353 0.04233-0.0346-0.41698-0.51435-0.02399-0.0353-0.04516 0.0314 0.04833-0.0257c-0.03563-0.066-0.05539-0.13158-0.06421-0.20602l-0.05433 6e-3h0.05468l-0.0046-3.6816-0.05468 7e-4 0.05468 3.6e-4v-0.01c3.53e-4 -0.1457-0.0381-0.27164-0.1203-0.39335l-3.53e-4 -3.5e-4 -0.59831-0.87665h3.52e-4c-0.12347-0.1838-0.17639-0.35631-0.17674-0.57609v-11.03c0.0011-0.10442 0.02081-0.19508 0.06385-0.2921l-0.02787-0.0716-0.07232 0.0275c-0.04798 0.10795-0.07267 0.21625-0.07303 0.33584v11.018-3.5e-4 0.0123c-3.53e-4 0.23777 0.06138 0.43921 0.19509 0.63747l7.05e-4 7.1e-4 0.59831 0.87665h-7.05e-4c0.07197 0.10689 0.1016 0.20426 0.10195 0.33161v9e-3l0.0046 3.6812 3.53e-4 7e-3c0.0095 0.0868 0.03493 0.16687 0.0762 0.24412l0.0032 5e-3 0.02505 0.037 0.0032 4e-3 0.41839 0.51541 7.06e-4 1e-3c0.03986 0.048 0.0889 0.0818 0.14781 0.10301l0.0088 2e-3 0.05891 6e-3c0.05927 7.1e-4 0.11465-0.0208 0.16369-0.0589l0.0039-3e-3 0.17251-0.1577 0.01164-0.0159 7.06e-4 -3.5e-4 -0.04904-0.0247 0.04339 0.0335c0.04092-0.054 0.06138-0.11572 0.06103-0.18098l-3.53e-4 -0.0138-0.01235-0.0324-0.40393-0.49777-0.04233 0.0349 0.0441-0.0335-0.02469-0.0702v-9e-3l0.0078-3.7656v-4e-3c-0.0088-0.14464-0.02223-0.25824-0.10971-0.37995l-0.04445 0.0317 0.04586-0.03-0.65934-1.0128-0.0014-2e-3c-0.06385-0.0921-0.08996-0.17357-0.09066-0.27975l0.0011-0.0374v-4e-3l0.0014-10.991-0.05468-0.0547z"/>
     <path d="m66.913 132.53-0.23354-0.1584-0.03069 0.0448 0.03387-0.042c-0.05786-0.048-0.12418-0.0734-0.1972-0.0808l-6e-3 0.0543 0.0088-0.0533c-0.63782-0.10301-1.2767-0.20356-1.9142-0.30269l-0.0046-3.5e-4 -0.03845-1e-3c-0.15028 0-0.29351 0.0695-0.38629 0.18944l-0.0025 4e-3 -1.2841 2.002-0.0021 4e-3c-0.02646 0.0501-0.04375 0.11007-0.04375 0.1711-0.0032 0.0857 0.04304 0.18768 0.15452 0.21237 0.6103 0.14288 1.2199 0.28716 1.8295 0.43286l0.01305-0.0533-0.02364 0.0494c0.05292 0.0254 0.10407 0.0526 0.15346 0.0836l0.02822-0.0473-0.03175 0.0444 0.22895 0.16651 0.0014 1e-3 0.02646 0.0173 0.01552 6e-3c0.05927 0.0166 0.11889 0.0272 0.17815 0.0342l0.0063-0.0543-0.02293 0.0494 0.0829 0.019c0.09878-2e-3 0.17039-0.0684 0.21378-0.13476v-7e-4l1.3257-2.0683v-7.1e-4c0.04692-0.0734 0.07161-0.14781 0.07161-0.22683 0-0.0452-0.0081-0.0928-0.02328-0.14182l-0.05221 0.0162 0.05397-8e-3c-0.01058-0.0759-0.04163-0.14253-0.09419-0.19932l-0.07691-4e-3 -0.0039 0.0769c0.03916 0.0437 0.05786 0.084 0.06668 0.14217l0.0018 8e-3c0.0127 0.0409 0.0187 0.0765 0.0187 0.10936-3.53e-4 0.0554-0.01623 0.10618-0.05468 0.16827l0.04657 0.0293-0.04586-0.0296-1.3264 2.0694v-3.6e-4c-0.03034 0.049-0.08079 0.0868-0.12136 0.085l-0.03739-9e-3 -0.01658-5e-3c-0.05539-6e-3 -0.1083-0.0162-0.16192-0.0307l-0.01446 0.0526 0.03034-0.0452-0.02469-0.0159-0.22825-0.16546-0.0032-3e-3c-0.05327-0.0321-0.10724-0.0614-0.16404-0.0882l-0.01058-4e-3c-0.6096-0.14535-1.2196-0.29069-1.8302-0.43322-0.05221-0.0137-0.06667-0.0462-0.06985-0.10583-3.52e-4 -0.0392 0.01235-0.0857 0.03034-0.11889l-0.04763-0.0258 0.04586 0.0296 1.2838-2.0024-0.04586-0.0296 0.04304 0.0332c0.07197-0.0921 0.18309-0.14641 0.29986-0.14641l0.03034 7.1e-4 0.0039-0.0543-0.0085 0.054c0.63818 0.0984 1.276 0.19967 1.9142 0.30197h0.0028c0.05715 7e-3 0.09666 0.0226 0.14076 0.0572l0.0035 3e-3 0.23319 0.15839 0.0762-0.0141z"/>
     <path d="m77.634 130.54c-0.05644-0.0293-0.12347-0.0346-0.18486-0.0349-0.04127 0-0.07902 3e-3 -0.10795 7e-3l-0.0011 3.6e-4 -10.585 1.7402 0.0092 0.0536-0.0081-0.0536c-0.07479 0.01-0.13229 0.0219-0.20144 0.0811l-0.0078 0.0765 0.07655 8e-3c0.06033-0.0469 0.06773-0.0441 0.14887-0.0579h7.06e-4l10.584-1.7406-0.0085-0.0536 0.0071 0.054 0.09313-6e-3c0.05221-3.6e-4 0.10971 9e-3 0.13264 0.0222l0.07408-0.0222z"/>
     <path d="m68.086 152.49 0.1203-0.0215 0.01976-7e-3 0.07867-0.0494 0.01341-0.0123 0.13229-0.16581 0.0028-4e-3 0.01482-0.0222 0.0025-4e-3c0.02646-0.0487 0.0441-0.10019 0.05221-0.15734l-0.05433-7e-3 0.05115 0.0194 0.02222-0.0593 0.02963-0.0437 0.03246-0.0275 0.03669-0.0134 6.573-1.0809h7.06e-4l0.01235-1e-3c0.03422-2e-3 0.06879 0.0353 0.08467 0.0882l0.05256-0.0155-0.05362 0.01 0.0025 0.0296-0.02011 0.0688 0.04727 0.0275-0.04445-0.0321-0.01482 0.0205-0.13123 0.15911-0.0762 0.0448-0.02681 0.0473v3.6e-4h0.05468l-3.53e-4 -0.0547h-0.042726l-1.6605-0.20143-0.06068 0.0476 0.04762 0.0614 1.6637 0.20179h0.0074l0.04586-3.6e-4 0.05433-0.0543v-3.6e-4h-0.05468l0.02752 0.0469 0.08467-0.0501 0.01411-0.012 0.13864-0.16757 0.0025-3e-3 0.01587-0.0222 0.0025-4e-3c0.02293-0.0388 0.03563-0.0801 0.03528-0.12347l-0.0046-0.0487-0.0014-6e-3c-0.02152-0.0751-0.08114-0.1644-0.18944-0.16687l-0.03069 3e-3h3.53e-4l-6.5782 1.0813-0.01023 3e-3 -0.05045 0.0187-0.01623 0.01-0.04551 0.0385-0.01023 0.0109-0.03739 0.0554-0.0064 0.0113-0.02469 0.0656-0.0028 0.0117c-0.0064 0.0441-0.01834 0.0811-0.03986 0.12065l0.04833 0.0254-0.04551-0.0296-0.01376 0.0198-0.12453 0.15663-0.06174 0.0388-0.11042 0.0197-0.0441 0.0635z"/>
     <path d="m76.685 151.07 0.08184-0.0497 0.01411-0.0127 0.133-0.16545 0.0028-4e-3 0.01446-0.0222 0.0025-4e-3c0.02681-0.0497 0.0441-0.10125 0.05186-0.15769l-0.05433-7e-3 0.05115 0.0194 0.02222-0.0593 0.02999-0.0437 0.0321-0.0272 0.03669-0.0137 0.1838-0.0311-0.0092-0.0536v0.0547h7.06e-4l0.0085-1e-3 0.01129-7e-4c0.03528-2e-3 0.0702 0.036 0.08573 0.0889l0.05256-0.0155-0.05362 0.0102 0.0032 0.0296-0.02081 0.0684 0.04727 0.0268-0.04445-0.0303-0.01411 0.0201-0.13123 0.15698-0.06491 0.0385-0.02752 7e-4 -0.32491-0.0395-0.06103 0.0476 0.04833 0.061 0.32808 0.0395 0.0078 7e-4 0.04586-1e-3 0.02681-7e-3 0.08537-0.0505 0.01446-0.0116 0.13829-0.16757 0.0032-4e-3 0.01517-0.0215 0.0028-4e-3c0.02152-0.0381 0.03493-0.0797 0.03422-0.12312l-0.0046-0.0497-0.0014-5e-3c-0.02152-0.0758-0.08149-0.16545-0.1905-0.16756l-0.02857 2e-3 0.0088 0.0543v-0.0547h-7.06e-4l-0.0092 3.5e-4 -0.18838 0.0321-0.0099 2e-3 -0.0508 0.0187-0.01587 9e-3 -0.04551 0.0392-0.01023 0.0106-0.03775 0.055-6e-3 0.0116-0.02434 0.0653-0.0032 0.012c-6e-3 0.0444-0.01834 0.0825-0.03951 0.12065l0.04833 0.0258-0.04551-0.0303-0.01376 0.0208-0.12453 0.15557-0.07408 0.0455-0.01834 0.0748z"/>
     <path d="m78.888 150.59c0.12735 0.0145 0.41099 0.0469 0.41134 0.0469h0.01129l0.0702-6e-3 0.02752-0.0109 0.06244-0.0462 0.0092-9e-3 0.07479-0.0896 0.08114-0.0921 0.01023-0.019 0.03069-0.0917 7.06e-4 -0.0325-0.01764-0.0589-0.0011-2e-3c-0.02469-0.0705-0.08431-0.14887-0.18486-0.15028l-0.02928 2e-3h3.53e-4l-0.29104 0.0476c-0.12206 0.0236-0.17956 0.13511-0.20249 0.21802l-0.0014 7e-3c-0.0056 0.0427-0.01799 0.0808-0.03916 0.1203l0.04798 0.0257-0.0448-0.0317-0.01411 0.0201-0.12488 0.1591-0.06844 0.0427 0.02893 0.0466-0.01587-0.0522-0.0014 3.6e-4 -0.11218 0.0201-0.04445 0.0635 0.06385 0.0441 0.11536-0.0208 6e-3 -1e-3 0.0042-1e-3 0.01305-6e-3 0.07691-0.048 0.01411-0.0127 0.13123-0.16651 0.0018-2e-3 0.01588-0.0219 0.0032-5e-3c0.02716-0.0497 0.0441-0.10196 0.0515-0.1584l-0.05433-7e-3 0.05292 0.0145c0.01482-0.0625 0.06421-0.133 0.1143-0.13759l0.29104-0.048h3.53e-4l0.01094-7e-4c0.03245-2e-3 0.06456 0.0296 0.0822 0.0773l0.05115-0.0183-0.05221 0.0159 0.0127 0.042-0.02187 0.0653-0.07338 0.084-7.06e-4 1e-3 -0.07161 0.0854-0.04445 0.0335-0.05503 5e-3 0.0046 0.0543 0.0067-0.0543s-0.28434-0.0325-0.41169-0.0473l-0.06033 0.0476z"/>
    </g>
    <g stroke-width=".053">
     <path d="m67.148 141.26 0.02187 3.5e-4c0.0018-0.10442 0.02928-0.20955 0.08573-0.29739h3.53e-4l0.09031-0.0998-0.01305-0.0173 0.01094 0.0187 0.05468-0.0318 0.05327-0.0173 0.16545-0.0275 0.10619 0.0145 0.09102 0.0709 0.01341-0.0176-0.01693 0.0138c0.02716 0.0349 0.04692 0.0737 0.06033 0.11676l0.02117-7e-3 -0.02152 5e-3 0.01729 0.0734 6e-3 0.0762v3.7934c-0.0018 0.10407-0.02928 0.20919-0.08573 0.29704l-0.09102 0.0998 0.01305 0.0173-0.01129-0.0187-0.05397 0.0321-0.05327 0.0173-0.16581 0.0275-0.10619-0.0145-0.09066-0.0699-0.01376 0.0166 0.01729-0.0134c-0.02716-0.0342-0.04727-0.0744-0.06103-0.11748l-0.02046 7e-3 0.02117-5e-3 -0.01693-0.0734-6e-3 -0.0765v-3.7931h-0.04374v3.7951l6e-3 0.079 7.06e-4 4e-3 0.01729 0.0748 3.52e-4 2e-3c0.01517 0.0473 0.0374 0.0921 0.06844 0.13158l0.0039 4e-3 0.09595 0.0737 0.0099 5e-3 0.11536 0.0155h0.0063l0.17074-0.0282 0.0028-3.5e-4 0.0575-0.019 0.0042-2e-3 0.05609-0.0332 0.0018-1e-3c0.04163-0.0307 0.07479-0.0695 0.10195-0.11148 0.06103-0.0953 0.09102-0.20814 0.09278-0.32032v-3.7965l-0.0063-0.078-3.53e-4 -3e-3 -0.01764-0.0759-3.53e-4 -2e-3c-0.01517-0.0462-0.03704-0.091-0.06809-0.13018l-0.0035-4e-3 -0.09596-0.0744-0.01023-4e-3 -0.11571-0.0159h-0.0067l-0.17004 0.0286-0.0032 7.1e-4 -0.0568 0.018-0.0042 2e-3 -0.05715 0.0335-0.0021 1e-3c-0.04057 0.0307-0.07408 0.0695-0.1009 0.11113-0.06174 0.0952-0.09102 0.20884-0.09278 0.32032z"/>
     <path d="m67.548 140.54-0.0088-0.054c-0.07867 0.0127-0.14993 0.048-0.21061 0.0938l3.53e-4 -3.5e-4c-0.06985 0.0512-0.12594 0.11677-0.1711 0.18697-0.05045 0.079-0.08749 0.16546-0.11324 0.2533v1e-3c-0.01235 0.0445-0.02258 0.0907-0.02893 0.13829v-3.6e-4c-0.0067 0.0448-0.01023 0.091-0.01023 0.13724v3.8001c0 0.09 0.0127 0.18097 0.04057 0.26846 0.02469 0.078 0.06103 0.15417 0.1143 0.22013h3.53e-4c0.04727 0.0582 0.1083 0.10831 0.18027 0.13865l0.0074 2e-3 0.09102 0.0233 0.01552 2e-3 0.0949-3e-3 0.0071-3.5e-4 0.17039-0.0275h7.06e-4c0.07796-0.013 0.14887-0.0476 0.21026-0.0938l-3.53e-4 3.5e-4c0.0695-0.0519 0.12524-0.11677 0.17039-0.18662 0.05151-0.0787 0.08819-0.16545 0.1136-0.254 0.01305-0.0462 0.02222-0.0924 0.02928-0.13864v-3.5e-4c6e-3 -0.0466 0.0095-0.0938 0.0095-0.14041v-3.7945c0-0.091-0.0127-0.18345-0.04022-0.27023-0.02469-0.079-0.06138-0.15487-0.115-0.22049-0.04727-0.0589-0.10795-0.10865-0.18098-0.13864l-0.0071-2e-3 -0.09031-0.024-0.01517-2e-3 -0.09454 3e-3 -0.0074 3.6e-4 -0.17074 0.0279 0.0176 0.108 0.16686-0.0272 0.08326-3e-3 0.0829 0.0222 0.01376-0.0533-0.02046 0.0508c0.05292 0.0219 0.09948 0.0589 0.13794 0.10619 0.04269 0.0526 0.07373 0.11642 0.09525 0.1838 0.02399 0.0765 0.03493 0.15769 0.03493 0.23848v3.7945c0 0.0409-0.0032 0.084-0.0088 0.12594l0.05433 7e-3 -0.05433-8e-3c-0.0064 0.0427-0.01446 0.0836-0.02611 0.12488-0.02222 0.079-0.05539 0.15593-0.09948 0.22472-0.04022 0.0614-0.08784 0.11606-0.14429 0.15734-0.04939 0.0374-0.10583 0.0642-0.16334 0.0737l0.0095 0.0543-0.0085-0.0543-0.16757 0.0265-0.08361 3e-3 -0.0829-0.0215-0.01411 0.0529 0.02152-0.0501c-0.05292-0.0219-0.10019-0.0596-0.13829-0.10689h3.52e-4c-0.04269-0.0522-0.07444-0.11606-0.09596-0.18415v3.5e-4c-0.02328-0.0755-0.03492-0.15592-0.03492-0.23565v-3.8005c0-0.0406 0.0032-0.0815 0.0092-0.12171v-3.6e-4c0.0056-0.0416 0.01482-0.0836 0.02575-0.12523l-0.05292-0.0138 0.05256 0.0152c0.02328-0.0801 0.05644-0.15663 0.10019-0.22507v3.5e-4c0.03986-0.0621 0.08749-0.11642 0.14393-0.1584l3.53e-4 -3.5e-4c0.04939-0.0374 0.10513-0.0632 0.16298-0.073z"/>
     <path d="m67.28 142.68 0.0508-0.0212-0.04233-0.10301v-1.3727l0.01588-0.0787 0.02752-0.037v-3.5e-4l0.31221-0.0519-0.0092-0.054-0.0018 0.0547 0.02187 0.0159 0.01235 0.0533v1.3869l0.0016 0.0699-0.05703 0.0335h3.53e-4l-0.34008 0.0501 0.0078 0.0543 0.0508-0.0212-0.0508 0.0212 0.0078 0.054 0.34078-0.0504h3.53e-4c0.05644-9e-3 0.0956-0.0487 0.11642-0.0878 0.02187-0.0409 0.03104-0.084 0.0314-0.12348v-2e-3l-0.05468 3.5e-4h0.05468v-1.3852l-0.02716-0.1076c-0.0187-0.0356-0.05962-0.0699-0.11254-0.0709l-0.01094 1e-3 -0.31186 0.0522h3.53e-4c-0.06385 0.012-0.09454 0.0628-0.11183 0.10336-0.01729 0.0437-0.02328 0.0871-0.02364 0.11994v1.3836l0.0039 0.0205 0.04621 0.11324z"/>
     <path d="m67.28 145.19 0.05045-0.0205-0.04198-0.10372v-1.3727l0.01587-0.0794 0.02752-0.0367h7.06e-4l0.31186-0.0519-0.0092-0.054-0.0025 0.0547 0.02258 0.0159 0.01235 0.0536v1.3866l-0.01764 0.0713-0.03845 0.0328 0.0092 0.054-0.0081-0.054-0.34043 0.0494 0.0078 0.0543 0.05045-0.0205-0.05045 0.0205 0.0078 0.054 0.34078-0.0497h0.0014c0.05644-0.01 0.09454-0.0494 0.11606-0.0885 0.02152-0.0409 0.03069-0.084 0.03069-0.12348v-2e-3h-0.05397 0.05397v-1.3849l-0.02646-0.10759c-0.01905-0.0353-0.05997-0.0698-0.11289-0.0713l-0.01129 1e-3 -0.31221 0.0519h7.05e-4c-0.06385 0.012-0.09454 0.0621-0.11148 0.10337-0.01729 0.0437-0.02364 0.0875-0.02364 0.12029v1.3836l0.0039 0.0205 0.04586 0.11324 0.05856 0.0335z"/>
    </g>
    <g stroke-width=".153">
     <path d="m64.919 132.75-1.0679 1.6655 0.01658 0.0755 0.07549-0.0166 1.0679-1.6655-0.01623-0.0755z"/>
     <path d="m63.174 134.13 1.0851-1.6919 0.1263 0.0293 0.01235 1e-3v-0.0547l-0.02963 0.0462 0.56021 0.36618 0.08784 0.10795 0.02258 0.0653-1.0336 1.6111 0.01658 0.0751 0.07514-0.0162 1.0481-1.6341 6e-3 -0.0469-0.03457-0.0995-0.0092-0.0162-0.09948-0.12241-0.01235-0.0117-0.56762-0.37006-0.02999-0.01v0.0547l0.01235-0.0529-0.16404-0.0378-0.05821 0.0236-1.1056 1.7244 0.01623 0.0755z"/>
     <path d="m63.35 134.15 1.0936-1.7046-0.01588-0.0758-0.07585 0.0166-1.0936 1.705 0.01623 0.0755z"/>
     <path d="m64.08 134.61-0.03598-0.0632-0.0046-7e-3 -0.09948-0.12277-0.01552-0.013-0.59372-0.33161-0.02081-6e-3 -0.17604-0.0183-0.05362 0.0275 0.0056 0.0607 0.31891 0.39159 0.07691 8e-3 0.0081-0.0769-0.23566-0.28857 0.03316 4e-3 0.57432 0.32067 0.08996 0.11042 0.03351 0.0586 0.07444 0.0208z"/>
     <path d="m79.41 150.62 0.06985-0.0286 0.0053-2e-3 0.0127-7e-3 0.01023-7e-3 0.07514-0.0656 0.01058-0.0116 0.01376-0.0222 0.47449-0.73696 0.0011-1e-3c0.04657-0.0744 0.07161-0.15311 0.07761-0.24095v-3e-3l7.06e-4 -0.0684v-3.6525c0-0.0452-0.0025-0.0896-0.0088-0.13476l-0.0021-0.0159c-0.01235-0.0893-0.03492-0.17321-0.07267-0.25612l-3.52e-4 -7e-4 -0.0078-0.0173-0.0018-3e-3 -0.05715-0.10125-6e-3 -0.0106-0.0011-3e-3 -0.58949-0.92146-0.04586 0.03 0.04727-0.0272c-0.06562-0.11712-0.09525-0.23389-0.1023-0.37041l-0.05468 3e-3 0.05468-1e-3 -0.0014-0.0522v-10.977l-0.0025-0.26035-0.0011-9e-3c-0.01094-0.10054-0.08184-0.17215-0.17921-0.18979l-0.01235 0.0529 0.01517-0.0526-0.0074-2e-3 -0.0025-3.6e-4c-0.17321-0.0416-0.34819-0.0829-0.52176-0.12382l-0.06632 0.0402 0.04092 0.066c0.17392 0.0416 0.34854 0.0819 0.52176 0.12348l0.0127-0.0529-0.01552 0.0519 0.0078 2e-3 0.0025 7e-4c0.07232 0.0222 0.07973 0.0289 0.09666 0.1016l0.05397-8e-3 -0.05468 3.5e-4 0.0025 0.26035v-3.5e-4 10.979l0.0014 0.0515v2e-3c0.0074 0.14887 0.04127 0.28575 0.11677 0.41875l0.0014 2e-3 0.58808 0.91969 0.0053 0.01 0.05609 0.0995 0.0074 0.0155 0.04904-0.0236-0.04939 0.0229c0.0321 0.072 0.05256 0.14535 0.06385 0.22578l0.0021 0.0152c0.0053 0.0395 0.0074 0.0783 0.0074 0.11995v3.6511l-7.06e-4 0.0688 0.05468 7e-4 -0.05468-4e-3c-0.0049 0.0716-0.02328 0.12877-0.06138 0.19086l0.04621 0.0289-0.04586-0.03-0.47449 0.7366-0.01023 0.0159-0.06456 0.0561-0.0049 3e-3 -0.06703 0.0272-0.03034 0.0709z"/>
     <path d="m77.212 150.99 0.09772-0.0512 0.01693-0.0145 0.13194-0.16615 0.0014-1e-3c0.04233-0.0572 0.06526-0.11994 0.06914-0.18979l-0.05468-3e-3 0.05362 0.0109c0.01517-0.079 0.08043-0.18239 0.14852-0.18768h7.06e-4l1.0033-0.1651h3.53e-4l0.01658-1e-3 0.07056 0.0349 0.04445 0.091 0.05327-0.0123-0.05433 6e-3 0.0018 0.0257-0.03316 0.0945 0.04445 0.0318-0.04269-0.0342-0.01411 0.018 0.04269 0.0342-0.04198-0.0349-0.12418 0.14923-0.0014 2e-3 -0.05256 0.0296h-0.01517l-6e-3 0.0536 0.0064-0.0536-1.0957-0.13229-0.06068 0.0473 0.04762 0.061 1.0957 0.13194h7.06e-4l0.02716 1e-3c0.05574 2e-3 0.1083-0.0289 0.1397-0.0727l-0.04375-0.0332 0.04198 0.0346 0.12418-0.14852 3.52e-4 -7e-4 0.01446-0.018 0.0018-2e-3c0.03457-0.0476 0.05397-0.1016 0.05362-0.15875l-0.0025-0.0381-0.0014-6e-3c-0.01094-0.0483-0.03316-0.0984-0.06879-0.139-0.03563-0.0399-0.08855-0.072-0.1524-0.0716l-0.03528 3e-3h3.53e-4l-1.0026 0.16474 0.0088 0.0543-0.0081-0.0543c-0.14746 0.0272-0.21625 0.17075-0.23954 0.27305l-0.0014 8e-3c-0.0035 0.0522-0.01658 0.0889-0.04762 0.13194l0.04375 0.0321-0.04233-0.0339-0.12524 0.15699-0.08714 0.0459-0.02293 0.0741z"/>
     <path d="m75.109 151.34 0.13123-0.0215 0.02011-7e-3 0.08079-0.0497 0.01411-0.0123 0.11677-0.14781-0.04269-0.0339 0.04233 0.0342 0.01482-0.0183 0.0014-2e-3c0.04304-0.0568 0.06526-0.11994 0.06914-0.18979l-0.05433-4e-3 0.05327 0.0113c0.01552-0.079 0.08043-0.18203 0.14887-0.18768l0.0011-3.5e-4 1.0026-0.16439h7.06e-4l0.01729-1e-3 0.06985 0.0349 0.0441 0.0907 0.05327-0.0123-0.05433 7e-3 0.0021 0.0268-0.03281 0.0928 0.0441 0.0321-0.04198-0.0349-0.13829 0.16616-0.0014 2e-3 -0.05151 0.0307-0.01552-1e-3 -1.0964-0.13123-0.06103 0.048 0.04798 0.061 1.0968 0.13088 0.02822 2e-3c0.05574 2e-3 0.1076-0.03 0.13864-0.0734l-0.04374-0.0332 0.04233 0.0349 0.13794-0.16616 0.0021-3e-3c0.03493-0.0473 0.05433-0.10125 0.05398-0.15734l-0.0028-0.0399-7.06e-4 -5e-3c-0.01094-0.049-0.03351-0.0988-0.06914-0.13935-0.03528-0.0406-0.08855-0.0723-0.1517-0.072l-0.03634 3e-3 0.0095 0.0536-0.0088-0.0536-1.0026 0.16474 0.0088 0.054-0.0085-0.0543c-0.14676 0.0275-0.21555 0.1711-0.23918 0.27305l-0.0014 8e-3c-0.0035 0.0529-0.01658 0.0892-0.04762 0.13123l0.04375 0.0328-0.04233-0.0346-0.01482 0.0183-3.53e-4 7.1e-4 -0.11077 0.14005-0.0635 0.0388-0.12065 0.0198-0.04516 0.0628z"/>
     <path d="m66.93 152.36 1.0961 0.13264h7.05e-4l0.02752 1e-3c0.05574 2e-3 0.1083-0.0282 0.13899-0.0737l-0.04374-0.0325 0.04233 0.0349 0.12347-0.14852-3.52e-4 3.6e-4 0.01552-0.0183 0.0021-3e-3c0.03457-0.0469 0.05397-0.10019 0.05362-0.15699l-0.0025-0.0406-0.0011-5e-3c-0.01129-0.048-0.03351-0.0974-0.06915-0.13829-0.03528-0.0402-0.08784-0.0727-0.15169-0.0727l-0.03669 4e-3 0.0099 0.054-0.0088-0.0543-1.0029 0.1651 0.0088 0.0536-0.0081-0.0536c-0.14711 0.0275-0.2152 0.16968-0.23954 0.27234l-0.0014 8e-3c-0.0032 0.0522-0.01623 0.0882-0.04692 0.13158l0.04374 0.0317-0.04304-0.0335-0.01446 0.0183h-3.53e-4l-0.11218 0.14041-0.05997 0.0395-0.1972 0.0314-0.03069 5e-3 -0.08678 2e-3 -0.0247-3e-3 -0.0056 0.054 0.0067-0.054-3.8333-0.47801-2.8042-0.55775-0.0762-0.024-0.10266-0.0565-0.02646 0.048 0.03598-0.0409-0.0028-3e-3 -0.0039-3e-3 -0.14922-0.10619-0.0032-2e-3 -0.0025-2e-3 -0.02928 0.0466 0.0321-0.0444c-0.18027-0.12736-0.38206-0.32138-0.41981-0.54504l-0.05398 0.01 0.05468-2e-3 -0.0074-0.1651v-16.605h-0.05468l0.05468 3e-3c0.0085-0.0709 0.0042-0.0684 0.05468-0.10231l0.0187-0.0176 1.6115-2.4761 0.0085-0.0317-3.52e-4 -5e-3c0.0011-0.0547 0.02787-0.0988 0.07796-0.1203l-0.02117-0.0508 0.01623 0.0526 0.01623-5e-3 0.01799-5e-3 0.02328-4e-3 10.854-1.7854h0.05115v-0.0547l-0.0063 0.0547c0.29598 0.0324 0.62653 0.067 0.92004 0.10371l0.0071 7.1e-4h0.0032v-0.0543l-0.0081 0.0533 1.9272 0.28752 0.02328 4e-3 2.8698 0.58879h-3.53e-4l0.05362 0.0109 0.08608 0.0229 0.01376-0.0529-0.02046 0.0504c0.05644 0.0268 0.0635 0.036 0.07549 0.0977l0.05433-7e-3 -0.05468 2e-3 0.0014 0.0466-0.0028 0.10583c-0.0011 0.0734 0.0014 0.13759-0.01587 0.19227v7e-4l-0.01341 0.0956c3.52e-4 0.0434 0.0071 0.0907 0.03951 0.13158l1.4108 1.736 0.0028 4e-3c0.03634 0.0388 0.0822 0.0593 0.12524 0.0589 0.04798-3.5e-4 0.08643-0.0219 0.1136-0.0444l0.05609-0.078-0.03634-0.0677-0.06809 0.0363-3.52e-4 7.1e-4 -0.06491 0.0441-0.04586-0.0254-0.03986 0.0378 0.04233-0.0342-1.4108-1.736-0.01482-0.0631 0.0088-0.0642c0.02399-0.0797 0.0187-0.15452 0.02046-0.22119l0.0021-0.10901-0.0011-0.0522-7.06e-4 -5e-3c-0.0078-0.0854-0.06103-0.15451-0.14288-0.18379l-6e-3 -2e-3 -0.08714-0.0229-0.0032-7.1e-4 -0.05503-0.0116-2.8695-0.58879-0.02505-5e-3 -0.0032-3.5e-4 -1.9286-0.28646-0.0078-3.5e-4h-0.003072v0.0547l0.0067-0.0543c-0.29563-0.0377-0.62618-0.0723-0.92146-0.10442l-6e-3 -7e-4h-0.05574l-0.0085 1e-3 -10.859 1.7858h-3.53e-4l-0.0254 5e-3 -0.0049 1e-3 -0.02117 5e-3 -0.0032 7.1e-4 -0.01764 5e-3 -0.0046 2e-3c-0.09102 0.0381-0.14534 0.12665-0.14464 0.2212v9e-3l0.05468-2e-3 -0.04586-0.0296-1.6111 2.4761 0.04586 0.03-0.02716-0.0476c-0.07796 0.0392-0.10971 0.11465-0.10936 0.19191l-3.53e-4 2e-3v16.606l3.53e-4 2e-3 0.0078 0.16581 3.53e-4 7e-3c0.04939 0.27517 0.27552 0.48049 0.4639 0.6156l0.0032 2e-3 0.0014 7.1e-4 0.14499 0.10442 0.0018 7.1e-4 0.0092 6e-3 0.10689 0.0593 0.0099 4e-3 0.08502 0.0265 0.0056 1e-3 2.8085 0.55915 0.0039 1e-3 3.835 0.47766 0.0011 3.6e-4 0.02787 3e-3 0.0071 7e-4 0.09454-3e-3 0.0078-3.5e-4 0.03422-6e-3h-3.53e-4l0.2092-0.0332 0.02081-8e-3 0.07726-0.0497 0.01305-0.012 0.11748-0.14781h-3.53e-4l0.01482-0.0183 0.0011-1e-3c0.04269-0.0564 0.06597-0.11924 0.06915-0.19015l-0.05468-2e-3 0.05362 0.0113c0.01587-0.0804 0.08043-0.18238 0.14887-0.18803h0.0011l1.0029-0.16474h0.0011l0.01658-2e-3 0.0695 0.0356 0.0448 0.0907 0.05327-0.0123-0.05433 7e-3 0.0018 0.0265-0.03281 0.0921 0.0441 0.0321-0.04128-0.0353-0.01552 0.018-3.53e-4 3.6e-4 -0.12347 0.14922-0.0018 2e-3 -0.0515 0.0296-0.01517-7e-4h3.53e-4l-1.0961-0.1323-0.06103 0.048z"/>
     <path d="m74.536 129.86-0.10442-0.0102-0.0889 7e-3 -10.649 1.7508c-0.23107 0.0388-0.40605 0.2092-0.51752 0.38135v3.6e-4l-1.2982 2.0242-3.53e-4 7e-4c-0.14252 0.22895-0.20779 0.45896-0.20779 0.72743v16.478h0.05468l-0.05433-3e-3 -7.06e-4 0.031c-0.0011 0.11994 0.03634 0.22507 0.11148 0.3235l0.0011 1e-3 0.47801 0.58844 0.04233-0.0346-0.04445 0.0317c0.04833 0.0681 0.12312 0.11219 0.20426 0.12277l0.06138-0.0462-0.04692-0.0617c-0.05186-7e-3 -0.09948-0.0353-0.12947-0.0783l-0.0025-3e-3 -0.47801-0.58738-0.04233 0.0346 0.04374-0.0328c-0.0635-0.0854-0.0889-0.1584-0.08925-0.25788l3.53e-4 -0.0261v-16.48c3.53e-4 -0.25153 0.05891-0.45508 0.19121-0.66957l-0.04621-0.0286 0.04586 0.0289 1.2979-2.0246v7e-4c0.10125-0.15769 0.25823-0.30268 0.44344-0.33302l10.649-1.7505 0.07091-6e-3 0.08361 8e-3 0.06421-0.043z"/>
     <path d="m64.691 135.09-5.7351-1.0241-0.02505 0.018 0.01729 0.0251 5.7351 1.0245 0.0254-0.018z"/>
     <path d="m66.627 132.29-3.1235-0.57009h-0.0011l-2.8039-0.3556-0.0247 0.0194 0.01905 0.024 2.8035 0.35596 3.1228 0.56903 0.0254-0.0173z"/>
     <path d="m66.326 147.82 13.71-2.2535 0.01799-0.0261-0.02505-0.018-13.71 2.2542-0.01764 0.0254z"/>
     <path d="m58.973 150.9 2.782 0.54822h0.0014l3.8418 0.51823 0.02434-0.0187-0.0187-0.0247-3.8407-0.51859-2.7817-0.54751-0.0254 0.0173z"/>
     <path d="m65.492 146.41 13.739-2.2599 0.01834-0.0247-0.02505-0.0176-13.739 2.2592-0.01799 0.025z"/>
     <path d="m64.853 146.53 0.47025-0.0723 0.01764-0.0247-0.02469-0.0183-0.4699 0.072-0.01834 0.025z"/>
     <path d="m66.145 147.84-0.4512 0.11818-0.01587 0.0261 0.02681 0.0155 0.4512-0.11748 0.01587-0.0265z"/>
     <path d="m66.205 151.8-0.4512 0.11783-0.01587 0.0265 0.02681 0.0159 0.4512-0.11818 0.01587-0.0268z"/>
     <path d="m64.651 132.61 2.1989 0.33549 0.06174-0.0455-0.04551-0.0621-2.1985-0.33584-0.06244 0.0459z"/>
    </g>
    <path d="m67.631 140.13-0.05927 5e-3c-0.14076 0-0.25929-0.0875-0.33831-0.21625-0.08361-0.13723-0.11183-0.26741-0.11183-0.42228l0.0018-0.0699c0.0071-0.14922 0.05468-0.33655 0.14358-0.49001 0.08925-0.15346 0.21625-0.26952 0.38206-0.29633l0.04516-0.0631-0.06315-0.0452c-0.20884 0.0346-0.35983 0.17956-0.45826 0.34995-0.09948 0.17216-0.15028 0.37218-0.15875 0.53975l-0.0018 0.0748c-3.53e-4 0.16757 0.03316 0.3242 0.12806 0.47907 0.09137 0.15135 0.24271 0.26882 0.43145 0.26882l0.07726-7e-3 0.04516-0.0632z" stroke-width=".053"/>
    <path id="LED" d="m67.368 139.88 0.1845 0.0353m0-1.0813c-0.17498 0.0289-0.29245 0.20144-0.34466 0.34925l-0.04304 0.26847c0.0046 0.21872 0.11783 0.508 0.3877 0.46355m0-1.0813c0.29351-0.0473 0.39829 0.27905 0.38629 0.514-0.01058 0.21449-0.133 0.52493-0.38629 0.56727" stroke-width=".053"/>
   </g>
   <path d="m67.547 139.96c0.14711-0.025 0.25259-0.127 0.32032-0.24412 0.06809-0.11818 0.10266-0.25471 0.1083-0.37007l0.0014-0.0504c3.53e-4 -0.1143-0.02223-0.22366-0.08855-0.33126-0.06315-0.10478-0.16969-0.18838-0.3048-0.18874l-0.05468 5e-3 -0.04515 0.0635 0.06315 0.0441 0.03669-3e-3c0.08714 0 0.16122 0.054 0.21167 0.13547 0.05433 0.0903 0.07232 0.17392 0.07232 0.27517l-0.0011 0.0451c-0.0049 0.0977-0.03563 0.22155-0.09384 0.32068-0.05821 0.10019-0.13935 0.17321-0.24377 0.19085l-0.04515 0.0628z" stroke-width="0"/>
   <path d="m67.529 138.78c-0.14711 0.0243-0.25259 0.12629-0.32032 0.24412-0.06773 0.11748-0.10231 0.25471-0.10795 0.36865l-0.0014 0.0526c-3.53e-4 0.11465 0.02293 0.22401 0.08819 0.32985 0.0635 0.10512 0.17039 0.18838 0.30551 0.18908l0.05362-5e-3 0.04551-0.0628-0.06279-0.0452-0.03634 3e-3c-0.08714 0-0.16122-0.054-0.21202-0.13582-0.05433-0.0896-0.07232-0.17215-0.07267-0.27375l0.0014-0.0462c0.0046-0.0977 0.03563-0.22119 0.09384-0.32032 0.05821-0.10019 0.13899-0.17356 0.24342-0.1912l0.04515-0.0624z" stroke-width="0"/>
   <path d="m67.649 138.64 0.05997-5e-3c0.14111 0 0.25929 0.0868 0.33831 0.21519v3.6e-4c0.08326 0.13758 0.11148 0.26775 0.11183 0.42262l-0.0018 0.0695c-0.0071 0.14993-0.05468 0.33796-0.14358 0.49071-0.08961 0.15382-0.2166 0.26988-0.38276 0.29669l-0.04516 0.0628 0.06315 0.0452c0.20884-0.0342 0.36054-0.17921 0.45932-0.35031 0.09948-0.17074 0.14993-0.37218 0.15804-0.53975l0.0021-0.0748c0-0.16792-0.03281-0.32455-0.12806-0.47942-0.09102-0.15134-0.24236-0.26776-0.43145-0.26776l-0.07796 7e-3 -0.04516 0.0624z" stroke="#000" stroke-width=".053"/>
  </g>
  <g>
   <path d="m84.503 141.19h-10.77v0.37183h-0.83079l-2.6278-0.31574-2.6314 0.31186v0.94297l2.6314 0.31186 2.6278-0.31468h0.83079v0.37042h10.77" fill="#231f20"/>
   <path d="m84.503 140.91h-10.77c-0.07232 0-0.14252 0.0289-0.19332 0.0801-0.0508 0.0508-0.08008 0.121-0.08008 0.19332v0.0981h-0.54081l-2.612-0.31361h-0.06456l0.04332 0.16289c-0.13758 0.0162-2.6427 0.28078-2.6427 0.42013l0.07993 0.91903c0 0.13794-0.0829-0.0162 0.05468 0l2.5204 0.3358 2.6043-0.31468 0.55739 0.27282v0.0981c0 0.0716 0.02928 0.14217 0.08008 0.19297s0.121 0.0804 0.19332 0.0804h10.77c0.15099 0 0.2734-0.12241 0.2734-0.2734 0-0.15134-0.12241-0.2734-0.2734-0.2734h-10.497v-0.0977c0-0.072-0.02893-0.14147-0.08008-0.19297-0.0508-0.0505-0.12136-0.0804-0.19297-0.0804h-0.83079l-0.03246 2e-3 -2.5954 0.3115-2.3583-0.2794v-0.45755l2.3583-0.27975 2.595 0.31256 0.03281 2e-3h0.83079c0.07161 0 0.14217-0.0293 0.19297-0.0801 0.05115-0.0508 0.08008-0.12136 0.08008-0.19332v-0.0984h10.497c0.15099 0 0.2734-0.12241 0.2734-0.27305 0-0.15134-0.12241-0.2734-0.2734-0.2734" fill="#fff"/>
   <path d="m84.656 141.19h-10.868l-0.13194 0.37183h-0.70626l-2.6518-0.31574-2.655 0.31186v0.94297l2.655 0.31186 2.6518-0.31468h0.65934l0.17886 0.37042h10.868" fill="#fff"/>
   <path d="m84.656 141.08h-10.868c-0.04621 0-0.08784 0.0293-0.10301 0.0727l-0.10619 0.29916h-0.6223l-2.6451-0.31468h-0.02575l-2.6554 0.3115c-0.05539 6e-3 -0.09666 0.0536-0.09666 0.10901v0.94262c0 0.0557 0.04127 0.10196 0.09666 0.10866l2.6554 0.3115h0.0254l2.6455-0.31362h0.58385l0.14922 0.30833c0.01799 0.0381 0.0568 0.0624 0.09842 0.0624h10.868c0.06033 0 0.10936-0.049 0.10936-0.10936 0-0.0607-0.04904-0.10936-0.10936-0.10936h-10.8l-0.14887-0.30868c-0.01834-0.0377-0.0568-0.0621-0.09842-0.0621h-0.65934l-0.01235 7.1e-4 -2.6395 0.31326-2.5456-0.29915v-0.7486l2.5456-0.29845 2.6395 0.31433 0.01235 3.5e-4h0.70626c0.04621 0 0.08749-0.0293 0.10301-0.0727l0.10619-0.29916h10.791c0.06033 0 0.10936-0.0487 0.10936-0.10936 0-0.0603-0.04904-0.10936-0.10936-0.10936" fill="#231f20"/>
   <path d="m73.873 142.8-0.01411 0.0109 0.01446-0.0106-3.53e-4 -3.5e-4 -0.01411 0.0109 0.01446-0.0106c-0.0078-0.0113-0.16581-0.23142-0.16616-0.77505 3.53e-4 -0.28469 0.04551-0.48154 0.0889-0.60466 0.02117-0.061 0.04233-0.10478 0.05715-0.13194l0.01729-0.0282 0.0032-6e-3 -0.01129-7e-3 0.01094 8e-3 3.53e-4 -7.1e-4 -0.01129-7e-3 0.01094 8e-3c0.03739-0.0473 0.02858-0.11606-0.01905-0.1524-0.04762-0.037-0.11642-0.0289-0.15311 0.0187-0.01376 0.0166-0.21272 0.28716-0.21237 0.90346-7.06e-4 0.62548 0.19826 0.89288 0.21272 0.91017 0.03704 0.0473 0.10619 0.0554 0.15346 0.018 0.04727-0.0374 0.05574-0.10619 0.01799-0.15346" fill="#231f20"/>
  </g>
 </g>
</svg>
