<svg version="1.1" viewBox="0 0 500 500" xmlns="http://www.w3.org/2000/svg">
 <g transform="matrix(14.719 0 0 14.719 -476.09 -1766.2)" fill="none">
  <path d="m64.142 121.07-0.723-0.655-28.901 3.521v28.954l0.724 0.655 28.9-3.522v-28.953"/>
  <g stroke="#231f20" stroke-linecap="round" stroke-linejoin="round" stroke-miterlimit="10">
   <path d="m64.142 121.07-0.723-0.655-28.901 3.521v28.954l0.724 0.655 28.9-3.522z" stroke-width=".5"/>
   <path d="m35.242 153.54v-28.954l28.9-3.521" stroke-width=".5"/>
   <g stroke-width=".25">
    <path d="m59.065 145.56-18.748 2.285v-18.783l18.748-2.285z"/>
    <path d="m56.401 136.67c-4e-3 -3.644-2.957-6.241-6.594-5.803-3.637 0.439-6.582 3.748-6.577 7.392 4e-3 3.643 2.957 6.242 6.593 5.803 3.637-0.438 6.583-3.748 6.578-7.392z"/>
    <path d="m43.782 136.69c0.168 0.124 0.387 0.185 0.625 0.156 0.532-0.065 0.963-0.549 0.963-1.082 0-0.532-0.431-0.911-0.963-0.847-0.146 0.018-0.285 0.068-0.409 0.141"/>
    <path d="m51.745 134.97c0-0.533-0.431-0.912-0.962-0.847s-0.962 0.549-0.962 1.082c0 0.532 0.431 0.911 0.962 0.846s0.962-0.548 0.962-1.081z"/>
   </g>
   <path d="m35.242 124.59-0.724-0.654" stroke-width=".5"/>
   <g stroke-width=".25">
    <path d="m53.19 131.39v2.52l1.819 1.571 0.888-0.108s-0.26-1.621-0.888-2.59v2.698"/>
    <path d="m53.19 135.72v2.473l1.814 1.69s0.893-1.406 0.893-2.639l-1.836-1.673z"/>
    <path d="m53.19 135.72 1.814 1.626 0.893-0.102"/>
    <path d="m55.004 137.35v2.538"/>
    <path d="m54.061 135.57s0.09-0.342 0.09-0.829"/>
    <path d="m53.19 138.19s-1.125 2.197-3.591 3.263"/>
    <path d="m44.078 141.39s0.805 0.474 2.278 0.646"/>
    <path d="m43.782 140.83v-2.13l-0.552-0.546"/>
    <path d="m43.249 138.76 0.533-0.055"/>
    <path d="m43.37 136.87 0.412-0.054v-1.28"/>
    <path d="m46.386 141.98s0.413 0.163 1.002 0.122 0.81-0.109 0.81-0.109l0.483-0.278s0.228 0.238 0.228 0.912l-0.626 0.088s-0.132 0.017-0.132 0.339l0.104 0.098s6e-3 -0.183 0.078-0.135 0.447 0.305 0.447 0.305 6e-3 0.017 0.167 7e-3c0.162-8e-3 0.709-0.087 0.709-0.087s0.142-0.081 0.142-0.441c0-0.359-0.019-0.505-0.091-0.869-0.072-0.363-0.229-0.619-0.405-0.796-0.046-0.046-0.137 6e-3 -0.137 6e-3s-0.117-0.09-0.292-0.077c-0.174 0.014-0.341 0.128-0.341 0.128l-0.399-0.134s-0.061-0.022-0.061-0.121v-0.618s-0.015-0.071-0.081-0.063c-0.066 9e-3 -0.74 0.09-0.74 0.09s-0.134 0.056-0.134 0.164v0.669l-0.755 0.438v0.374s0.025 0.069 0.097 0.083c0.071 0.014 0.591 0.161 0.692 0.186 0.102 0.026 0.212 0.085 0.263 0.136 0.051 0.05 1.68 1.505 1.68 1.505s0.287 0.036 0.652-0.035c0.364-0.072 0.303-0.072 0.303-0.072l-0.521-0.535"/>
    <path d="m46.362 141.67s0.689 0.331 1.026 0.135c0.338-0.194 1.023-0.558 1.023-0.558s0.133-0.066 0.213 0.074c0.082 0.141 0.394 0.43 0.394 1.518 0 0.169-0.021 0.466-0.187 0.494"/>
    <path d="m48.283 142.71s0.026 2e-3 0.088 0.037c0.061 0.036 0.372 0.264 0.408 0.285 0.037 0.021 0.131 0.051 0.131-0.41"/>
    <path d="m48.681 141.71s-0.109-0.259-0.211-0.2-1.07 0.587-1.07 0.587"/>
    <path d="m49.165 141.14s0.344 0.305 0.416 0.757 0.09 0.54 0.079 0.669c-0.011 0.128-0.104 0.311-0.242 0.311-0.137 0-0.282-0.091-0.282-0.298 0-0.208-0.088-0.942-0.467-1.353"/>
    <path d="m48.124 131.28s0.366 1.008 0.592 1.008c0.057 0 0.101-0.023 0.145 3e-3 0.044 0.025 0.11 0.055 0.247 0.048 0.138-6e-3 0.201-0.029 0.348-0.149 0 0 0.173 0.041 0.254-0.217 0.082-0.259 0.138-0.652 0.036-1.105"/>
    <path d="m48.238 131.24s0.277 0.833 0.481 0.762c0.206-0.071 0.229-0.571 0.162-0.964"/>
    <path d="m48.794 132.28s0.338-0.288 0.194-1.271"/>
    <path d="m48.861 132.29s0.119-0.042 0.185-0.218 0.074-0.327 0.091-0.441 0.136-0.333 0.287-0.325c0.15 8e-3 0.255 0.132 0.24 0.293s-0.048 0.383-0.208 0.59"/>
   </g>
  </g>
  <path d="m46.222 144.14s-0.04-0.163-0.288-0.283-0.703-0.359-1.262-0.862c-0.559-0.504-0.901-1.022-1.013-1.217-0.112-0.194-0.522-0.236-0.745-0.076-0.177 0.127-0.329 0.412-0.176 0.622 0.152 0.21 0.876 1.268 1.72 1.787"/>
  <g stroke="#231f20" stroke-linecap="round" stroke-linejoin="round" stroke-miterlimit="10" stroke-width=".25">
   <path d="m46.222 144.14s-0.04-0.163-0.288-0.283-0.703-0.359-1.262-0.862c-0.559-0.504-0.901-1.022-1.013-1.217-0.112-0.194-0.522-0.236-0.745-0.076-0.177 0.127-0.329 0.412-0.176 0.622 0.152 0.21 0.876 1.268 1.72 1.787"/>
   <path d="m43.757 142-0.405-0.392"/>
   <path d="m42.935 142.42-0.255-0.239"/>
  </g>
  <path d="m43.067 142.62c-0.132-0.186-0.074-0.464 0.127-0.62 0.202-0.157 0.473-0.133 0.604 0.053 0 0 0.344 0.578 0.951 1.112 0.608 0.535 1.401 0.939 1.401 0.939 0.214 0.086 0.297 0.339 0.186 0.567-0.11 0.228-0.374 0.344-0.588 0.259 0 0-1.035-0.539-1.6-1.081-0.566-0.541-1.081-1.229-1.081-1.229"/>
  <path d="m43.067 142.62c-0.132-0.186-0.074-0.464 0.127-0.62 0.202-0.157 0.473-0.133 0.604 0.053 0 0 0.344 0.578 0.951 1.112 0.608 0.535 1.401 0.939 1.401 0.939 0.214 0.086 0.297 0.339 0.186 0.567-0.11 0.228-0.374 0.344-0.588 0.259 0 0-1.035-0.539-1.6-1.081-0.566-0.541-1.081-1.229-1.081-1.229z" stroke="#231f20" stroke-linecap="round" stroke-linejoin="round" stroke-miterlimit="10" stroke-width=".25"/>
 </g>
</svg>
