<svg version="1.1" viewBox="0 0 512 512" xmlns="http://www.w3.org/2000/svg">
 <style type="text/css">
  @keyframes blink {
   0%,25% {
    fill: #FFFFFF;
   }
   50%, 75% {
    fill: #FF4500;
   }
  }
  
  #LED {
   animation: blink 1s infinite;
  }
 </style>
 <g transform="matrix(24.485 0 0 24.485 -1096.6 -1083.1)" fill="#fff">
  <g transform="matrix(.35278 0 0 -.35278 64.3 45.137)">
   <path d="m0 0-1.232 1.109-49.215-5.967v-49.069l1.231-1.11 49.216 5.968v49.069"/>
   <path d="m0 0-1.232 1.109-49.215-5.967v-49.069l1.231-1.11 49.216 5.968z" stroke="#231f20" stroke-linecap="round" stroke-linejoin="round" stroke-miterlimit="10" stroke-width=".5"/>
  </g>
  <g transform="matrix(.35278 0 0 -.35278 46.938 64.553)">
   <path d="m0 0v49.069l49.216 5.968" fill="#fff" stroke="#231f20" stroke-linecap="round" stroke-linejoin="round" stroke-miterlimit="10" stroke-width=".5"/>
  </g>
  <g transform="matrix(.35278 0 0 -.35278 61.25 59.777)">
   <path d="m0 0-31.927-3.871v31.832l31.927 3.871z" fill="#fff" stroke="#231f20" stroke-linecap="round" stroke-linejoin="round" stroke-miterlimit="10" stroke-width=".25"/>
  </g>
  <g transform="matrix(.35278 0 0 -.35278 60.711 54.227)">
   <path d="m0 0c0 7.948-6.462 13.607-14.434 12.641-7.971-0.967-14.434-8.194-14.434-16.141 0-7.949 6.463-13.608 14.434-12.642 7.972 0.967 14.434 8.194 14.434 16.142z" fill="#fff" stroke="#231f20" stroke-linecap="round" stroke-linejoin="round" stroke-miterlimit="10" stroke-width=".25"/>
  </g>
  <g transform="matrix(.35278 0 0 -.35278 59.649 54.463)">
   <path d="m0 0c-8e-3 6.175-5.035 10.578-11.228 9.835-6.194-0.744-11.209-6.352-11.202-12.527 8e-3 -6.175 5.036-10.579 11.229-9.835 6.194 0.743 11.209 6.352 11.201 12.527z" fill="#fff" stroke="#231f20" stroke-linecap="round" stroke-linejoin="round" stroke-miterlimit="10" stroke-width=".25"/>
  </g>
  <g transform="matrix(.35278 0 0 -.35278 52.068 54.478)">
   <path d="m0 0c0.287-0.21 0.659-0.312 1.066-0.263 0.905 0.11 1.639 0.93 1.639 1.832 0 0.903-0.734 1.545-1.639 1.435-0.25-0.03-0.486-0.114-0.698-0.239" fill="#fff" stroke="#231f20" stroke-linecap="round" stroke-linejoin="round" stroke-miterlimit="10" stroke-width=".25"/>
  </g>
  <g transform="matrix(.35278 0 0 -.35278 56.852 53.448)">
   <path d="m0 0c0 0.902-0.734 1.545-1.638 1.435-0.906-0.11-1.639-0.93-1.639-1.832 0-0.903 0.733-1.545 1.639-1.435 0.904 0.109 1.638 0.929 1.638 1.832z" fill="#fff" stroke="#231f20" stroke-linecap="round" stroke-linejoin="round" stroke-miterlimit="10" stroke-width=".25"/>
  </g>
  <g transform="matrix(.35278 0 0 -.35278 46.938 47.242)">
   <path d="m0 0-1.231 1.11" fill="#fff" stroke="#231f20" stroke-linecap="round" stroke-linejoin="round" stroke-miterlimit="10" stroke-width=".5"/>
  </g>
  <g transform="matrix(.35278 0 0 -.35278 57.72 51.309)">
   <path d="m0 0v-4.27l3.099-2.663 1.512 0.183s-0.443 2.749-1.512 4.389v-4.572" fill="#fff" stroke="#231f20" stroke-linecap="round" stroke-linejoin="round" stroke-miterlimit="10" stroke-width=".25"/>
  </g>
  <g transform="matrix(.35278 0 0 -.35278 57.72 53.897)" stroke="#231f20" stroke-linecap="round" stroke-linejoin="round" stroke-miterlimit="10" stroke-width=".25">
   <path d="m0 0v-4.191l3.09-2.865s1.521 2.383 1.521 4.473l-3.127 2.835z"/>
   <path d="m0 0 3.09-2.756 1.521 0.173"/>
  </g>
  <g transform="matrix(.35278 0 0 -.35278 58.81 54.869)">
   <path d="m0 0v-4.3" fill="#fff" stroke="#231f20" stroke-linecap="round" stroke-linejoin="round" stroke-miterlimit="10" stroke-width=".25"/>
  </g>
  <g transform="matrix(.35278 0 0 -.35278 58.244 53.808)">
   <path d="m0 0s0.154 0.58 0.154 1.405" fill="#fff" stroke="#231f20" stroke-linecap="round" stroke-linejoin="round" stroke-miterlimit="10" stroke-width=".25"/>
  </g>
  <g transform="matrix(.35278 0 0 -.35278 57.72 55.375)">
   <path d="m0 0s-1.916-3.724-6.115-5.53" fill="#fff" stroke="#231f20" stroke-linecap="round" stroke-linejoin="round" stroke-miterlimit="10" stroke-width=".25"/>
  </g>
  <g transform="matrix(.35278 0 0 -.35278 52.247 57.286)">
   <path d="m0 0s1.372-0.803 3.88-1.094" fill="#fff" stroke="#231f20" stroke-linecap="round" stroke-linejoin="round" stroke-miterlimit="10" stroke-width=".25"/>
  </g>
  <g transform="matrix(.35278 0 0 -.35278 52.068 56.952)">
   <path d="m0 0v3.609l-0.939 0.926" fill="#fff" stroke="#231f20" stroke-linecap="round" stroke-linejoin="round" stroke-miterlimit="10" stroke-width=".25"/>
  </g>
  <g transform="matrix(.35278 0 0 -.35278 51.748 55.711)">
   <path d="m0 0 0.907 0.092" fill="#fff" stroke="#231f20" stroke-linecap="round" stroke-linejoin="round" stroke-miterlimit="10" stroke-width=".25"/>
  </g>
  <g transform="matrix(.35278 0 0 -.35278 51.821 54.585)">
   <path d="m0 0 0.702 0.09v2.171" fill="#fff" stroke="#231f20" stroke-linecap="round" stroke-linejoin="round" stroke-miterlimit="10" stroke-width=".25"/>
  </g>
  <g transform="matrix(.35278 0 0 -.35278 53.633 57.639)">
   <path d="m0 0s0.704-0.275 1.707-0.207c1.004 0.069 1.379 0.184 1.379 0.184l0.822 0.473s0.389-0.404 0.389-1.546l-1.067-0.15s-0.225-0.028-0.225-0.574l0.179-0.166s0.01 0.311 0.132 0.228c0.124-0.082 0.762-0.515 0.762-0.515s0.01-0.029 0.284-0.014c0.276 0.015 1.207 0.149 1.207 0.149s0.243 0.138 0.243 0.746-0.033 0.856-0.156 1.473c-0.123 0.616-0.39 1.05-0.69 1.349-0.078 0.078-0.233-9e-3 -0.233-9e-3s-0.2 0.152-0.497 0.129-0.582-0.215-0.582-0.215l-0.677 0.226s-0.105 0.038-0.105 0.205v1.047s-0.025 0.121-0.138 0.106c-0.113-0.014-1.26-0.152-1.26-0.152s-0.228-0.095-0.228-0.278v-1.134l-1.286-0.741v-0.634s0.042-0.117 0.164-0.141c0.121-0.024 1.007-0.273 1.18-0.316s0.36-0.143 0.447-0.229c0.086-0.086 2.86-2.552 2.86-2.552s0.491-0.06 1.111 0.06c0.62 0.121 0.516 0.121 0.516 0.121l-0.886 0.908" fill="#fff" stroke="#231f20" stroke-linecap="round" stroke-linejoin="round" stroke-miterlimit="10" stroke-width=".25"/>
  </g>
  <g transform="matrix(.35278 0 0 -.35278 53.619 57.453)">
   <path d="m0 0s1.173-0.56 1.747-0.23c0.575 0.331 1.742 0.947 1.742 0.947s0.226 0.112 0.364-0.126c0.137-0.238 0.668-0.729 0.668-2.572 0-0.287-0.034-0.791-0.316-0.837" fill="#fff" stroke="#231f20" stroke-linecap="round" stroke-linejoin="round" stroke-miterlimit="10" stroke-width=".25"/>
  </g>
  <g transform="matrix(.35278 0 0 -.35278 54.772 58.079)">
   <path d="m0 0s0.045-3e-3 0.149-0.064c0.106-0.059 0.633-0.446 0.696-0.481 0.062-0.036 0.221-0.087 0.221 0.694" fill="#fff" stroke="#231f20" stroke-linecap="round" stroke-linejoin="round" stroke-miterlimit="10" stroke-width=".25"/>
  </g>
  <g transform="matrix(.35278 0 0 -.35278 55.012 57.481)">
   <path d="m0 0s-0.185 0.439-0.359 0.339c-0.173-0.1-1.822-0.994-1.822-0.994" fill="#fff" stroke="#231f20" stroke-linecap="round" stroke-linejoin="round" stroke-miterlimit="10" stroke-width=".25"/>
  </g>
  <g transform="matrix(.35278 0 0 -.35278 55.302 57.138)">
   <path d="m0 0s0.586-0.518 0.709-1.283 0.153-0.915 0.135-1.133c-0.02-0.218-0.178-0.528-0.412-0.528-0.235 0-0.481 0.153-0.481 0.505s-0.15 1.596-0.796 2.293" fill="#fff" stroke="#231f20" stroke-linecap="round" stroke-linejoin="round" stroke-miterlimit="10" stroke-width=".25"/>
  </g>
  <g transform="matrix(.35278 0 0 -.35278 54.678 51.245)">
   <path d="m0 0s0.623-1.707 1.007-1.707c0.097 0 0.173 0.038 0.248-6e-3 0.074-0.043 0.186-0.094 0.421-0.082 0.234 0.011 0.342 0.05 0.592 0.253 0 0 0.294-0.069 0.432 0.369 0.139 0.438 0.236 1.104 0.062 1.872" fill="#fff" stroke="#231f20" stroke-linecap="round" stroke-linejoin="round" stroke-miterlimit="10" stroke-width=".25"/>
  </g>
  <g transform="matrix(.35278 0 0 -.35278 54.745 51.22)">
   <path d="m0 0s0.471-1.411 0.82-1.291c0.349 0.121 0.39 0.969 0.276 1.632" fill="#fff" stroke="#231f20" stroke-linecap="round" stroke-linejoin="round" stroke-miterlimit="10" stroke-width=".25"/>
  </g>
  <g transform="matrix(.35278 0 0 -.35278 55.079 51.843)">
   <path d="m0 0s0.575 0.488 0.331 2.153" fill="#fff" stroke="#231f20" stroke-linecap="round" stroke-linejoin="round" stroke-miterlimit="10" stroke-width=".25"/>
  </g>
  <g transform="matrix(.35278 0 0 -.35278 55.12 51.85)">
   <path d="m0 0s0.201 0.072 0.315 0.371c0.112 0.298 0.126 0.553 0.155 0.746 0.029 0.192 0.23 0.565 0.487 0.551 0.257-0.015 0.436-0.224 0.409-0.497-0.025-0.273-0.081-0.65-0.353-1.001" fill="#fff" stroke="#231f20" stroke-linecap="round" stroke-linejoin="round" stroke-miterlimit="10" stroke-width=".25"/>
  </g>
  <g transform="matrix(.35278 0 0 -.35278 53.534 58.932)">
   <path d="m0 0s-0.066 0.276-0.49 0.479c-0.423 0.203-1.197 0.61-2.15 1.462-0.952 0.853-1.533 1.732-1.724 2.062-0.191 0.329-0.889 0.399-1.269 0.129-0.302-0.215-0.559-0.698-0.3-1.054s1.493-2.15 2.929-3.03"/>
   <path d="m0 0s-0.066 0.276-0.49 0.479c-0.423 0.203-1.197 0.61-2.15 1.462-0.952 0.853-1.533 1.732-1.724 2.062-0.191 0.329-0.889 0.399-1.269 0.129-0.302-0.215-0.559-0.698-0.3-1.054s1.493-2.15 2.929-3.03" stroke="#231f20" stroke-linecap="round" stroke-linejoin="round" stroke-miterlimit="10" stroke-width=".25"/>
  </g>
  <g transform="matrix(.35278 0 0 -.35278 52.054 57.654)">
   <path d="m0 0-0.69 0.664" fill="#fff" stroke="#231f20" stroke-linecap="round" stroke-linejoin="round" stroke-miterlimit="10" stroke-width=".25"/>
  </g>
  <g transform="matrix(.35278 0 0 -.35278 51.56 57.905)">
   <path d="m0 0-0.435 0.404" fill="#fff" stroke="#231f20" stroke-linecap="round" stroke-linejoin="round" stroke-miterlimit="10" stroke-width=".25"/>
  </g>
  <g transform="matrix(.35278 0 0 -.35278 51.639 58.022)">
   <path d="m0 0c-0.225 0.315-0.127 0.787 0.217 1.052s0.804 0.224 1.028-0.092c0 0 0.584-0.978 1.619-1.884 1.034-0.906 2.385-1.591 2.385-1.591 0.364-0.144 0.507-0.574 0.318-0.961-0.189-0.386-0.637-0.583-1.002-0.439 0 0-1.762 0.914-2.725 1.832s-1.84 2.083-1.84 2.083"/>
   <path d="m0 0c-0.225 0.315-0.127 0.787 0.217 1.052s0.804 0.224 1.028-0.092c0 0 0.584-0.978 1.619-1.884 1.034-0.906 2.385-1.591 2.385-1.591 0.364-0.144 0.507-0.574 0.318-0.961-0.189-0.386-0.637-0.583-1.002-0.439 0 0-1.762 0.914-2.725 1.832s-1.84 2.083-1.84 2.083z" stroke="#231f20" stroke-linecap="round" stroke-linejoin="round" stroke-miterlimit="10" stroke-width=".25"/>
  </g>
  <g transform="matrix(.35278 0 0 -.35278 51.959 57.874)">
   <path d="m0 0c-0.878 0.966-1.646 2.037-2.285 3.196" fill="#fff" stroke="#231f20" stroke-linecap="round" stroke-linejoin="round" stroke-miterlimit="10" stroke-width=".3"/>
  </g>
  <g transform="matrix(.35278 0 0 -.35278 52.156 57.797)" stroke-linecap="round" stroke-linejoin="round" stroke-miterlimit="10">
   <path d="m0 0c-1.143-0.025-2.331 0.076-3.537 0.313" stroke="#fff" stroke-width="1.5"/>
   <path d="m0 0c-1.143-0.025-2.331 0.076-3.537 0.313" stroke="#231f20" stroke-width=".3"/>
  </g>
  <g transform="matrix(.35278 0 0 -.35278 53.258 59.442)">
   <path d="m0 0c-0.132 0-0.258 0.026-0.375 0.077-0.095 0.051-1.795 1.012-2.74 1.977-0.935 0.954-1.759 2.126-1.794 2.175-0.29 0.44-0.149 1.061 0.311 1.392 0.188 0.134 0.403 0.205 0.621 0.205 0.316 0 0.592-0.145 0.758-0.397 0.017-0.027 0.557-0.994 1.517-1.895 0.969-0.908 2.266-1.627 2.279-1.634 0.206-0.088 0.376-0.272 0.458-0.507 0.089-0.254 0.063-0.546-0.073-0.8-0.191-0.36-0.569-0.593-0.962-0.593" fill="#fff"/>
  </g>
  <g transform="matrix(.35278 0 0 -.35278 51.855 57.299)">
   <path d="m0 0c-0.271 0-0.537-0.087-0.767-0.251-0.568-0.409-0.737-1.183-0.377-1.727 0.043-0.062 0.878-1.25 1.827-2.219 0.969-0.99 2.7-1.967 2.773-2.009 0.015-8e-3 0.03-0.015 0.046-0.022 0.148-0.065 0.309-0.098 0.475-0.098 0.483 0 0.948 0.285 1.182 0.726 0.168 0.315 0.2 0.68 0.089 1-0.105 0.301-0.324 0.537-0.615 0.664 4e-3 0-1.253 0.701-2.188 1.577-0.934 0.877-1.453 1.806-1.458 1.816-0.231 0.353-0.592 0.543-0.987 0.543zm0-0.5c0.22 0 0.426-0.098 0.55-0.285 0 0 0.551-0.998 1.554-1.939 1.002-0.94 2.329-1.671 2.329-1.671 0.359-0.156 0.487-0.591 0.285-0.97-0.153-0.287-0.45-0.461-0.741-0.461-0.095 0-0.188 0.018-0.276 0.056 0 0-1.73 0.973-2.661 1.923s-1.767 2.144-1.767 2.144c-0.214 0.324-0.101 0.791 0.252 1.045 0.148 0.106 0.316 0.158 0.475 0.158" fill="#fff"/>
  </g>
  <g transform="matrix(.35278 0 0 -.35278 51.599 57.899)">
   <path id="LED" d="m0 0c-0.214 0.324-0.101 0.791 0.252 1.044 0.354 0.253 0.811 0.197 1.025-0.126 0 0 0.551-0.998 1.554-1.939 1.003-0.94 2.329-1.671 2.329-1.671 0.359-0.156 0.487-0.591 0.285-0.971-0.202-0.379-0.657-0.56-1.016-0.404 0 0-1.731 0.973-2.661 1.923-0.931 0.95-1.768 2.144-1.768 2.144z" fill="#fff" stroke="#231f20" stroke-linecap="round" stroke-linejoin="round" stroke-miterlimit="10" stroke-width=".25"/>
  </g>
  <g transform="matrix(.35278 0 0 -.35278 46.222 64.975)">
   <path d="m0 0c8.502 4.432 12.732 10.904 13.052 11.343 4.048 5.549 1.942 10.616 0.53 11.842-0.738 0.619-2.602 0.418-3.692-0.359-1.422-1.038-1.361-2.957-1.87-3.27-1.206-1.748-1.882-2.416-4.561-3.955-0.505-0.709-0.97-1.273-1.416-1.731l-0.187 0.017c-2.244-3.193-9.314-2.73-12.152-7.067" fill="#fff"/>
  </g>
  <g transform="matrix(.35278 0 0 -.35278 42.497 62.425)">
   <path d="m0 0 0.783 0.684c0.267 0.225 0.509 0.462 0.797 0.678 0.566 0.433 1.117 0.889 1.72 1.267 0.296 0.198 0.586 0.403 0.903 0.571 0.316 0.17 0.614 0.368 0.943 0.514s0.644 0.321 0.983 0.442c0.336 0.127 0.67 0.265 1.012 0.364 0.682 0.226 1.363 0.383 2.007 0.578 0.319 0.097 0.633 0.202 0.925 0.332 0.307 0.11 0.571 0.29 0.854 0.44 0.254 0.199 0.538 0.347 0.771 0.583 0.24 0.222 0.494 0.425 0.708 0.684 0.217 0.253 0.459 0.478 0.655 0.756l0.616 0.802 0.067 0.087 1.371 0.838c0.446 0.244 0.797 0.567 1.194 0.851 0.204 0.136 0.379 0.301 0.536 0.48l0.498 0.515c0.163 0.176 0.298 0.39 0.448 0.584l0.441 0.594 0.15 0.143c-0.062-0.059 0.061 0.097 0.108 0.262l0.186 0.569c0.129 0.402 0.286 0.824 0.513 1.227 0.225 0.402 0.527 0.784 0.903 1.085 0.063 0.047 0.057 0.054 0.177 0.135l0.397 0.237c0.204 0.1 0.445 0.205 0.665 0.284 0.868 0.263 1.783 0.413 2.778 0.041 0.125-0.068 0.249-0.142 0.369-0.219l0.045-0.03c0.097-0.088 0.042-0.04 0.07-0.068l0.053-0.056 0.315-0.339 0.204-0.293c0.297-0.399 0.455-0.794 0.655-1.19 0.312-0.815 0.556-1.658 0.632-2.521 0.047-0.432 0.09-0.863 0.055-1.295-8e-3 -0.432-0.018-0.865-0.109-1.288-0.101-0.86-0.376-1.68-0.66-2.487l-0.536-1.166c-0.18-0.389-0.44-0.729-0.656-1.096-0.417-0.749-1.014-1.357-1.535-2.024-0.568-0.623-1.194-1.189-1.797-1.775l-1.98-1.551-2.104-1.357c-0.715-0.428-1.463-0.793-2.193-1.193l-0.551-0.293-0.223-0.12-0.26-0.165-0.518-0.332-0.368-0.363c-0.496-0.513-0.911-1.183-1.26-1.91-0.375-0.717-0.697-1.506-1.312-2.232-0.179-0.21-0.494-0.236-0.705-0.057-0.21 0.178-0.237 0.494-0.058 0.705l3e-3 2e-3 0.015 0.018c0.459 0.534 0.788 1.278 1.167 2.015 0.365 0.749 0.808 1.51 1.456 2.175l0.523 0.487 0.52 0.333 0.26 0.165 0.318 0.174 0.537 0.286c0.711 0.39 1.443 0.746 2.137 1.162l2.039 1.314 1.902 1.49c0.572 0.559 1.171 1.098 1.708 1.687 0.486 0.629 1.057 1.202 1.439 1.899 0.199 0.34 0.446 0.657 0.609 1.016l0.494 1.073c0.258 0.739 0.512 1.487 0.601 2.264 0.086 0.384 0.091 0.774 0.099 1.163 0.033 0.391-7e-3 0.778-0.049 1.164-0.066 0.776-0.289 1.526-0.56 2.243-0.171 0.336-0.327 0.707-0.525 0.968l-0.14 0.218-0.21 0.226-0.104 0.113-0.053 0.057c0.011-0.01-0.06 0.06 0.017-0.014l-0.022 0.01c-0.056 0.028-0.109 0.059-0.161 0.095-0.552 0.217-1.372 0.151-2.052-0.075-0.164-0.063-0.303-0.119-0.469-0.194l-0.397-0.236c0.035 0.021-0.047-0.042-0.064-0.058-0.266-0.213-0.485-0.484-0.661-0.798-0.177-0.313-0.31-0.665-0.433-1.044l-0.198-0.602c-0.101-0.211-0.123-0.468-0.524-0.773l0.15 0.142-0.468-0.632c-0.162-0.208-0.299-0.428-0.481-0.625l-0.562-0.584c-0.182-0.203-0.378-0.386-0.598-0.536-0.427-0.31-0.838-0.674-1.288-0.92l-1.324-0.809 0.157 0.142-0.651-0.847c-0.205-0.289-0.471-0.543-0.706-0.814-0.23-0.277-0.517-0.512-0.787-0.759-0.258-0.259-0.592-0.445-0.886-0.669-0.326-0.177-0.646-0.385-0.993-0.512-0.341-0.152-0.685-0.266-1.03-0.37-0.683-0.207-1.355-0.362-1.99-0.574-0.324-0.093-0.632-0.222-0.944-0.34-0.315-0.111-0.608-0.276-0.913-0.41-0.306-0.134-0.587-0.323-0.882-0.481-0.297-0.156-0.573-0.353-0.854-0.54-0.574-0.359-1.091-0.79-1.627-1.197-0.269-0.2-0.524-0.449-0.787-0.67l-0.784-0.684c-0.208-0.182-0.523-0.16-0.705 0.048-0.181 0.208-0.16 0.523 0.048 0.705l1e-3 1e-3" fill="#fff"/>
  </g>
  <g transform="matrix(.35278 0 0 -.35278 42.613 62.558)">
   <path d="m0 0c7.848 7.228 9.299 2.555 13.755 8.781 2.68 1.541 3.354 2.207 4.56 3.956 0.513 0.314 0.449 2.231 1.871 3.27 1.089 0.776 2.954 0.98 3.693 0.362 2.04-1.778 5.548-11.6-10.29-19.29-2.364-1.191-2.642-3.761-3.845-5.104" fill="#fff" stroke="#1b181a" stroke-linecap="round" stroke-miterlimit="2.613" stroke-width=".5"/>
  </g>
  <g transform="matrix(.35278 0 0 -.35278 49.122 58.052)">
   <path d="m0 0c-0.475-2.555 1.325-4.346 2.322-4.403 1.442-0.085 4.997 6.001 0.176 7.92" fill="#fff" stroke="#1b181a" stroke-linecap="round" stroke-miterlimit="2.613" stroke-width=".25"/>
  </g>
  <g transform="matrix(.35278 0 0 -.35278 47.783 59.553)">
   <path d="m0 0c0.068-1.738-0.245-1.462 1.437-2.74" fill="#fff" stroke="#1b181a" stroke-linecap="round" stroke-miterlimit="2.613" stroke-width=".25"/>
  </g>
  <g transform="matrix(.35278 0 0 -.35278 48.369 59.181)">
   <path d="m0 0c0.763-1.558 2.016-1.464 1.403-3.65" fill="#fff" stroke="#1b181a" stroke-linecap="round" stroke-miterlimit="2.613" stroke-width=".25"/>
  </g>
 </g>
</svg>
