<svg version="1.1" viewBox="0 0 512 512" xmlns="http://www.w3.org/2000/svg">
 <g transform="matrix(1 0 0 .99798 -.0025304 .96719)" fill="none" stroke="#231f20" stroke-miterlimit="4.5065">
  <g stroke-width="2.9144">
   <g stroke-linecap="round" stroke-linejoin="round">
    <path d="m477.86 32.41-29.359-26.655c-3.1246-2.7975-7.4347-4.5437-12.124-4.0999-105.5 14.753-105.57 14.717-199.31 26.503-64.336 8.1997-114.31 12.984-186.67 22.527-9.4846 1.2381-16.966 10.08-16.966 19.705v399.22c0 4.7715 1.8514 8.6611 4.8708 11.371l26.322 22.724c-2.9785-2.6865-4.8474-6.5469-4.8474-11.295v-399.24c0-9.6481 7.3587-15.027 16.873-16.207 70.504-8.7721 126.74-15.64 191.08-23.793 64.313-8.1997 127.62-16.616 193.18-25.09 4.6605-0.60155 14.519 1.6353 17.638 4.3919z" stroke-miterlimit="4.5065" stroke-width="5.1112"/>
    <path d="m136.1 132 284.07-36.046c3.51-0.4497 6.7163 0.64828 9.0057 2.8501 2.1142 2.0441 3.4633 5.0168 3.4633 8.445v293.8c0 7.0434-5.6183 13.614-12.469 14.478l-284.07 36.058c-3.4341 0.4497-6.5294-0.62491-8.7896-2.669-2.2485-2.0266-3.6735-5.0927-3.6735-8.6436v-293.77c0-7.1368 5.6067-13.614 12.463-14.507z"/>
    <path d="m415.39 102.35-274.47 34.919c-6.6462 0.82348-12.066 7.1193-12.066 14.011v285.56s0 5.7468 3.6385 8.5034"/>
    <path d="m132.51 445.34c2.196 1.8922 5.1453 2.9026 8.4217 2.4354l276.09-34.995c6.6696-0.84684 12.095-7.1894 12.095-14.081v-285.5c0-3.4808-1.3316-6.4126-3.5275-8.4217 0 0-2.7741-3.2005-9.5372-2.5288"/>
    <path d="m208.22 375.41c-20.149-18.239-32.694-45.391-32.694-77.062 0-63.297 49.893-121.19 111.02-128.96 30.632-3.9071 59.401 5.4198 79.504 23.717l33.202 30.142c12.837 13.076 25.394 39.293 25.394 70.901 0 63.198-49.864 121.14-111.02 128.91-30.515 3.8896-55.541-4.0415-72.992-18.274z" stroke-miterlimit="4.5065" stroke-width="5"/>
    <path d="m313.62 193.37c30.638-3.8604 58.455 5.5132 78.54 23.869 20.061 18.227 32.478 45.303 32.478 76.911 0 63.198-49.864 121.14-111.02 128.91-30.515 3.8896-58.222-5.4548-78.301-23.583-20.178-18.286-32.717-29.692-32.717-77.168 0-47.458 49.864-121.19 111.02-128.94z" stroke-miterlimit="4.5065" stroke-width="5"/>
   </g>
   <path d="m37.459 59.089 26.34 23.84"/>
   <path d="m127.14 136.83 5.2212 4.7306"/>
  </g>
  <path d="m76.193 509.07 385.94-49.006c9.3853 0 16.989-8.8188 16.989-19.693v-399.24" stroke-miterlimit="4.5065" stroke-width="5.9583"/>
  <path d="m76.193 509.07c-5.7235 0.25697-9.6949-1.8864-12.136-4.0882l-26.31-22.736c-3.0837-3.4808-4.4269-4.6956-4.8708-11.371v-399.22c0-10.886 8.3166-18.303 16.96-19.693l385.98-49.041c4.7832-0.070082 8.3925 0.58986 12.107 4.1116l29.371 26.655c1.2148 1.5652 1.4192 1.9098 1.828 7.131" stroke-miterlimit="4.5065" stroke-width="5.9583"/>
 </g>
</svg>
