<?xml version="1.0" encoding="UTF-8" standalone="no"?>
<!-- Generator: Adobe Illustrator 22.1.0, SVG Export Plug-In . SVG Version: 6.00 Build 0)  -->

<svg
   xmlns:dc="http://purl.org/dc/elements/1.1/"
   xmlns:cc="http://creativecommons.org/ns#"
   xmlns:rdf="http://www.w3.org/1999/02/22-rdf-syntax-ns#"
   xmlns:svg="http://www.w3.org/2000/svg"
   xmlns="http://www.w3.org/2000/svg"
   xmlns:sodipodi="http://sodipodi.sourceforge.net/DTD/sodipodi-0.dtd"
   xmlns:inkscape="http://www.inkscape.org/namespaces/inkscape"
   version="1.1"
   id="Layer_1"
   x="0px"
   y="0px"
   viewBox="0 0 667 666"
   style="enable-background:new 0 0 667 666;"
   xml:space="preserve"
   sodipodi:docname="icon.svg"
   inkscape:version="0.92.4 (5da689c313, 2019-01-14)"><metadata
   id="metadata319"><rdf:RDF><cc:Work
       rdf:about=""><dc:format>image/svg+xml</dc:format><dc:type
         rdf:resource="http://purl.org/dc/dcmitype/StillImage" /></cc:Work></rdf:RDF></metadata><defs
   id="defs317"><marker
     inkscape:stockid="Arrow1Send"
     orient="auto"
     refY="0"
     refX="0"
     id="Arrow1Send"
     style="overflow:visible"
     inkscape:isstock="true"><path
       inkscape:connector-curvature="0"
       id="path4714"
       d="M 0,0 5,-5 -12.5,0 5,5 Z"
       style="fill:#000000;fill-opacity:1;fill-rule:evenodd;stroke:#000000;stroke-width:1.00000003pt;stroke-opacity:1"
       transform="matrix(-0.2,0,0,-0.2,-1.2,0)" /></marker><clipPath
     id="clipPath69-0"><path
       inkscape:connector-curvature="0"
       id="path71-2"
       d="m 409.441,126.252 v -43.63 h 147.796 v 43.63" /></clipPath><clipPath
     id="clipPath101-1"><path
       inkscape:connector-curvature="0"
       id="path103-6"
       d="m 409.441,126.252 v -43.63 h 147.796 v 43.63" /></clipPath></defs><sodipodi:namedview
   pagecolor="#ffffff"
   bordercolor="#666666"
   borderopacity="1"
   objecttolerance="10"
   gridtolerance="10"
   guidetolerance="10"
   inkscape:pageopacity="0"
   inkscape:pageshadow="2"
   inkscape:window-width="1680"
   inkscape:window-height="987"
   id="namedview315"
   showgrid="false"
   inkscape:zoom="1.0022655"
   inkscape:cx="534.62256"
   inkscape:cy="319.13096"
   inkscape:window-x="1672"
   inkscape:window-y="-8"
   inkscape:window-maximized="1"
   inkscape:current-layer="Layer_1" />
<style
   type="text/css"
   id="style2">
	.st0{fill:none;stroke:#000000;stroke-width:2;stroke-linecap:round;stroke-linejoin:round;stroke-miterlimit:10;}
</style>

<path
   inkscape:connector-curvature="0"
   id="path935"
   d="m 148.68441,74.836312 -38.82848,4.853566 -33.004191,38.828452 -0.970723,37.85776 16.502095,0.97072 0.97072,22.32636 -25.238501,1.94142 0.970723,33.00422 22.326358,0.97069 v 21.35567 H 74.910318 l -0.970723,240.73646 -7.765686,2.91217 0.970723,15.53137 h 22.326359 v 35.91631 l -23.297082,3.88289 -0.970723,17.47277 8.736409,0.97072 -0.970699,38.82846 35.916334,28.15065 35.91631,-3.88282 0.97072,-14.5607 19.41424,-3.88287 -0.97072,22.32639 33.97491,-3.88282 1.94142,-20.38496 17.47282,-2.91212 1.94142,15.53137 218.41011,-27.17995 2.91212,5.82429 19.41424,-1.94145 -1.94142,-23.29706 33.00419,-1.94139 -0.9707,20.38493 19.41426,-0.97074 v -5.82427 l 35.91631,-3.88284 33.97489,-38.82848 v -36.88703 l -13.58995,1.94142 0.9707,-20.38494 20.38494,-2.91214 -0.9707,-32.03345 -18.44349,1.9414 -0.97075,-23.29708 14.56067,-0.9707 9.70713,-230.05866 4.85357,-2.91214 v -15.53138 l -18.44352,0.9707 v -37.85775 l 22.32634,-2.91215 -0.9707,-12.61925 -6.79499,-4.85354 2.91217,-36.887057 -34.94563,-34.945612 -33.97492,3.882844 1.94142,16.502095 h -20.38493 l -2.91212,-23.297083 -33.00419,1.941422 v 24.267805 h -17.47282 l -1.94145,-14.560673 -226.17579,17.472818 -5.82429,-6.794988 -12.61925,0.970699 -1.94142,25.238504 -35.91634,1.941421 -3.88284,-22.326359 -14.56067,0.970723 z"
   style="fill:none;stroke:#000000;stroke-width:2.42984462px;stroke-linecap:butt;stroke-linejoin:miter;stroke-opacity:1" /><path
   inkscape:connector-curvature="0"
   id="path937"
   d="m 114.70949,98.133392 c -10.54817,0.58669 -20.842979,13.713268 -20.384929,24.267808 0.33726,7.77183 8.726879,16.2542 16.502089,16.50209 10.76995,0.34336 24.05575,-10.58231 24.26778,-21.35566 0.18467,-9.38173 -11.01587,-19.935338 -20.38494,-19.414238 z"
   style="fill:none;stroke:#000000;stroke-width:2.42984462px;stroke-linecap:butt;stroke-linejoin:miter;stroke-opacity:1" /><path
   inkscape:connector-curvature="0"
   id="path939"
   d="m 100.82527,577.25938 c 4.69373,-4.86243 15.33115,-5.66555 20.24869,-1.0296 5.11949,4.82633 4.87359,15.87279 0.17155,21.10673 -4.64805,5.17391 -15.64487,6.76804 -20.76351,2.05919 -5.431069,-4.99629 -4.782099,-16.82682 0.34319,-22.13632 z"
   style="fill:none;stroke:#000000;stroke-width:2.42984462px;stroke-linecap:butt;stroke-linejoin:miter;stroke-opacity:1" /><path
   inkscape:connector-curvature="0"
   id="path941"
   d="m 560.99417,65.614566 c -7.43912,-0.0746 -15.18877,8.820603 -15.28871,16.259402 -0.0799,5.958125 5.946,12.947164 11.8912,13.347284 7.44111,0.50081 16.51206,-7.117892 16.98748,-14.560651 0.43079,-6.744544 -6.83202,-14.978316 -13.58997,-15.046035 z"
   style="fill:none;stroke:#000000;stroke-width:2.42984462px;stroke-linecap:butt;stroke-linejoin:miter;stroke-opacity:1" /><path
   inkscape:connector-curvature="0"
   id="path943"
   d="m 373.83957,88.201696 c 3.355,-0.970237 5.67706,-4.20278 8.92316,-5.491181 3.14889,-1.249815 6.56525,-2.107526 9.95274,-2.059196 4.46701,0.06366 9.55644,0.293792 13.04154,3.088794 3.27297,2.624888 4.60749,7.224146 5.49118,11.325559 0.8919,4.13933 0.56416,8.562348 -0.34319,12.698308 -0.74677,3.40402 -2.1024,6.7669 -4.11839,9.60958 -1.0773,1.51904 -2.26316,3.61284 -4.11835,3.77517 -27.45588,2.40239 0,0 -27.45588,2.40239 -3.14383,0.27508 -4.08437,-5.02642 -6.864,-6.52078 -2.68864,-1.44541 -5.88304,-1.7838 -8.92314,-2.05917 -7.4135,-0.67156 -14.88688,0.44665 -22.30787,1.0296 -7.22927,0.56785 -14.4817,1.13447 -21.62153,2.40239 -6.61115,1.17402 -12.87767,5.43806 -19.56232,4.80477 -3.00676,-0.28487 -6.34342,-1.42209 -8.23676,-3.7752 -1.68796,-2.09786 -1.88947,-5.2065 -1.71598,-7.89354 0.21918,-3.39428 1.35277,-6.91775 3.43199,-9.60955 1.86209,-2.410698 4.76607,-3.912488 7.55035,-5.147988 6.23907,-2.768521 13.19275,-3.568134 19.90551,-4.804779 8.84733,-1.629867 17.79494,-2.807831 26.76947,-3.431986 10.04355,-0.698507 20.52996,2.453706 30.20147,-0.343191 z"
   style="fill:none;stroke:#000000;stroke-width:2.42984462px;stroke-linecap:butt;stroke-linejoin:miter;stroke-opacity:1" /><path
   inkscape:connector-curvature="0"
   id="path945"
   d="m 368.24431,115.70012 28.74589,-1.10555 2.92332,1.54776 1.94886,4.20111 0.24364,0.88443 -28.50225,2.43221 z"
   style="fill:none;stroke:#000000;stroke-width:2.32380319px;stroke-linecap:butt;stroke-linejoin:miter;stroke-opacity:1" /><path
   inkscape:connector-curvature="0"
   id="path947"
   d="m 149.04463,144.82942 12.35515,-3.43199 384.38217,-32.26063 22.5607,15.98816 -8.14635,0.48536 -376.14543,34.31983 -7.55035,2.05919 -2.74561,3.43199 -4.11837,418.70202 0.68639,2.0592 384.38219,-43.9294 5.49118,-4.11837 2.0592,-6.86395 15.48345,-397.2211 -9.3963,-8.92477"
   style="fill:none;stroke:#000000;stroke-width:2.42984462px;stroke-linecap:butt;stroke-linejoin:miter;stroke-opacity:1" /><path
   inkscape:connector-curvature="0"
   id="path951"
   d="m 149.04463,144.82942 -3.43198,7.55037 -4.11837,411.1517 v 4.80477 l 3.43196,4.80478 23.8523,12.6125 0.858,-1.63019"
   style="fill:none;stroke:#000000;stroke-width:2.42984462px;stroke-linecap:butt;stroke-linejoin:miter;stroke-opacity:1" /><path
   inkscape:connector-curvature="0"
   id="path953"
   d="m 269.29531,574.7528 c 0,0.97073 5.58159,4.36821 5.58159,4.36821 l 9.9498,0.48536 6.55232,-3.64018 c 0,0 7.28033,-3.88281 6.30961,-3.88281 -0.97073,0 -28.39332,2.66942 -28.39332,2.66942 z"
   style="fill:none;stroke:#000000;stroke-width:2.42984462px;stroke-linecap:butt;stroke-linejoin:miter;stroke-opacity:1" /><path
   inkscape:connector-curvature="0"
   id="path955"
   d="m 133.9439,322.26299 c 1.29717,-1.88474 3.84224,-2.53224 5.49118,-4.1184 1.69968,-1.63497 4.48202,-3.13284 4.46159,-5.49115 -0.0979,-11.29424 -0.73061,-10.81745 -0.68641,-21.62151 0.0194,-4.94036 -5.52729,-8.78622 -9.95277,-10.98232 -2.36581,-1.17405 -5.25274,-0.72652 -7.89354,-0.68643 -3.91596,0.0595 -8.1264,-0.29753 -11.66875,1.37279 -3.43961,1.6219 -6.04683,4.78461 -8.23676,7.89357 -2.74251,3.89344 -4.92048,8.36768 -5.834369,13.04153 -0.63703,3.25787 -0.55826,6.75796 0.34319,9.95277 1.071199,3.79649 5.062849,6.42742 5.834379,10.29595 1.10455,5.53837 -1.65901,11.18349 -2.0592,16.81674 -0.81079,11.41347 -1.19629,22.88894 -0.68638,34.31981 0.37436,8.3928 0.37222,16.99455 2.74558,25.05349 1.30076,4.41695 2.48964,9.59825 6.17756,12.35515 2.60615,1.94823 6.42427,2.38045 9.60955,1.71598 3.63405,-0.75803 7.25073,-3.06019 9.26636,-6.17756 1.88918,-2.92177 1.57643,-6.81943 1.716,-10.29596 0.2165,-5.39187 -1.24362,-10.73563 -1.37279,-16.13032 -0.14797,-6.18002 0.64384,-12.35105 0.68639,-18.53272 0.034,-4.92036 -0.3362,-9.83701 -0.3432,-14.75752 -0.007,-5.60674 -0.49107,-11.27239 0.3432,-16.81671 0.37179,-2.47071 0.64266,-5.14901 2.05919,-7.20718 z"
   style="fill:none;stroke:#000000;stroke-width:2.42984462px;stroke-linecap:butt;stroke-linejoin:miter;stroke-opacity:1" /><path
   inkscape:connector-curvature="0"
   id="path957"
   d="m 73.884194,258.08489 h -5.14799 l -1.029598,1.37281 6.52078,5.83435 -6.52078,-5.49116 h -8.579951 l -4.118392,5.8344 6.177588,4.80477 6.520755,5.49116 6.177588,14.07111 v -25.05347 z"
   style="fill:none;stroke:#000000;stroke-width:2.42984462px;stroke-linecap:butt;stroke-linejoin:miter;stroke-opacity:1" /><path
   inkscape:connector-curvature="0"
   id="path959"
   d="m 73.884194,324.32216 -5.491181,6.52078 -11.325554,6.86397 3.088794,7.20716 9.266358,1.71601 c 0,0 6.863971,3.08877 5.491181,3.08877 -1.372813,0 -0.343215,-20.59192 -0.343215,-20.59192 z"
   style="fill:none;stroke:#000000;stroke-width:2.42984462px;stroke-linecap:butt;stroke-linejoin:miter;stroke-opacity:1" /><path
   inkscape:connector-curvature="0"
   id="path961"
   d="m 133.9439,322.26299 -3.77518,-1.0296 -7.55037,-20.59191 -17.50312,-11.32553 -3.77518,7.20716 10.63915,7.55035 10.98236,-2.05917 -10.29595,2.40239 6.52075,18.8759 12.69835,4.11837 -1.0296,24.36709 h -14.41433 l -4.46158,13.04154 -8.57995,-7.89352 9.95276,8.57992 12.01194,-3.08877 5.49116,-10.63917"
   style="fill:none;stroke:#000000;stroke-width:2.42984462px;stroke-linecap:butt;stroke-linejoin:miter;stroke-opacity:1" /><path
   style="fill:none;stroke:#000000;stroke-width:1.5;stroke-linecap:butt;stroke-linejoin:miter;stroke-opacity:1;stroke-miterlimit:4;stroke-dasharray:none"
   d="m 473.44,207.29654 c -30.83437,-15.66598 -29.45928,-14.38949 -43.59578,-19.70017 -16.24538,-6.10291 -28.93716,-7.15965 -43.71897,-7.49558 -13.40326,-0.3046 -27.16895,0.81542 -39.90959,4.9887 -18.81797,6.16395 -36.38656,16.60614 -51.88246,28.93445 -14.74097,11.72769 -27.54556,26.17839 -37.91411,41.90506 -12.28706,18.63661 -21.55205,39.47214 -27.93671,60.86212 -5.09869,17.08169 -8.18138,35.05491 -7.98192,52.8802 0.17375,15.52734 3.35909,31.07179 7.98192,45.89603 4.90705,15.73565 11.04445,31.55446 20.72082,44.89828 8.32116,11.47497 19.86986,20.36635 31.16164,28.93445 9.6331,7.30951 19.96781,13.8524 30.92993,18.95705 8.58068,3.9957 17.84038,6.37022 26.93897,8.97966 9.53733,2.73527 19.10928,5.60272 28.93445,6.98418 15.49301,2.17838 31.4006,4.17267 46.89377,1.99548 17.70511,-2.48802 35.23696,-8.31237 50.88472,-16.96158 16.95739,-9.3731 31.85942,-22.58471 44.89828,-36.91636 10.80112,-11.87203 20.03589,-25.4197 26.93897,-39.90959 6.87784,-14.43691 11.44291,-30.10517 13.96836,-45.89602 2.41661,-15.11027 1.5754,-30.60465 0.99774,-45.89603 -0.51719,-13.69075 -0.71345,-27.60461 -3.99096,-40.90732 -2.74804,-11.15371 -7.63608,-21.75419 -12.97062,-31.92767 C 529.43383,257.6901 523.45959,247.614 515.8314,238.96743 508.54358,230.70667 499.77446,223.74055 490.66139,217.55148 481.92942,211.62123 473.44,207.29654 473.44,207.29654 Z"
   id="path858"
   inkscape:connector-curvature="0"
   sodipodi:nodetypes="ssaaaaaaaaaaaaaaaaaaaaass" /><path
   style="fill:none;stroke:#000000;stroke-width:1.5;stroke-linecap:butt;stroke-linejoin:miter;stroke-opacity:1;stroke-miterlimit:4;stroke-dasharray:none"
   d="m 483.28167,213.52507 c 0,0 -17.88403,-10.32562 -47.26944,-14.9661 -10.51228,-1.66008 -21.3801,-1.41873 -31.92767,0 -12.47418,1.67788 -24.90364,4.89298 -36.4175,9.9774 -14.22204,6.28033 -27.31783,15.17254 -39.41071,24.94349 -9.6038,7.75979 -18.17457,16.84185 -25.94123,26.4401 -8.90654,11.00695 -17.22369,22.70161 -23.44689,35.41976 -6.68348,13.65883 -11.14775,28.41209 -14.58307,43.22529 -2.41379,10.40831 -3.92874,21.09969 -4.16734,31.78156 -0.28568,12.7893 0.9934,25.65111 3.28545,38.2366 2.19773,12.06758 5.25661,24.09851 9.9774,35.41976 4.41363,10.58463 10.06511,20.76958 16.96157,29.93219 6.71797,8.92546 14.63275,17.08236 23.44688,23.94575 11.99422,9.33967 25.19611,17.55956 39.41072,22.94801 0.79286,0.30056 2.49435,0.49887 2.49435,0.49887"
   id="path860"
   inkscape:connector-curvature="0"
   sodipodi:nodetypes="csaaaaaaaaaaaac" /><path
   style="fill:none;stroke:#000000;stroke-width:1.5;stroke-linecap:butt;stroke-linejoin:miter;stroke-opacity:1;stroke-miterlimit:4;stroke-dasharray:none"
   d="m 491.45161,217.93879 c -10.64256,-5.65386 -14.19252,-6.78172 -21.6978,-9.0246 -11.1694,-3.33786 -22.76679,-5.31661 -34.36517,-6.48898 -8.35599,-0.84463 -15.64703,-1.08039 -25.19292,-0.37415 -11.23127,0.83093 -18.4499,3.47949 -27.56256,6.48531 -6.65707,2.19584 -13.18994,4.83936 -19.45593,7.98192 -8.66732,4.34689 -17.18308,9.15283 -24.94349,14.96609 -9.41841,7.05525 -18.03078,15.23325 -25.94123,23.94575 -8.1378,8.9629 -15.74883,18.53736 -21.95027,28.93445 -6.17564,10.35385 -11.08562,21.51127 -14.9661,32.92541 -4.01189,11.80066 -6.65376,24.08815 -8.48078,36.4175 -1.46863,9.91079 -2.14779,19.97537 -1.96522,29.99271 0.20677,11.34449 1.36508,22.71167 3.46183,33.86263 1.49852,7.96942 3.64709,15.85071 6.4853,23.44688 2.83761,7.59458 6.42413,14.92818 10.47627,21.95027 5.14094,8.90891 11.6403,16.96157 17.46045,25.44236"
   id="path862"
   inkscape:connector-curvature="0"
   sodipodi:nodetypes="caassaaaaaaaaaac" /></svg>