<svg version="1.1" viewBox="0 0 512 512" xmlns="http://www.w3.org/2000/svg">
 <style type="text/css">
  @keyframes blink {
   0%,25% {
    fill: #FF450000;
   }
   50%, 75% {
    fill: #FF4500FF;
   }
  }
  
  #LED {
   animation: blink 1s infinite;
  }
 </style>
 <g fill="none" stroke="#231f20">
  <g stroke-linecap="round" stroke-linejoin="round">
   <g stroke-miterlimit="10">
    <path d="m65.087 499.5-21.131-20.265c-2.0224-1.7334-3.1883-4.2717-3.1883-6.9338v-401.08c0-6.6655 4.9733-12.299 11.577-13.135l395.92-48.98c3.3121-0.40241 6.6139 0.81513 8.8529 3.2708l19.047 20.874s3.3328 2.4867 3.3328 13.455v394.1c0 6.8409-5.0972 12.629-11.897 13.486l-391.07 49.248c-4.3027 0.54686-8.6053-1.2588-11.443-4.0447z" stroke-width="5.159"/>
    <path d="m45.578 64.874 16.241 18.181" stroke-width="1.4445"/>
    <path d="m479.5 46.74c0-8.1719-7.1711-14.497-15.291-13.475l-391.07 49.259c-6.779 0.8564-11.876 6.6449-11.876 13.486v394.09c0 3.8383 1.3001 6.9854 3.828 9.4308" stroke-width="2.5795"/>
   </g>
   <path d="m136.71 134.19 277.95-35.185c3.4359-0.44368 6.5726 0.6294 8.8014 2.7756 2.0843 2.0017 3.3947 4.9011 3.3947 8.2545v286.81c0 6.8822-5.4892 13.3-12.196 14.136l-277.95 35.205c-3.3637 0.43336-6.3869-0.59845-8.6053-2.6105-2.1978-1.9708-3.601-4.963-3.601-8.4299v-286.79c0-6.975 5.4996-13.3 12.206-14.167z" stroke-miterlimit="2.613" stroke-width="2.5795"/>
  </g>
  <path d="m133.18 440.13c2.1462 1.8573 5.0456 2.8375 8.2442 2.3938l270.14-34.184c6.5314-0.82545 11.835-6.9957 11.835-13.733v-278.72c0-3.405-1.3104-6.2528-3.4566-8.2235-2.1668-1.9295-5.6234-2.693-8.8736-2.2597l-269.64 33.978c-6.4798 0.80481-11.804 6.9544-11.804 13.682v278.77c0 3.2605 1.2382 6.067 3.2502 7.9862 0.1135 0.10318 0.20636 0.19604 0.30954 0.30954z" stroke-width="2.5795"/>
  <g stroke-linecap="round" stroke-width="2.5795">
   <path d="m242.39 179.53c13.207-6.8925 28.117-11.35 43.831-12.31 63.477-3.8796 107.39 46.865 107.19 108.7-0.21668 63.941-51.859 118.52-112.05 121.49-64.406 3.1573-112.75-58.493-104.77-121.49 3.9312-31.088 19.77-60.763 43.697-81.317"/>
   <path id="LED" d="m229.99 212.28c8.6053 0.15477 13.754-3.7558 14.6-11.236 0.74291-6.5004-3.1986-11.856-9.3585-12.031-5.3551-0.14445-10.566 3.601-12.32 10.452" stroke-linejoin="round"/>
   <path d="m229.05 210.82c2.2081 4.2614 6.5726 7.0473 11.783 6.748 7.914-0.43336 14.806-7.6044 15.395-16.014 0.24763-3.7868-0.88736-7.2949-2.8581-9.8332" stroke-linejoin="round"/>
   <path d="m239.02 280.43c3.374-26.714 25.021-51.529 53.737-53.283 31.119-1.9089 52.643 22.968 52.54 53.283-0.10318 31.346-25.414 58.091-54.923 59.556-31.573 1.5271-55.264-28.674-51.353-59.556z"/>
   <path d="m321.97 273.7-24.753-11.659c-14.373-6.521-29.138 6.325-29.138 21.183v0.0103c-0.20637 8.1307 4.6328 15.56 12.144 18.645l22.05 10.174"/>
   <path d="m291.17 291.55c1.3104-9.957 9.7403-19.181 20.915-19.842 12.113-0.69132 20.481 8.5537 20.45 19.842-0.0413 11.67-9.8951 21.647-21.379 22.184-12.279 0.5675-21.513-10.679-19.986-22.184z"/>
   <path d="m220.28 194.44 8.7601 16.127"/>
   <path d="m242.39 179.53 10.978 12.103"/>
  </g>
 </g>
 <path d="m362.6 519.39c-66.428-82.504-74.951-128.58-76.241-134.44-16.406-74.239 27.333-116.49 47.051-122.74 10.205-3.0438 28.179 7.2124 35.773 19.924 9.7919 16.808 0.681 36.051 4.4574 41.468 4.4781 23.082 8.3474 32.853 28.633 60.299 1.9811 9.4411 4.1995 17.221 6.6758 23.835l1.9708 0.65005c8.5744 42.346 82.173 68.781 91.707 125.37" fill="#fff" stroke-width="10.318"/>
 <g fill="none" stroke="#231f20" stroke-linecap="round" stroke-miterlimit="2.613">
  <path d="m502.61 533.72c-47.453-108.06-82.813-66.934-100.35-149.85-20.285-27.477-24.155-37.217-28.612-60.309-3.8074-5.448 5.3138-24.65-4.4781-41.479-7.5941-12.691-25.548-22.968-35.773-19.945-28.509 9.1006-107.48 93.503 18.769 241.43 18.655 22.514 6.0877 16.416 12.31 35.37" stroke-width="5.159"/>
  <g stroke-width="2.5795">
   <path d="m372.42 322.55c-6.5004 28.076-32.636 38.342-42.975 34.535-14.961-5.4789-24.021-83.02 33.266-81.307"/>
   <path d="m392.02 382.51c-8.3783 17.376-3.9931 15.941-26.662 21.534"/>
   <path d="m379.85 364.67c-14.621 12.495-26.879 6.0051-30.366 30.913"/>
  </g>
 </g>
</svg>
