<?xml version="1.0" encoding="UTF-8" standalone="no"?>
<!-- Generator: Adobe Illustrator 19.2.1, SVG Export Plug-In . SVG Version: 6.00 Build 0)  -->

<svg
   xmlns:dc="http://purl.org/dc/elements/1.1/"
   xmlns:cc="http://creativecommons.org/ns#"
   xmlns:rdf="http://www.w3.org/1999/02/22-rdf-syntax-ns#"
   xmlns:svg="http://www.w3.org/2000/svg"
   xmlns="http://www.w3.org/2000/svg"
   xmlns:sodipodi="http://sodipodi.sourceforge.net/DTD/sodipodi-0.dtd"
   xmlns:inkscape="http://www.inkscape.org/namespaces/inkscape"
   version="1.2"
   id="Layer_1"
   x="0px"
   y="0px"
   viewBox="0 0 50.5 50.5"
   xml:space="preserve"
   sodipodi:docname="icon.svg"
   inkscape:version="0.92.4 (5da689c313, 2019-01-14)"><metadata
   id="metadata15"><rdf:RDF><cc:Work
       rdf:about=""><dc:format>image/svg+xml</dc:format><dc:type
         rdf:resource="http://purl.org/dc/dcmitype/StillImage" /></cc:Work></rdf:RDF></metadata><defs
   id="defs13"><marker
     inkscape:isstock="true"
     style="overflow:visible"
     id="Arrow1Send"
     refX="0"
     refY="0"
     orient="auto"
     inkscape:stockid="Arrow1Send"><path
       transform="matrix(-0.2,0,0,-0.2,-1.2,0)"
       style="fill:#000000;fill-opacity:1;fill-rule:evenodd;stroke:#000000;stroke-width:1.00000003pt;stroke-opacity:1"
       d="M 0,0 5,-5 -12.5,0 5,5 Z"
       id="path4714"
       inkscape:connector-curvature="0" /></marker><clipPath
     id="clipPath69-0"><path
       d="m 409.441,126.252 v -43.63 h 147.796 v 43.63"
       id="path71-2"
       inkscape:connector-curvature="0" /></clipPath><clipPath
     id="clipPath101-1"><path
       d="m 409.441,126.252 v -43.63 h 147.796 v 43.63"
       id="path103-6"
       inkscape:connector-curvature="0" /></clipPath><clipPath
     id="clipPath69"><path
       d="m 409.441,126.252 v -43.63 h 147.796 v 43.63"
       id="path71"
       inkscape:connector-curvature="0" /></clipPath><clipPath
     id="clipPath101"><path
       d="m 409.441,126.252 v -43.63 h 147.796 v 43.63"
       id="path103"
       inkscape:connector-curvature="0" /></clipPath><clipPath
     id="clipPath69-4"><path
       d="m 409.441,126.252 v -43.63 h 147.796 v 43.63"
       id="path71-27"
       inkscape:connector-curvature="0" /></clipPath><clipPath
     id="clipPath101-8"><path
       d="m 409.441,126.252 v -43.63 h 147.796 v 43.63"
       id="path103-3"
       inkscape:connector-curvature="0" /></clipPath></defs><sodipodi:namedview
   pagecolor="#ffffff"
   bordercolor="#666666"
   borderopacity="1"
   objecttolerance="10"
   gridtolerance="10"
   guidetolerance="10"
   inkscape:pageopacity="0"
   inkscape:pageshadow="2"
   inkscape:window-width="1680"
   inkscape:window-height="987"
   id="namedview11"
   showgrid="false"
   inkscape:zoom="11.313708"
   inkscape:cx="7.4726056"
   inkscape:cy="33.539355"
   inkscape:window-x="-8"
   inkscape:window-y="-8"
   inkscape:window-maximized="1"
   inkscape:current-layer="layer3" />




<g
   inkscape:groupmode="layer"
   id="layer3"
   inkscape:label="Layer 3"><rect
     style="opacity:1;fill:#000000;fill-opacity:1;stroke:#000000;stroke-width:0.30011296;stroke-linecap:square;stroke-linejoin:miter;stroke-miterlimit:4;stroke-dasharray:none;stroke-dashoffset:0;stroke-opacity:1;paint-order:markers stroke fill"
     id="rect926"
     width="1.5274098"
     height="0.37605894"
     x="20.188412"
     y="20.077631"
     ry="0"
     transform="matrix(0.81912454,-0.57361571,0.60495817,0.79625725,0,0)" /><rect
     transform="matrix(0.81030674,0.58600596,-0.55413279,0.83242829,0,0)"
     ry="0"
     y="-24.6474"
     x="40.744762"
     height="0.37605894"
     width="1.5274098"
     id="rect928"
     style="opacity:1;fill:#000000;fill-opacity:1;stroke:#000000;stroke-width:0.30011296;stroke-linecap:square;stroke-linejoin:miter;stroke-miterlimit:4;stroke-dasharray:none;stroke-dashoffset:0;stroke-opacity:1;paint-order:markers stroke fill" /><path
     style="fill:none;stroke:#000000;stroke-width:0.3;stroke-linecap:butt;stroke-linejoin:miter;stroke-opacity:1;stroke-miterlimit:4;stroke-dasharray:none"
     d="M 35.093738,1.0312499 36.375,0.78124945"
     id="path930"
     inkscape:connector-curvature="0" /><path
     style="fill:none;stroke:#000000;stroke-width:0.3;stroke-linecap:butt;stroke-linejoin:miter;stroke-opacity:1;stroke-miterlimit:4;stroke-dasharray:none"
     d="M 40.1875,0.71874945 41.5,1.0312499"
     id="path932"
     inkscape:connector-curvature="0" /><rect
     transform="matrix(0.02734479,-0.99962606,0.99993443,-0.0114517,0,0)"
     ry="0"
     y="28.457281"
     x="-20.279757"
     height="0.37605894"
     width="1.5274098"
     id="rect938"
     style="opacity:1;fill:#000000;fill-opacity:1;stroke:#000000;stroke-width:0.30011296;stroke-linecap:square;stroke-linejoin:miter;stroke-miterlimit:4;stroke-dasharray:none;stroke-dashoffset:0;stroke-opacity:1;paint-order:markers stroke fill" /><rect
     style="opacity:1;fill:#000000;fill-opacity:1;stroke:#000000;stroke-width:0.30011296;stroke-linecap:square;stroke-linejoin:miter;stroke-miterlimit:4;stroke-dasharray:none;stroke-dashoffset:0;stroke-opacity:1;paint-order:markers stroke fill"
     id="rect940"
     width="1.5274098"
     height="0.37605894"
     x="20.465895"
     y="-48.417656"
     ry="0"
     transform="matrix(0.00624749,0.99998048,-0.99898553,0.04503244,0,0)" /><rect
     style="opacity:1;fill:none;fill-opacity:1;stroke:#000000;stroke-width:0.1;stroke-linecap:square;stroke-linejoin:miter;stroke-miterlimit:4;stroke-dasharray:none;stroke-dashoffset:0;stroke-opacity:1;paint-order:markers stroke fill"
     id="rect942"
     width="18.90625"
     height="11.75"
     x="29"
     y="5.90625"
     ry="0.24218801" /><g
     id="g1023"
     transform="matrix(0.01503164,0,0,0.01503164,38.084003,3.2967397)"><g
       style="fill:#000000;fill-opacity:1"
       transform="matrix(3.9617467,0,0,-3.9617467,-1584.8706,690.47633)"
       id="g11"><g
         style="fill:#000000;fill-opacity:1"
         transform="translate(1.4705494,-0.9803663)"
         id="g2510"><path
           inkscape:connector-curvature="0"
           d="m 426.252,119.898 c -3.379,1.5 -5.394,2.082 -7.395,2.082 -2.1,0 -3.445,-0.752 -3.445,-1.914 0,-3.507 11.897,-2.52 11.897,-10.632 0,-4.473 -3.753,-7.072 -8.967,-7.072 -4.09,0 -6.104,1.058 -8.424,2.256 v 5.018 c 3.346,-2.217 5.394,-3 7.975,-3 2.238,0 3.445,0.783 3.445,2.148 0,3.819 -11.897,2.42 -11.897,10.773 0,4.028 3.481,6.695 8.901,6.695 2.616,0 4.976,-0.549 7.91,-1.811 v -4.543"
           id="path53"
           style="fill:#000000;fill-opacity:1;fill-rule:nonzero;stroke:none" /><path
           inkscape:connector-curvature="0"
           d="m 442.909,103.428 c -1.983,-0.719 -3.66,-1.062 -5.333,-1.062 -5.541,0 -9.123,3.227 -9.123,8.137 0,4.82 3.721,8.225 8.917,8.225 1.605,0 3.657,-0.411 5.298,-1.022 v -3.69 c -1.299,0.69 -2.803,1.068 -4.034,1.068 -2.974,0 -4.887,-1.787 -4.887,-4.545 0,-2.797 1.881,-4.638 4.715,-4.638 1.196,0 2.259,0.274 4.447,1.093 v -3.566"
           id="path55"
           style="fill:#000000;fill-opacity:1;fill-rule:nonzero;stroke:none" /><path
           inkscape:connector-curvature="0"
           d="m 486.109,112.311 c 0.203,2.19 1.475,3.456 3.423,3.456 1.915,0 3.213,-1.302 3.418,-3.456 z m 3.081,6.412 c -4.862,0 -8.323,-3.434 -8.323,-8.266 0,-4.868 3.599,-8.091 9.146,-8.091 1.229,0 4.201,0 7.032,2.095 v 3.081 c -2.319,-1.652 -3.853,-2.221 -5.833,-2.221 -3.125,0 -5.036,1.617 -5.209,4.377 h 11.321 c 0.235,5.761 -3.547,9.025 -8.134,9.025"
           id="path57"
           style="fill:#000000;fill-opacity:1;fill-rule:nonzero;stroke:none" /><path
           inkscape:connector-curvature="0"
           d="m 499.239,102.653 h 4.9502 v 15.779 h -4.9502 z"
           id="path59"
           style="fill:#000000;fill-opacity:1;fill-rule:nonzero;stroke:none" /><path
           inkscape:connector-curvature="0"
           d="m 517.964,106.966 c -1.031,-0.928 -1.888,-1.3 -2.945,-1.3 -2.331,0 -3.806,1.918 -3.806,4.793 0,3.15 1.475,4.966 3.97,4.966 0.893,0 2.059,-0.411 2.781,-0.926 z m 0,18.995 v -8.221 c -1.337,0.647 -2.67,0.988 -4.111,0.988 -4.515,0 -7.639,-3.337 -7.639,-8.166 0,-4.725 3.124,-8.2 7.36,-8.2 1.68,0 2.978,0.44 4.39,1.566 v -1.27 h 4.949 v 23.303 h -4.949"
           id="path61"
           style="fill:#000000;fill-opacity:1;fill-rule:nonzero;stroke:none" /><path
           inkscape:connector-curvature="0"
           d="m 530.24,112.311 c 0.206,2.19 1.471,3.456 3.416,3.456 1.918,0 3.229,-1.302 3.434,-3.456 z m 3.078,6.412 c -4.861,0 -8.316,-3.434 -8.316,-8.266 0,-4.868 3.599,-8.091 9.14,-8.091 1.227,0 4.205,0 7.043,2.095 v 3.081 c -2.322,-1.652 -3.859,-2.221 -5.848,-2.221 -3.108,0 -5.027,1.617 -5.2,4.377 h 11.316 c 0.235,5.761 -3.55,9.025 -8.135,9.025"
           id="path63"
           style="fill:#000000;fill-opacity:1;fill-rule:nonzero;stroke:none" /><g
           style="fill:#000000;fill-opacity:1"
           id="g65"><g
             style="fill:#000000;fill-opacity:1"
             clip-path="url(#clipPath69-4)"
             id="g67"><path
               inkscape:connector-curvature="0"
               d="m 548.863,113.914 h 0.073 c 1.469,3.284 3.114,4.824 5.023,4.824 0.989,0 1.842,-0.377 3.278,-1.439 l -1.362,-4.375 c -1.3,0.82 -2.154,1.163 -2.939,1.163 -1.816,0 -2.978,-1.712 -4.073,-4.606 v -6.807 h -4.956 v 15.775 h 4.956 v -4.535"
               id="path73"
               style="fill:#000000;fill-opacity:1;fill-rule:nonzero;stroke:none" /><path
               inkscape:connector-curvature="0"
               d="m 504.421,125.07 c 0.465,-1.226 -0.372,-2.936 -1.863,-3.816 -1.497,-0.879 -3.079,-0.6 -3.54,0.626 -0.47,1.228 0.363,2.94 1.858,3.815 1.493,0.884 3.076,0.604 3.545,-0.625"
               id="path75"
               style="fill:#000000;fill-opacity:1;fill-rule:nonzero;stroke:none" /></g></g><path
           inkscape:connector-curvature="0"
           d="m 460.738,112.696 c 0,4.276 -2.906,6.027 -5.774,6.027 -1.95,0 -3.553,-0.823 -4.987,-2.638 h -0.068 v 9.876 h -4.955 v -23.262 h 4.955 v 9.997 c 1.159,1.677 2.149,2.394 3.31,2.394 1.541,0 2.565,-1.096 2.565,-3.453 v -5.543 c 1.662,0.854 3.351,1.378 4.954,1.573 v 5.029"
           id="path77"
           style="fill:#000000;fill-opacity:1;fill-rule:nonzero;stroke:none" /><path
           inkscape:connector-curvature="0"
           d="m 473.166,118.728 c -2.018,0 -3.559,-0.75 -5.136,-2.554 v 2.258 h -4.953 v -10.723 c 1.716,-0.171 3.905,-0.958 4.953,-2.258 v 7.369 c 1.302,1.954 2.226,2.605 3.458,2.605 1.403,0 2.469,-0.926 2.469,-3.151 v -9.58 h 4.954 v 9.99 c 0,4.647 -3.282,6.044 -5.745,6.044"
           id="path79"
           style="fill:#000000;fill-opacity:1;fill-rule:nonzero;stroke:none" /><path
           inkscape:connector-curvature="0"
           d="m 481.647,98.163 h -5.756 v -4.09 h 5.553 v -1.755 h -5.553 v -4.219 h 5.928 v -1.753 h -7.858 v 13.568 h 7.686 v -1.751"
           id="path81"
           style="fill:#000000;fill-opacity:1;fill-rule:nonzero;stroke:none" /><path
           inkscape:connector-curvature="0"
           d="m 486.348,86.338 h 1.7631 v 13.58 h -1.7631 z"
           id="path83"
           style="fill:#000000;fill-opacity:1;fill-rule:nonzero;stroke:none" /><path
           inkscape:connector-curvature="0"
           d="m 496.84,93.944 c 1.25,0 2.025,-0.861 2.083,-2.214 h -4.49 c 0.243,1.413 1.056,2.214 2.407,2.214 z m -2.439,-3.391 h 6.281 c 0,3.311 -1.513,4.909 -3.882,4.909 -2.458,0 -4.165,-1.817 -4.165,-4.527 0,-2.477 1.542,-4.764 4.318,-4.764 1.513,0 2.491,0.336 3.574,1.055 v 1.716 c -1.046,-0.685 -2.061,-1.08 -3.129,-1.08 -1.708,0 -2.722,0.916 -2.997,2.691"
           id="path85"
           style="fill:#000000;fill-opacity:1;fill-rule:nonzero;stroke:none" /><path
           inkscape:connector-curvature="0"
           d="m 512.195,92.942 c -1.014,0.694 -1.691,0.898 -2.463,0.898 -1.614,0 -2.732,-1.238 -2.732,-3.051 0,-1.847 1.19,-2.96 3.027,-2.96 0.756,0 1.476,0.196 2.365,0.594 v -1.739 c -0.594,-0.28 -1.726,-0.513 -2.66,-0.513 -2.67,0 -4.523,1.836 -4.523,4.46 0,2.961 1.693,4.831 4.402,4.831 1.035,0 1.731,-0.241 2.584,-0.616 v -1.904"
           id="path87"
           style="fill:#000000;fill-opacity:1;fill-rule:nonzero;stroke:none" /><path
           inkscape:connector-curvature="0"
           d="m 520.228,95.291 h 2.83 v -1.589 h -2.83 V 89.11 c 0,-1.051 0.761,-1.355 1.275,-1.355 0.638,0 1.296,0.223 2.01,0.664 v -1.654 c -0.619,-0.341 -1.569,-0.594 -2.151,-0.594 -1.92,0 -2.891,1.192 -2.891,2.806 v 4.725 h -1.555 v 0.197 l 3.312,3.241 v -1.849"
           id="path89"
           style="fill:#000000;fill-opacity:1;fill-rule:nonzero;stroke:none" /><path
           inkscape:connector-curvature="0"
           d="M 529.8,95.291 V 93.22 h 0.036 c 0.899,1.585 1.754,2.242 2.586,2.242 0.718,0 1.39,-0.337 2.129,-1.036 l -0.934,-1.554 c -0.537,0.531 -1.231,0.897 -1.65,0.897 -1.214,0 -2.167,-1.234 -2.167,-2.763 v -4.668 h -1.761 v 8.953 h 1.761"
           id="path91"
           style="fill:#000000;fill-opacity:1;fill-rule:nonzero;stroke:none" /><path
           inkscape:connector-curvature="0"
           d="m 552.618,92.942 c -1.019,0.694 -1.695,0.898 -2.472,0.898 -1.61,0 -2.719,-1.238 -2.719,-3.051 0,-1.847 1.191,-2.96 3.017,-2.96 0.757,0 1.473,0.196 2.374,0.594 v -1.739 c -0.607,-0.28 -1.74,-0.513 -2.672,-0.513 -2.666,0 -4.527,1.836 -4.527,4.46 0,2.961 1.701,4.831 4.41,4.831 1.037,0 1.726,-0.241 2.589,-0.616 v -1.904"
           id="path93"
           style="fill:#000000;fill-opacity:1;fill-rule:nonzero;stroke:none" /><path
           inkscape:connector-curvature="0"
           d="m 539.225,86.338 h 1.7628 v 8.9527 h -1.7628 z"
           id="path95"
           style="fill:#000000;fill-opacity:1;fill-rule:nonzero;stroke:none" /><g
           style="fill:#000000;fill-opacity:1"
           id="g97"><g
             style="fill:#000000;fill-opacity:1"
             clip-path="url(#clipPath101-8)"
             id="g99"><path
               inkscape:connector-curvature="0"
               d="m 541.047,98.507 c 0.172,-0.432 -0.129,-1.043 -0.659,-1.354 -0.534,-0.312 -1.099,-0.212 -1.26,0.221 -0.161,0.437 0.131,1.043 0.667,1.355 0.529,0.316 1.091,0.215 1.252,-0.222"
               id="path105"
               style="fill:#000000;fill-opacity:1;fill-rule:nonzero;stroke:none" /><path
               inkscape:connector-curvature="0"
               d="m 462.13,97.783 c -0.311,0 -0.442,-0.051 -0.569,-0.193 -0.05,-0.055 -0.07,-0.111 -0.088,-0.223 l -1.581,-5.996 c -0.371,-2.103 -2.954,-4.203 -6.321,-4.203 h -4.681 l 0.812,3.081 h 3.007 c 0.307,0 0.547,0.114 0.748,0.338 0.074,0.087 0.17,0.223 0.183,0.363 l 1.248,5.239 c 0.368,2.104 2.591,4.428 5.957,4.428 h 4.794 l -0.613,-2.834 z m 1.08,-3.654 0.535,1.94 h 4.87 c 0.601,2.813 0.128,5.419 -1.579,7.126 -3.455,3.455 -10.683,2.281 -16.068,-2.871 -0.841,-0.8 -1.551,-1.665 -2.198,-2.549 h 2.932 l -0.682,-1.944 h -3.503 c -0.335,-0.613 -0.649,-1.221 -0.889,-1.838 h 4.154 l -0.665,-1.944 h -4.082 c -0.698,-2.97 -0.253,-5.74 1.503,-7.499 3.412,-3.411 10.618,-2.212 16,2.939 0.942,0.896 1.72,1.863 2.423,2.856 h -3.767 l 0.574,1.94 h 4.404 c 0.323,0.617 0.62,1.227 0.852,1.844 h -4.814"
               id="path107"
               style="fill:#000000;fill-opacity:1;fill-rule:nonzero;stroke:none" /></g></g></g></g></g><text
     xml:space="preserve"
     style="font-style:normal;font-variant:normal;font-weight:normal;font-stretch:normal;font-size:2.43309331px;line-height:1.25;font-family:sans-serif;-inkscape-font-specification:'sans-serif, Normal';font-variant-ligatures:normal;font-variant-caps:normal;font-variant-numeric:normal;font-feature-settings:normal;text-align:start;letter-spacing:0px;word-spacing:0px;writing-mode:lr-tb;text-anchor:start;fill:#000000;fill-opacity:1;stroke:none;stroke-width:0.03512767"
     x="29.274324"
     y="16.621939"
     id="text1043"><tspan
       sodipodi:role="line"
       id="tspan1041"
       x="29.274324"
       y="16.621939"
       style="font-style:normal;font-variant:normal;font-weight:normal;font-stretch:normal;font-size:2.43309331px;font-family:sans-serif;-inkscape-font-specification:'sans-serif, Normal';font-variant-ligatures:normal;font-variant-caps:normal;font-variant-numeric:normal;font-feature-settings:normal;text-align:start;writing-mode:lr-tb;text-anchor:start;stroke-width:0.03512767">MTN506004</tspan></text>
<text
     id="text4750"
     y="8.8401375"
     x="29.407816"
     style="font-style:normal;font-weight:normal;font-size:1.74000168px;line-height:1.25;font-family:sans-serif;letter-spacing:0px;word-spacing:0px;fill:#000000;fill-opacity:1;stroke:none;stroke-width:0.04350004"
     xml:space="preserve"><tspan
       style="stroke-width:0.04350004"
       y="8.8401375"
       x="29.407816"
       id="tspan4748"
       sodipodi:role="line">CONNECT</tspan><tspan
       style="stroke-width:0.04350004"
       y="11.01514"
       x="29.407816"
       sodipodi:role="line"
       id="tspan1366">4 channel Sensor</tspan><tspan
       style="stroke-width:0.04350004"
       y="13.190142"
       x="29.407816"
       sodipodi:role="line"
       id="tspan1370">Radio Transmitter</tspan></text>
<path
     style="fill:none;stroke:#000000;stroke-width:0.6;stroke-linecap:butt;stroke-linejoin:miter;stroke-opacity:1;stroke-miterlimit:4;stroke-dasharray:none"
     d="m 32.4375,22.625 c 0,0 0.0022,2.501281 0.0625,3.75 0.0504,1.043779 0.288507,2.080715 0.25,3.125 -0.06525,1.769631 -0.343332,3.542448 -0.8125,5.25 -0.458162,1.667495 -1.178841,3.258509 -1.9375,4.8125 -0.528294,1.082124 -1.055982,2.188107 -1.8125,3.125 -0.778282,0.963846 -1.724158,1.805471 -2.75,2.5 -1.381082,0.935038 -2.917594,1.660551 -4.5,2.1875 -1.670798,0.556384 -3.426509,1.006129 -5.1875,1 -1.593434,-0.0055 -3.187237,-0.400588 -4.6875,-0.9375 C 9.395221,46.840816 7.7476631,46.05627 6.375,44.9375 5.1364672,43.928051 4.0948535,42.643153 3.3125,41.25 2.5576299,39.905787 2.1164135,38.386414 1.8125,36.875 1.5037958,35.339761 1.4720971,33.75322 1.5,32.1875 c 0.058213,-3.266531 1,-9.75 1,-9.75"
     id="path1306"
     inkscape:connector-curvature="0"
     sodipodi:nodetypes="caaaaaaaaaaaaac" /><path
     style="fill:none;stroke:#000000;stroke-width:1px;stroke-linecap:round;stroke-linejoin:miter;stroke-opacity:1"
     d="m 2.5,22.4375 -0.9375,10"
     id="path1308"
     inkscape:connector-curvature="0" /><path
     style="fill:none;stroke:#000000;stroke-width:0.6;stroke-linecap:butt;stroke-linejoin:miter;stroke-opacity:1;stroke-miterlimit:4;stroke-dasharray:none"
     d="m 33.3125,22.75 c 0,0 0.01244,3.33338 0,5 -0.01042,1.39595 0.103109,2.801369 -0.0625,4.1875 -0.190065,1.590822 -0.550442,3.169397 -1.0625,4.6875 -0.497611,1.475272 -1.173711,2.893287 -1.9375,4.25 -0.581119,1.032237 -1.17252,2.089863 -2,2.9375 -1.074269,1.100438 -2.418656,1.917734 -3.75,2.6875 -1.307554,0.756011 -2.675233,1.451415 -4.125,1.875 -1.555422,0.454455 -3.204331,0.886653 -4.8125,0.6875 -1.474346,-0.18258 -2.795052,-1.02548 -4.125,-1.6875 -1.279426,-0.636871 -2.5932996,-1.26812 -3.6875,-2.1875 -1.1764416,-0.988482 -2.3445965,-2.110195 -3,-3.5 -0.7757385,-1.644979 -1.0676893,-3.56095 -0.9375,-5.375 0.1631747,-2.273665 0.9787471,-4.529649 2.125,-6.5 1.0901626,-1.873935 2.5746044,-3.604749 4.375,-4.8125 2.025042,-1.358449 4.444169,-2.307023 6.875,-2.5 2.305341,-0.183015 4.79682,0.178866 6.8125,1.3125 1.838322,1.033887 3.57476,2.6894 4.25,4.6875 0.70955,2.099626 0.436225,4.646505 -0.5625,6.625 -1.024471,2.029498 -3.104891,3.457138 -5.125,4.5 -2.16876,1.119602 -4.768165,2.321819 -7.125,1.6875 C 12.80488,40.603956 10.771001,38.099404 9.5,35.6875 8.4477287,33.690667 8.2730806,31.25113 8.4375,29 c 0.182875,-2.503812 1.170823,-4.920808 2.25,-7.1875 0.92399,-1.940739 2.160445,-3.745746 3.5625,-5.375 C 15.202501,15.330649 17.5,13.5 17.5,13.5 v 0"
     id="path1310"
     inkscape:connector-curvature="0"
     sodipodi:nodetypes="caaaaaaaaaaaaaaaaaaaaaaaacc" /><g
     id="g1318"><path
       inkscape:connector-curvature="0"
       id="path1312"
       d="m 17.5,13.5 -0.5625,-0.4375 2.1875,-1.5 0.875,-0.375 4.6875,-3.4375 0.125,0.5625 -4.5625,3.375 -0.6875,1.125 -1.75,1.25 z"
       style="fill:none;stroke:#000000;stroke-width:0.3;stroke-linecap:butt;stroke-linejoin:miter;stroke-opacity:1;stroke-miterlimit:4;stroke-dasharray:none" /><path
       sodipodi:nodetypes="ccc"
       inkscape:connector-curvature="0"
       id="path1314"
       d="M 17.828125,14.144531 17.027344,13.808594 16.832031,13.019531"
       style="fill:none;stroke:#000000;stroke-width:0.30000001;stroke-linecap:butt;stroke-linejoin:miter;stroke-miterlimit:4;stroke-dasharray:none;stroke-opacity:1" /></g><g
     id="g1324"
     transform="rotate(-19.774766,21.877574,28.291154)"><path
       style="fill:none;stroke:#000000;stroke-width:0.30000001;stroke-linecap:butt;stroke-linejoin:miter;stroke-miterlimit:4;stroke-dasharray:none;stroke-opacity:1"
       d="m 17.5,13.5 -0.5625,-0.4375 2.1875,-1.5 0.875,-0.375 4.6875,-3.4375 0.125,0.5625 -4.5625,3.375 -0.6875,1.125 -1.75,1.25 z"
       id="path1320"
       inkscape:connector-curvature="0" /><path
       style="fill:none;stroke:#000000;stroke-width:0.30000001;stroke-linecap:butt;stroke-linejoin:miter;stroke-miterlimit:4;stroke-dasharray:none;stroke-opacity:1"
       d="M 17.828125,14.144531 17.027344,13.808594 16.832031,13.019531"
       id="path1322"
       inkscape:connector-curvature="0"
       sodipodi:nodetypes="ccc" /></g><g
     transform="rotate(-19.774766,22.26833,22.696167)"
     id="g1330"><path
       inkscape:connector-curvature="0"
       id="path1326"
       d="m 17.5,13.5 -0.5625,-0.4375 2.1875,-1.5 0.875,-0.375 4.6875,-3.4375 0.125,0.5625 -4.5625,3.375 -0.6875,1.125 -1.75,1.25 z"
       style="fill:none;stroke:#000000;stroke-width:0.30000001;stroke-linecap:butt;stroke-linejoin:miter;stroke-miterlimit:4;stroke-dasharray:none;stroke-opacity:1" /><path
       sodipodi:nodetypes="ccc"
       inkscape:connector-curvature="0"
       id="path1328"
       d="M 17.828125,14.144531 17.027344,13.808594 16.832031,13.019531"
       style="fill:none;stroke:#000000;stroke-width:0.30000001;stroke-linecap:butt;stroke-linejoin:miter;stroke-miterlimit:4;stroke-dasharray:none;stroke-opacity:1" /></g><g
     id="g1336"
     transform="rotate(-28.731851,17.298744,22.882189)"><path
       style="fill:none;stroke:#000000;stroke-width:0.30000001;stroke-linecap:butt;stroke-linejoin:miter;stroke-miterlimit:4;stroke-dasharray:none;stroke-opacity:1"
       d="m 17.5,13.5 -0.5625,-0.4375 2.1875,-1.5 0.875,-0.375 4.6875,-3.4375 0.125,0.5625 -4.5625,3.375 -0.6875,1.125 -1.75,1.25 z"
       id="path1332"
       inkscape:connector-curvature="0" /><path
       style="fill:none;stroke:#000000;stroke-width:0.30000001;stroke-linecap:butt;stroke-linejoin:miter;stroke-miterlimit:4;stroke-dasharray:none;stroke-opacity:1"
       d="M 17.828125,14.144531 17.027344,13.808594 16.832031,13.019531"
       id="path1334"
       inkscape:connector-curvature="0"
       sodipodi:nodetypes="ccc" /></g><g
     transform="rotate(-38.450785,21.563217,27.001825)"
     id="g1342"><path
       inkscape:connector-curvature="0"
       id="path1338"
       d="m 17.5,13.5 -0.5625,-0.4375 2.1875,-1.5 0.875,-0.375 4.6875,-3.4375 0.125,0.5625 -4.5625,3.375 -0.6875,1.125 -1.75,1.25 z"
       style="fill:none;stroke:#000000;stroke-width:0.30000001;stroke-linecap:butt;stroke-linejoin:miter;stroke-miterlimit:4;stroke-dasharray:none;stroke-opacity:1" /><path
       sodipodi:nodetypes="ccc"
       inkscape:connector-curvature="0"
       id="path1340"
       d="M 17.828125,14.144531 17.027344,13.808594 16.832031,13.019531"
       style="fill:none;stroke:#000000;stroke-width:0.30000001;stroke-linecap:butt;stroke-linejoin:miter;stroke-miterlimit:4;stroke-dasharray:none;stroke-opacity:1" /></g><g
     id="g1348"
     transform="rotate(-22.042552,34.090135,29.937204)"><path
       style="fill:none;stroke:#000000;stroke-width:0.30000001;stroke-linecap:butt;stroke-linejoin:miter;stroke-miterlimit:4;stroke-dasharray:none;stroke-opacity:1"
       d="m 17.5,13.5 -0.5625,-0.4375 2.1875,-1.5 0.875,-0.375 4.6875,-3.4375 0.125,0.5625 -4.5625,3.375 -0.6875,1.125 -1.75,1.25 z"
       id="path1344"
       inkscape:connector-curvature="0" /><path
       style="fill:none;stroke:#000000;stroke-width:0.30000001;stroke-linecap:butt;stroke-linejoin:miter;stroke-miterlimit:4;stroke-dasharray:none;stroke-opacity:1"
       d="M 17.828125,14.144531 17.027344,13.808594 16.832031,13.019531"
       id="path1346"
       inkscape:connector-curvature="0"
       sodipodi:nodetypes="ccc" /></g><path
     style="fill:none;stroke:#000000;stroke-width:0.60000002;stroke-linecap:butt;stroke-linejoin:miter;stroke-miterlimit:4;stroke-dasharray:none;stroke-opacity:1"
     d="m 34,22.625 c 0,0 0.507676,6.291513 0,9.375 -0.464504,2.821273 -1.363238,5.624552 -2.75,8.125 -1.084181,1.954869 -2.53228,3.756975 -4.25,5.1875 -1.755499,1.461988 -3.838729,2.572167 -6,3.3125 -2.03491,0.697048 -4.231995,1.185109 -6.375,1 C 12.498341,49.441303 10.359121,48.715139 8.5625,47.5625 7.2104925,46.695107 6.0791135,45.438315 5.25,44.0625 3.9102004,41.839263 2.6441994,39.281079 2.75,36.6875 2.8462245,34.328667 4.1038847,32.043784 5.5625,30.1875 7.6760738,27.497693 10.521261,25.130267 13.75,24 c 2.242394,-0.784983 4.850826,-0.875007 7.125,-0.1875 2.390129,0.722561 4.833342,2.175579 6.125,4.3125 1.412928,2.33755 2.134177,5.612628 1.0625,8.125 -1.075753,2.521927 -4.033142,3.980777 -6.625,4.875 -2.620506,0.904107 -5.776395,1.369211 -8.3125,0.25 C 10.813724,40.355008 9.0564737,37.997185 8.1875,35.625 7.1985721,32.925355 7.9462927,29.858989 8.25,27 8.5200527,24.457823 9.8068742,19.490241 9.8068742,19.490241 l 0.1782603,-0.53559"
     id="path1350"
     inkscape:connector-curvature="0"
     sodipodi:nodetypes="caaaaaaaaaaaaaaaaacc" /><path
     style="fill:none;stroke:#000000;stroke-width:0.60000002;stroke-linecap:butt;stroke-linejoin:miter;stroke-miterlimit:4;stroke-dasharray:none;stroke-opacity:1"
     d="m 34.8125,22.6875 c 0,0 0.479759,5.760241 -0.0625,8.5625 -0.399836,2.066249 -1.414087,3.971816 -2.3125,5.875 -1.098762,2.3276 -2.018624,4.845443 -3.75,6.75 -1.632598,1.795898 -3.731373,3.26247 -6,4.125 -2.511989,0.955057 -5.332363,1.325477 -8,1 C 12.959267,48.789139 11.202464,48.173452 9.8125,47.125 8.1259852,45.85286 6.9386935,43.954993 6,42.0625 5.1149697,40.278198 4.318243,38.303428 4.375,36.3125 c 0.052757,-1.850604 0.9097816,-3.633641 1.8125,-5.25 1.3787255,-2.468672 3.1034531,-4.878665 5.375,-6.5625 1.448362,-1.073631 3.238108,-1.680178 5,-2.0625 1.690943,-0.366926 3.506984,-0.599555 5.1875,-0.1875 2.374196,0.582142 4.816319,1.741862 6.375,3.625 1.151023,1.390621 1.692587,3.320732 1.75,5.125 0.07072,2.222583 -0.483784,4.609502 -1.75,6.4375 -1.257685,1.815682 -3.296872,3.126765 -5.375,3.875 -2.062726,0.742689 -4.504111,1.192125 -6.5625,0.4375 C 13.600731,40.801666 11.516816,38.446608 10.25,36 c -0.9984949,-1.928398 -0.9176771,-4.267492 -1,-6.4375 -0.080805,-2.129994 0.027086,-4.296598 0.5,-6.375 0.545885,-2.399099 2.663572,-6.883921 2.663572,-6.883921"
     id="path1352"
     inkscape:connector-curvature="0"
     sodipodi:nodetypes="caaaaaaaaaaaaaaaaaaaac" /><path
     style="fill:none;stroke:#000000;stroke-width:0.60000002;stroke-linecap:butt;stroke-linejoin:miter;stroke-miterlimit:4;stroke-dasharray:none;stroke-opacity:1"
     d="m 35.875,22.5625 c 0,0 -0.845819,8.809673 -2.5625,12.8125 -1.555975,3.628105 -3.700022,7.259192 -6.8125,9.6875 -2.745395,2.141916 -6.268585,3.818894 -9.75,3.75 -2.948351,-0.05835 -5.966755,-1.490482 -8.125,-3.5 -1.8890141,-1.75884 -3.0031739,-4.355269 -3.5625,-6.875 -0.4382942,-1.97449 -0.4104013,-4.150804 0.25,-6.0625 0.8382245,-2.42645 2.7151731,-4.404825 4.5,-6.25 1.683257,-1.74017 3.438586,-3.717146 5.75,-4.4375 2.250714,-0.701437 4.863358,-0.474412 7.0625,0.375 2.582975,0.997667 5.428951,2.671254 6.4375,5.25 1.24162,3.174682 0.611653,7.400812 -1.4375,10.125 -1.34533,1.78851 -3.918039,2.378509 -6.125,2.75 -2.557499,0.430496 -5.346348,0.286453 -7.75,-0.6875 -2.237534,-0.906643 -4.538726,-2.406446 -5.625,-4.5625 -1.2760823,-2.532788 -1.1680082,-5.777035 -0.375,-8.5 0.6490696,-2.228721 2.748001,-3.746178 3.994386,-5.704497 1.048802,-1.647877 2.925524,-5.077466 2.925524,-5.077466"
     id="path1354"
     inkscape:connector-curvature="0"
     sodipodi:nodetypes="caaaaaaaaaaaaaaaac" /><path
     style="fill:none;stroke:#000000;stroke-width:0.60000002;stroke-linecap:butt;stroke-linejoin:miter;stroke-miterlimit:4;stroke-dasharray:none;stroke-opacity:1"
     d="m 36.625,22.625 c 0,0 -1.008746,6.460763 -1.8125,9.625 -0.468767,1.845452 -1.00964,3.683276 -1.75,5.4375 -0.91681,2.172308 -1.780358,4.457794 -3.3125,6.25 -1.489135,1.741899 -3.428738,3.144384 -5.5,4.125 -2.210381,1.04648 -4.679503,1.771111 -7.125,1.75 C 14.431712,49.78925 11.797298,48.789288 9.3125,47.75 7.7270048,47.086853 6.1338365,46.294996 4.875,45.125 3.778612,44.105988 2.8627841,42.829491 2.3125,41.4375 1.7319217,39.968877 1.5255979,38.326085 1.625,36.75 1.7325373,35.044927 2.1829904,33.312944 3,31.8125 c 0.8257105,-1.516423 2.2113147,-2.659349 3.4375,-3.875 1.5309589,-1.517806 2.9015409,-3.382228 4.875,-4.25 2.398783,-1.054796 5.239039,-1.369016 7.8125,-0.875 2.691062,0.516591 5.776562,1.564662 7.25,3.875 1.413672,2.216625 1.500204,5.470306 0.4375,7.875 -1.107408,2.505851 -3.880013,4.055828 -6.375,5.1875 -1.809101,0.820569 -3.974725,1.57891 -5.875,1 -2.777012,-0.846003 -5.4479706,-3.2287 -6.3125,-6 -0.8493242,-2.722559 1.0906657,-5.6003 1.75,-8.375 0.523392,-2.202611 1.203202,-4.365583 1.75,-6.5625 0.434163,-1.744374 1.215099,-5.254102 1.215099,-5.254102"
     id="path1356"
     inkscape:connector-curvature="0"
     sodipodi:nodetypes="caaaaaaaaaaaaaaaaaaaac" /><path
     style="fill:none;stroke:#000000;stroke-width:0.60000002;stroke-linecap:butt;stroke-linejoin:miter;stroke-miterlimit:4;stroke-dasharray:none;stroke-opacity:1"
     d="m 37.375,22.6875 c 0,0 -0.830071,6.085883 -1.5625,9.0625 -0.632826,2.571826 -1.068346,5.295305 -2.4375,7.5625 -1.431766,2.370876 -3.507383,4.402104 -5.8125,5.9375 -2.389081,1.591323 -5.145275,2.886565 -8,3.1875 -2.585254,0.272529 -5.351703,-0.171508 -7.6875,-1.3125 -2.0273156,-0.990305 -3.8965359,-2.594486 -5,-4.5625 -1.2349194,-2.202463 -1.715805,-4.927836 -1.4375,-7.4375 0.2179941,-1.9658 1.5009857,-3.663242 2.375,-5.4375 1.0301157,-2.091145 1.4475654,-4.813885 3.375,-6.125 2.031905,-1.38218 4.93518,-1.559925 7.3125,-0.9375 3.140019,0.822114 6.285076,2.948488 7.8125,5.8125 0.804857,1.509156 0.861895,3.527837 0.25,5.125 -1.069876,2.792581 -3.443978,5.529587 -6.3125,6.375 -2.783095,0.820236 -6.233392,-0.06368 -8.5,-1.875 -2.4098512,-1.925792 -3.795499,-5.293459 -3.9375,-8.375 -0.118312,-2.567471 2.625,-7.25 2.625,-7.25"
     id="path1358"
     inkscape:connector-curvature="0"
     sodipodi:nodetypes="caaaaaaaaaaaaaaac" /><path
     style="fill:none;stroke:#000000;stroke-width:0.60000002;stroke-linecap:butt;stroke-linejoin:miter;stroke-miterlimit:4;stroke-dasharray:none;stroke-opacity:1"
     d="m 38.15782,22.75 c 0,0 -1.378623,5.758827 -2.47032,8.5 -1.196269,3.003747 -2.525628,6.017644 -4.4375,8.625 -1.803208,2.459163 -6.5,6.4375 -6.5,6.4375"
     id="path1360"
     inkscape:connector-curvature="0"
     sodipodi:nodetypes="caac" /><path
     style="fill:none;stroke:#000000;stroke-width:0.60000002;stroke-linecap:butt;stroke-linejoin:miter;stroke-miterlimit:4;stroke-dasharray:none;stroke-opacity:1"
     d="m 38.99751,22.639515 c 0,0 -1.149442,4.01502 -1.62251,6.047985 -0.413927,1.778811 -0.444939,3.656244 -1.0625,5.375 -0.608331,1.693068 -1.465323,3.324255 -2.5625,4.75 -1.986504,2.581397 -4.313666,5.042444 -7.125,6.6875 -2.394195,1.400966 -5.171181,2.29419 -7.9375,2.5 -2.397796,0.178392 -4.886278,-0.24786 -7.125,-1.125 C 9.1576667,45.932777 6.4221488,44.795975 5.125,42.5625 3.5200414,39.799027 3.4380039,36.035405 4.4375,33 c 1.0721273,-3.255981 3.7052625,-6.122196 6.6875,-7.8125 2.702557,-1.531784 6.227656,-2.505632 9.1875,-1.5625 2.217696,0.706652 3.854309,2.877347 4.9375,4.9375 0.907072,1.725186 1.557012,3.864661 1.0625,5.75 -0.66796,2.546616 -2.570256,5.213887 -5.0625,6.0625 -3.272804,1.114395 -8.074455,0.533593 -10.125,-2.25 -3.4114702,-4.631033 1.418848,-17.197333 1.418848,-17.197333"
     id="path1362"
     inkscape:connector-curvature="0"
     sodipodi:nodetypes="caaaaaaaaaaaaaac" /></g><g
   inkscape:groupmode="layer"
   id="layer2"
   inkscape:label="Layer 2">

<path
   style="fill:none;stroke:#000000;stroke-width:0.30000001;stroke-linecap:butt;stroke-linejoin:miter;stroke-miterlimit:4;stroke-dasharray:none;stroke-opacity:1"
   d="m 46.554687,23.078125 -1.375,-0.03125 0.0078,-0.390625 -13.9375,0.0625 -0.0078,0.390625 h -1.28125 l 0.01561,-0.40625 c 0,0 -0.560194,-0.04417 -0.820312,-0.140625 -0.398648,-0.147826 -0.827707,-0.324597 -1.09375,-0.65625 -0.350399,-0.436813 -0.534634,-1.033774 -0.53125,-1.59375 0.04252,-7.037279 0.06376,-9.448879 0,-15.34375 -0.0067,-0.6188576 0.817543,-1.0496508 1.376896,-1.3806869 1.708174,-1.0109325 2.417159,-1.2749275 3.685604,-1.7755632 0.81211,-0.3205274 2.5,-0.78125 2.5,-0.78125 V 0.61316621 L 36.3828,0.60535321 36.375,0.78124945 c 0,0 1.264165,-0.12230581 1.898438,-0.1328125 0.638363,-0.0105745 1.914062,0.0703125 1.914062,0.0703125 L 40.1953,0.60535321 41.5,0.59754121 V 1.0312499 c 0,0 1.278576,0.2612995 1.90625,0.4375 0.729433,0.2047662 1.472382,0.3926721 2.15625,0.71875 1.95715,1.0378747 1.702009,0.882726 2.739899,1.7926912 C 48.580355,4.2622069 49.000715,4.6352803 49,5.03125 c -0.0089,4.9355843 0.0625,14.4375 0.0625,14.4375 L 48.75,21.40625 47.71875,22.4375 47.125,22.625 h -0.5625 z"
   id="path924"
   inkscape:connector-curvature="0"
   sodipodi:nodetypes="cccccccaasssaccccaccccaccscccccc" /><path
   style="fill:none;stroke:#000000;stroke-width:0.3;stroke-linecap:butt;stroke-linejoin:miter;stroke-opacity:1;stroke-miterlimit:4;stroke-dasharray:none"
   d="M 29.97655,22.703125 31.25,22.71875"
   id="path934"
   inkscape:connector-curvature="0" /><path
   style="fill:none;stroke:#000000;stroke-width:0.3;stroke-linecap:butt;stroke-linejoin:miter;stroke-opacity:1;stroke-miterlimit:4;stroke-dasharray:none"
   d="m 46.5625,22.625 -1.375,0.03125"
   id="path936"
   inkscape:connector-curvature="0" /></g><g
   inkscape:groupmode="layer"
   id="layer1"
   inkscape:label="Layer 1" /><style
   id="style2"
   type="text/css">
	.st0{fill:none;stroke:#000000;stroke-width:2;stroke-linecap:round;stroke-linejoin:round;stroke-miterlimit:10;}
</style></svg>